<?xml version="1.0" encoding="UTF-8" standalone="no"?>
<!-- Created with Inkscape (http://www.inkscape.org/) -->

<svg
   version="1.1"
   id="svg178"
   width="60mm"
   height="44mm"
   viewBox="0 0 226.77165 166.29921"
   sodipodi:docname="f1-15.svg"
   inkscape:version="1.2.2 (b0a8486541, 2022-12-01)"
   inkscape:export-filename="f1-15.pdf"
   inkscape:export-xdpi="96"
   inkscape:export-ydpi="96"
   xmlns:inkscape="http://www.inkscape.org/namespaces/inkscape"
   xmlns:sodipodi="http://sodipodi.sourceforge.net/DTD/sodipodi-0.dtd"
   xmlns="http://www.w3.org/2000/svg"
   xmlns:svg="http://www.w3.org/2000/svg"
   xmlns:ns4="http://www.iki.fi/pav/software/textext/">
  <defs
     id="defs182">
    <marker
       style="overflow:visible"
       id="marker4353"
       refX="0"
       refY="0"
       orient="auto-start-reverse"
       inkscape:stockid="Arrow1"
       markerWidth="4.0606604"
       markerHeight="6.7071066"
       viewBox="0 0 4.0606602 6.7071068"
       inkscape:isstock="true"
       inkscape:collect="always"
       preserveAspectRatio="xMidYMid">
      <path
         style="fill:none;stroke:context-stroke;stroke-width:1;stroke-linecap:butt"
         d="M 3,-3 0,0 3,3"
         id="path4351"
         transform="rotate(180,0.125,0)"
         sodipodi:nodetypes="ccc" />
    </marker>
    <marker
       style="overflow:visible"
       id="marker3728"
       refX="0"
       refY="0"
       orient="auto-start-reverse"
       inkscape:stockid="Arrow1"
       markerWidth="4.0606604"
       markerHeight="6.7071066"
       viewBox="0 0 4.0606602 6.7071068"
       inkscape:isstock="true"
       inkscape:collect="always"
       preserveAspectRatio="xMidYMid">
      <path
         style="fill:none;stroke:context-stroke;stroke-width:1;stroke-linecap:butt"
         d="M 3,-3 0,0 3,3"
         id="path3726"
         transform="rotate(180,0.125,0)"
         sodipodi:nodetypes="ccc" />
    </marker>
    <marker
       style="overflow:visible"
       id="marker3872"
       refX="0"
       refY="0"
       orient="auto-start-reverse"
       inkscape:stockid="Arrow1"
       markerWidth="4.0606604"
       markerHeight="6.7071066"
       viewBox="0 0 4.0606602 6.7071068"
       inkscape:isstock="true"
       inkscape:collect="always"
       preserveAspectRatio="xMidYMid">
      <path
         style="fill:none;stroke:context-stroke;stroke-width:1;stroke-linecap:butt"
         d="M 3,-3 0,0 3,3"
         id="path3870"
         transform="rotate(180,0.125,0)"
         sodipodi:nodetypes="ccc" />
    </marker>
    <marker
       style="overflow:visible"
       id="TriangleStart"
       refX="0"
       refY="0"
       orient="auto-start-reverse"
       inkscape:stockid="TriangleStart"
       markerWidth="5.3244081"
       markerHeight="6.155385"
       viewBox="0 0 5.3244081 6.1553851"
       inkscape:isstock="true"
       inkscape:collect="always"
       preserveAspectRatio="xMidYMid">
      <path
         transform="scale(0.5)"
         style="fill:context-stroke;fill-rule:evenodd;stroke:context-stroke;stroke-width:1pt"
         d="M 5.77,0 -2.88,5 V -5 Z"
         id="path135" />
    </marker>
    <marker
       style="overflow:visible"
       id="TriangleStart-3"
       refX="0"
       refY="0"
       orient="auto-start-reverse"
       inkscape:stockid="TriangleStart"
       markerWidth="5.3244081"
       markerHeight="6.155385"
       viewBox="0 0 5.3244081 6.1553851"
       inkscape:isstock="true"
       inkscape:collect="always"
       preserveAspectRatio="xMidYMid">
      <path
         transform="scale(0.5)"
         style="fill:context-stroke;fill-rule:evenodd;stroke:context-stroke;stroke-width:1pt"
         d="M 5.77,0 -2.88,5 V -5 Z"
         id="path135-6" />
    </marker>
    <marker
       style="overflow:visible"
       id="TriangleStart-3-5"
       refX="0"
       refY="0"
       orient="auto-start-reverse"
       inkscape:stockid="TriangleStart"
       markerWidth="5.3244081"
       markerHeight="6.155385"
       viewBox="0 0 5.3244081 6.1553851"
       inkscape:isstock="true"
       inkscape:collect="always"
       preserveAspectRatio="xMidYMid">
      <path
         transform="scale(0.5)"
         style="fill:context-stroke;fill-rule:evenodd;stroke:context-stroke;stroke-width:1pt"
         d="M 5.77,0 -2.88,5 V -5 Z"
         id="path135-6-3" />
    </marker>
    <marker
       style="overflow:visible"
       id="TriangleStart-36"
       refX="0"
       refY="0"
       orient="auto-start-reverse"
       inkscape:stockid="TriangleStart"
       markerWidth="5.3244081"
       markerHeight="6.155385"
       viewBox="0 0 5.3244081 6.1553851"
       inkscape:isstock="true"
       inkscape:collect="always"
       preserveAspectRatio="xMidYMid">
      <path
         transform="scale(0.5)"
         style="fill:context-stroke;fill-rule:evenodd;stroke:context-stroke;stroke-width:1pt"
         d="M 5.77,0 -2.88,5 V -5 Z"
         id="path135-7" />
    </marker>
  </defs>
  <sodipodi:namedview
     id="namedview180"
     pagecolor="#ffffff"
     bordercolor="#000000"
     borderopacity="0.25"
     inkscape:showpageshadow="2"
     inkscape:pageopacity="0.0"
     inkscape:pagecheckerboard="0"
     inkscape:deskcolor="#d1d1d1"
     showgrid="false"
     inkscape:zoom="2.8284271"
     inkscape:cx="13.965359"
     inkscape:cy="105.00536"
     inkscape:window-width="1920"
     inkscape:window-height="1011"
     inkscape:window-x="0"
     inkscape:window-y="0"
     inkscape:window-maximized="1"
     inkscape:current-layer="g184"
     inkscape:document-units="mm" />
  <g
     inkscape:groupmode="layer"
     inkscape:label="Image"
     id="g184">
    <ellipse
       style="opacity:0.430646;fill:none;fill-opacity:0.999955;stroke:#70be6f;stroke-width:0.394303;stroke-dasharray:none;stroke-dashoffset:0;stroke-opacity:1"
       id="path19821-3"
       cx="-35.985813"
       cy="128.39406"
       rx="0.40843886"
       ry="0.41516256" />
    <path
       d="m 19.012294,146.27474 c 0.0977,-0.38781 0.46072,-1.81653 1.528001,-1.81653 0.0714,0 0.45917,0 0.77563,0.1939 -0.43746,0.0962 -0.72754,0.45918 -0.72754,0.847 0,0.24355 0.16909,0.53363 0.58172,0.53363 0.33973,0 0.823731,-0.26681 0.823731,-0.89663 0,-0.80045 -0.896641,-1.01763 -1.430271,-1.01763 -0.896641,0 -1.430271,0.82372 -1.624181,1.16345 -0.387821,-1.01763 -1.211551,-1.16345 -1.672272,-1.16345 -1.59936,0 -2.496,1.98717 -2.496,2.37499 0,0.16909 0.16909,0.16909 0.19391,0.16909 0.121,0 0.16909,-0.0481 0.19391,-0.16909 0.53364,-1.64745 1.55127,-2.03526 2.08491,-2.03526 0.290091,0 0.823721,0.14426 0.823721,1.0409 0,0.48555 -0.26682,1.50318 -0.823721,3.68426 -0.24355,0.94628 -0.80046,1.60092 -1.47836,1.60092 -0.0977,0 -0.43746,0 -0.77564,-0.19391 0.38782,-0.0977 0.726,-0.41264 0.726,-0.84855 0,-0.41264 -0.33818,-0.53363 -0.55691,-0.53363 -0.48555,0 -0.848539,0.38781 -0.848539,0.89663 0,0.70272 0.750809,1.01763 1.430269,1.01763 1.04245,0 1.59936,-1.09054 1.62418,-1.16345 0.193911,0.55846 0.750811,1.16345 1.672272,1.16345 1.599361,0 2.472721,-1.98717 2.472721,-2.37499 0,-0.16909 -0.12255,-0.16909 -0.17064,-0.16909 -0.14427,0 -0.16909,0.0729 -0.21718,0.16909 -0.51036,1.67227 -1.551271,2.03682 -2.036811,2.03682 -0.605001,0 -0.848551,-0.48555 -0.848551,-1.01919 0,-0.33818 0.0729,-0.6779 0.24355,-1.35736 z"
       style="fill:#000000;fill-opacity:1;fill-rule:nonzero;stroke:none;stroke-width:1.55127"
       id="path96" />
    <path
       d="m 212.69831,106.21556 c 0.0729,-0.21874 0.0729,-0.24356 0.0729,-0.36456 0,-0.2668 -0.21873,-0.41107 -0.46073,-0.41107 -0.14582,0 -0.38782,0.0962 -0.53364,0.3149 -0.0233,0.0962 -0.16908,0.55691 -0.21717,0.84855 -0.12255,0.38782 -0.21873,0.82372 -0.31646,1.23481 l -0.70273,2.78761 c -0.0481,0.21873 -0.726,1.30928 -1.74519,1.30928 -0.77564,0 -0.94473,-0.67791 -0.94473,-1.26119 0,-0.70272 0.26682,-1.67226 0.77564,-3.02961 0.242,-0.62981 0.31491,-0.7989 0.31491,-1.11381 0,-0.67947 -0.484,-1.26119 -1.25964,-1.26119 -1.47991,0 -2.03682,2.254 -2.03682,2.375 0,0.17064 0.14582,0.17064 0.16909,0.17064 0.17064,0 0.17064,-0.0481 0.24355,-0.29164 0.43591,-1.45354 1.04245,-1.91426 1.57454,-1.91426 0.121,0 0.38782,0 0.38782,0.48399 0,0.38782 -0.16909,0.80046 -0.26682,1.09055 -0.62982,1.64899 -0.89664,2.52234 -0.89664,3.24834 0,1.38218 0.96955,1.8429 1.89101,1.8429 0.60655,0 1.11537,-0.26681 1.55128,-0.70272 -0.19391,0.7989 -0.38782,1.57454 -0.99437,2.39981 -0.41109,0.50882 -0.99282,0.968 -1.69555,0.968 -0.21873,0 -0.92145,-0.0481 -1.18827,-0.65309 0.242,0 0.46072,0 0.65463,-0.19391 0.16909,-0.121 0.31491,-0.33973 0.31491,-0.63136 0,-0.484 -0.41264,-0.53209 -0.5569,-0.53209 -0.36455,0 -0.87337,0.242 -0.87337,0.99281 0,0.77564 0.67946,1.35736 1.649,1.35736 1.57455,0 3.17547,-1.40545 3.61138,-3.15063 z"
       style="fill:#000000;fill-opacity:1;fill-rule:nonzero;stroke:none;stroke-width:1.55127"
       id="path98" />
    <path
       d="m 71.537387,10.927006 c 0.82527,-0.89663 1.28445,-1.2844605 1.84291,-1.76845 0,0 0.94472,-0.8252805 1.50163,-1.3821905 1.47991,-1.430266 1.81808,-2.1810806 1.81808,-2.2539906 0,-0.1458188 -0.14426,-0.1458188 -0.16908,-0.1458188 -0.121,0 -0.14582,0.02482 -0.242,0.1690878 -0.46073,0.7523656 -0.77564,0.9943646 -1.14019,0.9943646 -0.38781,0 -0.5569,-0.241999 -0.7989,-0.5088168 -0.29164,-0.3397278 -0.55846,-0.6546356 -1.06727,-0.6546356 -1.16346,0 -1.86618,1.4302704 -1.86618,1.7699999 0,0.0729 0.0481,0.16909 0.17064,0.16909 0.14427,0 0.16909,-0.0729 0.21717,-0.16909 0.29164,-0.7275475 1.18828,-0.7275475 1.30928,-0.7275475 0.3149,0 0.60499,0.09618 0.96954,0.217178 0.62982,0.24355 0.79891,0.24355 1.18672,0.24355 -0.5569,0.6546295 -1.84136,1.7684495 -2.13144,2.0119995 l -1.407,1.30772 c -1.04246,1.042461 -1.59936,1.915831 -1.59936,2.036831 0,0.14582 0.16908,0.14582 0.1939,0.14582 0.121,0 0.14582,-0.0248 0.242,-0.19391 0.36455,-0.55846 0.82373,-0.96955 1.33409,-0.96955 0.33818,0 0.50882,0.14427 0.89664,0.58173 0.242,0.33818 0.53208,0.58173 0.96954,0.58173 1.55127,0 2.44791,-1.963921 2.44791,-2.376561 0,-0.0714 -0.0729,-0.1690805 -0.19391,-0.1690805 -0.14582,0 -0.16909,0.0977 -0.21873,0.2187305 -0.363,0.99281 -1.35736,1.284461 -1.86618,1.284461 -0.29009,0 -0.58172,-0.0977 -0.89663,-0.19392 -0.53364,-0.193911 -0.77564,-0.266821 -1.09055,-0.266821 -0.0248,0 -0.26681,0 -0.41263,0.0481 z"
       style="fill:#000000;fill-opacity:1;fill-rule:nonzero;stroke:none;stroke-width:1.55127"
       id="path100" />
    <path
       style="fill:#a02c2c;fill-opacity:1;stroke:#000000;stroke-width:0.45354331;stroke-dasharray:1.81418424,3.62836064;stroke-dashoffset:0;stroke-opacity:0.998585"
       d="M 138.72971,133.48527 V 42.529358"
       id="path10076" />
    <path
       style="fill:#a02c2c;fill-opacity:1;stroke:#000000;stroke-width:0.452198;stroke-dasharray:1.8088, 3.61761;stroke-dashoffset:0;stroke-opacity:0.998585"
       d="M 54.451613,133.25914 H 138.96859"
       id="path10076-3" />
    <path
       style="fill:#a02c2c;fill-opacity:1;stroke:#000000;stroke-width:0.45354331;stroke-dasharray:1.81420266,3.6283857;stroke-dashoffset:0;stroke-opacity:0.998585"
       d="m 138.80762,133.3077 16.97424,-15.57038"
       id="path10076-3-6" />
    <path
       style="fill:none;fill-opacity:1;stroke:#000000;stroke-width:0.752003;stroke-dasharray:none;stroke-dashoffset:0;stroke-opacity:1;marker-end:url(#marker4353)"
       d="M 81.183017,111.58909 V 4.8394313"
       id="path23323" />
    <path
       style="fill:none;fill-opacity:1;stroke:#000000;stroke-width:0.75212598;stroke-dasharray:none;stroke-dashoffset:0;stroke-opacity:1;marker-end:url(#marker3728)"
       d="M 80.825923,117.2862 H 215.64605"
       id="path23323-9" />
    <path
       style="fill:none;fill-opacity:1;stroke:#000000;stroke-width:0.75212598;stroke-dasharray:none;stroke-dashoffset:0;stroke-opacity:1;marker-end:url(#marker3872)"
       d="M 81.556602,117.16631 15.438408,157.01295"
       id="path24175"
       inkscape:transform-center-x="33.065035"
       inkscape:transform-center-y="19.981491" />
    <path
       style="fill:none;fill-opacity:0.999955;stroke:#000000;stroke-width:1.13386;stroke-dasharray:none;marker-end:url(#TriangleStart)"
       d="M 81.541217,117.03864 134.9436,46.302154"
       id="path4199"
       inkscape:transform-center-x="-26.375002"
       inkscape:transform-center-y="-35.047695" />
    <g
       id="g42"
       transform="matrix(1.5512693,0,0,1.5512693,-56.577084,-56.471591)">
      <path
         d="m 126.785,62.488 c 0,0.532 -0.43,0.957 -0.957,0.957 -0.527,0 -0.957,-0.425 -0.957,-0.957 0,-0.527 0.43,-0.953 0.957,-0.953 0.527,0 0.957,0.426 0.957,0.953 z"
         style="fill:#000000;fill-opacity:1;fill-rule:nonzero;stroke:#000000;stroke-width:0.0653396;stroke-linecap:square;stroke-linejoin:miter;stroke-miterlimit:4;stroke-dasharray:none;stroke-opacity:1"
         id="path44" />
    </g>
    <path
       style="fill:none;stroke:#000000;stroke-width:1.13386;stroke-dasharray:none;marker-end:url(#TriangleStart)"
       d="M 81.22207,117.60908 V 106.27052"
       id="path2020" />
    <path
       style="fill:none;stroke:#000000;stroke-width:1.13386;stroke-dasharray:none;marker-end:url(#TriangleStart-3)"
       d="M 81.014173,117.2862 H 92.352756"
       id="path2020-7" />
    <path
       style="fill:none;stroke:#000000;stroke-width:1.13386;stroke-dasharray:none;marker-end:url(#TriangleStart-3-5)"
       d="M 81.253277,117.31334 71.531125,123.148"
       id="path2020-7-5" />
    <g
       transform="matrix(1.33333,0,0,1.33333,42.801164,16.879022)"
       ns4:version="1.8.2"
       ns4:texconverter="pdflatex"
       ns4:pdfconverter="inkscape"
       ns4:text="$\\skew{-1}\\vec{z}_P(t)$"
       ns4:preamble="/usr/share/inkscape/extensions/textext/default_packages.tex"
       ns4:scale="1.0"
       ns4:alignment="middle center"
       ns4:stroke-to-path="0"
       ns4:inkscapeversion="1.2.2"
       ns4:jacobian_sqrt="1.33333"
       id="g20913">
      <defs
         id="id-32071a17-a7f9-4e50-a498-8042efb55a10">
        <g
           id="id-83eb7b80-b681-4f03-9c1c-49c3401d802e">
          <symbol
             overflow="visible"
             id="id-05ff5ecb-a98e-4aa2-a38a-ba95bfc730b2">
            <path
               style="stroke:none"
               d=""
               id="id-02ab0970-e34e-4f50-9637-dc60c6e4e732" />
          </symbol>
          <symbol
             overflow="visible"
             id="id-1c3b3ad4-cdd6-4cc5-8bf4-7c917d57768a">
            <path
               style="stroke:none"
               d="M 6.390625,-7.140625 C 6.25,-7 5.8125,-6.59375 5.8125,-6.421875 c 0,0.125 0.109375,0.234375 0.21875,0.234375 0.109375,0 0.15625,-0.078125 0.25,-0.203125 0.28125,-0.34375 0.609375,-0.578125 0.875,-0.734375 0.125,-0.078125 0.203125,-0.109375 0.203125,-0.234375 0,-0.109375 -0.09375,-0.171875 -0.15625,-0.234375 C 6.859375,-7.8125 6.78125,-8.140625 6.734375,-8.28125 6.703125,-8.375 6.671875,-8.515625 6.5,-8.515625 c -0.0625,0 -0.21875,0.046875 -0.21875,0.21875 0,0.109375 0.078125,0.390625 0.3125,0.71875 H 2.5625 c -0.203125,0 -0.40625,0 -0.40625,0.234375 0,0.203125 0.21875,0.203125 0.40625,0.203125 z m 0,0"
               id="id-8089b1ec-0ff3-4d58-b4af-7ce9524deac6" />
          </symbol>
          <symbol
             overflow="visible"
             id="id-77780af4-1e7e-414c-8a6d-0bf9b8a3ee6d">
            <path
               style="stroke:none"
               d="m 1.515625,-0.96875 c 0.515625,-0.578125 0.9375,-0.953125 1.53125,-1.5 C 3.765625,-3.078125 4.078125,-3.375 4.25,-3.5625 5.078125,-4.390625 5.5,-5.078125 5.5,-5.171875 c 0,-0.09375 -0.09375,-0.09375 -0.125,-0.09375 -0.078125,0 -0.109375,0.046875 -0.15625,0.125 C 4.90625,-4.625 4.625,-4.375 4.3125,-4.375 c -0.25,0 -0.375,-0.109375 -0.609375,-0.390625 -0.25,-0.296875 -0.453125,-0.5 -0.796875,-0.5 -0.875,0 -1.40625,1.078125 -1.40625,1.328125 0,0.046875 0.015625,0.109375 0.125,0.109375 0.09375,0 0.109375,-0.046875 0.140625,-0.125 0.203125,-0.484375 0.78125,-0.5625 1,-0.5625 0.265625,0 0.5,0.078125 0.75,0.1875 0.453125,0.1875 0.640625,0.1875 0.765625,0.1875 0.078125,0 0.125,0 0.1875,0 C 4.078125,-3.6875 3.4375,-3.109375 2.890625,-2.625 L 1.6875,-1.5 c -0.734375,0.734375 -1.171875,1.4375 -1.171875,1.53125 0,0.0625 0.0625,0.09375 0.125,0.09375 0.078125,0 0.09375,-0.015625 0.171875,-0.15625 0.1875,-0.296875 0.578125,-0.75 1.015625,-0.75 0.25,0 0.375,0.09375 0.609375,0.390625 C 2.671875,-0.125 2.875,0.125 3.25,0.125 c 1.171875,0 1.84375,-1.53125 1.84375,-1.796875 0,-0.046875 -0.015625,-0.125 -0.140625,-0.125 -0.09375,0 -0.09375,0.046875 -0.140625,0.171875 -0.265625,0.703125 -0.96875,0.984375 -1.4375,0.984375 -0.25,0 -0.484375,-0.078125 -0.734375,-0.1875 -0.484375,-0.1875 -0.609375,-0.1875 -0.765625,-0.1875 -0.125,0 -0.25,0 -0.359375,0.046875 z m 0,0"
               id="id-229e210b-b7f3-4770-8aeb-aba018c2a03b" />
          </symbol>
          <symbol
             overflow="visible"
             id="id-aa790a5c-3fca-46ec-95a6-42fa9b0be7f2">
            <path
               style="stroke:none"
               d="M 2.40625,-4.8125 H 3.5 c 0.234375,0 0.34375,0 0.34375,-0.203125 0,-0.140625 -0.0625,-0.140625 -0.3125,-0.140625 H 2.484375 l 0.4375,-1.734375 C 2.96875,-7.0625 2.96875,-7.09375 2.96875,-7.171875 c 0,-0.1875 -0.140625,-0.296875 -0.296875,-0.296875 -0.109375,0 -0.375,0.03125 -0.46875,0.421875 l -0.46875,1.890625 h -1.125 c -0.234375,0 -0.34375,0 -0.34375,0.234375 0,0.109375 0.078125,0.109375 0.3125,0.109375 h 1.0625 L 0.84375,-1.65625 c -0.09375,0.421875 -0.125,0.546875 -0.125,0.703125 0,0.5625 0.390625,1.078125 1.0625,1.078125 1.203125,0 1.859375,-1.75 1.859375,-1.828125 0,-0.078125 -0.0625,-0.109375 -0.125,-0.109375 -0.03125,0 -0.078125,0 -0.09375,0.046875 C 3.40625,-1.75 3.390625,-1.75 3.3125,-1.546875 c -0.25,0.59375 -0.796875,1.421875 -1.5,1.421875 -0.359375,0 -0.375,-0.296875 -0.375,-0.5625 0,0 0,-0.234375 0.03125,-0.375 z m 0,0"
               id="id-fedf9254-ca23-4842-b9a7-bdb449d8139a" />
          </symbol>
          <symbol
             overflow="visible"
             id="id-4ddc1390-e9b3-4767-9ca0-05d4da0757a2">
            <path
               style="stroke:none"
               d=""
               id="id-2cdea5ea-37bd-41b3-b312-82b267e4aeef" />
          </symbol>
          <symbol
             overflow="visible"
             id="id-eb6db5b7-a4b4-4726-8eba-3c6eb196287d">
            <path
               style="stroke:none"
               d="m 2.515625,-2.484375 h 1.4375 c 1.15625,0 2.34375,-0.796875 2.34375,-1.734375 0,-0.6875 -0.625,-1.21875 -1.65625,-1.21875 h -2.6875 c -0.140625,0 -0.25,0 -0.25,0.140625 0,0.125 0.109375,0.125 0.234375,0.125 0.265625,0 0.5,0 0.5,0.125 0,0.03125 -0.015625,0.03125 -0.03125,0.140625 L 1.328125,-0.625 c -0.0625,0.296875 -0.078125,0.359375 -0.65625,0.359375 -0.171875,0 -0.265625,0 -0.265625,0.15625 C 0.40625,-0.078125 0.4375,0 0.53125,0 0.6875,0 0.875,-0.015625 1.03125,-0.03125 h 0.5 C 2.296875,-0.03125 2.515625,0 2.5625,0 c 0.046875,0 0.15625,0 0.15625,-0.15625 0,-0.109375 -0.09375,-0.109375 -0.234375,-0.109375 -0.015625,0 -0.171875,0 -0.296875,-0.015625 C 2.015625,-0.296875 2,-0.3125 2,-0.390625 2,-0.4375 2.015625,-0.484375 2.03125,-0.515625 Z M 3.09375,-4.890625 C 3.15625,-5.15625 3.171875,-5.171875 3.5,-5.171875 h 0.875 c 0.65625,0 1.15625,0.1875 1.15625,0.765625 0,0.109375 -0.046875,0.828125 -0.484375,1.265625 -0.125,0.109375 -0.5,0.421875 -1.28125,0.421875 h -1.21875 z m 0,0"
               id="id-46e0dace-eea6-4068-b35f-78cc6baf3b6a" />
          </symbol>
          <symbol
             overflow="visible"
             id="id-88d573dd-1d10-4544-ac4b-8e87f210990c">
            <path
               style="stroke:none"
               d=""
               id="id-8d5c5366-0fa1-42b4-b379-c5291f4fc451" />
          </symbol>
          <symbol
             overflow="visible"
             id="id-55ce9abe-7b69-4d73-bb1d-5b0f3184b48f">
            <path
               style="stroke:none"
               d="m 3.890625,2.90625 c 0,-0.03125 0,-0.0625 -0.203125,-0.265625 C 2.484375,1.4375 1.8125,-0.53125 1.8125,-2.96875 c 0,-2.328125 0.5625,-4.328125 1.953125,-5.734375 0.125,-0.109375 0.125,-0.125 0.125,-0.171875 0,-0.0625 -0.0625,-0.09375 -0.109375,-0.09375 -0.15625,0 -1.140625,0.859375 -1.71875,2.03125 -0.609375,1.21875 -0.890625,2.484375 -0.890625,3.96875 0,1.0625 0.171875,2.484375 0.78125,3.75 C 2.671875,2.21875 3.640625,3 3.78125,3 3.828125,3 3.890625,2.96875 3.890625,2.90625 Z m 0,0"
               id="id-e08633a0-1b7d-4bac-8da1-b6f94d2f7f0e" />
          </symbol>
          <symbol
             overflow="visible"
             id="id-eba73511-7e47-4be4-ba06-f36f18c698e4">
            <path
               style="stroke:none"
               d="M 3.375,-2.96875 C 3.375,-3.890625 3.25,-5.359375 2.578125,-6.75 1.875,-8.1875 0.890625,-8.96875 0.765625,-8.96875 c -0.046875,0 -0.109375,0.03125 -0.109375,0.09375 0,0.046875 0,0.0625 0.203125,0.265625 1.203125,1.203125 1.859375,3.1875 1.859375,5.625 0,2.3125 -0.5625,4.3125 -1.9375,5.71875 C 0.65625,2.84375 0.65625,2.875 0.65625,2.90625 0.65625,2.96875 0.71875,3 0.765625,3 0.921875,3 1.90625,2.140625 2.484375,0.96875 3.09375,-0.25 3.375,-1.546875 3.375,-2.96875 Z m 0,0"
               id="id-eb73e4e3-9737-413f-abe0-13793dafdce0" />
          </symbol>
        </g>
      </defs>
      <g
         id="id-47104f74-d7da-452a-a2ec-aaac11927d13"
         transform="translate(-128.927,-128.784)">
        <g
           style="fill:#000000;fill-opacity:1"
           id="id-5b9df1ef-7804-41c9-a163-02ecb3f90c34">
          <g
             transform="translate(127.221,137.753)"
             id="g3028">
            <path
               style="stroke:none"
               d="M 6.390625,-7.140625 C 6.25,-7 5.8125,-6.59375 5.8125,-6.421875 c 0,0.125 0.109375,0.234375 0.21875,0.234375 0.109375,0 0.15625,-0.078125 0.25,-0.203125 0.28125,-0.34375 0.609375,-0.578125 0.875,-0.734375 0.125,-0.078125 0.203125,-0.109375 0.203125,-0.234375 0,-0.109375 -0.09375,-0.171875 -0.15625,-0.234375 C 6.859375,-7.8125 6.78125,-8.140625 6.734375,-8.28125 6.703125,-8.375 6.671875,-8.515625 6.5,-8.515625 c -0.0625,0 -0.21875,0.046875 -0.21875,0.21875 0,0.109375 0.078125,0.390625 0.3125,0.71875 H 2.5625 c -0.203125,0 -0.40625,0 -0.40625,0.234375 0,0.203125 0.21875,0.203125 0.40625,0.203125 z m 0,0"
               id="id-3a247db4-3066-4b89-b6a5-4ee22fa5234f" />
          </g>
        </g>
        <g
           style="fill:#000000;fill-opacity:1"
           id="id-7fdd47ec-f529-44be-920c-4f661615f553">
          <g
             transform="translate(128.412,137.753)"
             id="g3032">
            <path
               style="stroke:none"
               d="m 1.515625,-0.96875 c 0.515625,-0.578125 0.9375,-0.953125 1.53125,-1.5 C 3.765625,-3.078125 4.078125,-3.375 4.25,-3.5625 5.078125,-4.390625 5.5,-5.078125 5.5,-5.171875 c 0,-0.09375 -0.09375,-0.09375 -0.125,-0.09375 -0.078125,0 -0.109375,0.046875 -0.15625,0.125 C 4.90625,-4.625 4.625,-4.375 4.3125,-4.375 c -0.25,0 -0.375,-0.109375 -0.609375,-0.390625 -0.25,-0.296875 -0.453125,-0.5 -0.796875,-0.5 -0.875,0 -1.40625,1.078125 -1.40625,1.328125 0,0.046875 0.015625,0.109375 0.125,0.109375 0.09375,0 0.109375,-0.046875 0.140625,-0.125 0.203125,-0.484375 0.78125,-0.5625 1,-0.5625 0.265625,0 0.5,0.078125 0.75,0.1875 0.453125,0.1875 0.640625,0.1875 0.765625,0.1875 0.078125,0 0.125,0 0.1875,0 C 4.078125,-3.6875 3.4375,-3.109375 2.890625,-2.625 L 1.6875,-1.5 c -0.734375,0.734375 -1.171875,1.4375 -1.171875,1.53125 0,0.0625 0.0625,0.09375 0.125,0.09375 0.078125,0 0.09375,-0.015625 0.171875,-0.15625 0.1875,-0.296875 0.578125,-0.75 1.015625,-0.75 0.25,0 0.375,0.09375 0.609375,0.390625 C 2.671875,-0.125 2.875,0.125 3.25,0.125 c 1.171875,0 1.84375,-1.53125 1.84375,-1.796875 0,-0.046875 -0.015625,-0.125 -0.140625,-0.125 -0.09375,0 -0.09375,0.046875 -0.140625,0.171875 -0.265625,0.703125 -0.96875,0.984375 -1.4375,0.984375 -0.25,0 -0.484375,-0.078125 -0.734375,-0.1875 -0.484375,-0.1875 -0.609375,-0.1875 -0.765625,-0.1875 -0.125,0 -0.25,0 -0.359375,0.046875 z m 0,0"
               id="id-cb2b6c71-9821-4f87-9dd5-f85f0e31eb4e" />
          </g>
        </g>
        <g
           style="fill:#000000;fill-opacity:1"
           id="id-caa2e460-a001-4ab1-b01a-c71a74653503">
          <g
             transform="translate(134.384,140.116)"
             id="g3036">
            <path
               style="stroke:none"
               d="m 2.515625,-2.484375 h 1.4375 c 1.15625,0 2.34375,-0.796875 2.34375,-1.734375 0,-0.6875 -0.625,-1.21875 -1.65625,-1.21875 h -2.6875 c -0.140625,0 -0.25,0 -0.25,0.140625 0,0.125 0.109375,0.125 0.234375,0.125 0.265625,0 0.5,0 0.5,0.125 0,0.03125 -0.015625,0.03125 -0.03125,0.140625 L 1.328125,-0.625 c -0.0625,0.296875 -0.078125,0.359375 -0.65625,0.359375 -0.171875,0 -0.265625,0 -0.265625,0.15625 C 0.40625,-0.078125 0.4375,0 0.53125,0 0.6875,0 0.875,-0.015625 1.03125,-0.03125 h 0.5 C 2.296875,-0.03125 2.515625,0 2.5625,0 c 0.046875,0 0.15625,0 0.15625,-0.15625 0,-0.109375 -0.09375,-0.109375 -0.234375,-0.109375 -0.015625,0 -0.171875,0 -0.296875,-0.015625 C 2.015625,-0.296875 2,-0.3125 2,-0.390625 2,-0.4375 2.015625,-0.484375 2.03125,-0.515625 Z M 3.09375,-4.890625 C 3.15625,-5.15625 3.171875,-5.171875 3.5,-5.171875 h 0.875 c 0.65625,0 1.15625,0.1875 1.15625,0.765625 0,0.109375 -0.046875,0.828125 -0.484375,1.265625 -0.125,0.109375 -0.5,0.421875 -1.28125,0.421875 h -1.21875 z m 0,0"
               id="id-3599c3ed-afc9-4349-890b-0f1566c07d7f" />
          </g>
        </g>
        <g
           style="fill:#000000;fill-opacity:1"
           id="id-ea71a7b2-9778-4f33-a51a-9e650596c54f">
          <g
             transform="translate(141.427,137.753)"
             id="g3040">
            <path
               style="stroke:none"
               d="m 3.890625,2.90625 c 0,-0.03125 0,-0.0625 -0.203125,-0.265625 C 2.484375,1.4375 1.8125,-0.53125 1.8125,-2.96875 c 0,-2.328125 0.5625,-4.328125 1.953125,-5.734375 0.125,-0.109375 0.125,-0.125 0.125,-0.171875 0,-0.0625 -0.0625,-0.09375 -0.109375,-0.09375 -0.15625,0 -1.140625,0.859375 -1.71875,2.03125 -0.609375,1.21875 -0.890625,2.484375 -0.890625,3.96875 0,1.0625 0.171875,2.484375 0.78125,3.75 C 2.671875,2.21875 3.640625,3 3.78125,3 3.828125,3 3.890625,2.96875 3.890625,2.90625 Z m 0,0"
               id="id-7cf3ee84-1ade-4734-9a14-deb31f0139a7" />
          </g>
        </g>
        <g
           style="fill:#000000;fill-opacity:1"
           id="id-03dfd761-637e-4f87-a873-28a6759c6656">
          <g
             transform="translate(145.979,137.753)"
             id="g3044">
            <path
               style="stroke:none"
               d="M 2.40625,-4.8125 H 3.5 c 0.234375,0 0.34375,0 0.34375,-0.203125 0,-0.140625 -0.0625,-0.140625 -0.3125,-0.140625 H 2.484375 l 0.4375,-1.734375 C 2.96875,-7.0625 2.96875,-7.09375 2.96875,-7.171875 c 0,-0.1875 -0.140625,-0.296875 -0.296875,-0.296875 -0.109375,0 -0.375,0.03125 -0.46875,0.421875 l -0.46875,1.890625 h -1.125 c -0.234375,0 -0.34375,0 -0.34375,0.234375 0,0.109375 0.078125,0.109375 0.3125,0.109375 h 1.0625 L 0.84375,-1.65625 c -0.09375,0.421875 -0.125,0.546875 -0.125,0.703125 0,0.5625 0.390625,1.078125 1.0625,1.078125 1.203125,0 1.859375,-1.75 1.859375,-1.828125 0,-0.078125 -0.0625,-0.109375 -0.125,-0.109375 -0.03125,0 -0.078125,0 -0.09375,0.046875 C 3.40625,-1.75 3.390625,-1.75 3.3125,-1.546875 c -0.25,0.59375 -0.796875,1.421875 -1.5,1.421875 -0.359375,0 -0.375,-0.296875 -0.375,-0.5625 0,0 0,-0.234375 0.03125,-0.375 z m 0,0"
               id="id-7ad17f70-a792-41bf-a4ac-18e3c3ce496b" />
          </g>
        </g>
        <g
           style="fill:#000000;fill-opacity:1"
           id="id-092862cc-df91-460f-b495-aa5ed0db0021">
          <g
             transform="translate(150.206,137.753)"
             id="g3048">
            <path
               style="stroke:none"
               d="M 3.375,-2.96875 C 3.375,-3.890625 3.25,-5.359375 2.578125,-6.75 1.875,-8.1875 0.890625,-8.96875 0.765625,-8.96875 c -0.046875,0 -0.109375,0.03125 -0.109375,0.09375 0,0.046875 0,0.0625 0.203125,0.265625 1.203125,1.203125 1.859375,3.1875 1.859375,5.625 0,2.3125 -0.5625,4.3125 -1.9375,5.71875 C 0.65625,2.84375 0.65625,2.875 0.65625,2.90625 0.65625,2.96875 0.71875,3 0.765625,3 0.921875,3 1.90625,2.140625 2.484375,0.96875 3.09375,-0.25 3.375,-1.546875 3.375,-2.96875 Z m 0,0"
               id="id-26012679-037a-40ab-adac-8e01fec84c75" />
          </g>
        </g>
      </g>
    </g>
    <path
       style="opacity:1;fill:none;stroke:#000000;stroke-width:0.45354331;stroke-dasharray:1.81418344,3.62838735;stroke-dashoffset:0"
       d="m 81.440971,117.80846 57.155579,15.2778"
       id="path3262" />
    <g
       transform="matrix(1.33333,0,0,1.33333,85.933039,53.510117)"
       ns4:version="1.8.2"
       ns4:texconverter="pdflatex"
       ns4:pdfconverter="inkscape"
       ns4:text="$\\vec{\\kern1.5pt r}_P(t)$"
       ns4:preamble="/usr/share/inkscape/extensions/textext/default_packages.tex"
       ns4:scale="1.0"
       ns4:alignment="middle center"
       ns4:stroke-to-path="0"
       ns4:inkscapeversion="1.2.2"
       ns4:jacobian_sqrt="1.33333"
       id="g22079">
      <defs
         id="id-59e3720d-e802-4e78-9987-c10823b45b3d">
        <g
           id="id-8217caa8-3d19-4eb0-9d1f-21e8d5c060bd">
          <symbol
             overflow="visible"
             id="id-c3c56fce-1a5b-4acb-b151-1813566bda1e">
            <path
               style="stroke:none"
               d=""
               id="id-d7645cbb-8cbf-420e-a5fd-406b862909b1" />
          </symbol>
          <symbol
             overflow="visible"
             id="id-cdf8566f-107b-4040-9ccc-32a3efc27f4b">
            <path
               style="stroke:none"
               d="M 6.390625,-7.140625 C 6.25,-7 5.8125,-6.59375 5.8125,-6.421875 c 0,0.125 0.109375,0.234375 0.21875,0.234375 0.109375,0 0.15625,-0.078125 0.25,-0.203125 0.28125,-0.34375 0.609375,-0.578125 0.875,-0.734375 0.125,-0.078125 0.203125,-0.109375 0.203125,-0.234375 0,-0.109375 -0.09375,-0.171875 -0.15625,-0.234375 C 6.859375,-7.8125 6.78125,-8.140625 6.734375,-8.28125 6.703125,-8.375 6.671875,-8.515625 6.5,-8.515625 c -0.0625,0 -0.21875,0.046875 -0.21875,0.21875 0,0.109375 0.078125,0.390625 0.3125,0.71875 H 2.5625 c -0.203125,0 -0.40625,0 -0.40625,0.234375 0,0.203125 0.21875,0.203125 0.40625,0.203125 z m 0,0"
               id="id-3519350a-a288-4a8f-a38d-4e036947fe5d" />
          </symbol>
          <symbol
             overflow="visible"
             id="id-c907b477-1536-4b85-af95-e9ece7318c5a">
            <path
               style="stroke:none"
               d="m 4.65625,-4.890625 c -0.375,0.078125 -0.5625,0.34375 -0.5625,0.59375 0,0.296875 0.21875,0.390625 0.390625,0.390625 0.328125,0 0.609375,-0.296875 0.609375,-0.640625 0,-0.390625 -0.375,-0.71875 -0.96875,-0.71875 -0.484375,0 -1.03125,0.203125 -1.53125,0.9375 -0.078125,-0.625 -0.5625,-0.9375 -1.046875,-0.9375 -0.453125,0 -0.703125,0.359375 -0.84375,0.609375 -0.203125,0.4375 -0.375,1.15625 -0.375,1.21875 0,0.046875 0.046875,0.109375 0.125,0.109375 0.09375,0 0.109375,-0.015625 0.1875,-0.296875 0.171875,-0.71875 0.40625,-1.40625 0.875,-1.40625 0.296875,0 0.375,0.203125 0.375,0.546875 0,0.265625 -0.125,0.734375 -0.203125,1.109375 l -0.34375,1.28125 c -0.046875,0.234375 -0.171875,0.765625 -0.234375,0.984375 -0.078125,0.3125 -0.21875,0.875 -0.21875,0.9375 0,0.15625 0.140625,0.296875 0.3125,0.296875 0.140625,0 0.359375,-0.09375 0.4375,-0.328125 C 1.671875,-0.296875 2.109375,-2.109375 2.1875,-2.375 2.25,-2.640625 2.3125,-2.890625 2.375,-3.15625 2.421875,-3.328125 2.46875,-3.515625 2.515625,-3.671875 2.546875,-3.78125 2.875,-4.359375 3.171875,-4.625 3.3125,-4.75 3.625,-5.03125 4.109375,-5.03125 4.296875,-5.03125 4.5,-5 4.65625,-4.890625 Z m 0,0"
               id="id-fcbad933-6aaa-40a2-b088-45bdfd495505" />
          </symbol>
          <symbol
             overflow="visible"
             id="id-9bd1a1f4-6373-4090-a657-02aa1f068b7b">
            <path
               style="stroke:none"
               d="M 2.40625,-4.8125 H 3.5 c 0.234375,0 0.34375,0 0.34375,-0.203125 0,-0.140625 -0.0625,-0.140625 -0.3125,-0.140625 H 2.484375 l 0.4375,-1.734375 C 2.96875,-7.0625 2.96875,-7.09375 2.96875,-7.171875 c 0,-0.1875 -0.140625,-0.296875 -0.296875,-0.296875 -0.109375,0 -0.375,0.03125 -0.46875,0.421875 l -0.46875,1.890625 h -1.125 c -0.234375,0 -0.34375,0 -0.34375,0.234375 0,0.109375 0.078125,0.109375 0.3125,0.109375 h 1.0625 L 0.84375,-1.65625 c -0.09375,0.421875 -0.125,0.546875 -0.125,0.703125 0,0.5625 0.390625,1.078125 1.0625,1.078125 1.203125,0 1.859375,-1.75 1.859375,-1.828125 0,-0.078125 -0.0625,-0.109375 -0.125,-0.109375 -0.03125,0 -0.078125,0 -0.09375,0.046875 C 3.40625,-1.75 3.390625,-1.75 3.3125,-1.546875 c -0.25,0.59375 -0.796875,1.421875 -1.5,1.421875 -0.359375,0 -0.375,-0.296875 -0.375,-0.5625 0,0 0,-0.234375 0.03125,-0.375 z m 0,0"
               id="id-c9195b0e-8000-4f7c-9708-39901b25faeb" />
          </symbol>
          <symbol
             overflow="visible"
             id="id-218e1f02-d3a6-4b04-95c3-dcd024003a8e">
            <path
               style="stroke:none"
               d=""
               id="id-ffb495d3-ead9-4ddf-be41-19b8caabc025" />
          </symbol>
          <symbol
             overflow="visible"
             id="id-b8b681c0-89d2-4205-8389-cd93c5bca2ae">
            <path
               style="stroke:none"
               d="m 2.515625,-2.484375 h 1.4375 c 1.15625,0 2.34375,-0.796875 2.34375,-1.734375 0,-0.6875 -0.625,-1.21875 -1.65625,-1.21875 h -2.6875 c -0.140625,0 -0.25,0 -0.25,0.140625 0,0.125 0.109375,0.125 0.234375,0.125 0.265625,0 0.5,0 0.5,0.125 0,0.03125 -0.015625,0.03125 -0.03125,0.140625 L 1.328125,-0.625 c -0.0625,0.296875 -0.078125,0.359375 -0.65625,0.359375 -0.171875,0 -0.265625,0 -0.265625,0.15625 C 0.40625,-0.078125 0.4375,0 0.53125,0 0.6875,0 0.875,-0.015625 1.03125,-0.03125 h 0.5 C 2.296875,-0.03125 2.515625,0 2.5625,0 c 0.046875,0 0.15625,0 0.15625,-0.15625 0,-0.109375 -0.09375,-0.109375 -0.234375,-0.109375 -0.015625,0 -0.171875,0 -0.296875,-0.015625 C 2.015625,-0.296875 2,-0.3125 2,-0.390625 2,-0.4375 2.015625,-0.484375 2.03125,-0.515625 Z M 3.09375,-4.890625 C 3.15625,-5.15625 3.171875,-5.171875 3.5,-5.171875 h 0.875 c 0.65625,0 1.15625,0.1875 1.15625,0.765625 0,0.109375 -0.046875,0.828125 -0.484375,1.265625 -0.125,0.109375 -0.5,0.421875 -1.28125,0.421875 h -1.21875 z m 0,0"
               id="id-27b042e3-73e1-4b44-bd29-0e9ae5310863" />
          </symbol>
          <symbol
             overflow="visible"
             id="id-a7681ab7-8e10-4ee7-a482-c8d6d25a10bc">
            <path
               style="stroke:none"
               d=""
               id="id-e2b20b83-b7dd-480b-b4cc-8c943cc30a1b" />
          </symbol>
          <symbol
             overflow="visible"
             id="id-64749c73-e040-418f-984f-9f781e461ba2">
            <path
               style="stroke:none"
               d="m 3.890625,2.90625 c 0,-0.03125 0,-0.0625 -0.203125,-0.265625 C 2.484375,1.4375 1.8125,-0.53125 1.8125,-2.96875 c 0,-2.328125 0.5625,-4.328125 1.953125,-5.734375 0.125,-0.109375 0.125,-0.125 0.125,-0.171875 0,-0.0625 -0.0625,-0.09375 -0.109375,-0.09375 -0.15625,0 -1.140625,0.859375 -1.71875,2.03125 -0.609375,1.21875 -0.890625,2.484375 -0.890625,3.96875 0,1.0625 0.171875,2.484375 0.78125,3.75 C 2.671875,2.21875 3.640625,3 3.78125,3 3.828125,3 3.890625,2.96875 3.890625,2.90625 Z m 0,0"
               id="id-1d1141db-215e-46e0-ba24-7410f8d8ffda" />
          </symbol>
          <symbol
             overflow="visible"
             id="id-9d61fcb0-f3ef-44ba-a9b7-3546561a375a">
            <path
               style="stroke:none"
               d="M 3.375,-2.96875 C 3.375,-3.890625 3.25,-5.359375 2.578125,-6.75 1.875,-8.1875 0.890625,-8.96875 0.765625,-8.96875 c -0.046875,0 -0.109375,0.03125 -0.109375,0.09375 0,0.046875 0,0.0625 0.203125,0.265625 1.203125,1.203125 1.859375,3.1875 1.859375,5.625 0,2.3125 -0.5625,4.3125 -1.9375,5.71875 C 0.65625,2.84375 0.65625,2.875 0.65625,2.90625 0.65625,2.96875 0.71875,3 0.765625,3 0.921875,3 1.90625,2.140625 2.484375,0.96875 3.09375,-0.25 3.375,-1.546875 3.375,-2.96875 Z m 0,0"
               id="id-f27b1dc8-0c1b-4634-aaf0-b14d1b1c8cf2" />
          </symbol>
        </g>
      </defs>
      <g
         id="id-7292d85f-19b4-4bc0-938d-3eb96b107de9"
         transform="translate(-130.232,-128.784)">
        <g
           style="fill:#000000;fill-opacity:1"
           id="id-cab4e633-d506-4d58-bf3f-01b4445f3641">
          <g
             transform="translate(128.115,137.753)"
             id="g4138">
            <path
               style="stroke:none"
               d="M 6.390625,-7.140625 C 6.25,-7 5.8125,-6.59375 5.8125,-6.421875 c 0,0.125 0.109375,0.234375 0.21875,0.234375 0.109375,0 0.15625,-0.078125 0.25,-0.203125 0.28125,-0.34375 0.609375,-0.578125 0.875,-0.734375 0.125,-0.078125 0.203125,-0.109375 0.203125,-0.234375 0,-0.109375 -0.09375,-0.171875 -0.15625,-0.234375 C 6.859375,-7.8125 6.78125,-8.140625 6.734375,-8.28125 6.703125,-8.375 6.671875,-8.515625 6.5,-8.515625 c -0.0625,0 -0.21875,0.046875 -0.21875,0.21875 0,0.109375 0.078125,0.390625 0.3125,0.71875 H 2.5625 c -0.203125,0 -0.40625,0 -0.40625,0.234375 0,0.203125 0.21875,0.203125 0.40625,0.203125 z m 0,0"
               id="id-25b11e02-6d6f-43e7-9f26-4843c85a2d95" />
          </g>
        </g>
        <g
           style="fill:#000000;fill-opacity:1"
           id="id-ba4e7071-e0c8-4720-94c7-59dce77a7fb1">
          <g
             transform="translate(129.904,137.753)"
             id="g4142">
            <path
               style="stroke:none"
               d="m 4.65625,-4.890625 c -0.375,0.078125 -0.5625,0.34375 -0.5625,0.59375 0,0.296875 0.21875,0.390625 0.390625,0.390625 0.328125,0 0.609375,-0.296875 0.609375,-0.640625 0,-0.390625 -0.375,-0.71875 -0.96875,-0.71875 -0.484375,0 -1.03125,0.203125 -1.53125,0.9375 -0.078125,-0.625 -0.5625,-0.9375 -1.046875,-0.9375 -0.453125,0 -0.703125,0.359375 -0.84375,0.609375 -0.203125,0.4375 -0.375,1.15625 -0.375,1.21875 0,0.046875 0.046875,0.109375 0.125,0.109375 0.09375,0 0.109375,-0.015625 0.1875,-0.296875 0.171875,-0.71875 0.40625,-1.40625 0.875,-1.40625 0.296875,0 0.375,0.203125 0.375,0.546875 0,0.265625 -0.125,0.734375 -0.203125,1.109375 l -0.34375,1.28125 c -0.046875,0.234375 -0.171875,0.765625 -0.234375,0.984375 -0.078125,0.3125 -0.21875,0.875 -0.21875,0.9375 0,0.15625 0.140625,0.296875 0.3125,0.296875 0.140625,0 0.359375,-0.09375 0.4375,-0.328125 C 1.671875,-0.296875 2.109375,-2.109375 2.1875,-2.375 2.25,-2.640625 2.3125,-2.890625 2.375,-3.15625 2.421875,-3.328125 2.46875,-3.515625 2.515625,-3.671875 2.546875,-3.78125 2.875,-4.359375 3.171875,-4.625 3.3125,-4.75 3.625,-5.03125 4.109375,-5.03125 4.296875,-5.03125 4.5,-5 4.65625,-4.890625 Z m 0,0"
               id="id-9380341a-419d-4e90-bc00-28ec06602f19" />
          </g>
        </g>
        <g
           style="fill:#000000;fill-opacity:1"
           id="id-2b8437c3-9b65-4d1d-b478-cde0677e3f52">
          <g
             transform="translate(135.508,140.116)"
             id="g4146">
            <path
               style="stroke:none"
               d="m 2.515625,-2.484375 h 1.4375 c 1.15625,0 2.34375,-0.796875 2.34375,-1.734375 0,-0.6875 -0.625,-1.21875 -1.65625,-1.21875 h -2.6875 c -0.140625,0 -0.25,0 -0.25,0.140625 0,0.125 0.109375,0.125 0.234375,0.125 0.265625,0 0.5,0 0.5,0.125 0,0.03125 -0.015625,0.03125 -0.03125,0.140625 L 1.328125,-0.625 c -0.0625,0.296875 -0.078125,0.359375 -0.65625,0.359375 -0.171875,0 -0.265625,0 -0.265625,0.15625 C 0.40625,-0.078125 0.4375,0 0.53125,0 0.6875,0 0.875,-0.015625 1.03125,-0.03125 h 0.5 C 2.296875,-0.03125 2.515625,0 2.5625,0 c 0.046875,0 0.15625,0 0.15625,-0.15625 0,-0.109375 -0.09375,-0.109375 -0.234375,-0.109375 -0.015625,0 -0.171875,0 -0.296875,-0.015625 C 2.015625,-0.296875 2,-0.3125 2,-0.390625 2,-0.4375 2.015625,-0.484375 2.03125,-0.515625 Z M 3.09375,-4.890625 C 3.15625,-5.15625 3.171875,-5.171875 3.5,-5.171875 h 0.875 c 0.65625,0 1.15625,0.1875 1.15625,0.765625 0,0.109375 -0.046875,0.828125 -0.484375,1.265625 -0.125,0.109375 -0.5,0.421875 -1.28125,0.421875 h -1.21875 z m 0,0"
               id="id-426e7d7e-022f-47d0-a35b-e19e40240098" />
          </g>
        </g>
        <g
           style="fill:#000000;fill-opacity:1"
           id="id-1e5ffc43-dc75-4f74-92f8-1e192de5d13a">
          <g
             transform="translate(142.551,137.753)"
             id="g4150">
            <path
               style="stroke:none"
               d="m 3.890625,2.90625 c 0,-0.03125 0,-0.0625 -0.203125,-0.265625 C 2.484375,1.4375 1.8125,-0.53125 1.8125,-2.96875 c 0,-2.328125 0.5625,-4.328125 1.953125,-5.734375 0.125,-0.109375 0.125,-0.125 0.125,-0.171875 0,-0.0625 -0.0625,-0.09375 -0.109375,-0.09375 -0.15625,0 -1.140625,0.859375 -1.71875,2.03125 -0.609375,1.21875 -0.890625,2.484375 -0.890625,3.96875 0,1.0625 0.171875,2.484375 0.78125,3.75 C 2.671875,2.21875 3.640625,3 3.78125,3 3.828125,3 3.890625,2.96875 3.890625,2.90625 Z m 0,0"
               id="id-2d3641e7-75d5-464e-b348-990323bcfcab" />
          </g>
        </g>
        <g
           style="fill:#000000;fill-opacity:1"
           id="id-649fe969-6d52-4c1e-9ae7-5ccce812a399">
          <g
             transform="translate(147.104,137.753)"
             id="g4154">
            <path
               style="stroke:none"
               d="M 2.40625,-4.8125 H 3.5 c 0.234375,0 0.34375,0 0.34375,-0.203125 0,-0.140625 -0.0625,-0.140625 -0.3125,-0.140625 H 2.484375 l 0.4375,-1.734375 C 2.96875,-7.0625 2.96875,-7.09375 2.96875,-7.171875 c 0,-0.1875 -0.140625,-0.296875 -0.296875,-0.296875 -0.109375,0 -0.375,0.03125 -0.46875,0.421875 l -0.46875,1.890625 h -1.125 c -0.234375,0 -0.34375,0 -0.34375,0.234375 0,0.109375 0.078125,0.109375 0.3125,0.109375 h 1.0625 L 0.84375,-1.65625 c -0.09375,0.421875 -0.125,0.546875 -0.125,0.703125 0,0.5625 0.390625,1.078125 1.0625,1.078125 1.203125,0 1.859375,-1.75 1.859375,-1.828125 0,-0.078125 -0.0625,-0.109375 -0.125,-0.109375 -0.03125,0 -0.078125,0 -0.09375,0.046875 C 3.40625,-1.75 3.390625,-1.75 3.3125,-1.546875 c -0.25,0.59375 -0.796875,1.421875 -1.5,1.421875 -0.359375,0 -0.375,-0.296875 -0.375,-0.5625 0,0 0,-0.234375 0.03125,-0.375 z m 0,0"
               id="id-5c5a41fa-e555-411e-ac52-0ab9d05d07e1" />
          </g>
        </g>
        <g
           style="fill:#000000;fill-opacity:1"
           id="id-2844f793-1ffe-477a-8188-8d6481e9de35">
          <g
             transform="translate(151.331,137.753)"
             id="g4158">
            <path
               style="stroke:none"
               d="M 3.375,-2.96875 C 3.375,-3.890625 3.25,-5.359375 2.578125,-6.75 1.875,-8.1875 0.890625,-8.96875 0.765625,-8.96875 c -0.046875,0 -0.109375,0.03125 -0.109375,0.09375 0,0.046875 0,0.0625 0.203125,0.265625 1.203125,1.203125 1.859375,3.1875 1.859375,5.625 0,2.3125 -0.5625,4.3125 -1.9375,5.71875 C 0.65625,2.84375 0.65625,2.875 0.65625,2.90625 0.65625,2.96875 0.71875,3 0.765625,3 0.921875,3 1.90625,2.140625 2.484375,0.96875 3.09375,-0.25 3.375,-1.546875 3.375,-2.96875 Z m 0,0"
               id="id-f124ecc2-0cf2-40c9-a6e5-f6d3fb22cf5d" />
          </g>
        </g>
      </g>
    </g>
    <g
       transform="matrix(1.33333,0,0,1.33333,61.833497,112.92593)"
       ns4:version="1.8.2"
       ns4:texconverter="pdflatex"
       ns4:pdfconverter="inkscape"
       ns4:text="$\\hat{x}$"
       ns4:preamble="/usr/share/inkscape/extensions/textext/default_packages.tex"
       ns4:scale="1.0"
       ns4:alignment="middle center"
       ns4:stroke-to-path="0"
       ns4:inkscapeversion="1.2.2"
       ns4:jacobian_sqrt="1.33333"
       id="g5917">
      <defs
         id="id-79111ff1-d153-4eca-b568-f3a0263e39e9">
        <g
           id="id-40a70383-a984-45c9-bf9c-cae30f0778e0">
          <symbol
             overflow="visible"
             id="id-1f1fe17a-9339-42cf-aac4-1167d63e6e81">
            <path
               style="stroke:none;stroke-width:0"
               d=""
               id="id-9a87e926-6daf-4940-a4d3-0a029c942114" />
          </symbol>
          <symbol
             overflow="visible"
             id="id-b55968dd-96fa-404b-8201-f9bf390124ef">
            <path
               style="stroke:none;stroke-width:0"
               d="m 2.921875,-8.296875 -1.5625,1.625 0.1875,0.1875 1.375,-1.234375 1.375,1.234375 0.1875,-0.1875 z m 0,0"
               id="id-baa988b8-0dc1-4bdb-b494-2a77df7565fc" />
          </symbol>
          <symbol
             overflow="visible"
             id="id-7f85b40e-8c7e-4d9e-9d3c-aac176a0ff02">
            <path
               style="stroke:none;stroke-width:0"
               d=""
               id="id-5b93f774-bfb1-43f8-87de-d5a99941ba09" />
          </symbol>
          <symbol
             overflow="visible"
             id="id-6f8a9ed3-d1d3-4e14-82fc-6754cfd58368">
            <path
               style="stroke:none;stroke-width:0"
               d="m 5.671875,-4.875 c -0.390625,0.0625 -0.53125,0.359375 -0.53125,0.578125 0,0.296875 0.21875,0.390625 0.390625,0.390625 0.359375,0 0.609375,-0.3125 0.609375,-0.640625 0,-0.5 -0.578125,-0.71875 -1.078125,-0.71875 -0.71875,0 -1.125,0.71875 -1.234375,0.9375 -0.28125,-0.890625 -1.015625,-0.9375 -1.234375,-0.9375 -1.21875,0 -1.859375,1.5625 -1.859375,1.828125 0,0.046875 0.046875,0.109375 0.125,0.109375 0.09375,0 0.125,-0.078125 0.140625,-0.125 0.40625,-1.328125 1.21875,-1.578125 1.5625,-1.578125 0.53125,0 0.640625,0.5 0.640625,0.78125 0,0.265625 -0.078125,0.546875 -0.21875,1.125 L 2.578125,-1.5 c -0.171875,0.71875 -0.515625,1.375 -1.15625,1.375 -0.0625,0 -0.359375,0 -0.609375,-0.15625 C 1.25,-0.359375 1.34375,-0.71875 1.34375,-0.859375 1.34375,-1.09375 1.15625,-1.25 0.9375,-1.25 c -0.296875,0 -0.609375,0.265625 -0.609375,0.640625 0,0.5 0.5625,0.734375 1.078125,0.734375 0.578125,0 0.984375,-0.453125 1.234375,-0.953125 C 2.828125,-0.125 3.4375,0.125 3.875,0.125 5.09375,0.125 5.734375,-1.453125 5.734375,-1.703125 5.734375,-1.765625 5.6875,-1.8125 5.625,-1.8125 5.515625,-1.8125 5.5,-1.75 5.46875,-1.65625 5.140625,-0.609375 4.453125,-0.125 3.90625,-0.125 3.484375,-0.125 3.265625,-0.4375 3.265625,-0.921875 3.265625,-1.1875 3.3125,-1.375 3.5,-2.15625 L 3.921875,-3.796875 C 4.09375,-4.5 4.5,-5.03125 5.0625,-5.03125 c 0.015625,0 0.359375,0 0.609375,0.15625 z m 0,0"
               id="id-51963ad1-cdaf-419f-a90a-1f5799cb803e" />
          </symbol>
        </g>
      </defs>
      <g
         id="id-d58696cc-3803-4454-84c9-97e9605460ed"
         transform="translate(-128.741,-129.456)">
        <g
           style="fill:#000000;fill-opacity:1"
           id="id-b5ca85ca-8266-4e10-8ad7-bd4c03aac815">
          <g
             transform="translate(129.138,137.753)"
             id="g5909">
            <path
               style="stroke:none;stroke-width:0"
               d="m 2.921875,-8.296875 -1.5625,1.625 0.1875,0.1875 1.375,-1.234375 1.375,1.234375 0.1875,-0.1875 z m 0,0"
               id="id-47784674-834b-4c88-bfac-7c2fc36a62ce" />
          </g>
        </g>
        <g
           style="fill:#000000;fill-opacity:1"
           id="id-7513a66a-ee8f-465f-bb20-f1450804ec8a">
          <g
             transform="translate(128.413,137.753)"
             id="g5913">
            <path
               style="stroke:none;stroke-width:0"
               d="m 5.671875,-4.875 c -0.390625,0.0625 -0.53125,0.359375 -0.53125,0.578125 0,0.296875 0.21875,0.390625 0.390625,0.390625 0.359375,0 0.609375,-0.3125 0.609375,-0.640625 0,-0.5 -0.578125,-0.71875 -1.078125,-0.71875 -0.71875,0 -1.125,0.71875 -1.234375,0.9375 -0.28125,-0.890625 -1.015625,-0.9375 -1.234375,-0.9375 -1.21875,0 -1.859375,1.5625 -1.859375,1.828125 0,0.046875 0.046875,0.109375 0.125,0.109375 0.09375,0 0.125,-0.078125 0.140625,-0.125 0.40625,-1.328125 1.21875,-1.578125 1.5625,-1.578125 0.53125,0 0.640625,0.5 0.640625,0.78125 0,0.265625 -0.078125,0.546875 -0.21875,1.125 L 2.578125,-1.5 c -0.171875,0.71875 -0.515625,1.375 -1.15625,1.375 -0.0625,0 -0.359375,0 -0.609375,-0.15625 C 1.25,-0.359375 1.34375,-0.71875 1.34375,-0.859375 1.34375,-1.09375 1.15625,-1.25 0.9375,-1.25 c -0.296875,0 -0.609375,0.265625 -0.609375,0.640625 0,0.5 0.5625,0.734375 1.078125,0.734375 0.578125,0 0.984375,-0.453125 1.234375,-0.953125 C 2.828125,-0.125 3.4375,0.125 3.875,0.125 5.09375,0.125 5.734375,-1.453125 5.734375,-1.703125 5.734375,-1.765625 5.6875,-1.8125 5.625,-1.8125 5.515625,-1.8125 5.5,-1.75 5.46875,-1.65625 5.140625,-0.609375 4.453125,-0.125 3.90625,-0.125 3.484375,-0.125 3.265625,-0.4375 3.265625,-0.921875 3.265625,-1.1875 3.3125,-1.375 3.5,-2.15625 L 3.921875,-3.796875 C 4.09375,-4.5 4.5,-5.03125 5.0625,-5.03125 c 0.015625,0 0.359375,0 0.609375,0.15625 z m 0,0"
               id="id-f96d98bd-5bd4-424e-b5f3-8d3b7988b11f" />
          </g>
        </g>
      </g>
    </g>
    <g
       transform="matrix(1.33333,0,0,1.33333,73.030028,93.773095)"
       ns4:version="1.8.2"
       ns4:texconverter="pdflatex"
       ns4:pdfconverter="inkscape"
       ns4:text="$\\hat{z}$"
       ns4:preamble="/usr/share/inkscape/extensions/textext/default_packages.tex"
       ns4:scale="1.0"
       ns4:alignment="middle center"
       ns4:stroke-to-path="0"
       ns4:inkscapeversion="1.2.2"
       ns4:jacobian_sqrt="1.33333"
       id="g6336">
      <defs
         id="id-94a8ad47-1839-4472-bc5b-22b86a542d12">
        <g
           id="id-1338ebbc-3a07-41fe-b988-7592405c3656">
          <symbol
             overflow="visible"
             id="id-c27870a1-6a5c-4ee4-a734-3995a3e2cd4f">
            <path
               style="stroke:none;stroke-width:0"
               d=""
               id="id-7e7e4bdc-6f7a-44a9-bc59-25e06308c462" />
          </symbol>
          <symbol
             overflow="visible"
             id="id-2c1e85b0-3b02-4983-acde-91e5d8be0e2f">
            <path
               style="stroke:none;stroke-width:0"
               d="m 2.921875,-8.296875 -1.5625,1.625 0.1875,0.1875 1.375,-1.234375 1.375,1.234375 0.1875,-0.1875 z m 0,0"
               id="id-e68df380-1fae-40c8-8b2a-da90a31fab31" />
          </symbol>
          <symbol
             overflow="visible"
             id="id-ffe7a97c-3f0b-4ab8-985b-80024ff90503">
            <path
               style="stroke:none;stroke-width:0"
               d=""
               id="id-d972dbb5-84c1-424c-86d7-7348cab196db" />
          </symbol>
          <symbol
             overflow="visible"
             id="id-e44ef24b-581d-4e4a-b204-11a60775f97e">
            <path
               style="stroke:none;stroke-width:0"
               d="m 1.515625,-0.96875 c 0.515625,-0.578125 0.9375,-0.953125 1.53125,-1.5 C 3.765625,-3.078125 4.078125,-3.375 4.25,-3.5625 5.078125,-4.390625 5.5,-5.078125 5.5,-5.171875 c 0,-0.09375 -0.09375,-0.09375 -0.125,-0.09375 -0.078125,0 -0.109375,0.046875 -0.15625,0.125 C 4.90625,-4.625 4.625,-4.375 4.3125,-4.375 c -0.25,0 -0.375,-0.109375 -0.609375,-0.390625 -0.25,-0.296875 -0.453125,-0.5 -0.796875,-0.5 -0.875,0 -1.40625,1.078125 -1.40625,1.328125 0,0.046875 0.015625,0.109375 0.125,0.109375 0.09375,0 0.109375,-0.046875 0.140625,-0.125 0.203125,-0.484375 0.78125,-0.5625 1,-0.5625 0.265625,0 0.5,0.078125 0.75,0.1875 0.453125,0.1875 0.640625,0.1875 0.765625,0.1875 0.078125,0 0.125,0 0.1875,0 C 4.078125,-3.6875 3.4375,-3.109375 2.890625,-2.625 L 1.6875,-1.5 c -0.734375,0.734375 -1.171875,1.4375 -1.171875,1.53125 0,0.0625 0.0625,0.09375 0.125,0.09375 0.078125,0 0.09375,-0.015625 0.171875,-0.15625 0.1875,-0.296875 0.578125,-0.75 1.015625,-0.75 0.25,0 0.375,0.09375 0.609375,0.390625 C 2.671875,-0.125 2.875,0.125 3.25,0.125 c 1.171875,0 1.84375,-1.53125 1.84375,-1.796875 0,-0.046875 -0.015625,-0.125 -0.140625,-0.125 -0.09375,0 -0.09375,0.046875 -0.140625,0.171875 -0.265625,0.703125 -0.96875,0.984375 -1.4375,0.984375 -0.25,0 -0.484375,-0.078125 -0.734375,-0.1875 -0.484375,-0.1875 -0.609375,-0.1875 -0.765625,-0.1875 -0.125,0 -0.25,0 -0.359375,0.046875 z m 0,0"
               id="id-650aa1a0-1e3e-4374-898e-e7af450c0f32" />
          </symbol>
        </g>
      </defs>
      <g
         id="id-ab90a85f-5adf-4374-82e9-a2d10f8b9961"
         transform="translate(-128.929,-129.456)">
        <g
           style="fill:#000000;fill-opacity:1"
           id="id-699d452b-ab18-465d-9e52-56c35486454c">
          <g
             transform="translate(129.122,137.753)"
             id="g6328">
            <path
               style="stroke:none;stroke-width:0"
               d="m 2.921875,-8.296875 -1.5625,1.625 0.1875,0.1875 1.375,-1.234375 1.375,1.234375 0.1875,-0.1875 z m 0,0"
               id="id-11b26ff9-b0c5-4c51-a1e3-923c3b68a1a9" />
          </g>
        </g>
        <g
           style="fill:#000000;fill-opacity:1"
           id="id-9125c203-9aec-49c6-8fb2-56544f748410">
          <g
             transform="translate(128.413,137.753)"
             id="g6332">
            <path
               style="stroke:none;stroke-width:0"
               d="m 1.515625,-0.96875 c 0.515625,-0.578125 0.9375,-0.953125 1.53125,-1.5 C 3.765625,-3.078125 4.078125,-3.375 4.25,-3.5625 5.078125,-4.390625 5.5,-5.078125 5.5,-5.171875 c 0,-0.09375 -0.09375,-0.09375 -0.125,-0.09375 -0.078125,0 -0.109375,0.046875 -0.15625,0.125 C 4.90625,-4.625 4.625,-4.375 4.3125,-4.375 c -0.25,0 -0.375,-0.109375 -0.609375,-0.390625 -0.25,-0.296875 -0.453125,-0.5 -0.796875,-0.5 -0.875,0 -1.40625,1.078125 -1.40625,1.328125 0,0.046875 0.015625,0.109375 0.125,0.109375 0.09375,0 0.109375,-0.046875 0.140625,-0.125 0.203125,-0.484375 0.78125,-0.5625 1,-0.5625 0.265625,0 0.5,0.078125 0.75,0.1875 0.453125,0.1875 0.640625,0.1875 0.765625,0.1875 0.078125,0 0.125,0 0.1875,0 C 4.078125,-3.6875 3.4375,-3.109375 2.890625,-2.625 L 1.6875,-1.5 c -0.734375,0.734375 -1.171875,1.4375 -1.171875,1.53125 0,0.0625 0.0625,0.09375 0.125,0.09375 0.078125,0 0.09375,-0.015625 0.171875,-0.15625 0.1875,-0.296875 0.578125,-0.75 1.015625,-0.75 0.25,0 0.375,0.09375 0.609375,0.390625 C 2.671875,-0.125 2.875,0.125 3.25,0.125 c 1.171875,0 1.84375,-1.53125 1.84375,-1.796875 0,-0.046875 -0.015625,-0.125 -0.140625,-0.125 -0.09375,0 -0.09375,0.046875 -0.140625,0.171875 -0.265625,0.703125 -0.96875,0.984375 -1.4375,0.984375 -0.25,0 -0.484375,-0.078125 -0.734375,-0.1875 -0.484375,-0.1875 -0.609375,-0.1875 -0.765625,-0.1875 -0.125,0 -0.25,0 -0.359375,0.046875 z m 0,0"
               id="id-17159415-79a0-46f5-90e4-19af19f51043" />
          </g>
        </g>
      </g>
    </g>
    <g
       transform="matrix(1.33333,0,0,1.33333,92.930903,100.9688)"
       ns4:version="1.8.2"
       ns4:texconverter="pdflatex"
       ns4:pdfconverter="inkscape"
       ns4:text="$\\hat{y}$"
       ns4:preamble="/usr/share/inkscape/extensions/textext/default_packages.tex"
       ns4:scale="1.0"
       ns4:alignment="middle center"
       ns4:stroke-to-path="0"
       ns4:inkscapeversion="1.2.2"
       ns4:jacobian_sqrt="1.33333"
       id="g6791">
      <defs
         id="id-e0f5a079-65f6-42d9-bcb5-46679222b988">
        <g
           id="id-9677139c-f39a-4c70-9aee-68cf68757d81">
          <symbol
             overflow="visible"
             id="id-b3e4fa15-bbf6-470d-b7a2-6f38409ea170">
            <path
               style="stroke:none;stroke-width:0"
               d=""
               id="id-81d6b539-7b62-4068-8efc-e92d6bf23452" />
          </symbol>
          <symbol
             overflow="visible"
             id="id-0e819d6e-c30c-4e97-9728-c8d791685610">
            <path
               style="stroke:none;stroke-width:0"
               d="m 2.921875,-8.296875 -1.5625,1.625 0.1875,0.1875 1.375,-1.234375 1.375,1.234375 0.1875,-0.1875 z m 0,0"
               id="id-0730f8b7-e2b4-4e38-87c2-930465c037e1" />
          </symbol>
          <symbol
             overflow="visible"
             id="id-88d4c11e-a93f-445f-8bc3-c7c8697d61a5">
            <path
               style="stroke:none;stroke-width:0"
               d=""
               id="id-1b704edb-d9be-4a4e-b28b-fba9dc61644d" />
          </symbol>
          <symbol
             overflow="visible"
             id="id-3d40f439-16a7-4fd9-8159-bcaad58c3388">
            <path
               style="stroke:none;stroke-width:0"
               d="m 3.140625,1.34375 c -0.3125,0.453125 -0.78125,0.859375 -1.375,0.859375 C 1.625,2.203125 1.046875,2.171875 0.875,1.625 c 0.03125,0.015625 0.09375,0.015625 0.109375,0.015625 0.359375,0 0.609375,-0.3125 0.609375,-0.59375 C 1.59375,0.78125 1.359375,0.6875 1.1875,0.6875 c -0.203125,0 -0.609375,0.140625 -0.609375,0.71875 0,0.609375 0.515625,1.03125 1.1875,1.03125 C 2.96875,2.4375 4.171875,1.34375 4.5,0.015625 L 5.671875,-4.65625 C 5.6875,-4.703125 5.71875,-4.78125 5.71875,-4.859375 5.71875,-5.03125 5.5625,-5.15625 5.390625,-5.15625 5.28125,-5.15625 5.03125,-5.109375 4.9375,-4.75 L 4.046875,-1.234375 C 4,-1.015625 4,-0.984375 3.890625,-0.859375 3.65625,-0.53125 3.265625,-0.125 2.6875,-0.125 c -0.671875,0 -0.734375,-0.65625 -0.734375,-0.96875 0,-0.6875 0.328125,-1.609375 0.65625,-2.46875 0.125,-0.34375 0.203125,-0.515625 0.203125,-0.75 0,-0.5 -0.359375,-0.953125 -0.953125,-0.953125 -1.09375,0 -1.53125,1.734375 -1.53125,1.828125 0,0.046875 0.046875,0.109375 0.125,0.109375 0.109375,0 0.125,-0.046875 0.171875,-0.21875 0.28125,-1 0.734375,-1.484375 1.203125,-1.484375 0.109375,0 0.3125,0 0.3125,0.390625 0,0.3125 -0.125,0.65625 -0.3125,1.109375 C 1.25,-1.953125 1.25,-1.5625 1.25,-1.28125 1.25,-0.140625 2.0625,0.125 2.65625,0.125 3,0.125 3.4375,0.015625 3.84375,-0.4375 l 0.015625,0.015625 C 3.6875,0.28125 3.5625,0.75 3.140625,1.34375 Z m 0,0"
               id="id-278dbbc1-1bc7-4502-88f8-5b03dc8931be" />
          </symbol>
        </g>
      </defs>
      <g
         id="id-e34f3fef-90ea-476d-8416-f55e3df00bd8"
         transform="translate(-128.741,-129.456)">
        <g
           style="fill:#000000;fill-opacity:1"
           id="id-b1c92374-d7f8-404c-9317-bf12629629bb">
          <g
             transform="translate(129.205,137.753)"
             id="g6783">
            <path
               style="stroke:none;stroke-width:0"
               d="m 2.921875,-8.296875 -1.5625,1.625 0.1875,0.1875 1.375,-1.234375 1.375,1.234375 0.1875,-0.1875 z m 0,0"
               id="id-8c1d2623-388d-47a5-baf5-477b841a1e04" />
          </g>
        </g>
        <g
           style="fill:#000000;fill-opacity:1"
           id="id-10bc4592-4a93-4532-bd4e-91f20ec49776">
          <g
             transform="translate(128.413,137.753)"
             id="g6787">
            <path
               style="stroke:none;stroke-width:0"
               d="m 3.140625,1.34375 c -0.3125,0.453125 -0.78125,0.859375 -1.375,0.859375 C 1.625,2.203125 1.046875,2.171875 0.875,1.625 c 0.03125,0.015625 0.09375,0.015625 0.109375,0.015625 0.359375,0 0.609375,-0.3125 0.609375,-0.59375 C 1.59375,0.78125 1.359375,0.6875 1.1875,0.6875 c -0.203125,0 -0.609375,0.140625 -0.609375,0.71875 0,0.609375 0.515625,1.03125 1.1875,1.03125 C 2.96875,2.4375 4.171875,1.34375 4.5,0.015625 L 5.671875,-4.65625 C 5.6875,-4.703125 5.71875,-4.78125 5.71875,-4.859375 5.71875,-5.03125 5.5625,-5.15625 5.390625,-5.15625 5.28125,-5.15625 5.03125,-5.109375 4.9375,-4.75 L 4.046875,-1.234375 C 4,-1.015625 4,-0.984375 3.890625,-0.859375 3.65625,-0.53125 3.265625,-0.125 2.6875,-0.125 c -0.671875,0 -0.734375,-0.65625 -0.734375,-0.96875 0,-0.6875 0.328125,-1.609375 0.65625,-2.46875 0.125,-0.34375 0.203125,-0.515625 0.203125,-0.75 0,-0.5 -0.359375,-0.953125 -0.953125,-0.953125 -1.09375,0 -1.53125,1.734375 -1.53125,1.828125 0,0.046875 0.046875,0.109375 0.125,0.109375 0.109375,0 0.125,-0.046875 0.171875,-0.21875 0.28125,-1 0.734375,-1.484375 1.203125,-1.484375 0.109375,0 0.3125,0 0.3125,0.390625 0,0.3125 -0.125,0.65625 -0.3125,1.109375 C 1.25,-1.953125 1.25,-1.5625 1.25,-1.28125 1.25,-0.140625 2.0625,0.125 2.65625,0.125 3,0.125 3.4375,0.015625 3.84375,-0.4375 l 0.015625,0.015625 C 3.6875,0.28125 3.5625,0.75 3.140625,1.34375 Z m 0,0"
               id="id-7bf08367-f2bd-4b5b-94a3-b4d7c68c7663" />
          </g>
        </g>
      </g>
    </g>
    <g
       transform="matrix(1.33333,0,0,1.33333,166.16141,21.803264)"
       ns4:version="1.8.2"
       ns4:texconverter="pdflatex"
       ns4:pdfconverter="inkscape"
       ns4:text="$\\vec{\\kern1.5pt r}_P$\n$\\vec{ r}_P$"
       ns4:preamble="/usr/share/inkscape/extensions/textext/default_packages.tex"
       ns4:scale="1.0"
       ns4:alignment="middle center"
       ns4:stroke-to-path="0"
       ns4:inkscapeversion="1.2.2"
       ns4:jacobian_sqrt="1.33333"
       id="g8098">
      <defs
         id="id-66993011-c5c1-4a28-8f1b-e50da594a1a5">
        <g
           id="id-bc5f808d-9c68-4930-8c99-0047c17aee5e">
          <symbol
             overflow="visible"
             id="id-9e6e42e0-d213-4ef8-8458-ecb10f144a05">
            <path
               style="stroke:none;stroke-width:0"
               d=""
               id="id-0a72ca4a-d086-46df-9734-f6de1a74d124" />
          </symbol>
          <symbol
             overflow="visible"
             id="id-f67c2393-b55b-4ebd-964c-51143f8732d2">
            <path
               style="stroke:none;stroke-width:0"
               d="M 6.390625,-7.140625 C 6.25,-7 5.8125,-6.59375 5.8125,-6.421875 c 0,0.125 0.109375,0.234375 0.21875,0.234375 0.109375,0 0.15625,-0.078125 0.25,-0.203125 0.28125,-0.34375 0.609375,-0.578125 0.875,-0.734375 0.125,-0.078125 0.203125,-0.109375 0.203125,-0.234375 0,-0.109375 -0.09375,-0.171875 -0.15625,-0.234375 C 6.859375,-7.8125 6.78125,-8.140625 6.734375,-8.28125 6.703125,-8.375 6.671875,-8.515625 6.5,-8.515625 c -0.0625,0 -0.21875,0.046875 -0.21875,0.21875 0,0.109375 0.078125,0.390625 0.3125,0.71875 H 2.5625 c -0.203125,0 -0.40625,0 -0.40625,0.234375 0,0.203125 0.21875,0.203125 0.40625,0.203125 z m 0,0"
               id="id-13eed0ba-3bce-4c15-a068-6bcf400138ef" />
          </symbol>
          <symbol
             overflow="visible"
             id="id-91ba2aac-aad2-4e1c-94ea-d8ef482cd7e9">
            <path
               style="stroke:none;stroke-width:0"
               d="m 4.65625,-4.890625 c -0.375,0.078125 -0.5625,0.34375 -0.5625,0.59375 0,0.296875 0.21875,0.390625 0.390625,0.390625 0.328125,0 0.609375,-0.296875 0.609375,-0.640625 0,-0.390625 -0.375,-0.71875 -0.96875,-0.71875 -0.484375,0 -1.03125,0.203125 -1.53125,0.9375 -0.078125,-0.625 -0.5625,-0.9375 -1.046875,-0.9375 -0.453125,0 -0.703125,0.359375 -0.84375,0.609375 -0.203125,0.4375 -0.375,1.15625 -0.375,1.21875 0,0.046875 0.046875,0.109375 0.125,0.109375 0.09375,0 0.109375,-0.015625 0.1875,-0.296875 0.171875,-0.71875 0.40625,-1.40625 0.875,-1.40625 0.296875,0 0.375,0.203125 0.375,0.546875 0,0.265625 -0.125,0.734375 -0.203125,1.109375 l -0.34375,1.28125 c -0.046875,0.234375 -0.171875,0.765625 -0.234375,0.984375 -0.078125,0.3125 -0.21875,0.875 -0.21875,0.9375 0,0.15625 0.140625,0.296875 0.3125,0.296875 0.140625,0 0.359375,-0.09375 0.4375,-0.328125 C 1.671875,-0.296875 2.109375,-2.109375 2.1875,-2.375 2.25,-2.640625 2.3125,-2.890625 2.375,-3.15625 2.421875,-3.328125 2.46875,-3.515625 2.515625,-3.671875 2.546875,-3.78125 2.875,-4.359375 3.171875,-4.625 3.3125,-4.75 3.625,-5.03125 4.109375,-5.03125 4.296875,-5.03125 4.5,-5 4.65625,-4.890625 Z m 0,0"
               id="id-a182e46c-9d2e-4fe8-894a-c0c3c7683d4c" />
          </symbol>
          <symbol
             overflow="visible"
             id="id-3bbada2b-4f1e-446a-80ac-3ee11574c2ea">
            <path
               style="stroke:none;stroke-width:0"
               d=""
               id="id-78bcb674-193b-49c2-b679-6961651de774" />
          </symbol>
          <symbol
             overflow="visible"
             id="id-8e4535b9-9796-44dc-bef7-24b0fef93b95">
            <path
               style="stroke:none;stroke-width:0"
               d="m 2.515625,-2.484375 h 1.4375 c 1.15625,0 2.34375,-0.796875 2.34375,-1.734375 0,-0.6875 -0.625,-1.21875 -1.65625,-1.21875 h -2.6875 c -0.140625,0 -0.25,0 -0.25,0.140625 0,0.125 0.109375,0.125 0.234375,0.125 0.265625,0 0.5,0 0.5,0.125 0,0.03125 -0.015625,0.03125 -0.03125,0.140625 L 1.328125,-0.625 c -0.0625,0.296875 -0.078125,0.359375 -0.65625,0.359375 -0.171875,0 -0.265625,0 -0.265625,0.15625 C 0.40625,-0.078125 0.4375,0 0.53125,0 0.6875,0 0.875,-0.015625 1.03125,-0.03125 h 0.5 C 2.296875,-0.03125 2.515625,0 2.5625,0 c 0.046875,0 0.15625,0 0.15625,-0.15625 0,-0.109375 -0.09375,-0.109375 -0.234375,-0.109375 -0.015625,0 -0.171875,0 -0.296875,-0.015625 C 2.015625,-0.296875 2,-0.3125 2,-0.390625 2,-0.4375 2.015625,-0.484375 2.03125,-0.515625 Z M 3.09375,-4.890625 C 3.15625,-5.15625 3.171875,-5.171875 3.5,-5.171875 h 0.875 c 0.65625,0 1.15625,0.1875 1.15625,0.765625 0,0.109375 -0.046875,0.828125 -0.484375,1.265625 -0.125,0.109375 -0.5,0.421875 -1.28125,0.421875 h -1.21875 z m 0,0"
               id="id-f4a83b4c-8da7-40ff-beeb-dcc3354e3f57" />
          </symbol>
        </g>
      </defs>
      <g
         id="id-cceb7e0c-fed8-4f95-be26-b5a7b04f95b3"
         transform="translate(-130.232,-129.237)" />
    </g>
    <path
       style="fill:none;stroke:#000000;stroke-width:0.453543;stroke-dasharray:1.81418, 3.62839;stroke-dashoffset:0"
       d="m 81.477374,24.717541 57.155586,15.2778"
       id="path3262-1" />
    <g
       transform="matrix(1.33333 0 0 1.33333 42.1042 87.3125)"
       ns4:version="1.8.2"
       ns4:texconverter="pdflatex"
       ns4:pdfconverter="inkscape"
       ns4:text="$P$"
       ns4:preamble="/usr/share/inkscape/extensions/textext/default_packages.tex"
       ns4:scale="1.0"
       ns4:alignment="middle center"
       ns4:stroke-to-path="0"
       ns4:inkscapeversion="1.2.2"
       ns4:jacobian_sqrt="1.33333"
       id="g10619">
      <defs
         id="id-999d0e51-da1d-4a50-9b02-8ce2a9c1dab2">
        <g
           id="id-c8b5bc2c-714c-4dd2-ae9f-8761a5f8b8f8">
          <symbol
             overflow="visible"
             id="id-df1dd7bb-c916-43d4-a01b-b8acfc5f8be6">
            <path
               style="stroke:none;stroke-width:0"
               d=""
               id="id-3eec787b-9215-43e8-bbf3-a700bec5329e" />
          </symbol>
          <symbol
             overflow="visible"
             id="id-c731494f-d035-4f2b-adf2-ada00da4a815">
            <path
               style="stroke:none;stroke-width:0"
               d="m 3.53125,-3.796875 h 2.015625 c 1.65625,0 3.296875,-1.21875 3.296875,-2.59375 0,-0.921875 -0.78125,-1.765625 -2.296875,-1.765625 h -3.6875 c -0.234375,0 -0.34375,0 -0.34375,0.21875 0,0.125 0.109375,0.125 0.296875,0.125 0.71875,0 0.71875,0.09375 0.71875,0.21875 0,0.03125 0,0.09375 -0.046875,0.28125 L 1.875,-0.890625 C 1.765625,-0.46875 1.75,-0.34375 0.90625,-0.34375 c -0.21875,0 -0.34375,0 -0.34375,0.21875 C 0.5625,0 0.671875,0 0.734375,0 0.96875,0 1.203125,-0.03125 1.4375,-0.03125 H 2.828125 C 3.0625,-0.03125 3.3125,0 3.53125,0 3.640625,0 3.765625,0 3.765625,-0.234375 3.765625,-0.34375 3.65625,-0.34375 3.484375,-0.34375 2.765625,-0.34375 2.75,-0.4375 2.75,-0.546875 2.75,-0.609375 2.765625,-0.6875 2.765625,-0.75 Z m 0.875,-3.546875 C 4.5,-7.796875 4.546875,-7.8125 5.015625,-7.8125 h 1.1875 c 0.890625,0 1.640625,0.28125 1.640625,1.171875 0,0.3125 -0.15625,1.328125 -0.703125,1.890625 -0.203125,0.203125 -0.78125,0.65625 -1.875,0.65625 h -1.6875 z m 0,0"
               id="id-6733a9e5-bad8-4d44-830a-85b6e93dd892" />
          </symbol>
        </g>
      </defs>
      <g
         id="id-15fad6ef-5d3c-46b6-8652-fbf85e10fd20"
         transform="translate(-53.884725,-174.03241)">
        <g
           style="fill:#000000;fill-opacity:1"
           id="id-daa28b28-1944-4a72-b2b9-549dd2c0413c">
          <g
             transform="translate(128.413,137.753)"
             id="g10615">
            <path
               style="stroke:none;stroke-width:0"
               d="m 3.53125,-3.796875 h 2.015625 c 1.65625,0 3.296875,-1.21875 3.296875,-2.59375 0,-0.921875 -0.78125,-1.765625 -2.296875,-1.765625 h -3.6875 c -0.234375,0 -0.34375,0 -0.34375,0.21875 0,0.125 0.109375,0.125 0.296875,0.125 0.71875,0 0.71875,0.09375 0.71875,0.21875 0,0.03125 0,0.09375 -0.046875,0.28125 L 1.875,-0.890625 C 1.765625,-0.46875 1.75,-0.34375 0.90625,-0.34375 c -0.21875,0 -0.34375,0 -0.34375,0.21875 C 0.5625,0 0.671875,0 0.734375,0 0.96875,0 1.203125,-0.03125 1.4375,-0.03125 H 2.828125 C 3.0625,-0.03125 3.3125,0 3.53125,0 3.640625,0 3.765625,0 3.765625,-0.234375 3.765625,-0.34375 3.65625,-0.34375 3.484375,-0.34375 2.765625,-0.34375 2.75,-0.4375 2.75,-0.546875 2.75,-0.609375 2.765625,-0.6875 2.765625,-0.75 Z m 0.875,-3.546875 C 4.5,-7.796875 4.546875,-7.8125 5.015625,-7.8125 h 1.1875 c 0.890625,0 1.640625,0.28125 1.640625,1.171875 0,0.3125 -0.15625,1.328125 -0.703125,1.890625 -0.203125,0.203125 -0.78125,0.65625 -1.875,0.65625 h -1.6875 z m 0,0"
               id="id-1f01af27-8786-4a03-a343-8e13f1291124" />
          </g>
        </g>
      </g>
    </g>
    <g
       transform="matrix(1.33333,0,0,1.33333,18.505655,116.03621)"
       ns4:version="1.8.2"
       ns4:texconverter="pdflatex"
       ns4:pdfconverter="inkscape"
       ns4:text="$\\vec{\\kern1ptx}_P(t)$"
       ns4:preamble="/usr/share/inkscape/extensions/textext/default_packages.tex"
       ns4:scale="1.0"
       ns4:alignment="middle center"
       ns4:stroke-to-path="0"
       ns4:inkscapeversion="1.2.2"
       ns4:jacobian_sqrt="1.33333"
       id="g16605">
      <defs
         id="id-fad0cae3-7bd8-4940-9411-08c2cf32be49">
        <g
           id="id-91597c23-7a81-45f8-b8be-7c5e9de91557">
          <symbol
             overflow="visible"
             id="id-4ceaf555-cfd2-4b56-b3de-871469ad85be">
            <path
               style="stroke:none"
               d=""
               id="id-334531f2-5dcb-4328-af94-f4953bd039fa" />
          </symbol>
          <symbol
             overflow="visible"
             id="id-8c638668-bd39-454d-b65a-406d22db96a4">
            <path
               style="stroke:none"
               d="M 6.390625,-7.140625 C 6.25,-7 5.8125,-6.59375 5.8125,-6.421875 c 0,0.125 0.109375,0.234375 0.21875,0.234375 0.109375,0 0.15625,-0.078125 0.25,-0.203125 0.28125,-0.34375 0.609375,-0.578125 0.875,-0.734375 0.125,-0.078125 0.203125,-0.109375 0.203125,-0.234375 0,-0.109375 -0.09375,-0.171875 -0.15625,-0.234375 C 6.859375,-7.8125 6.78125,-8.140625 6.734375,-8.28125 6.703125,-8.375 6.671875,-8.515625 6.5,-8.515625 c -0.0625,0 -0.21875,0.046875 -0.21875,0.21875 0,0.109375 0.078125,0.390625 0.3125,0.71875 H 2.5625 c -0.203125,0 -0.40625,0 -0.40625,0.234375 0,0.203125 0.21875,0.203125 0.40625,0.203125 z m 0,0"
               id="id-13adc9b2-1bba-494f-a987-8862b9a5a513" />
          </symbol>
          <symbol
             overflow="visible"
             id="id-6ff98b6b-e490-4386-832c-3c1df622ed0e">
            <path
               style="stroke:none"
               d="m 5.671875,-4.875 c -0.390625,0.0625 -0.53125,0.359375 -0.53125,0.578125 0,0.296875 0.21875,0.390625 0.390625,0.390625 0.359375,0 0.609375,-0.3125 0.609375,-0.640625 0,-0.5 -0.578125,-0.71875 -1.078125,-0.71875 -0.71875,0 -1.125,0.71875 -1.234375,0.9375 -0.28125,-0.890625 -1.015625,-0.9375 -1.234375,-0.9375 -1.21875,0 -1.859375,1.5625 -1.859375,1.828125 0,0.046875 0.046875,0.109375 0.125,0.109375 0.09375,0 0.125,-0.078125 0.140625,-0.125 0.40625,-1.328125 1.21875,-1.578125 1.5625,-1.578125 0.53125,0 0.640625,0.5 0.640625,0.78125 0,0.265625 -0.078125,0.546875 -0.21875,1.125 L 2.578125,-1.5 c -0.171875,0.71875 -0.515625,1.375 -1.15625,1.375 -0.0625,0 -0.359375,0 -0.609375,-0.15625 C 1.25,-0.359375 1.34375,-0.71875 1.34375,-0.859375 1.34375,-1.09375 1.15625,-1.25 0.9375,-1.25 c -0.296875,0 -0.609375,0.265625 -0.609375,0.640625 0,0.5 0.5625,0.734375 1.078125,0.734375 0.578125,0 0.984375,-0.453125 1.234375,-0.953125 C 2.828125,-0.125 3.4375,0.125 3.875,0.125 5.09375,0.125 5.734375,-1.453125 5.734375,-1.703125 5.734375,-1.765625 5.6875,-1.8125 5.625,-1.8125 5.515625,-1.8125 5.5,-1.75 5.46875,-1.65625 5.140625,-0.609375 4.453125,-0.125 3.90625,-0.125 3.484375,-0.125 3.265625,-0.4375 3.265625,-0.921875 3.265625,-1.1875 3.3125,-1.375 3.5,-2.15625 L 3.921875,-3.796875 C 4.09375,-4.5 4.5,-5.03125 5.0625,-5.03125 c 0.015625,0 0.359375,0 0.609375,0.15625 z m 0,0"
               id="id-5d88c0b2-d7bd-4c2e-93ae-a24c1c8bc8ae" />
          </symbol>
          <symbol
             overflow="visible"
             id="id-5b071c05-6b64-4667-8d8e-b55c96a6cff0">
            <path
               style="stroke:none"
               d="M 2.40625,-4.8125 H 3.5 c 0.234375,0 0.34375,0 0.34375,-0.203125 0,-0.140625 -0.0625,-0.140625 -0.3125,-0.140625 H 2.484375 l 0.4375,-1.734375 C 2.96875,-7.0625 2.96875,-7.09375 2.96875,-7.171875 c 0,-0.1875 -0.140625,-0.296875 -0.296875,-0.296875 -0.109375,0 -0.375,0.03125 -0.46875,0.421875 l -0.46875,1.890625 h -1.125 c -0.234375,0 -0.34375,0 -0.34375,0.234375 0,0.109375 0.078125,0.109375 0.3125,0.109375 h 1.0625 L 0.84375,-1.65625 c -0.09375,0.421875 -0.125,0.546875 -0.125,0.703125 0,0.5625 0.390625,1.078125 1.0625,1.078125 1.203125,0 1.859375,-1.75 1.859375,-1.828125 0,-0.078125 -0.0625,-0.109375 -0.125,-0.109375 -0.03125,0 -0.078125,0 -0.09375,0.046875 C 3.40625,-1.75 3.390625,-1.75 3.3125,-1.546875 c -0.25,0.59375 -0.796875,1.421875 -1.5,1.421875 -0.359375,0 -0.375,-0.296875 -0.375,-0.5625 0,0 0,-0.234375 0.03125,-0.375 z m 0,0"
               id="id-61fcfb41-c8cf-4b07-b0fc-df967201213f" />
          </symbol>
          <symbol
             overflow="visible"
             id="id-818d87c5-1f48-407a-a5af-9febcea8da4f">
            <path
               style="stroke:none"
               d=""
               id="id-e377076a-46d7-4d71-b33d-0552bb3f81af" />
          </symbol>
          <symbol
             overflow="visible"
             id="id-a9f4b31b-a6dc-47bc-8e00-d5eaebfcb101">
            <path
               style="stroke:none"
               d="m 2.515625,-2.484375 h 1.4375 c 1.15625,0 2.34375,-0.796875 2.34375,-1.734375 0,-0.6875 -0.625,-1.21875 -1.65625,-1.21875 h -2.6875 c -0.140625,0 -0.25,0 -0.25,0.140625 0,0.125 0.109375,0.125 0.234375,0.125 0.265625,0 0.5,0 0.5,0.125 0,0.03125 -0.015625,0.03125 -0.03125,0.140625 L 1.328125,-0.625 c -0.0625,0.296875 -0.078125,0.359375 -0.65625,0.359375 -0.171875,0 -0.265625,0 -0.265625,0.15625 C 0.40625,-0.078125 0.4375,0 0.53125,0 0.6875,0 0.875,-0.015625 1.03125,-0.03125 h 0.5 C 2.296875,-0.03125 2.515625,0 2.5625,0 c 0.046875,0 0.15625,0 0.15625,-0.15625 0,-0.109375 -0.09375,-0.109375 -0.234375,-0.109375 -0.015625,0 -0.171875,0 -0.296875,-0.015625 C 2.015625,-0.296875 2,-0.3125 2,-0.390625 2,-0.4375 2.015625,-0.484375 2.03125,-0.515625 Z M 3.09375,-4.890625 C 3.15625,-5.15625 3.171875,-5.171875 3.5,-5.171875 h 0.875 c 0.65625,0 1.15625,0.1875 1.15625,0.765625 0,0.109375 -0.046875,0.828125 -0.484375,1.265625 -0.125,0.109375 -0.5,0.421875 -1.28125,0.421875 h -1.21875 z m 0,0"
               id="id-851c63d7-92aa-4bc0-a736-f4399ac60f49" />
          </symbol>
          <symbol
             overflow="visible"
             id="id-cd02c67b-d251-4283-ba55-7a5311309f32">
            <path
               style="stroke:none"
               d=""
               id="id-a738b272-b445-46c0-85b2-8f92ef4e29a3" />
          </symbol>
          <symbol
             overflow="visible"
             id="id-f76e58b8-2ff7-4719-8c7b-563889f3ead6">
            <path
               style="stroke:none"
               d="m 3.890625,2.90625 c 0,-0.03125 0,-0.0625 -0.203125,-0.265625 C 2.484375,1.4375 1.8125,-0.53125 1.8125,-2.96875 c 0,-2.328125 0.5625,-4.328125 1.953125,-5.734375 0.125,-0.109375 0.125,-0.125 0.125,-0.171875 0,-0.0625 -0.0625,-0.09375 -0.109375,-0.09375 -0.15625,0 -1.140625,0.859375 -1.71875,2.03125 -0.609375,1.21875 -0.890625,2.484375 -0.890625,3.96875 0,1.0625 0.171875,2.484375 0.78125,3.75 C 2.671875,2.21875 3.640625,3 3.78125,3 3.828125,3 3.890625,2.96875 3.890625,2.90625 Z m 0,0"
               id="id-0c26af28-87ca-4b71-9497-2aca3583b217" />
          </symbol>
          <symbol
             overflow="visible"
             id="id-8ff7c019-4164-4eef-8faf-c9faf43d09e6">
            <path
               style="stroke:none"
               d="M 3.375,-2.96875 C 3.375,-3.890625 3.25,-5.359375 2.578125,-6.75 1.875,-8.1875 0.890625,-8.96875 0.765625,-8.96875 c -0.046875,0 -0.109375,0.03125 -0.109375,0.09375 0,0.046875 0,0.0625 0.203125,0.265625 1.203125,1.203125 1.859375,3.1875 1.859375,5.625 0,2.3125 -0.5625,4.3125 -1.9375,5.71875 C 0.65625,2.84375 0.65625,2.875 0.65625,2.90625 0.65625,2.96875 0.71875,3 0.765625,3 0.921875,3 1.90625,2.140625 2.484375,0.96875 3.09375,-0.25 3.375,-1.546875 3.375,-2.96875 Z m 0,0"
               id="id-5f9f011f-0bfc-4608-a0b5-070f9953d287" />
          </symbol>
        </g>
      </defs>
      <g
         id="id-49b8121f-513d-40da-b149-5c99739b58ae"
         transform="translate(-129.742,-128.784)">
        <g
           style="fill:#000000;fill-opacity:1"
           id="id-c34bddee-f5f1-4a70-a803-f561d62ae778">
          <g
             transform="translate(128.391,137.753)"
             id="g12013">
            <path
               style="stroke:none"
               d="M 6.390625,-7.140625 C 6.25,-7 5.8125,-6.59375 5.8125,-6.421875 c 0,0.125 0.109375,0.234375 0.21875,0.234375 0.109375,0 0.15625,-0.078125 0.25,-0.203125 0.28125,-0.34375 0.609375,-0.578125 0.875,-0.734375 0.125,-0.078125 0.203125,-0.109375 0.203125,-0.234375 0,-0.109375 -0.09375,-0.171875 -0.15625,-0.234375 C 6.859375,-7.8125 6.78125,-8.140625 6.734375,-8.28125 6.703125,-8.375 6.671875,-8.515625 6.5,-8.515625 c -0.0625,0 -0.21875,0.046875 -0.21875,0.21875 0,0.109375 0.078125,0.390625 0.3125,0.71875 H 2.5625 c -0.203125,0 -0.40625,0 -0.40625,0.234375 0,0.203125 0.21875,0.203125 0.40625,0.203125 z m 0,0"
               id="id-d9ba100e-e17d-48e8-9452-aef65f3551a8" />
          </g>
        </g>
        <g
           style="fill:#000000;fill-opacity:1"
           id="id-dc247769-9aa9-44a0-a5fa-c985b6673644">
          <g
             transform="translate(129.414,137.753)"
             id="g12017">
            <path
               style="stroke:none"
               d="m 5.671875,-4.875 c -0.390625,0.0625 -0.53125,0.359375 -0.53125,0.578125 0,0.296875 0.21875,0.390625 0.390625,0.390625 0.359375,0 0.609375,-0.3125 0.609375,-0.640625 0,-0.5 -0.578125,-0.71875 -1.078125,-0.71875 -0.71875,0 -1.125,0.71875 -1.234375,0.9375 -0.28125,-0.890625 -1.015625,-0.9375 -1.234375,-0.9375 -1.21875,0 -1.859375,1.5625 -1.859375,1.828125 0,0.046875 0.046875,0.109375 0.125,0.109375 0.09375,0 0.125,-0.078125 0.140625,-0.125 0.40625,-1.328125 1.21875,-1.578125 1.5625,-1.578125 0.53125,0 0.640625,0.5 0.640625,0.78125 0,0.265625 -0.078125,0.546875 -0.21875,1.125 L 2.578125,-1.5 c -0.171875,0.71875 -0.515625,1.375 -1.15625,1.375 -0.0625,0 -0.359375,0 -0.609375,-0.15625 C 1.25,-0.359375 1.34375,-0.71875 1.34375,-0.859375 1.34375,-1.09375 1.15625,-1.25 0.9375,-1.25 c -0.296875,0 -0.609375,0.265625 -0.609375,0.640625 0,0.5 0.5625,0.734375 1.078125,0.734375 0.578125,0 0.984375,-0.453125 1.234375,-0.953125 C 2.828125,-0.125 3.4375,0.125 3.875,0.125 5.09375,0.125 5.734375,-1.453125 5.734375,-1.703125 5.734375,-1.765625 5.6875,-1.8125 5.625,-1.8125 5.515625,-1.8125 5.5,-1.75 5.46875,-1.65625 5.140625,-0.609375 4.453125,-0.125 3.90625,-0.125 3.484375,-0.125 3.265625,-0.4375 3.265625,-0.921875 3.265625,-1.1875 3.3125,-1.375 3.5,-2.15625 L 3.921875,-3.796875 C 4.09375,-4.5 4.5,-5.03125 5.0625,-5.03125 c 0.015625,0 0.359375,0 0.609375,0.15625 z m 0,0"
               id="id-06be2853-ded3-4427-bf3e-5b98d75d1edc" />
          </g>
        </g>
        <g
           style="fill:#000000;fill-opacity:1"
           id="id-5adf34a7-3887-4a5f-8dad-8a0ebbc92e70">
          <g
             transform="translate(136.062,140.116)"
             id="g12021">
            <path
               style="stroke:none"
               d="m 2.515625,-2.484375 h 1.4375 c 1.15625,0 2.34375,-0.796875 2.34375,-1.734375 0,-0.6875 -0.625,-1.21875 -1.65625,-1.21875 h -2.6875 c -0.140625,0 -0.25,0 -0.25,0.140625 0,0.125 0.109375,0.125 0.234375,0.125 0.265625,0 0.5,0 0.5,0.125 0,0.03125 -0.015625,0.03125 -0.03125,0.140625 L 1.328125,-0.625 c -0.0625,0.296875 -0.078125,0.359375 -0.65625,0.359375 -0.171875,0 -0.265625,0 -0.265625,0.15625 C 0.40625,-0.078125 0.4375,0 0.53125,0 0.6875,0 0.875,-0.015625 1.03125,-0.03125 h 0.5 C 2.296875,-0.03125 2.515625,0 2.5625,0 c 0.046875,0 0.15625,0 0.15625,-0.15625 0,-0.109375 -0.09375,-0.109375 -0.234375,-0.109375 -0.015625,0 -0.171875,0 -0.296875,-0.015625 C 2.015625,-0.296875 2,-0.3125 2,-0.390625 2,-0.4375 2.015625,-0.484375 2.03125,-0.515625 Z M 3.09375,-4.890625 C 3.15625,-5.15625 3.171875,-5.171875 3.5,-5.171875 h 0.875 c 0.65625,0 1.15625,0.1875 1.15625,0.765625 0,0.109375 -0.046875,0.828125 -0.484375,1.265625 -0.125,0.109375 -0.5,0.421875 -1.28125,0.421875 h -1.21875 z m 0,0"
               id="id-1b2be613-e8d8-4e71-82ac-48c9e67bd2bc" />
          </g>
        </g>
        <g
           style="fill:#000000;fill-opacity:1"
           id="id-e307370c-27df-4d09-89e8-99248b55b5ed">
          <g
             transform="translate(143.105,137.753)"
             id="g12025">
            <path
               style="stroke:none"
               d="m 3.890625,2.90625 c 0,-0.03125 0,-0.0625 -0.203125,-0.265625 C 2.484375,1.4375 1.8125,-0.53125 1.8125,-2.96875 c 0,-2.328125 0.5625,-4.328125 1.953125,-5.734375 0.125,-0.109375 0.125,-0.125 0.125,-0.171875 0,-0.0625 -0.0625,-0.09375 -0.109375,-0.09375 -0.15625,0 -1.140625,0.859375 -1.71875,2.03125 -0.609375,1.21875 -0.890625,2.484375 -0.890625,3.96875 0,1.0625 0.171875,2.484375 0.78125,3.75 C 2.671875,2.21875 3.640625,3 3.78125,3 3.828125,3 3.890625,2.96875 3.890625,2.90625 Z m 0,0"
               id="id-8cb4deff-a01e-468b-96f1-c63361e1ef35" />
          </g>
        </g>
        <g
           style="fill:#000000;fill-opacity:1"
           id="id-a1f5344a-3718-4666-b12e-e9587bc0bb88">
          <g
             transform="translate(147.657,137.753)"
             id="g12029">
            <path
               style="stroke:none"
               d="M 2.40625,-4.8125 H 3.5 c 0.234375,0 0.34375,0 0.34375,-0.203125 0,-0.140625 -0.0625,-0.140625 -0.3125,-0.140625 H 2.484375 l 0.4375,-1.734375 C 2.96875,-7.0625 2.96875,-7.09375 2.96875,-7.171875 c 0,-0.1875 -0.140625,-0.296875 -0.296875,-0.296875 -0.109375,0 -0.375,0.03125 -0.46875,0.421875 l -0.46875,1.890625 h -1.125 c -0.234375,0 -0.34375,0 -0.34375,0.234375 0,0.109375 0.078125,0.109375 0.3125,0.109375 h 1.0625 L 0.84375,-1.65625 c -0.09375,0.421875 -0.125,0.546875 -0.125,0.703125 0,0.5625 0.390625,1.078125 1.0625,1.078125 1.203125,0 1.859375,-1.75 1.859375,-1.828125 0,-0.078125 -0.0625,-0.109375 -0.125,-0.109375 -0.03125,0 -0.078125,0 -0.09375,0.046875 C 3.40625,-1.75 3.390625,-1.75 3.3125,-1.546875 c -0.25,0.59375 -0.796875,1.421875 -1.5,1.421875 -0.359375,0 -0.375,-0.296875 -0.375,-0.5625 0,0 0,-0.234375 0.03125,-0.375 z m 0,0"
               id="id-1ff15f30-8843-4e87-bac7-d9a9ae0474ed" />
          </g>
        </g>
        <g
           style="fill:#000000;fill-opacity:1"
           id="id-269f0e45-3c87-45f7-8201-5a868923856b">
          <g
             transform="translate(151.884,137.753)"
             id="g12033">
            <path
               style="stroke:none"
               d="M 3.375,-2.96875 C 3.375,-3.890625 3.25,-5.359375 2.578125,-6.75 1.875,-8.1875 0.890625,-8.96875 0.765625,-8.96875 c -0.046875,0 -0.109375,0.03125 -0.109375,0.09375 0,0.046875 0,0.0625 0.203125,0.265625 1.203125,1.203125 1.859375,3.1875 1.859375,5.625 0,2.3125 -0.5625,4.3125 -1.9375,5.71875 C 0.65625,2.84375 0.65625,2.875 0.65625,2.90625 0.65625,2.96875 0.71875,3 0.765625,3 0.921875,3 1.90625,2.140625 2.484375,0.96875 3.09375,-0.25 3.375,-1.546875 3.375,-2.96875 Z m 0,0"
               id="id-4fc21f52-57a1-4c49-a67a-a2b634050d2b" />
          </g>
        </g>
      </g>
    </g>
    <g
       transform="matrix(1.33333 0 0 1.33333 142.524 96.688)"
       ns4:version="1.8.2"
       ns4:texconverter="pdflatex"
       ns4:pdfconverter="inkscape"
       ns4:text="$\\vec{\\kern1.2pt y}_P(t)$"
       ns4:preamble="/usr/share/inkscape/extensions/textext/default_packages.tex"
       ns4:scale="1.0"
       ns4:alignment="middle center"
       ns4:stroke-to-path="0"
       ns4:inkscapeversion="1.2.2"
       ns4:jacobian_sqrt="1.33333"
       id="g19035">
      <defs
         id="id-62ea9f56-344c-4741-8301-9ddcf7af45a7">
        <g
           id="id-73cccd8a-79dc-4cf0-80e7-750da75eb40d">
          <symbol
             overflow="visible"
             id="id-6695c3cb-9f46-400b-8aac-64453b46cbda">
            <path
               style="stroke:none"
               d=""
               id="id-b0d75d63-d7b8-4445-9357-4dc9e7f2c816" />
          </symbol>
          <symbol
             overflow="visible"
             id="id-a1054e49-1fe6-40a3-b864-f6c6e1aa7eb7">
            <path
               style="stroke:none"
               d="M 6.390625,-7.140625 C 6.25,-7 5.8125,-6.59375 5.8125,-6.421875 c 0,0.125 0.109375,0.234375 0.21875,0.234375 0.109375,0 0.15625,-0.078125 0.25,-0.203125 0.28125,-0.34375 0.609375,-0.578125 0.875,-0.734375 0.125,-0.078125 0.203125,-0.109375 0.203125,-0.234375 0,-0.109375 -0.09375,-0.171875 -0.15625,-0.234375 C 6.859375,-7.8125 6.78125,-8.140625 6.734375,-8.28125 6.703125,-8.375 6.671875,-8.515625 6.5,-8.515625 c -0.0625,0 -0.21875,0.046875 -0.21875,0.21875 0,0.109375 0.078125,0.390625 0.3125,0.71875 H 2.5625 c -0.203125,0 -0.40625,0 -0.40625,0.234375 0,0.203125 0.21875,0.203125 0.40625,0.203125 z m 0,0"
               id="id-8dabce7e-c890-4e80-94e6-fd1ccc22f970" />
          </symbol>
          <symbol
             overflow="visible"
             id="id-b58c84a1-a916-4b0e-8c6a-bff24ff7c06b">
            <path
               style="stroke:none"
               d="m 3.140625,1.34375 c -0.3125,0.453125 -0.78125,0.859375 -1.375,0.859375 C 1.625,2.203125 1.046875,2.171875 0.875,1.625 c 0.03125,0.015625 0.09375,0.015625 0.109375,0.015625 0.359375,0 0.609375,-0.3125 0.609375,-0.59375 C 1.59375,0.78125 1.359375,0.6875 1.1875,0.6875 c -0.203125,0 -0.609375,0.140625 -0.609375,0.71875 0,0.609375 0.515625,1.03125 1.1875,1.03125 C 2.96875,2.4375 4.171875,1.34375 4.5,0.015625 L 5.671875,-4.65625 C 5.6875,-4.703125 5.71875,-4.78125 5.71875,-4.859375 5.71875,-5.03125 5.5625,-5.15625 5.390625,-5.15625 5.28125,-5.15625 5.03125,-5.109375 4.9375,-4.75 L 4.046875,-1.234375 C 4,-1.015625 4,-0.984375 3.890625,-0.859375 3.65625,-0.53125 3.265625,-0.125 2.6875,-0.125 c -0.671875,0 -0.734375,-0.65625 -0.734375,-0.96875 0,-0.6875 0.328125,-1.609375 0.65625,-2.46875 0.125,-0.34375 0.203125,-0.515625 0.203125,-0.75 0,-0.5 -0.359375,-0.953125 -0.953125,-0.953125 -1.09375,0 -1.53125,1.734375 -1.53125,1.828125 0,0.046875 0.046875,0.109375 0.125,0.109375 0.109375,0 0.125,-0.046875 0.171875,-0.21875 0.28125,-1 0.734375,-1.484375 1.203125,-1.484375 0.109375,0 0.3125,0 0.3125,0.390625 0,0.3125 -0.125,0.65625 -0.3125,1.109375 C 1.25,-1.953125 1.25,-1.5625 1.25,-1.28125 1.25,-0.140625 2.0625,0.125 2.65625,0.125 3,0.125 3.4375,0.015625 3.84375,-0.4375 l 0.015625,0.015625 C 3.6875,0.28125 3.5625,0.75 3.140625,1.34375 Z m 0,0"
               id="id-76cd5395-e898-4d2a-894c-2ac46948a4b8" />
          </symbol>
          <symbol
             overflow="visible"
             id="id-5b0dc2b7-cc97-46ca-afb8-8cc3617ff805">
            <path
               style="stroke:none"
               d="M 2.40625,-4.8125 H 3.5 c 0.234375,0 0.34375,0 0.34375,-0.203125 0,-0.140625 -0.0625,-0.140625 -0.3125,-0.140625 H 2.484375 l 0.4375,-1.734375 C 2.96875,-7.0625 2.96875,-7.09375 2.96875,-7.171875 c 0,-0.1875 -0.140625,-0.296875 -0.296875,-0.296875 -0.109375,0 -0.375,0.03125 -0.46875,0.421875 l -0.46875,1.890625 h -1.125 c -0.234375,0 -0.34375,0 -0.34375,0.234375 0,0.109375 0.078125,0.109375 0.3125,0.109375 h 1.0625 L 0.84375,-1.65625 c -0.09375,0.421875 -0.125,0.546875 -0.125,0.703125 0,0.5625 0.390625,1.078125 1.0625,1.078125 1.203125,0 1.859375,-1.75 1.859375,-1.828125 0,-0.078125 -0.0625,-0.109375 -0.125,-0.109375 -0.03125,0 -0.078125,0 -0.09375,0.046875 C 3.40625,-1.75 3.390625,-1.75 3.3125,-1.546875 c -0.25,0.59375 -0.796875,1.421875 -1.5,1.421875 -0.359375,0 -0.375,-0.296875 -0.375,-0.5625 0,0 0,-0.234375 0.03125,-0.375 z m 0,0"
               id="id-67427378-117c-4afb-a856-998f36c0de25" />
          </symbol>
          <symbol
             overflow="visible"
             id="id-4f9e49ba-106c-4879-8f42-cfbac13e91c9">
            <path
               style="stroke:none"
               d=""
               id="id-4440c8fc-f1ed-487c-86a1-be845a187884" />
          </symbol>
          <symbol
             overflow="visible"
             id="id-03d9e465-4e30-47cc-aa2a-b60098e2772c">
            <path
               style="stroke:none"
               d="m 2.515625,-2.484375 h 1.4375 c 1.15625,0 2.34375,-0.796875 2.34375,-1.734375 0,-0.6875 -0.625,-1.21875 -1.65625,-1.21875 h -2.6875 c -0.140625,0 -0.25,0 -0.25,0.140625 0,0.125 0.109375,0.125 0.234375,0.125 0.265625,0 0.5,0 0.5,0.125 0,0.03125 -0.015625,0.03125 -0.03125,0.140625 L 1.328125,-0.625 c -0.0625,0.296875 -0.078125,0.359375 -0.65625,0.359375 -0.171875,0 -0.265625,0 -0.265625,0.15625 C 0.40625,-0.078125 0.4375,0 0.53125,0 0.6875,0 0.875,-0.015625 1.03125,-0.03125 h 0.5 C 2.296875,-0.03125 2.515625,0 2.5625,0 c 0.046875,0 0.15625,0 0.15625,-0.15625 0,-0.109375 -0.09375,-0.109375 -0.234375,-0.109375 -0.015625,0 -0.171875,0 -0.296875,-0.015625 C 2.015625,-0.296875 2,-0.3125 2,-0.390625 2,-0.4375 2.015625,-0.484375 2.03125,-0.515625 Z M 3.09375,-4.890625 C 3.15625,-5.15625 3.171875,-5.171875 3.5,-5.171875 h 0.875 c 0.65625,0 1.15625,0.1875 1.15625,0.765625 0,0.109375 -0.046875,0.828125 -0.484375,1.265625 -0.125,0.109375 -0.5,0.421875 -1.28125,0.421875 h -1.21875 z m 0,0"
               id="id-b8a89a61-5242-4e87-ab88-214cb6df22ba" />
          </symbol>
          <symbol
             overflow="visible"
             id="id-aa6ec101-c390-4bc8-939e-28dffa1e8ab6">
            <path
               style="stroke:none"
               d=""
               id="id-5d25df7f-bfe8-41dc-bbb3-5d5d47a07c19" />
          </symbol>
          <symbol
             overflow="visible"
             id="id-03fcbf43-66a3-416d-a633-716cec7fd2be">
            <path
               style="stroke:none"
               d="m 3.890625,2.90625 c 0,-0.03125 0,-0.0625 -0.203125,-0.265625 C 2.484375,1.4375 1.8125,-0.53125 1.8125,-2.96875 c 0,-2.328125 0.5625,-4.328125 1.953125,-5.734375 0.125,-0.109375 0.125,-0.125 0.125,-0.171875 0,-0.0625 -0.0625,-0.09375 -0.109375,-0.09375 -0.15625,0 -1.140625,0.859375 -1.71875,2.03125 -0.609375,1.21875 -0.890625,2.484375 -0.890625,3.96875 0,1.0625 0.171875,2.484375 0.78125,3.75 C 2.671875,2.21875 3.640625,3 3.78125,3 3.828125,3 3.890625,2.96875 3.890625,2.90625 Z m 0,0"
               id="id-2dba3a93-2afc-4136-a831-383947b501ad" />
          </symbol>
          <symbol
             overflow="visible"
             id="id-2727178c-77c0-4d8d-87bc-18c2906876eb">
            <path
               style="stroke:none"
               d="M 3.375,-2.96875 C 3.375,-3.890625 3.25,-5.359375 2.578125,-6.75 1.875,-8.1875 0.890625,-8.96875 0.765625,-8.96875 c -0.046875,0 -0.109375,0.03125 -0.109375,0.09375 0,0.046875 0,0.0625 0.203125,0.265625 1.203125,1.203125 1.859375,3.1875 1.859375,5.625 0,2.3125 -0.5625,4.3125 -1.9375,5.71875 C 0.65625,2.84375 0.65625,2.875 0.65625,2.90625 0.65625,2.96875 0.71875,3 0.765625,3 0.921875,3 1.90625,2.140625 2.484375,0.96875 3.09375,-0.25 3.375,-1.546875 3.375,-2.96875 Z m 0,0"
               id="id-e5f8f595-4d24-43a9-8c83-61fa1810aba9" />
          </symbol>
        </g>
      </defs>
      <g
         id="id-528e3f88-2dff-4a6a-8447-93b6a6df3150"
         transform="translate(-129.931, -128.784)">
        <g
           style="fill:#000000;fill-opacity:1"
           id="id-4d08bad8-82cf-494f-bb4b-fd80276f7b90">
          <g
             transform="translate(128.233, 137.753)"
             id="g12647">
            <path
               style="stroke:none"
               d="M 6.390625,-7.140625 C 6.25,-7 5.8125,-6.59375 5.8125,-6.421875 c 0,0.125 0.109375,0.234375 0.21875,0.234375 0.109375,0 0.15625,-0.078125 0.25,-0.203125 0.28125,-0.34375 0.609375,-0.578125 0.875,-0.734375 0.125,-0.078125 0.203125,-0.109375 0.203125,-0.234375 0,-0.109375 -0.09375,-0.171875 -0.15625,-0.234375 C 6.859375,-7.8125 6.78125,-8.140625 6.734375,-8.28125 6.703125,-8.375 6.671875,-8.515625 6.5,-8.515625 c -0.0625,0 -0.21875,0.046875 -0.21875,0.21875 0,0.109375 0.078125,0.390625 0.3125,0.71875 H 2.5625 c -0.203125,0 -0.40625,0 -0.40625,0.234375 0,0.203125 0.21875,0.203125 0.40625,0.203125 z m 0,0"
               id="id-e6fc02db-b940-4d61-a3a0-35fcc951e768" />
          </g>
        </g>
        <g
           style="fill:#000000;fill-opacity:1"
           id="id-b94b9331-d895-4665-9374-5c764b4a7048">
          <g
             transform="translate(129.603, 137.753)"
             id="g12651">
            <path
               style="stroke:none"
               d="m 3.140625,1.34375 c -0.3125,0.453125 -0.78125,0.859375 -1.375,0.859375 C 1.625,2.203125 1.046875,2.171875 0.875,1.625 c 0.03125,0.015625 0.09375,0.015625 0.109375,0.015625 0.359375,0 0.609375,-0.3125 0.609375,-0.59375 C 1.59375,0.78125 1.359375,0.6875 1.1875,0.6875 c -0.203125,0 -0.609375,0.140625 -0.609375,0.71875 0,0.609375 0.515625,1.03125 1.1875,1.03125 C 2.96875,2.4375 4.171875,1.34375 4.5,0.015625 L 5.671875,-4.65625 C 5.6875,-4.703125 5.71875,-4.78125 5.71875,-4.859375 5.71875,-5.03125 5.5625,-5.15625 5.390625,-5.15625 5.28125,-5.15625 5.03125,-5.109375 4.9375,-4.75 L 4.046875,-1.234375 C 4,-1.015625 4,-0.984375 3.890625,-0.859375 3.65625,-0.53125 3.265625,-0.125 2.6875,-0.125 c -0.671875,0 -0.734375,-0.65625 -0.734375,-0.96875 0,-0.6875 0.328125,-1.609375 0.65625,-2.46875 0.125,-0.34375 0.203125,-0.515625 0.203125,-0.75 0,-0.5 -0.359375,-0.953125 -0.953125,-0.953125 -1.09375,0 -1.53125,1.734375 -1.53125,1.828125 0,0.046875 0.046875,0.109375 0.125,0.109375 0.109375,0 0.125,-0.046875 0.171875,-0.21875 0.28125,-1 0.734375,-1.484375 1.203125,-1.484375 0.109375,0 0.3125,0 0.3125,0.390625 0,0.3125 -0.125,0.65625 -0.3125,1.109375 C 1.25,-1.953125 1.25,-1.5625 1.25,-1.28125 1.25,-0.140625 2.0625,0.125 2.65625,0.125 3,0.125 3.4375,0.015625 3.84375,-0.4375 l 0.015625,0.015625 C 3.6875,0.28125 3.5625,0.75 3.140625,1.34375 Z m 0,0"
               id="id-a4d0701e-0f71-460b-8cd5-9492b8f84a29" />
          </g>
        </g>
        <g
           style="fill:#000000;fill-opacity:1"
           id="id-34a84375-15bc-48b3-85eb-f7cc71f3f738">
          <g
             transform="translate(135.745, 140.576)"
             id="g12655">
            <path
               style="stroke:none"
               d="m 2.515625,-2.484375 h 1.4375 c 1.15625,0 2.34375,-0.796875 2.34375,-1.734375 0,-0.6875 -0.625,-1.21875 -1.65625,-1.21875 h -2.6875 c -0.140625,0 -0.25,0 -0.25,0.140625 0,0.125 0.109375,0.125 0.234375,0.125 0.265625,0 0.5,0 0.5,0.125 0,0.03125 -0.015625,0.03125 -0.03125,0.140625 L 1.328125,-0.625 c -0.0625,0.296875 -0.078125,0.359375 -0.65625,0.359375 -0.171875,0 -0.265625,0 -0.265625,0.15625 C 0.40625,-0.078125 0.4375,0 0.53125,0 0.6875,0 0.875,-0.015625 1.03125,-0.03125 h 0.5 C 2.296875,-0.03125 2.515625,0 2.5625,0 c 0.046875,0 0.15625,0 0.15625,-0.15625 0,-0.109375 -0.09375,-0.109375 -0.234375,-0.109375 -0.015625,0 -0.171875,0 -0.296875,-0.015625 C 2.015625,-0.296875 2,-0.3125 2,-0.390625 2,-0.4375 2.015625,-0.484375 2.03125,-0.515625 Z M 3.09375,-4.890625 C 3.15625,-5.15625 3.171875,-5.171875 3.5,-5.171875 h 0.875 c 0.65625,0 1.15625,0.1875 1.15625,0.765625 0,0.109375 -0.046875,0.828125 -0.484375,1.265625 -0.125,0.109375 -0.5,0.421875 -1.28125,0.421875 h -1.21875 z m 0,0"
               id="id-0c8ee1b2-5eb9-475e-8f44-dfb7b1ebb3e4" />
          </g>
        </g>
        <g
           style="fill:#000000;fill-opacity:1"
           id="id-a7731dc1-2a04-4519-a947-28733128c52e">
          <g
             transform="translate(142.789, 137.753)"
             id="g12659">
            <path
               style="stroke:none"
               d="m 3.890625,2.90625 c 0,-0.03125 0,-0.0625 -0.203125,-0.265625 C 2.484375,1.4375 1.8125,-0.53125 1.8125,-2.96875 c 0,-2.328125 0.5625,-4.328125 1.953125,-5.734375 0.125,-0.109375 0.125,-0.125 0.125,-0.171875 0,-0.0625 -0.0625,-0.09375 -0.109375,-0.09375 -0.15625,0 -1.140625,0.859375 -1.71875,2.03125 -0.609375,1.21875 -0.890625,2.484375 -0.890625,3.96875 0,1.0625 0.171875,2.484375 0.78125,3.75 C 2.671875,2.21875 3.640625,3 3.78125,3 3.828125,3 3.890625,2.96875 3.890625,2.90625 Z m 0,0"
               id="id-8fc2c250-78e5-401a-a44f-3a9d37ca7d8b" />
          </g>
        </g>
        <g
           style="fill:#000000;fill-opacity:1"
           id="id-79d6d6cb-ae33-4250-81d2-e0b8b4c5acc8">
          <g
             transform="translate(147.341, 137.753)"
             id="g12663">
            <path
               style="stroke:none"
               d="M 2.40625,-4.8125 H 3.5 c 0.234375,0 0.34375,0 0.34375,-0.203125 0,-0.140625 -0.0625,-0.140625 -0.3125,-0.140625 H 2.484375 l 0.4375,-1.734375 C 2.96875,-7.0625 2.96875,-7.09375 2.96875,-7.171875 c 0,-0.1875 -0.140625,-0.296875 -0.296875,-0.296875 -0.109375,0 -0.375,0.03125 -0.46875,0.421875 l -0.46875,1.890625 h -1.125 c -0.234375,0 -0.34375,0 -0.34375,0.234375 0,0.109375 0.078125,0.109375 0.3125,0.109375 h 1.0625 L 0.84375,-1.65625 c -0.09375,0.421875 -0.125,0.546875 -0.125,0.703125 0,0.5625 0.390625,1.078125 1.0625,1.078125 1.203125,0 1.859375,-1.75 1.859375,-1.828125 0,-0.078125 -0.0625,-0.109375 -0.125,-0.109375 -0.03125,0 -0.078125,0 -0.09375,0.046875 C 3.40625,-1.75 3.390625,-1.75 3.3125,-1.546875 c -0.25,0.59375 -0.796875,1.421875 -1.5,1.421875 -0.359375,0 -0.375,-0.296875 -0.375,-0.5625 0,0 0,-0.234375 0.03125,-0.375 z m 0,0"
               id="id-2e953222-36e6-453a-b0b2-11a992546fc3" />
          </g>
        </g>
        <g
           style="fill:#000000;fill-opacity:1"
           id="id-146add5a-3704-4a3c-9ad6-a62eeb95b653">
          <g
             transform="translate(151.568, 137.753)"
             id="g12667">
            <path
               style="stroke:none"
               d="M 3.375,-2.96875 C 3.375,-3.890625 3.25,-5.359375 2.578125,-6.75 1.875,-8.1875 0.890625,-8.96875 0.765625,-8.96875 c -0.046875,0 -0.109375,0.03125 -0.109375,0.09375 0,0.046875 0,0.0625 0.203125,0.265625 1.203125,1.203125 1.859375,3.1875 1.859375,5.625 0,2.3125 -0.5625,4.3125 -1.9375,5.71875 C 0.65625,2.84375 0.65625,2.875 0.65625,2.90625 0.65625,2.96875 0.71875,3 0.765625,3 0.921875,3 1.90625,2.140625 2.484375,0.96875 3.09375,-0.25 3.375,-1.546875 3.375,-2.96875 Z m 0,0"
               id="id-63ec983f-d384-4850-9bab-282da5515b04" />
          </g>
        </g>
      </g>
    </g>
    <path
       style="fill:#0812ff;stroke:#000000;stroke-width:1.13386;marker-end:url(#TriangleStart)"
       d="M 81.183018,117.67066 V 28.608027"
       id="path1313" />
    <path
       style="fill:#0812ff;stroke:#000000;stroke-width:1.13386;marker-end:url(#TriangleStart-36)"
       d="m 80.66232,117.2862 h 71.23906"
       id="path1313-5" />
    <path
       style="fill:#0812ff;stroke:#000000;stroke-width:1.13386;stroke-dasharray:none;marker-end:url(#TriangleStart)"
       d="M 80.998696,117.4126 58.475097,130.92608"
       id="path2527" />
  </g>
</svg>
