<?xml version="1.0" encoding="UTF-8" standalone="no"?>
<!-- Created with Inkscape (http://www.inkscape.org/) -->

<svg
   sodipodi:docname="f1-18.svg"
   inkscape:version="1.2.2 (b0a8486541, 2022-12-01)"
   id="svg4220"
   version="1.1"
   viewBox="0 0 60 44"
   height="44mm"
   width="60mm"
   inkscape:export-filename="f1-18.pdf"
   inkscape:export-xdpi="96"
   inkscape:export-ydpi="96"
   xmlns:inkscape="http://www.inkscape.org/namespaces/inkscape"
   xmlns:sodipodi="http://sodipodi.sourceforge.net/DTD/sodipodi-0.dtd"
   xmlns="http://www.w3.org/2000/svg"
   xmlns:svg="http://www.w3.org/2000/svg"
   xmlns:ns4="http://www.iki.fi/pav/software/textext/">
  <sodipodi:namedview
     id="namedview4222"
     pagecolor="#ffffff"
     bordercolor="#000000"
     borderopacity="0.25"
     inkscape:showpageshadow="2"
     inkscape:pageopacity="0.0"
     inkscape:pagecheckerboard="0"
     inkscape:deskcolor="#d1d1d1"
     inkscape:document-units="mm"
     showgrid="false"
     inkscape:zoom="2"
     inkscape:cx="166.75"
     inkscape:cy="188.5"
     inkscape:window-width="1499"
     inkscape:window-height="991"
     inkscape:window-x="26"
     inkscape:window-y="23"
     inkscape:window-maximized="0"
     inkscape:current-layer="g6429" />
  <defs
     id="defs4217">
    <marker
       style="overflow:visible"
       id="TriangleStart"
       refX="0"
       refY="0"
       orient="auto-start-reverse"
       inkscape:stockid="TriangleStart"
       markerWidth="5.3244081"
       markerHeight="6.155385"
       viewBox="0 0 5.3244081 6.1553851"
       inkscape:isstock="true"
       inkscape:collect="always"
       preserveAspectRatio="xMidYMid">
      <path
         transform="scale(0.5)"
         style="fill:context-stroke;fill-rule:evenodd;stroke:context-stroke;stroke-width:1pt"
         d="M 5.77,0 -2.88,5 V -5 Z"
         id="path135" />
    </marker>
    <marker
       style="overflow:visible"
       id="marker1354"
       refX="0"
       refY="0"
       orient="auto-start-reverse"
       inkscape:stockid="Arrow1"
       markerWidth="4.0606604"
       markerHeight="6.7071066"
       viewBox="0 0 4.0606602 6.7071068"
       inkscape:isstock="true"
       inkscape:collect="always"
       preserveAspectRatio="xMidYMid">
      <path
         style="fill:none;stroke:context-stroke;stroke-width:1;stroke-linecap:butt"
         d="M 3,-3 0,0 3,3"
         id="path1352"
         transform="rotate(180,0.125,0)"
         sodipodi:nodetypes="ccc" />
    </marker>
    <marker
       style="overflow:visible"
       id="Arrow1"
       refX="0"
       refY="0"
       orient="auto-start-reverse"
       inkscape:stockid="Arrow1"
       markerWidth="4.0606604"
       markerHeight="6.7071066"
       viewBox="0 0 4.0606602 6.7071068"
       inkscape:isstock="true"
       inkscape:collect="always"
       preserveAspectRatio="xMidYMid">
      <path
         style="fill:none;stroke:context-stroke;stroke-width:1;stroke-linecap:butt"
         d="M 3,-3 0,0 3,3"
         id="path5057"
         transform="rotate(180,0.125,0)"
         sodipodi:nodetypes="ccc" />
    </marker>
    <linearGradient
       id="linearGradient11071"
       inkscape:swatch="solid">
      <stop
         style="stop-color:#000000;stop-opacity:1;"
         offset="0"
         id="stop11069" />
    </linearGradient>
    <clipPath
       clipPathUnits="userSpaceOnUse"
       id="clipPath108">
      <path
         d="M 0,0 H 198 V 224 H 0 Z"
         id="path106" />
    </clipPath>
    <clipPath
       clipPathUnits="userSpaceOnUse"
       id="clipPath126">
      <path
         d="M 0,0 H 198 V 224 H 0 Z"
         id="path124" />
    </clipPath>
    <clipPath
       clipPathUnits="userSpaceOnUse"
       id="clipPath144">
      <path
         d="M 0,0 H 198 V 224 H 0 Z"
         id="path142" />
    </clipPath>
    <clipPath
       clipPathUnits="userSpaceOnUse"
       id="clipPath162">
      <path
         d="M 0,0 H 198 V 224 H 0 Z"
         id="path160" />
    </clipPath>
    <clipPath
       clipPathUnits="userSpaceOnUse"
       id="clipPath180">
      <path
         d="M 0,0 H 198 V 224 H 0 Z"
         id="path178" />
    </clipPath>
    <clipPath
       clipPathUnits="userSpaceOnUse"
       id="clipPath198">
      <path
         d="M 0,0 H 198 V 224 H 0 Z"
         id="path196" />
    </clipPath>
    <clipPath
       clipPathUnits="userSpaceOnUse"
       id="clipPath216">
      <path
         d="M 0,0 H 198 V 224 H 0 Z"
         id="path214" />
    </clipPath>
    <clipPath
       clipPathUnits="userSpaceOnUse"
       id="clipPath246">
      <path
         d="M 0,0 H 198 V 224 H 0 Z"
         id="path244" />
    </clipPath>
    <g
       id="id-85329d80-5d8f-44da-86ee-8ce88b77731a">
      <symbol
         overflow="visible"
         id="id-17ac1072-b368-4544-9ab4-4465682d5c7c">
        <path
           style="stroke:none"
           d=""
           id="id-fbd53bd0-2057-4954-a207-9ee85b5949b1" />
      </symbol>
      <symbol
         overflow="visible"
         id="id-b698824b-d462-4b05-9dac-77d95d3685dd">
        <path
           style="stroke:none"
           d="m 3.140625,1.34375 c -0.3125,0.453125 -0.78125,0.859375 -1.375,0.859375 C 1.625,2.203125 1.046875,2.171875 0.875,1.625 c 0.03125,0.015625 0.09375,0.015625 0.109375,0.015625 0.359375,0 0.609375,-0.3125 0.609375,-0.59375 C 1.59375,0.78125 1.359375,0.6875 1.1875,0.6875 c -0.203125,0 -0.609375,0.140625 -0.609375,0.71875 0,0.609375 0.515625,1.03125 1.1875,1.03125 C 2.96875,2.4375 4.171875,1.34375 4.5,0.015625 L 5.671875,-4.65625 C 5.6875,-4.703125 5.71875,-4.78125 5.71875,-4.859375 5.71875,-5.03125 5.5625,-5.15625 5.390625,-5.15625 5.28125,-5.15625 5.03125,-5.109375 4.9375,-4.75 L 4.046875,-1.234375 C 4,-1.015625 4,-0.984375 3.890625,-0.859375 3.65625,-0.53125 3.265625,-0.125 2.6875,-0.125 c -0.671875,0 -0.734375,-0.65625 -0.734375,-0.96875 0,-0.6875 0.328125,-1.609375 0.65625,-2.46875 0.125,-0.34375 0.203125,-0.515625 0.203125,-0.75 0,-0.5 -0.359375,-0.953125 -0.953125,-0.953125 -1.09375,0 -1.53125,1.734375 -1.53125,1.828125 0,0.046875 0.046875,0.109375 0.125,0.109375 0.109375,0 0.125,-0.046875 0.171875,-0.21875 0.28125,-1 0.734375,-1.484375 1.203125,-1.484375 0.109375,0 0.3125,0 0.3125,0.390625 0,0.3125 -0.125,0.65625 -0.3125,1.109375 C 1.25,-1.953125 1.25,-1.5625 1.25,-1.28125 1.25,-0.140625 2.0625,0.125 2.65625,0.125 3,0.125 3.4375,0.015625 3.84375,-0.4375 l 0.015625,0.015625 C 3.6875,0.28125 3.5625,0.75 3.140625,1.34375 Z m 0,0"
           id="id-d4d93b6f-6362-4f60-97d2-84828867610f" />
      </symbol>
    </g>
    <g
       id="id-b8875a62-f73c-4c37-98c2-907c4dd95473">
      <symbol
         overflow="visible"
         id="id-9cedcc4d-646b-4eac-9d66-4076fe4c2c0c">
        <path
           style="stroke:none"
           d=""
           id="id-f12fce94-d8be-4631-b8b5-ebc943c2104d" />
      </symbol>
      <symbol
         overflow="visible"
         id="id-6f5fc5be-2707-41ed-84b0-4ab1ecca2538">
        <path
           style="stroke:none"
           d="m 5.671875,-4.875 c -0.390625,0.0625 -0.53125,0.359375 -0.53125,0.578125 0,0.296875 0.21875,0.390625 0.390625,0.390625 0.359375,0 0.609375,-0.3125 0.609375,-0.640625 0,-0.5 -0.578125,-0.71875 -1.078125,-0.71875 -0.71875,0 -1.125,0.71875 -1.234375,0.9375 -0.28125,-0.890625 -1.015625,-0.9375 -1.234375,-0.9375 -1.21875,0 -1.859375,1.5625 -1.859375,1.828125 0,0.046875 0.046875,0.109375 0.125,0.109375 0.09375,0 0.125,-0.078125 0.140625,-0.125 0.40625,-1.328125 1.21875,-1.578125 1.5625,-1.578125 0.53125,0 0.640625,0.5 0.640625,0.78125 0,0.265625 -0.078125,0.546875 -0.21875,1.125 L 2.578125,-1.5 c -0.171875,0.71875 -0.515625,1.375 -1.15625,1.375 -0.0625,0 -0.359375,0 -0.609375,-0.15625 C 1.25,-0.359375 1.34375,-0.71875 1.34375,-0.859375 1.34375,-1.09375 1.15625,-1.25 0.9375,-1.25 c -0.296875,0 -0.609375,0.265625 -0.609375,0.640625 0,0.5 0.5625,0.734375 1.078125,0.734375 0.578125,0 0.984375,-0.453125 1.234375,-0.953125 C 2.828125,-0.125 3.4375,0.125 3.875,0.125 5.09375,0.125 5.734375,-1.453125 5.734375,-1.703125 5.734375,-1.765625 5.6875,-1.8125 5.625,-1.8125 5.515625,-1.8125 5.5,-1.75 5.46875,-1.65625 5.140625,-0.609375 4.453125,-0.125 3.90625,-0.125 3.484375,-0.125 3.265625,-0.4375 3.265625,-0.921875 3.265625,-1.1875 3.3125,-1.375 3.5,-2.15625 L 3.921875,-3.796875 C 4.09375,-4.5 4.5,-5.03125 5.0625,-5.03125 c 0.015625,0 0.359375,0 0.609375,0.15625 z m 0,0"
           id="id-f53723fd-7660-4df2-aaf0-23f65fbaf63c" />
      </symbol>
    </g>
    <g
       id="id-929dc1ff-84f5-472e-9da5-ccdaa4ef6d27">
      <symbol
         overflow="visible"
         id="id-cbf01ecc-2c00-4cfb-bf08-84e00a4c4dd6">
        <path
           style="stroke:none"
           d=""
           id="id-efca8741-b7f1-4b2e-be63-bf5ca9a1ca9d" />
      </symbol>
      <symbol
         overflow="visible"
         id="id-59c7c253-b673-4f3c-8615-ff0613e4f865">
        <path
           style="stroke:none"
           d="m 5.671875,-4.875 c -0.390625,0.0625 -0.53125,0.359375 -0.53125,0.578125 0,0.296875 0.21875,0.390625 0.390625,0.390625 0.359375,0 0.609375,-0.3125 0.609375,-0.640625 0,-0.5 -0.578125,-0.71875 -1.078125,-0.71875 -0.71875,0 -1.125,0.71875 -1.234375,0.9375 -0.28125,-0.890625 -1.015625,-0.9375 -1.234375,-0.9375 -1.21875,0 -1.859375,1.5625 -1.859375,1.828125 0,0.046875 0.046875,0.109375 0.125,0.109375 0.09375,0 0.125,-0.078125 0.140625,-0.125 0.40625,-1.328125 1.21875,-1.578125 1.5625,-1.578125 0.53125,0 0.640625,0.5 0.640625,0.78125 0,0.265625 -0.078125,0.546875 -0.21875,1.125 L 2.578125,-1.5 c -0.171875,0.71875 -0.515625,1.375 -1.15625,1.375 -0.0625,0 -0.359375,0 -0.609375,-0.15625 C 1.25,-0.359375 1.34375,-0.71875 1.34375,-0.859375 1.34375,-1.09375 1.15625,-1.25 0.9375,-1.25 c -0.296875,0 -0.609375,0.265625 -0.609375,0.640625 0,0.5 0.5625,0.734375 1.078125,0.734375 0.578125,0 0.984375,-0.453125 1.234375,-0.953125 C 2.828125,-0.125 3.4375,0.125 3.875,0.125 5.09375,0.125 5.734375,-1.453125 5.734375,-1.703125 5.734375,-1.765625 5.6875,-1.8125 5.625,-1.8125 5.515625,-1.8125 5.5,-1.75 5.46875,-1.65625 5.140625,-0.609375 4.453125,-0.125 3.90625,-0.125 3.484375,-0.125 3.265625,-0.4375 3.265625,-0.921875 3.265625,-1.1875 3.3125,-1.375 3.5,-2.15625 L 3.921875,-3.796875 C 4.09375,-4.5 4.5,-5.03125 5.0625,-5.03125 c 0.015625,0 0.359375,0 0.609375,0.15625 z m 0,0"
           id="id-7f7f6662-4139-4b1e-a1c4-34557712b863" />
      </symbol>
      <symbol
         overflow="visible"
         id="id-23f868f3-53f4-4ae0-b7de-0b8dc910d5af">
        <path
           style="stroke:none"
           d=""
           id="id-f9e3beb7-62b6-40d9-a2c6-e0726ac13d4e" />
      </symbol>
      <symbol
         overflow="visible"
         id="id-364716c2-c9c8-44f8-a75f-53316a51c1b6">
        <path
           style="stroke:none"
           d="m 2.5,-5.078125 c 0,-0.21875 -0.015625,-0.21875 -0.234375,-0.21875 -0.328125,0.3125 -0.75,0.5 -1.5,0.5 v 0.265625 c 0.21875,0 0.640625,0 1.109375,-0.203125 v 4.078125 c 0,0.296875 -0.03125,0.390625 -0.78125,0.390625 H 0.8125 V 0 c 0.328125,-0.03125 1.015625,-0.03125 1.375,-0.03125 0.359375,0 1.046875,0 1.375,0.03125 V -0.265625 H 3.28125 c -0.75,0 -0.78125,-0.09375 -0.78125,-0.390625 z m 0,0"
           id="id-8994433a-87e3-4bc0-909d-04ea653af72a" />
      </symbol>
    </g>
    <g
       id="id-88678e9b-9e53-474a-a3d7-1a4f27e1507d">
      <symbol
         overflow="visible"
         id="id-a3025b65-058a-4795-a7f6-14d5b2e9187d">
        <path
           style="stroke:none;stroke-width:0"
           d=""
           id="id-6fef5b83-d7e6-4456-a8e5-3770701c456c" />
      </symbol>
      <symbol
         overflow="visible"
         id="id-cacb2fde-bd3e-4da9-97b6-41d6835f9d9f">
        <path
           style="stroke:none;stroke-width:0"
           d="m 5.671875,-4.875 c -0.390625,0.0625 -0.53125,0.359375 -0.53125,0.578125 0,0.296875 0.21875,0.390625 0.390625,0.390625 0.359375,0 0.609375,-0.3125 0.609375,-0.640625 0,-0.5 -0.578125,-0.71875 -1.078125,-0.71875 -0.71875,0 -1.125,0.71875 -1.234375,0.9375 -0.28125,-0.890625 -1.015625,-0.9375 -1.234375,-0.9375 -1.21875,0 -1.859375,1.5625 -1.859375,1.828125 0,0.046875 0.046875,0.109375 0.125,0.109375 0.09375,0 0.125,-0.078125 0.140625,-0.125 0.40625,-1.328125 1.21875,-1.578125 1.5625,-1.578125 0.53125,0 0.640625,0.5 0.640625,0.78125 0,0.265625 -0.078125,0.546875 -0.21875,1.125 L 2.578125,-1.5 c -0.171875,0.71875 -0.515625,1.375 -1.15625,1.375 -0.0625,0 -0.359375,0 -0.609375,-0.15625 C 1.25,-0.359375 1.34375,-0.71875 1.34375,-0.859375 1.34375,-1.09375 1.15625,-1.25 0.9375,-1.25 c -0.296875,0 -0.609375,0.265625 -0.609375,0.640625 0,0.5 0.5625,0.734375 1.078125,0.734375 0.578125,0 0.984375,-0.453125 1.234375,-0.953125 C 2.828125,-0.125 3.4375,0.125 3.875,0.125 5.09375,0.125 5.734375,-1.453125 5.734375,-1.703125 5.734375,-1.765625 5.6875,-1.8125 5.625,-1.8125 5.515625,-1.8125 5.5,-1.75 5.46875,-1.65625 5.140625,-0.609375 4.453125,-0.125 3.90625,-0.125 3.484375,-0.125 3.265625,-0.4375 3.265625,-0.921875 3.265625,-1.1875 3.3125,-1.375 3.5,-2.15625 L 3.921875,-3.796875 C 4.09375,-4.5 4.5,-5.03125 5.0625,-5.03125 c 0.015625,0 0.359375,0 0.609375,0.15625 z m 0,0"
           id="id-8d48cff7-7604-4e75-aaf3-4996ffbc005c" />
      </symbol>
      <symbol
         overflow="visible"
         id="id-1068293d-adc6-4783-adaf-2b8299d70bd1">
        <path
           style="stroke:none;stroke-width:0"
           d=""
           id="id-7958f183-a882-4b09-8316-d79133f40fe6" />
      </symbol>
      <symbol
         overflow="visible"
         id="id-e3d24b39-0a1d-4e3d-8a8a-803d0de61271">
        <path
           style="stroke:none;stroke-width:0"
           d="m 2.25,-1.625 c 0.125,-0.125 0.453125,-0.390625 0.59375,-0.5 0.484375,-0.453125 0.953125,-0.890625 0.953125,-1.609375 0,-0.953125 -0.796875,-1.5625 -1.78125,-1.5625 -0.96875,0 -1.59375,0.71875 -1.59375,1.4375 0,0.390625 0.3125,0.4375 0.421875,0.4375 0.171875,0 0.421875,-0.109375 0.421875,-0.421875 0,-0.40625 -0.40625,-0.40625 -0.5,-0.40625 C 1,-4.84375 1.53125,-5.03125 1.921875,-5.03125 c 0.734375,0 1.125,0.625 1.125,1.296875 0,0.828125 -0.578125,1.4375 -1.53125,2.390625 l -1,1.046875 C 0.421875,-0.21875 0.421875,-0.203125 0.421875,0 H 3.5625 l 0.234375,-1.421875 h -0.25 C 3.53125,-1.265625 3.46875,-0.875 3.375,-0.71875 c -0.046875,0.0625 -0.65625,0.0625 -0.78125,0.0625 H 1.171875 Z m 0,0"
           id="id-933eb7f1-483a-4ca7-bdc3-e8b2d7bc814d" />
      </symbol>
    </g>
    <g
       id="g6905">
      <symbol
         overflow="visible"
         id="symbol6867">
        <path
           style="stroke:none"
           d=""
           id="path6865" />
      </symbol>
      <symbol
         overflow="visible"
         id="symbol6871">
        <path
           style="stroke:none"
           d="m 3.140625,1.34375 c -0.3125,0.453125 -0.78125,0.859375 -1.375,0.859375 C 1.625,2.203125 1.046875,2.171875 0.875,1.625 c 0.03125,0.015625 0.09375,0.015625 0.109375,0.015625 0.359375,0 0.609375,-0.3125 0.609375,-0.59375 C 1.59375,0.78125 1.359375,0.6875 1.1875,0.6875 c -0.203125,0 -0.609375,0.140625 -0.609375,0.71875 0,0.609375 0.515625,1.03125 1.1875,1.03125 C 2.96875,2.4375 4.171875,1.34375 4.5,0.015625 L 5.671875,-4.65625 C 5.6875,-4.703125 5.71875,-4.78125 5.71875,-4.859375 5.71875,-5.03125 5.5625,-5.15625 5.390625,-5.15625 5.28125,-5.15625 5.03125,-5.109375 4.9375,-4.75 L 4.046875,-1.234375 C 4,-1.015625 4,-0.984375 3.890625,-0.859375 3.65625,-0.53125 3.265625,-0.125 2.6875,-0.125 c -0.671875,0 -0.734375,-0.65625 -0.734375,-0.96875 0,-0.6875 0.328125,-1.609375 0.65625,-2.46875 0.125,-0.34375 0.203125,-0.515625 0.203125,-0.75 0,-0.5 -0.359375,-0.953125 -0.953125,-0.953125 -1.09375,0 -1.53125,1.734375 -1.53125,1.828125 0,0.046875 0.046875,0.109375 0.125,0.109375 0.109375,0 0.125,-0.046875 0.171875,-0.21875 0.28125,-1 0.734375,-1.484375 1.203125,-1.484375 0.109375,0 0.3125,0 0.3125,0.390625 0,0.3125 -0.125,0.65625 -0.3125,1.109375 C 1.25,-1.953125 1.25,-1.5625 1.25,-1.28125 1.25,-0.140625 2.0625,0.125 2.65625,0.125 3,0.125 3.4375,0.015625 3.84375,-0.4375 l 0.015625,0.015625 C 3.6875,0.28125 3.5625,0.75 3.140625,1.34375 Z m 0,0"
           id="path6869" />
      </symbol>
      <symbol
         overflow="visible"
         id="symbol6875">
        <path
           style="stroke:none"
           d="m 3.359375,-8 c 0.015625,-0.046875 0.03125,-0.109375 0.03125,-0.171875 0,-0.125 -0.109375,-0.125 -0.140625,-0.125 -0.015625,0 -0.4375,0.03125 -0.65625,0.0625 C 2.390625,-8.21875 2.21875,-8.203125 2,-8.1875 c -0.296875,0.03125 -0.375,0.03125 -0.375,0.25 0,0.125 0.125,0.125 0.234375,0.125 0.609375,0 0.609375,0.109375 0.609375,0.21875 0,0.046875 0,0.078125 -0.046875,0.296875 L 0.703125,-0.46875 C 0.65625,-0.28125 0.65625,-0.265625 0.65625,-0.1875 c 0,0.265625 0.203125,0.3125 0.328125,0.3125 0.328125,0 0.40625,-0.265625 0.5,-0.640625 L 2.046875,-2.75 c 0.859375,0.09375 1.375,0.453125 1.375,1.03125 0,0.0625 0,0.109375 -0.046875,0.296875 -0.046875,0.171875 -0.046875,0.328125 -0.046875,0.375 0,0.703125 0.46875,1.171875 1.078125,1.171875 0.546875,0 0.828125,-0.5 0.921875,-0.671875 0.25,-0.4375 0.40625,-1.109375 0.40625,-1.15625 0,-0.0625 -0.046875,-0.109375 -0.109375,-0.109375 -0.109375,0 -0.125,0.046875 -0.171875,0.234375 C 5.28125,-0.953125 5.03125,-0.125 4.421875,-0.125 4.1875,-0.125 4.03125,-0.234375 4.03125,-0.6875 c 0,-0.234375 0.046875,-0.5 0.09375,-0.671875 0.046875,-0.21875 0.046875,-0.234375 0.046875,-0.375 0,-0.703125 -0.640625,-1.09375 -1.734375,-1.234375 0.4375,-0.265625 0.859375,-0.734375 1.03125,-0.921875 0.671875,-0.765625 1.140625,-1.140625 1.6875,-1.140625 0.28125,0 0.359375,0.078125 0.4375,0.140625 -0.4375,0.046875 -0.609375,0.359375 -0.609375,0.59375 0,0.296875 0.234375,0.390625 0.390625,0.390625 0.328125,0 0.609375,-0.28125 0.609375,-0.65625 0,-0.34375 -0.265625,-0.703125 -0.8125,-0.703125 -0.65625,0 -1.1875,0.453125 -2.046875,1.421875 -0.109375,0.140625 -0.5625,0.59375 -1,0.765625 z m 0,0"
           id="path6873" />
      </symbol>
      <symbol
         overflow="visible"
         id="symbol6879">
        <path
           style="stroke:none"
           d="M 2.40625,-4.8125 H 3.5 c 0.234375,0 0.34375,0 0.34375,-0.203125 0,-0.140625 -0.0625,-0.140625 -0.3125,-0.140625 H 2.484375 l 0.4375,-1.734375 C 2.96875,-7.0625 2.96875,-7.09375 2.96875,-7.171875 c 0,-0.1875 -0.140625,-0.296875 -0.296875,-0.296875 -0.109375,0 -0.375,0.03125 -0.46875,0.421875 l -0.46875,1.890625 h -1.125 c -0.234375,0 -0.34375,0 -0.34375,0.234375 0,0.109375 0.078125,0.109375 0.3125,0.109375 h 1.0625 L 0.84375,-1.65625 c -0.09375,0.421875 -0.125,0.546875 -0.125,0.703125 0,0.5625 0.390625,1.078125 1.0625,1.078125 1.203125,0 1.859375,-1.75 1.859375,-1.828125 0,-0.078125 -0.0625,-0.109375 -0.125,-0.109375 -0.03125,0 -0.078125,0 -0.09375,0.046875 C 3.40625,-1.75 3.390625,-1.75 3.3125,-1.546875 c -0.25,0.59375 -0.796875,1.421875 -1.5,1.421875 -0.359375,0 -0.375,-0.296875 -0.375,-0.5625 0,0 0,-0.234375 0.03125,-0.375 z m 0,0"
           id="path6877" />
      </symbol>
      <symbol
         overflow="visible"
         id="symbol6883">
        <path
           style="stroke:none"
           d=""
           id="path6881" />
      </symbol>
      <symbol
         overflow="visible"
         id="symbol6887">
        <path
           style="stroke:none"
           d="m 2.25,-1.625 c 0.125,-0.125 0.453125,-0.390625 0.59375,-0.5 0.484375,-0.453125 0.953125,-0.890625 0.953125,-1.609375 0,-0.953125 -0.796875,-1.5625 -1.78125,-1.5625 -0.96875,0 -1.59375,0.71875 -1.59375,1.4375 0,0.390625 0.3125,0.4375 0.421875,0.4375 0.171875,0 0.421875,-0.109375 0.421875,-0.421875 0,-0.40625 -0.40625,-0.40625 -0.5,-0.40625 C 1,-4.84375 1.53125,-5.03125 1.921875,-5.03125 c 0.734375,0 1.125,0.625 1.125,1.296875 0,0.828125 -0.578125,1.4375 -1.53125,2.390625 l -1,1.046875 C 0.421875,-0.21875 0.421875,-0.203125 0.421875,0 H 3.5625 l 0.234375,-1.421875 h -0.25 C 3.53125,-1.265625 3.46875,-0.875 3.375,-0.71875 c -0.046875,0.0625 -0.65625,0.0625 -0.78125,0.0625 H 1.171875 Z m 0,0"
           id="path6885" />
      </symbol>
      <symbol
         overflow="visible"
         id="symbol6891">
        <path
           style="stroke:none"
           d="m 2.5,-5.078125 c 0,-0.21875 -0.015625,-0.21875 -0.234375,-0.21875 -0.328125,0.3125 -0.75,0.5 -1.5,0.5 v 0.265625 c 0.21875,0 0.640625,0 1.109375,-0.203125 v 4.078125 c 0,0.296875 -0.03125,0.390625 -0.78125,0.390625 H 0.8125 V 0 c 0.328125,-0.03125 1.015625,-0.03125 1.375,-0.03125 0.359375,0 1.046875,0 1.375,0.03125 V -0.265625 H 3.28125 c -0.75,0 -0.78125,-0.09375 -0.78125,-0.390625 z m 0,0"
           id="path6889" />
      </symbol>
      <symbol
         overflow="visible"
         id="symbol6895">
        <path
           style="stroke:none"
           d=""
           id="path6893" />
      </symbol>
      <symbol
         overflow="visible"
         id="symbol6899">
        <path
           style="stroke:none"
           d="m 8.0625,-3.875 c 0.171875,0 0.390625,0 0.390625,-0.21875 C 8.453125,-4.3125 8.25,-4.3125 8.0625,-4.3125 H 1.03125 c -0.171875,0 -0.390625,0 -0.390625,0.21875 0,0.21875 0.203125,0.21875 0.390625,0.21875 z m 0,2.21875 c 0.171875,0 0.390625,0 0.390625,-0.203125 C 8.453125,-2.09375 8.25,-2.09375 8.0625,-2.09375 H 1.03125 c -0.171875,0 -0.390625,0 -0.390625,0.21875 0,0.21875 0.203125,0.21875 0.390625,0.21875 z m 0,0"
           id="path6897" />
      </symbol>
      <symbol
         overflow="visible"
         id="symbol6903">
        <path
           style="stroke:none"
           d="m 4.3125,-7.78125 c 0,-0.234375 0,-0.28125 -0.171875,-0.28125 -0.09375,0 -0.125,0 -0.21875,0.140625 L 0.328125,-2.34375 V -2 H 3.46875 v 1.09375 c 0,0.4375 -0.03125,0.5625 -0.90625,0.5625 H 2.328125 V 0 c 0.28125,-0.03125 1.21875,-0.03125 1.5625,-0.03125 0.328125,0 1.28125,0 1.5625,0.03125 V -0.34375 H 5.21875 c -0.875,0 -0.90625,-0.125 -0.90625,-0.5625 V -2 H 5.515625 V -2.34375 H 4.3125 Z m -0.78125,0.9375 v 4.5 H 0.625 Z m 0,0"
           id="path6901" />
      </symbol>
    </g>
    <g
       id="g6970">
      <symbol
         overflow="visible"
         id="symbol6936">
        <path
           style="stroke:none"
           d=""
           id="path6934" />
      </symbol>
      <symbol
         overflow="visible"
         id="symbol6940">
        <path
           style="stroke:none"
           d="m 3.140625,1.34375 c -0.3125,0.453125 -0.78125,0.859375 -1.375,0.859375 C 1.625,2.203125 1.046875,2.171875 0.875,1.625 c 0.03125,0.015625 0.09375,0.015625 0.109375,0.015625 0.359375,0 0.609375,-0.3125 0.609375,-0.59375 C 1.59375,0.78125 1.359375,0.6875 1.1875,0.6875 c -0.203125,0 -0.609375,0.140625 -0.609375,0.71875 0,0.609375 0.515625,1.03125 1.1875,1.03125 C 2.96875,2.4375 4.171875,1.34375 4.5,0.015625 L 5.671875,-4.65625 C 5.6875,-4.703125 5.71875,-4.78125 5.71875,-4.859375 5.71875,-5.03125 5.5625,-5.15625 5.390625,-5.15625 5.28125,-5.15625 5.03125,-5.109375 4.9375,-4.75 L 4.046875,-1.234375 C 4,-1.015625 4,-0.984375 3.890625,-0.859375 3.65625,-0.53125 3.265625,-0.125 2.6875,-0.125 c -0.671875,0 -0.734375,-0.65625 -0.734375,-0.96875 0,-0.6875 0.328125,-1.609375 0.65625,-2.46875 0.125,-0.34375 0.203125,-0.515625 0.203125,-0.75 0,-0.5 -0.359375,-0.953125 -0.953125,-0.953125 -1.09375,0 -1.53125,1.734375 -1.53125,1.828125 0,0.046875 0.046875,0.109375 0.125,0.109375 0.109375,0 0.125,-0.046875 0.171875,-0.21875 0.28125,-1 0.734375,-1.484375 1.203125,-1.484375 0.109375,0 0.3125,0 0.3125,0.390625 0,0.3125 -0.125,0.65625 -0.3125,1.109375 C 1.25,-1.953125 1.25,-1.5625 1.25,-1.28125 1.25,-0.140625 2.0625,0.125 2.65625,0.125 3,0.125 3.4375,0.015625 3.84375,-0.4375 l 0.015625,0.015625 C 3.6875,0.28125 3.5625,0.75 3.140625,1.34375 Z m 0,0"
           id="path6938" />
      </symbol>
      <symbol
         overflow="visible"
         id="symbol6944">
        <path
           style="stroke:none"
           d="m 3.359375,-8 c 0.015625,-0.046875 0.03125,-0.109375 0.03125,-0.171875 0,-0.125 -0.109375,-0.125 -0.140625,-0.125 -0.015625,0 -0.4375,0.03125 -0.65625,0.0625 C 2.390625,-8.21875 2.21875,-8.203125 2,-8.1875 c -0.296875,0.03125 -0.375,0.03125 -0.375,0.25 0,0.125 0.125,0.125 0.234375,0.125 0.609375,0 0.609375,0.109375 0.609375,0.21875 0,0.046875 0,0.078125 -0.046875,0.296875 L 0.703125,-0.46875 C 0.65625,-0.28125 0.65625,-0.265625 0.65625,-0.1875 c 0,0.265625 0.203125,0.3125 0.328125,0.3125 0.328125,0 0.40625,-0.265625 0.5,-0.640625 L 2.046875,-2.75 c 0.859375,0.09375 1.375,0.453125 1.375,1.03125 0,0.0625 0,0.109375 -0.046875,0.296875 -0.046875,0.171875 -0.046875,0.328125 -0.046875,0.375 0,0.703125 0.46875,1.171875 1.078125,1.171875 0.546875,0 0.828125,-0.5 0.921875,-0.671875 0.25,-0.4375 0.40625,-1.109375 0.40625,-1.15625 0,-0.0625 -0.046875,-0.109375 -0.109375,-0.109375 -0.109375,0 -0.125,0.046875 -0.171875,0.234375 C 5.28125,-0.953125 5.03125,-0.125 4.421875,-0.125 4.1875,-0.125 4.03125,-0.234375 4.03125,-0.6875 c 0,-0.234375 0.046875,-0.5 0.09375,-0.671875 0.046875,-0.21875 0.046875,-0.234375 0.046875,-0.375 0,-0.703125 -0.640625,-1.09375 -1.734375,-1.234375 0.4375,-0.265625 0.859375,-0.734375 1.03125,-0.921875 0.671875,-0.765625 1.140625,-1.140625 1.6875,-1.140625 0.28125,0 0.359375,0.078125 0.4375,0.140625 -0.4375,0.046875 -0.609375,0.359375 -0.609375,0.59375 0,0.296875 0.234375,0.390625 0.390625,0.390625 0.328125,0 0.609375,-0.28125 0.609375,-0.65625 0,-0.34375 -0.265625,-0.703125 -0.8125,-0.703125 -0.65625,0 -1.1875,0.453125 -2.046875,1.421875 -0.109375,0.140625 -0.5625,0.59375 -1,0.765625 z m 0,0"
           id="path6942" />
      </symbol>
      <symbol
         overflow="visible"
         id="symbol6948">
        <path
           style="stroke:none"
           d="M 2.40625,-4.8125 H 3.5 c 0.234375,0 0.34375,0 0.34375,-0.203125 0,-0.140625 -0.0625,-0.140625 -0.3125,-0.140625 H 2.484375 l 0.4375,-1.734375 C 2.96875,-7.0625 2.96875,-7.09375 2.96875,-7.171875 c 0,-0.1875 -0.140625,-0.296875 -0.296875,-0.296875 -0.109375,0 -0.375,0.03125 -0.46875,0.421875 l -0.46875,1.890625 h -1.125 c -0.234375,0 -0.34375,0 -0.34375,0.234375 0,0.109375 0.078125,0.109375 0.3125,0.109375 h 1.0625 L 0.84375,-1.65625 c -0.09375,0.421875 -0.125,0.546875 -0.125,0.703125 0,0.5625 0.390625,1.078125 1.0625,1.078125 1.203125,0 1.859375,-1.75 1.859375,-1.828125 0,-0.078125 -0.0625,-0.109375 -0.125,-0.109375 -0.03125,0 -0.078125,0 -0.09375,0.046875 C 3.40625,-1.75 3.390625,-1.75 3.3125,-1.546875 c -0.25,0.59375 -0.796875,1.421875 -1.5,1.421875 -0.359375,0 -0.375,-0.296875 -0.375,-0.5625 0,0 0,-0.234375 0.03125,-0.375 z m 0,0"
           id="path6946" />
      </symbol>
      <symbol
         overflow="visible"
         id="symbol6952">
        <path
           style="stroke:none"
           d=""
           id="path6950" />
      </symbol>
      <symbol
         overflow="visible"
         id="symbol6956">
        <path
           style="stroke:none"
           d="m 2.5,-5.078125 c 0,-0.21875 -0.015625,-0.21875 -0.234375,-0.21875 -0.328125,0.3125 -0.75,0.5 -1.5,0.5 v 0.265625 c 0.21875,0 0.640625,0 1.109375,-0.203125 v 4.078125 c 0,0.296875 -0.03125,0.390625 -0.78125,0.390625 H 0.8125 V 0 c 0.328125,-0.03125 1.015625,-0.03125 1.375,-0.03125 0.359375,0 1.046875,0 1.375,0.03125 V -0.265625 H 3.28125 c -0.75,0 -0.78125,-0.09375 -0.78125,-0.390625 z m 0,0"
           id="path6954" />
      </symbol>
      <symbol
         overflow="visible"
         id="symbol6960">
        <path
           style="stroke:none"
           d="m 2.25,-1.625 c 0.125,-0.125 0.453125,-0.390625 0.59375,-0.5 0.484375,-0.453125 0.953125,-0.890625 0.953125,-1.609375 0,-0.953125 -0.796875,-1.5625 -1.78125,-1.5625 -0.96875,0 -1.59375,0.71875 -1.59375,1.4375 0,0.390625 0.3125,0.4375 0.421875,0.4375 0.171875,0 0.421875,-0.109375 0.421875,-0.421875 0,-0.40625 -0.40625,-0.40625 -0.5,-0.40625 C 1,-4.84375 1.53125,-5.03125 1.921875,-5.03125 c 0.734375,0 1.125,0.625 1.125,1.296875 0,0.828125 -0.578125,1.4375 -1.53125,2.390625 l -1,1.046875 C 0.421875,-0.21875 0.421875,-0.203125 0.421875,0 H 3.5625 l 0.234375,-1.421875 h -0.25 C 3.53125,-1.265625 3.46875,-0.875 3.375,-0.71875 c -0.046875,0.0625 -0.65625,0.0625 -0.78125,0.0625 H 1.171875 Z m 0,0"
           id="path6958" />
      </symbol>
      <symbol
         overflow="visible"
         id="symbol6964">
        <path
           style="stroke:none"
           d=""
           id="path6962" />
      </symbol>
      <symbol
         overflow="visible"
         id="symbol6968">
        <path
           style="stroke:none"
           d="m 8.0625,-3.875 c 0.171875,0 0.390625,0 0.390625,-0.21875 C 8.453125,-4.3125 8.25,-4.3125 8.0625,-4.3125 H 1.03125 c -0.171875,0 -0.390625,0 -0.390625,0.21875 0,0.21875 0.203125,0.21875 0.390625,0.21875 z m 0,2.21875 c 0.171875,0 0.390625,0 0.390625,-0.203125 C 8.453125,-2.09375 8.25,-2.09375 8.0625,-2.09375 H 1.03125 c -0.171875,0 -0.390625,0 -0.390625,0.21875 0,0.21875 0.203125,0.21875 0.390625,0.21875 z m 0,0"
           id="path6966" />
      </symbol>
    </g>
    <marker
       style="overflow:visible"
       id="TriangleStart-6"
       refX="0"
       refY="0"
       orient="auto-start-reverse"
       inkscape:stockid="TriangleStart"
       markerWidth="5.3244081"
       markerHeight="6.155385"
       viewBox="0 0 5.3244081 6.1553851"
       inkscape:isstock="true"
       inkscape:collect="always"
       preserveAspectRatio="xMidYMid">
      <path
         transform="scale(0.5)"
         style="fill:context-stroke;fill-rule:evenodd;stroke:context-stroke;stroke-width:1pt"
         d="M 5.77,0 -2.88,5 V -5 Z"
         id="path135-7" />
    </marker>
    <g
       id="id-b788fbec-8e48-4954-9187-cf65dd4fb069">
      <symbol
         overflow="visible"
         id="id-4016e776-f6a2-429e-a114-2c9949024dc1">
        <path
           style="stroke:none;stroke-width:0"
           d=""
           id="id-678a8a04-f6b6-42ff-a23e-5b3e5ca66df6" />
      </symbol>
      <symbol
         overflow="visible"
         id="id-c4e6ffa9-fd62-4e92-86ee-011d41ce78b3">
        <path
           style="stroke:none;stroke-width:0"
           d="M 6.390625,-7.140625 C 6.25,-7 5.8125,-6.59375 5.8125,-6.421875 c 0,0.125 0.109375,0.234375 0.21875,0.234375 0.109375,0 0.15625,-0.078125 0.25,-0.203125 0.28125,-0.34375 0.609375,-0.578125 0.875,-0.734375 0.125,-0.078125 0.203125,-0.109375 0.203125,-0.234375 0,-0.109375 -0.09375,-0.171875 -0.15625,-0.234375 C 6.859375,-7.8125 6.78125,-8.140625 6.734375,-8.28125 6.703125,-8.375 6.671875,-8.515625 6.5,-8.515625 c -0.0625,0 -0.21875,0.046875 -0.21875,0.21875 0,0.109375 0.078125,0.390625 0.3125,0.71875 H 2.5625 c -0.203125,0 -0.40625,0 -0.40625,0.234375 0,0.203125 0.21875,0.203125 0.40625,0.203125 z m 0,0"
           id="id-787d801a-07cd-4b5e-9ddf-7523734c1b20" />
      </symbol>
      <symbol
         overflow="visible"
         id="id-5988bcc3-1067-4446-b465-d711d132bd08">
        <path
           style="stroke:none;stroke-width:0"
           d="M 4.046875,-1.515625 C 4,-1.328125 3.96875,-1.28125 3.8125,-1.09375 c -0.484375,0.625 -0.984375,0.859375 -1.359375,0.859375 -0.390625,0 -0.765625,-0.3125 -0.765625,-1.140625 0,-0.640625 0.359375,-1.96875 0.625,-2.515625 0.34375,-0.65625 0.875,-1.140625 1.375,-1.140625 0.796875,0 0.953125,0.984375 0.953125,1.046875 L 4.609375,-3.8125 Z M 4.78125,-4.484375 C 4.625,-4.828125 4.296875,-5.265625 3.6875,-5.265625 c -1.296875,0 -2.78125,1.625 -2.78125,3.40625 C 0.90625,-0.609375 1.65625,0 2.421875,0 3.0625,0 3.625,-0.5 3.84375,-0.734375 l -0.265625,1.0625 c -0.171875,0.65625 -0.25,0.96875 -0.671875,1.375 -0.484375,0.5 -0.953125,0.5 -1.203125,0.5 -0.359375,0 -0.65625,-0.03125 -0.96875,-0.125 C 1.125,1.96875 1.21875,1.640625 1.21875,1.5 c 0,-0.1875 -0.140625,-0.375 -0.40625,-0.375 -0.28125,0 -0.59375,0.234375 -0.59375,0.625 0,0.5 0.484375,0.6875 1.5,0.6875 1.546875,0 2.34375,-0.984375 2.5,-1.640625 l 1.328125,-5.34375 c 0.03125,-0.15625 0.03125,-0.171875 0.03125,-0.203125 0,-0.15625 -0.125,-0.296875 -0.3125,-0.296875 -0.28125,0 -0.453125,0.234375 -0.484375,0.5625 z m 0,0"
           id="id-d519db66-2cbd-4a4a-96d4-877602655488" />
      </symbol>
    </g>
  </defs>
  <g
     inkscape:label="Layer 1"
     inkscape:groupmode="layer"
     id="layer1">
    <g
       id="g12"
       transform="matrix(0.41044 0 0 0.41044 47.9083 12.9277)"
       inkscape:export-filename="g12.pdf"
       inkscape:export-xdpi="96"
       inkscape:export-ydpi="96">
      <g
         id="g66"
         transform="matrix(-0.451221,1,-1,-0.451221,0,0)" />
      <rect
         style="opacity:0.433831;fill:none;fill-opacity:0.999955;stroke:#000000;stroke-width:0.484846"
         id="rect3900"
         width="7.7431059"
         height="7.7431059"
         x="-248.33015"
         y="20.737133" />
      <circle
         style="fill:none;stroke:#000000;stroke-width:0.292369;stroke-dasharray:none"
         id="path21375-3"
         cx="-76.515236"
         cy="98.638191"
         r="6.7020793" />
      <g
         transform="matrix(0.859512,0,0,0.859512,-73.200905,33.123149)"
         ns4:version="1.8.2"
         ns4:texconverter="pdflatex"
         ns4:pdfconverter="inkscape"
         ns4:text="$\\skew{-1}\\vec{v}_0$"
         ns4:preamble="/usr/share/inkscape/extensions/textext/default_packages.tex"
         ns4:scale="1.0"
         ns4:alignment="middle center"
         ns4:stroke-to-path="0"
         ns4:inkscapeversion="1.2.2"
         ns4:jacobian_sqrt="0.859512"
         id="g21715">
        <defs
           id="id-0759625d-b942-44a9-8a89-b1bd3cdfdbc0">
          <g
             id="id-f8f5cd19-37e1-4fd2-87c0-e59373b5f3fe">
            <symbol
               overflow="visible"
               id="id-32c3e3a0-7a9a-4a9b-9671-6c2050b05d8d">
              <path
                 style="stroke:none;stroke-width:0"
                 d=""
                 id="id-c96af772-92a6-416b-9c5d-aecc487f9f17" />
            </symbol>
            <symbol
               overflow="visible"
               id="id-7b2b2e3c-96c6-4dec-bf18-0a05145d6ddd">
              <path
                 style="stroke:none;stroke-width:0"
                 d="M 6.390625,-7.140625 C 6.25,-7 5.8125,-6.59375 5.8125,-6.421875 c 0,0.125 0.109375,0.234375 0.21875,0.234375 0.109375,0 0.15625,-0.078125 0.25,-0.203125 0.28125,-0.34375 0.609375,-0.578125 0.875,-0.734375 0.125,-0.078125 0.203125,-0.109375 0.203125,-0.234375 0,-0.109375 -0.09375,-0.171875 -0.15625,-0.234375 C 6.859375,-7.8125 6.78125,-8.140625 6.734375,-8.28125 6.703125,-8.375 6.671875,-8.515625 6.5,-8.515625 c -0.0625,0 -0.21875,0.046875 -0.21875,0.21875 0,0.109375 0.078125,0.390625 0.3125,0.71875 H 2.5625 c -0.203125,0 -0.40625,0 -0.40625,0.234375 0,0.203125 0.21875,0.203125 0.40625,0.203125 z m 0,0"
                 id="id-d4ea2ebc-7f1d-4ac3-8736-204870937851" />
            </symbol>
            <symbol
               overflow="visible"
               id="id-a3ca2eca-e21e-4709-96f6-fe8bec3880f0">
              <path
                 style="stroke:none;stroke-width:0"
                 d="m 5.46875,-4.46875 c 0,-0.75 -0.390625,-0.796875 -0.484375,-0.796875 -0.28125,0 -0.546875,0.28125 -0.546875,0.515625 0,0.140625 0.078125,0.234375 0.125,0.28125 C 4.6875,-4.359375 5,-4.046875 5,-3.421875 c 0,0.5 -0.71875,3.296875 -2.15625,3.296875 -0.734375,0 -0.875,-0.609375 -0.875,-1.046875 0,-0.59375 0.28125,-1.4375 0.59375,-2.296875 0.203125,-0.484375 0.25,-0.609375 0.25,-0.84375 0,-0.5 -0.359375,-0.953125 -0.953125,-0.953125 -1.09375,0 -1.53125,1.734375 -1.53125,1.828125 0,0.046875 0.046875,0.109375 0.125,0.109375 0.109375,0 0.125,-0.046875 0.171875,-0.21875 0.28125,-1.03125 0.75,-1.484375 1.203125,-1.484375 0.109375,0 0.3125,0 0.3125,0.390625 0,0.3125 -0.125,0.65625 -0.3125,1.109375 C 1.25,-2 1.25,-1.625 1.25,-1.34375 c 0,0.265625 0.046875,0.765625 0.40625,1.09375 0.4375,0.375 1.03125,0.375 1.140625,0.375 1.984375,0 2.671875,-3.921875 2.671875,-4.59375 z m 0,0"
                 id="id-94075d00-587f-4ff4-aa0d-b98a6aff4e14" />
            </symbol>
            <symbol
               overflow="visible"
               id="id-4a245c55-71c3-41e7-aabf-5d185375f8e9">
              <path
                 style="stroke:none;stroke-width:0"
                 d=""
                 id="id-81ee2cdd-4dc8-4e16-ae0e-4a3e8de99858" />
            </symbol>
            <symbol
               overflow="visible"
               id="id-f576e7c3-85c6-4090-9c4f-f62f0187fa7f">
              <path
                 style="stroke:none;stroke-width:0"
                 d="m 3.890625,-2.546875 c 0,-0.84375 -0.078125,-1.359375 -0.34375,-1.875 -0.34375,-0.703125 -1,-0.875 -1.4375,-0.875 -1,0 -1.375,0.75 -1.484375,0.96875 -0.28125,0.578125 -0.296875,1.375 -0.296875,1.78125 0,0.53125 0.015625,1.328125 0.40625,1.96875 0.359375,0.59375 0.953125,0.75 1.375,0.75 0.390625,0 1.0625,-0.125 1.46875,-0.90625 0.296875,-0.578125 0.3125,-1.296875 0.3125,-1.8125 z M 2.109375,-0.0625 C 1.84375,-0.0625 1.296875,-0.1875 1.125,-1.015625 1.03125,-1.46875 1.03125,-2.21875 1.03125,-2.640625 1.03125,-3.1875 1.03125,-3.75 1.125,-4.1875 1.296875,-5 1.90625,-5.078125 2.109375,-5.078125 c 0.265625,0 0.828125,0.140625 0.984375,0.859375 0.09375,0.4375 0.09375,1.046875 0.09375,1.578125 0,0.46875 0,1.1875 -0.09375,1.640625 -0.171875,0.828125 -0.71875,0.9375 -0.984375,0.9375 z m 0,0"
                 id="id-ca2e57ca-b1ce-4681-b52b-a1662816ada1" />
            </symbol>
          </g>
        </defs>
        <rect
           style="opacity:0.545927;fill:none;stroke:#000000;stroke-width:0.565342"
           id="rect3130"
           width="169.51323"
           height="124.15895"
           x="-222.81012"
           y="-79.541321" />
      </g>
      <g
         id="g6429"
         transform="translate(-1.3171029,0.08197403)">
        <path
           d="m 9.5198792,67.341444 c 0.063,-0.25 0.297002,-1.171 0.9850038,-1.171 0.046,0 0.296001,0 0.500002,0.125 -0.282001,0.062 -0.469002,0.296 -0.469002,0.546 0,0.157 0.109,0.344 0.375001,0.344 0.219001,0 0.531003,-0.172 0.531003,-0.578 0,-0.516 -0.578003,-0.656 -0.922004,-0.656 -0.5780018,0 -0.9220038,0.531 -1.0470038,0.75 -0.2499959,-0.656 -0.7809989,-0.75 -1.0779999,-0.75 -1.0310055,0 -1.6090075,1.281 -1.6090075,1.531 0,0.109 0.109,0.109 0.125,0.109 0.078,0 0.109,-0.031 0.125001,-0.109 0.344001,-1.062 1.0000056,-1.312 1.3440065,-1.312 0.187001,0 0.531002,0.093 0.531002,0.671 0,0.313 -0.172,0.969 -0.531002,2.375001 -0.1570009,0.61 -0.5160019,1.032 -0.9530055,1.032 -0.063,0 -0.282001,0 -0.500002,-0.125 0.250001,-0.063 0.468002,-0.266 0.468002,-0.547 0,-0.266 -0.218001,-0.344 -0.359001,-0.344 -0.313002,0 -0.547003,0.25 -0.547003,0.578 0,0.453 0.484002,0.656 0.922004,0.656 0.6720046,0 1.0310055,-0.703 1.0470055,-0.75 0.125001,0.36 0.484002,0.75 1.0779999,0.75 1.0310038,0 1.5940058,-1.281 1.5940058,-1.531 0,-0.109 -0.079,-0.109 -0.11,-0.109 -0.093,0 -0.109001,0.047 -0.140001,0.109 -0.329001,1.078 -1.0000028,1.313 -1.3130048,1.313 -0.3899969,0 -0.5469969,-0.313 -0.5469969,-0.657 0,-0.218 0.047,-0.437 0.157,-0.875 z"
           style="fill:#000000;fill-opacity:1;fill-rule:nonzero;stroke:none"
           id="path96" />
        <path
           style="opacity:1;fill:none;fill-opacity:1;stroke:#000000;stroke-width:0.484846;stroke-dasharray:none;stroke-dashoffset:0;stroke-opacity:1;marker-end:url(#Arrow1)"
           d="M -87.27204,70.328313 V -26.213879"
           id="path23323" />
        <path
           style="fill:none;fill-opacity:1;stroke:#000000;stroke-width:0.484846;stroke-dasharray:none;stroke-dashoffset:0;stroke-opacity:1;marker-end:url(#marker1354)"
           d="M -95.659051,61.855573 H 13.543799"
           id="path23323-9" />
        <g
           transform="matrix(0.859512,0,0,0.859512,-94.395574,-24.173341)"
           ns4:version="1.8.2"
           ns4:texconverter="pdflatex"
           ns4:pdfconverter="inkscape"
           ns4:text="$y$"
           ns4:preamble="/usr/share/inkscape/extensions/textext/default_packages.tex"
           ns4:scale="1.0"
           ns4:alignment="middle center"
           ns4:stroke-to-path="0"
           ns4:inkscapeversion="1.2.2"
           ns4:jacobian_sqrt="0.859512"
           id="g4320">
          <defs
             id="id-d46113d9-677f-4909-a159-019e5f55fb75">
            <g
               id="id-655f1c43-988e-4cb7-919d-5506d64040bc">
              <symbol
                 overflow="visible"
                 id="id-a5cf1f9d-1cd7-4a92-9ed3-d572ef29671a">
                <path
                   style="stroke:none;stroke-width:0"
                   d=""
                   id="id-9e79116e-c5c5-469c-8332-5a88c2021d04" />
              </symbol>
              <symbol
                 overflow="visible"
                 id="id-5392ef1b-33da-41a3-9d53-9d472984f4c5">
                <path
                   style="stroke:none;stroke-width:0"
                   d="m 3.140625,1.34375 c -0.3125,0.453125 -0.78125,0.859375 -1.375,0.859375 C 1.625,2.203125 1.046875,2.171875 0.875,1.625 c 0.03125,0.015625 0.09375,0.015625 0.109375,0.015625 0.359375,0 0.609375,-0.3125 0.609375,-0.59375 C 1.59375,0.78125 1.359375,0.6875 1.1875,0.6875 c -0.203125,0 -0.609375,0.140625 -0.609375,0.71875 0,0.609375 0.515625,1.03125 1.1875,1.03125 C 2.96875,2.4375 4.171875,1.34375 4.5,0.015625 L 5.671875,-4.65625 C 5.6875,-4.703125 5.71875,-4.78125 5.71875,-4.859375 5.71875,-5.03125 5.5625,-5.15625 5.390625,-5.15625 5.28125,-5.15625 5.03125,-5.109375 4.9375,-4.75 L 4.046875,-1.234375 C 4,-1.015625 4,-0.984375 3.890625,-0.859375 3.65625,-0.53125 3.265625,-0.125 2.6875,-0.125 c -0.671875,0 -0.734375,-0.65625 -0.734375,-0.96875 0,-0.6875 0.328125,-1.609375 0.65625,-2.46875 0.125,-0.34375 0.203125,-0.515625 0.203125,-0.75 0,-0.5 -0.359375,-0.953125 -0.953125,-0.953125 -1.09375,0 -1.53125,1.734375 -1.53125,1.828125 0,0.046875 0.046875,0.109375 0.125,0.109375 0.109375,0 0.125,-0.046875 0.171875,-0.21875 0.28125,-1 0.734375,-1.484375 1.203125,-1.484375 0.109375,0 0.3125,0 0.3125,0.390625 0,0.3125 -0.125,0.65625 -0.3125,1.109375 C 1.25,-1.953125 1.25,-1.5625 1.25,-1.28125 1.25,-0.140625 2.0625,0.125 2.65625,0.125 3,0.125 3.4375,0.015625 3.84375,-0.4375 l 0.015625,0.015625 C 3.6875,0.28125 3.5625,0.75 3.140625,1.34375 Z m 0,0"
                   id="id-7c2ed934-7043-4317-91e2-8247129311ab" />
              </symbol>
            </g>
          </defs>
          <g
             id="id-9f8d7f02-4ae8-4b87-81a3-91851006e199"
             transform="translate(-128.741,-132.487)">
            <g
               style="fill:#000000;fill-opacity:1"
               id="id-fb58ce4b-18f4-4cb6-8782-9d2017212ecc">
              <g
                 transform="translate(128.413,137.753)"
                 id="g4316">
                <path
                   style="stroke:none;stroke-width:0"
                   d="m 3.140625,1.34375 c -0.3125,0.453125 -0.78125,0.859375 -1.375,0.859375 C 1.625,2.203125 1.046875,2.171875 0.875,1.625 c 0.03125,0.015625 0.09375,0.015625 0.109375,0.015625 0.359375,0 0.609375,-0.3125 0.609375,-0.59375 C 1.59375,0.78125 1.359375,0.6875 1.1875,0.6875 c -0.203125,0 -0.609375,0.140625 -0.609375,0.71875 0,0.609375 0.515625,1.03125 1.1875,1.03125 C 2.96875,2.4375 4.171875,1.34375 4.5,0.015625 L 5.671875,-4.65625 C 5.6875,-4.703125 5.71875,-4.78125 5.71875,-4.859375 5.71875,-5.03125 5.5625,-5.15625 5.390625,-5.15625 5.28125,-5.15625 5.03125,-5.109375 4.9375,-4.75 L 4.046875,-1.234375 C 4,-1.015625 4,-0.984375 3.890625,-0.859375 3.65625,-0.53125 3.265625,-0.125 2.6875,-0.125 c -0.671875,0 -0.734375,-0.65625 -0.734375,-0.96875 0,-0.6875 0.328125,-1.609375 0.65625,-2.46875 0.125,-0.34375 0.203125,-0.515625 0.203125,-0.75 0,-0.5 -0.359375,-0.953125 -0.953125,-0.953125 -1.09375,0 -1.53125,1.734375 -1.53125,1.828125 0,0.046875 0.046875,0.109375 0.125,0.109375 0.109375,0 0.125,-0.046875 0.171875,-0.21875 0.28125,-1 0.734375,-1.484375 1.203125,-1.484375 0.109375,0 0.3125,0 0.3125,0.390625 0,0.3125 -0.125,0.65625 -0.3125,1.109375 C 1.25,-1.953125 1.25,-1.5625 1.25,-1.28125 1.25,-0.140625 2.0625,0.125 2.65625,0.125 3,0.125 3.4375,0.015625 3.84375,-0.4375 l 0.015625,0.015625 C 3.6875,0.28125 3.5625,0.75 3.140625,1.34375 Z m 0,0"
                   id="id-83dcf951-b726-4268-93fb-4e46464b1689" />
              </g>
            </g>
          </g>
        </g>
        <path
           style="opacity:1;fill:none;stroke:#000000;stroke-width:0.311585;stroke-dasharray:none"
           d="m -87.330394,61.80581 c 31.644382,-88.019754 63.288853,-88.011128 94.9333177,0.02588"
           title="-(1/4)*(x-7)*(x-7) + 10"
           id="path20930"
           sodipodi:nodetypes="cc" />
        <path
           id="path21375"
           style="opacity:1;fill:none;stroke:#000000;stroke-width:0.292369"
           d="m -85.07224,54.986295 c 2.575507,0.934767 4.415356,3.403445 4.415356,6.301843 0,0.165179 -0.006,0.328963 -0.01772,0.491146"
           sodipodi:nodetypes="csc" />
        <g
           transform="matrix(0.859512,0,0,0.859512,-78.902397,56.129108)"
           ns4:version="1.8.2"
           ns4:texconverter="pdflatex"
           ns4:pdfconverter="inkscape"
           ns4:text="$\\alpha$"
           ns4:preamble="/usr/share/inkscape/extensions/textext/default_packages.tex"
           ns4:scale="1.0"
           ns4:alignment="middle center"
           ns4:stroke-to-path="0"
           ns4:inkscapeversion="1.2.2"
           ns4:jacobian_sqrt="0.859512"
           id="g21551">
          <defs
             id="id-c0fa1e03-0415-4001-beeb-8ab2c6b71c1d">
            <g
               id="id-29f01bbd-c959-4891-9796-0396e1bfb80b">
              <symbol
                 overflow="visible"
                 id="id-fcbcdca8-fff0-478b-b804-735d8b03790d">
                <path
                   style="stroke:none;stroke-width:0"
                   d=""
                   id="id-b1fc66bf-6661-4577-a7b2-12bc091e0fe3" />
              </symbol>
              <symbol
                 overflow="visible"
                 id="id-720e7bd4-d1b3-4513-86c7-dde5a9519007">
                <path
                   style="stroke:none;stroke-width:0"
                   d="m 5.53125,-3.03125 c 0,-1.15625 -0.65625,-2.234375 -1.921875,-2.234375 -1.5625,0 -3.125,1.703125 -3.125,3.40625 0,1.03125 0.640625,1.984375 1.859375,1.984375 0.734375,0 1.625,-0.296875 2.46875,-1.015625 C 4.984375,-0.21875 5.359375,0.125 5.875,0.125 c 0.640625,0 0.96875,-0.671875 0.96875,-0.828125 0,-0.109375 -0.09375,-0.109375 -0.125,-0.109375 -0.09375,0 -0.109375,0.03125 -0.140625,0.125 C 6.46875,-0.375 6.1875,-0.125 5.90625,-0.125 c -0.375,0 -0.375,-0.765625 -0.375,-1.484375 1.21875,-1.46875 1.515625,-2.96875 1.515625,-2.984375 0,-0.109375 -0.109375,-0.109375 -0.140625,-0.109375 -0.109375,0 -0.109375,0.046875 -0.171875,0.25 -0.140625,0.53125 -0.453125,1.46875 -1.203125,2.4375 z m -0.75,1.859375 c -1.046875,0.9375 -2,1.046875 -2.421875,1.046875 -0.84375,0 -1.078125,-0.75 -1.078125,-1.3125 0,-0.515625 0.265625,-1.734375 0.625,-2.390625 0.5,-0.828125 1.171875,-1.203125 1.703125,-1.203125 1.15625,0 1.15625,1.515625 1.15625,2.515625 0,0.296875 -0.015625,0.609375 -0.015625,0.90625 0,0.25 0.015625,0.3125 0.03125,0.4375 z m 0,0"
                   id="id-070a51a0-6d9c-44e6-b00b-d6e50285e9c9" />
              </symbol>
            </g>
          </defs>
          <g
             id="id-b6288ddd-717d-48cb-adf7-db0582558e01"
             transform="translate(-128.897,-132.487)">
            <g
               style="fill:#000000;fill-opacity:1"
               id="id-f1a4bdaa-af5c-4e7a-af2e-2cdb5cf3fe65">
              <g
                 transform="translate(128.413,137.753)"
                 id="g21547">
                <path
                   style="stroke:none;stroke-width:0"
                   d="m 5.53125,-3.03125 c 0,-1.15625 -0.65625,-2.234375 -1.921875,-2.234375 -1.5625,0 -3.125,1.703125 -3.125,3.40625 0,1.03125 0.640625,1.984375 1.859375,1.984375 0.734375,0 1.625,-0.296875 2.46875,-1.015625 C 4.984375,-0.21875 5.359375,0.125 5.875,0.125 c 0.640625,0 0.96875,-0.671875 0.96875,-0.828125 0,-0.109375 -0.09375,-0.109375 -0.125,-0.109375 -0.09375,0 -0.109375,0.03125 -0.140625,0.125 C 6.46875,-0.375 6.1875,-0.125 5.90625,-0.125 c -0.375,0 -0.375,-0.765625 -0.375,-1.484375 1.21875,-1.46875 1.515625,-2.96875 1.515625,-2.984375 0,-0.109375 -0.109375,-0.109375 -0.140625,-0.109375 -0.109375,0 -0.109375,0.046875 -0.171875,0.25 -0.140625,0.53125 -0.453125,1.46875 -1.203125,2.4375 z m -0.75,1.859375 c -1.046875,0.9375 -2,1.046875 -2.421875,1.046875 -0.84375,0 -1.078125,-0.75 -1.078125,-1.3125 0,-0.515625 0.265625,-1.734375 0.625,-2.390625 0.5,-0.828125 1.171875,-1.203125 1.703125,-1.203125 1.15625,0 1.15625,1.515625 1.15625,2.515625 0,0.296875 -0.015625,0.609375 -0.015625,0.90625 0,0.25 0.015625,0.3125 0.03125,0.4375 z m 0,0"
                   id="id-6ef39609-ce81-4db1-8760-c2d52e3678f0" />
              </g>
            </g>
          </g>
        </g>
        <g
           id="id-e08c0bbc-e6cb-440b-82dd-07e582cf973e"
           transform="matrix(0.85951202,0,0,0.85951202,-189.2168,-71.198358)">
          <g
             style="fill:#000000;fill-opacity:1"
             id="id-99aad661-2377-4230-a6cb-c8f74c391275">
            <g
               transform="translate(127.279,137.753)"
               id="g21703">
              <path
                 style="stroke:none;stroke-width:0"
                 d="M 6.390625,-7.140625 C 6.25,-7 5.8125,-6.59375 5.8125,-6.421875 c 0,0.125 0.109375,0.234375 0.21875,0.234375 0.109375,0 0.15625,-0.078125 0.25,-0.203125 0.28125,-0.34375 0.609375,-0.578125 0.875,-0.734375 0.125,-0.078125 0.203125,-0.109375 0.203125,-0.234375 0,-0.109375 -0.09375,-0.171875 -0.15625,-0.234375 C 6.859375,-7.8125 6.78125,-8.140625 6.734375,-8.28125 6.703125,-8.375 6.671875,-8.515625 6.5,-8.515625 c -0.0625,0 -0.21875,0.046875 -0.21875,0.21875 0,0.109375 0.078125,0.390625 0.3125,0.71875 H 2.5625 c -0.203125,0 -0.40625,0 -0.40625,0.234375 0,0.203125 0.21875,0.203125 0.40625,0.203125 z m 0,0"
                 id="id-54a74553-80b6-4225-9816-009011f83247" />
            </g>
          </g>
          <g
             style="fill:#000000;fill-opacity:1"
             id="id-9f119034-2c6c-45d3-a8dc-7c576217c605">
            <g
               transform="translate(128.41,137.753)"
               id="g21707">
              <path
                 style="stroke:none;stroke-width:0"
                 d="m 5.46875,-4.46875 c 0,-0.75 -0.390625,-0.796875 -0.484375,-0.796875 -0.28125,0 -0.546875,0.28125 -0.546875,0.515625 0,0.140625 0.078125,0.234375 0.125,0.28125 C 4.6875,-4.359375 5,-4.046875 5,-3.421875 c 0,0.5 -0.71875,3.296875 -2.15625,3.296875 -0.734375,0 -0.875,-0.609375 -0.875,-1.046875 0,-0.59375 0.28125,-1.4375 0.59375,-2.296875 0.203125,-0.484375 0.25,-0.609375 0.25,-0.84375 0,-0.5 -0.359375,-0.953125 -0.953125,-0.953125 -1.09375,0 -1.53125,1.734375 -1.53125,1.828125 0,0.046875 0.046875,0.109375 0.125,0.109375 0.109375,0 0.125,-0.046875 0.171875,-0.21875 0.28125,-1.03125 0.75,-1.484375 1.203125,-1.484375 0.109375,0 0.3125,0 0.3125,0.390625 0,0.3125 -0.125,0.65625 -0.3125,1.109375 C 1.25,-2 1.25,-1.625 1.25,-1.34375 c 0,0.265625 0.046875,0.765625 0.40625,1.09375 0.4375,0.375 1.03125,0.375 1.140625,0.375 1.984375,0 2.671875,-3.921875 2.671875,-4.59375 z m 0,0"
                 id="id-84e3ab7e-6190-4ef3-be51-2ebf5988f5d1" />
            </g>
          </g>
          <g
             style="fill:#000000;fill-opacity:1"
             id="id-90157c4a-9b86-493e-90d8-71fc98f2bf9a">
            <g
               transform="translate(134.501,140.116)"
               id="g21711">
              <path
                 style="stroke:none;stroke-width:0"
                 d="m 3.890625,-2.546875 c 0,-0.84375 -0.078125,-1.359375 -0.34375,-1.875 -0.34375,-0.703125 -1,-0.875 -1.4375,-0.875 -1,0 -1.375,0.75 -1.484375,0.96875 -0.28125,0.578125 -0.296875,1.375 -0.296875,1.78125 0,0.53125 0.015625,1.328125 0.40625,1.96875 0.359375,0.59375 0.953125,0.75 1.375,0.75 0.390625,0 1.0625,-0.125 1.46875,-0.90625 0.296875,-0.578125 0.3125,-1.296875 0.3125,-1.8125 z M 2.109375,-0.0625 C 1.84375,-0.0625 1.296875,-0.1875 1.125,-1.015625 1.03125,-1.46875 1.03125,-2.21875 1.03125,-2.640625 1.03125,-3.1875 1.03125,-3.75 1.125,-4.1875 1.296875,-5 1.90625,-5.078125 2.109375,-5.078125 c 0.265625,0 0.828125,0.140625 0.984375,0.859375 0.09375,0.4375 0.09375,1.046875 0.09375,1.578125 0,0.46875 0,1.1875 -0.09375,1.640625 -0.171875,0.828125 -0.71875,0.9375 -0.984375,0.9375 z m 0,0"
                 id="id-bb5858c1-a5bc-4f40-98ee-5edcc71422fb" />
            </g>
          </g>
        </g>
        <g
           transform="matrix(0.859512,0,0,0.859512,-78.200517,4.0384034)"
           ns4:version="1.8.2"
           ns4:texconverter="pdflatex"
           ns4:pdfconverter="inkscape"
           ns4:text="$\\vec{g}$"
           ns4:preamble="/usr/share/inkscape/extensions/textext/default_packages.tex"
           ns4:scale="1.0"
           ns4:alignment="middle center"
           ns4:stroke-to-path="0"
           ns4:inkscapeversion="1.2.2"
           ns4:jacobian_sqrt="0.859512"
           id="g21929">
          <defs
             id="id-953be5b0-f22a-4583-ab34-e1723790562a">
            <g
               id="id-17931531-85c7-4b4f-96d6-460d60052503">
              <symbol
                 overflow="visible"
                 id="id-7187d2e5-a60a-4087-a7f7-60696ff7f95f">
                <path
                   style="stroke:none;stroke-width:0"
                   d=""
                   id="id-fc7e41c1-6b90-49da-bf2a-ae54b273bd70" />
              </symbol>
              <symbol
                 overflow="visible"
                 id="id-dcd035a6-379d-4036-91e0-1ed45918e05a">
                <path
                   style="stroke:none;stroke-width:0"
                   d="M 6.390625,-7.140625 C 6.25,-7 5.8125,-6.59375 5.8125,-6.421875 c 0,0.125 0.109375,0.234375 0.21875,0.234375 0.109375,0 0.15625,-0.078125 0.25,-0.203125 0.28125,-0.34375 0.609375,-0.578125 0.875,-0.734375 0.125,-0.078125 0.203125,-0.109375 0.203125,-0.234375 0,-0.109375 -0.09375,-0.171875 -0.15625,-0.234375 C 6.859375,-7.8125 6.78125,-8.140625 6.734375,-8.28125 6.703125,-8.375 6.671875,-8.515625 6.5,-8.515625 c -0.0625,0 -0.21875,0.046875 -0.21875,0.21875 0,0.109375 0.078125,0.390625 0.3125,0.71875 H 2.5625 c -0.203125,0 -0.40625,0 -0.40625,0.234375 0,0.203125 0.21875,0.203125 0.40625,0.203125 z m 0,0"
                   id="id-f36b6ab8-8c5a-4cbe-82f6-b43481d52037" />
              </symbol>
              <symbol
                 overflow="visible"
                 id="id-18983b38-97b5-4859-850d-c7c9d572e642">
                <path
                   style="stroke:none;stroke-width:0"
                   d="M 4.046875,-1.515625 C 4,-1.328125 3.96875,-1.28125 3.8125,-1.09375 c -0.484375,0.625 -0.984375,0.859375 -1.359375,0.859375 -0.390625,0 -0.765625,-0.3125 -0.765625,-1.140625 0,-0.640625 0.359375,-1.96875 0.625,-2.515625 0.34375,-0.65625 0.875,-1.140625 1.375,-1.140625 0.796875,0 0.953125,0.984375 0.953125,1.046875 L 4.609375,-3.8125 Z M 4.78125,-4.484375 C 4.625,-4.828125 4.296875,-5.265625 3.6875,-5.265625 c -1.296875,0 -2.78125,1.625 -2.78125,3.40625 C 0.90625,-0.609375 1.65625,0 2.421875,0 3.0625,0 3.625,-0.5 3.84375,-0.734375 l -0.265625,1.0625 c -0.171875,0.65625 -0.25,0.96875 -0.671875,1.375 -0.484375,0.5 -0.953125,0.5 -1.203125,0.5 -0.359375,0 -0.65625,-0.03125 -0.96875,-0.125 C 1.125,1.96875 1.21875,1.640625 1.21875,1.5 c 0,-0.1875 -0.140625,-0.375 -0.40625,-0.375 -0.28125,0 -0.59375,0.234375 -0.59375,0.625 0,0.5 0.484375,0.6875 1.5,0.6875 1.546875,0 2.34375,-0.984375 2.5,-1.640625 l 1.328125,-5.34375 c 0.03125,-0.15625 0.03125,-0.171875 0.03125,-0.203125 0,-0.15625 -0.125,-0.296875 -0.3125,-0.296875 -0.28125,0 -0.453125,0.234375 -0.484375,0.5625 z m 0,0"
                   id="id-76f097af-61ac-49ba-8238-db94086c7020" />
              </symbol>
            </g>
          </defs>
          <g
             id="id-7616a0f5-7da8-4462-bd5d-4e4addbf2c40"
             transform="translate(-128.626,-129.237)">
            <g
               style="fill:#000000;fill-opacity:1"
               id="id-a04e2b5c-d0ee-4956-ad1e-09e135a596be">
              <g
                 transform="translate(127.91,137.753)"
                 id="g21921">
                <path
                   style="stroke:none;stroke-width:0"
                   d="M 6.390625,-7.140625 C 6.25,-7 5.8125,-6.59375 5.8125,-6.421875 c 0,0.125 0.109375,0.234375 0.21875,0.234375 0.109375,0 0.15625,-0.078125 0.25,-0.203125 0.28125,-0.34375 0.609375,-0.578125 0.875,-0.734375 0.125,-0.078125 0.203125,-0.109375 0.203125,-0.234375 0,-0.109375 -0.09375,-0.171875 -0.15625,-0.234375 C 6.859375,-7.8125 6.78125,-8.140625 6.734375,-8.28125 6.703125,-8.375 6.671875,-8.515625 6.5,-8.515625 c -0.0625,0 -0.21875,0.046875 -0.21875,0.21875 0,0.109375 0.078125,0.390625 0.3125,0.71875 H 2.5625 c -0.203125,0 -0.40625,0 -0.40625,0.234375 0,0.203125 0.21875,0.203125 0.40625,0.203125 z m 0,0"
                   id="id-70ab6f51-1d25-447f-b39f-e7c49a905da1" />
              </g>
            </g>
            <g
               style="fill:#000000;fill-opacity:1"
               id="id-dee620db-adf6-4401-8fd8-72e9c1e11a43">
              <g
                 transform="translate(128.407,137.753)"
                 id="g21925">
                <path
                   style="stroke:none;stroke-width:0"
                   d="M 4.046875,-1.515625 C 4,-1.328125 3.96875,-1.28125 3.8125,-1.09375 c -0.484375,0.625 -0.984375,0.859375 -1.359375,0.859375 -0.390625,0 -0.765625,-0.3125 -0.765625,-1.140625 0,-0.640625 0.359375,-1.96875 0.625,-2.515625 0.34375,-0.65625 0.875,-1.140625 1.375,-1.140625 0.796875,0 0.953125,0.984375 0.953125,1.046875 L 4.609375,-3.8125 Z M 4.78125,-4.484375 C 4.625,-4.828125 4.296875,-5.265625 3.6875,-5.265625 c -1.296875,0 -2.78125,1.625 -2.78125,3.40625 C 0.90625,-0.609375 1.65625,0 2.421875,0 3.0625,0 3.625,-0.5 3.84375,-0.734375 l -0.265625,1.0625 c -0.171875,0.65625 -0.25,0.96875 -0.671875,1.375 -0.484375,0.5 -0.953125,0.5 -1.203125,0.5 -0.359375,0 -0.65625,-0.03125 -0.96875,-0.125 C 1.125,1.96875 1.21875,1.640625 1.21875,1.5 c 0,-0.1875 -0.140625,-0.375 -0.40625,-0.375 -0.28125,0 -0.59375,0.234375 -0.59375,0.625 0,0.5 0.484375,0.6875 1.5,0.6875 1.546875,0 2.34375,-0.984375 2.5,-1.640625 l 1.328125,-5.34375 c 0.03125,-0.15625 0.03125,-0.171875 0.03125,-0.203125 0,-0.15625 -0.125,-0.296875 -0.3125,-0.296875 -0.28125,0 -0.453125,0.234375 -0.484375,0.5625 z m 0,0"
                   id="id-0b6b1a50-98ae-4ff4-bd39-56f7eb1c622b" />
              </g>
            </g>
          </g>
        </g>
        <path
           style="opacity:1;fill:none;stroke:#000000;stroke-width:0.730923;stroke-dasharray:none;marker-end:url(#TriangleStart)"
           d="m -87.188265,61.744733 5.443076,-15.170525"
           id="path22121"
           inkscape:transform-center-x="-1.0763559"
           inkscape:transform-center-y="-3.0076566" />
        <path
           style="fill:#0812ff;stroke:#000000;stroke-width:0.243641;stroke-dasharray:none"
           d="m -29.56663,94.339296 -2.816404,3.349689"
           id="path8183" />
      </g>
      <g
         transform="matrix(0.85951202,0,0,0.85951202,-109.47799,47.241159)"
         ns4:version="1.8.2"
         ns4:texconverter="pdflatex"
         ns4:pdfconverter="inkscape"
         ns4:text="$\\vec{g}$"
         ns4:preamble="/usr/share/inkscape/extensions/textext/default_packages.tex"
         ns4:scale="1.0"
         ns4:alignment="middle center"
         ns4:stroke-to-path="0"
         ns4:inkscapeversion="1.2.2"
         ns4:jacobian_sqrt="0.859512"
         id="g16510">
        <defs
           id="id-4361d0aa-eff9-4431-bfbd-3492e41de18a">
          <g
             id="g10376">
            <symbol
               overflow="visible"
               id="symbol10366">
              <path
                 style="stroke:none;stroke-width:0"
                 d=""
                 id="path10364" />
            </symbol>
            <symbol
               overflow="visible"
               id="symbol10370">
              <path
                 style="stroke:none;stroke-width:0"
                 d="M 6.390625,-7.140625 C 6.25,-7 5.8125,-6.59375 5.8125,-6.421875 c 0,0.125 0.109375,0.234375 0.21875,0.234375 0.109375,0 0.15625,-0.078125 0.25,-0.203125 0.28125,-0.34375 0.609375,-0.578125 0.875,-0.734375 0.125,-0.078125 0.203125,-0.109375 0.203125,-0.234375 0,-0.109375 -0.09375,-0.171875 -0.15625,-0.234375 C 6.859375,-7.8125 6.78125,-8.140625 6.734375,-8.28125 6.703125,-8.375 6.671875,-8.515625 6.5,-8.515625 c -0.0625,0 -0.21875,0.046875 -0.21875,0.21875 0,0.109375 0.078125,0.390625 0.3125,0.71875 H 2.5625 c -0.203125,0 -0.40625,0 -0.40625,0.234375 0,0.203125 0.21875,0.203125 0.40625,0.203125 z m 0,0"
                 id="path10368" />
            </symbol>
            <symbol
               overflow="visible"
               id="symbol10374">
              <path
                 style="stroke:none;stroke-width:0"
                 d="M 4.046875,-1.515625 C 4,-1.328125 3.96875,-1.28125 3.8125,-1.09375 c -0.484375,0.625 -0.984375,0.859375 -1.359375,0.859375 -0.390625,0 -0.765625,-0.3125 -0.765625,-1.140625 0,-0.640625 0.359375,-1.96875 0.625,-2.515625 0.34375,-0.65625 0.875,-1.140625 1.375,-1.140625 0.796875,0 0.953125,0.984375 0.953125,1.046875 L 4.609375,-3.8125 Z M 4.78125,-4.484375 C 4.625,-4.828125 4.296875,-5.265625 3.6875,-5.265625 c -1.296875,0 -2.78125,1.625 -2.78125,3.40625 C 0.90625,-0.609375 1.65625,0 2.421875,0 3.0625,0 3.625,-0.5 3.84375,-0.734375 l -0.265625,1.0625 c -0.171875,0.65625 -0.25,0.96875 -0.671875,1.375 -0.484375,0.5 -0.953125,0.5 -1.203125,0.5 -0.359375,0 -0.65625,-0.03125 -0.96875,-0.125 C 1.125,1.96875 1.21875,1.640625 1.21875,1.5 c 0,-0.1875 -0.140625,-0.375 -0.40625,-0.375 -0.28125,0 -0.59375,0.234375 -0.59375,0.625 0,0.5 0.484375,0.6875 1.5,0.6875 1.546875,0 2.34375,-0.984375 2.5,-1.640625 l 1.328125,-5.34375 c 0.03125,-0.15625 0.03125,-0.171875 0.03125,-0.203125 0,-0.15625 -0.125,-0.296875 -0.3125,-0.296875 -0.28125,0 -0.453125,0.234375 -0.484375,0.5625 z m 0,0"
                 id="path10372" />
            </symbol>
          </g>
        </defs>
      </g>
      <path
         style="fill:#0812ff;stroke:#000000;stroke-width:0.730923;stroke-dasharray:none;marker-start:url(#TriangleStart-6)"
         d="m -81.968113,21.237777 c 0,-16.3078406 0,-16.1863426 0,-16.1863426"
         id="path18981" />
    </g>
  </g>
</svg>
