<?xml version="1.0" encoding="UTF-8" standalone="no"?>
<!-- Created with Inkscape (http://www.inkscape.org/) -->

<svg
   sodipodi:docname="f1-19.svg"
   inkscape:version="1.2.2 (b0a8486541, 2022-12-01)"
   id="svg4220"
   version="1.1"
   viewBox="0 0 60 44"
   height="44mm"
   width="60mm"
   inkscape:export-filename="f1-19.pdf"
   inkscape:export-xdpi="96"
   inkscape:export-ydpi="96"
   xmlns:inkscape="http://www.inkscape.org/namespaces/inkscape"
   xmlns:sodipodi="http://sodipodi.sourceforge.net/DTD/sodipodi-0.dtd"
   xmlns="http://www.w3.org/2000/svg"
   xmlns:svg="http://www.w3.org/2000/svg"
   xmlns:ns4="http://www.iki.fi/pav/software/textext/">
  <sodipodi:namedview
     id="namedview4222"
     pagecolor="#ffffff"
     bordercolor="#000000"
     borderopacity="0.25"
     inkscape:showpageshadow="2"
     inkscape:pageopacity="0.0"
     inkscape:pagecheckerboard="0"
     inkscape:deskcolor="#d1d1d1"
     inkscape:document-units="mm"
     showgrid="false"
     inkscape:zoom="4"
     inkscape:cx="102.25"
     inkscape:cy="99.75"
     inkscape:window-width="1920"
     inkscape:window-height="1011"
     inkscape:window-x="0"
     inkscape:window-y="0"
     inkscape:window-maximized="1"
     inkscape:current-layer="g6429" />
  <defs
     id="defs4217">
    <marker
       style="overflow:visible"
       id="TriangleStart"
       refX="0"
       refY="0"
       orient="auto-start-reverse"
       inkscape:stockid="TriangleStart"
       markerWidth="5.3244081"
       markerHeight="6.155385"
       viewBox="0 0 5.3244081 6.1553851"
       inkscape:isstock="true"
       inkscape:collect="always"
       preserveAspectRatio="xMidYMid">
      <path
         transform="scale(0.5)"
         style="fill:context-stroke;fill-rule:evenodd;stroke:context-stroke;stroke-width:1pt"
         d="M 5.77,0 -2.88,5 V -5 Z"
         id="path135" />
    </marker>
    <marker
       style="overflow:visible"
       id="marker1354"
       refX="0"
       refY="0"
       orient="auto-start-reverse"
       inkscape:stockid="Arrow1"
       markerWidth="4.0606604"
       markerHeight="6.7071066"
       viewBox="0 0 4.0606602 6.7071068"
       inkscape:isstock="true"
       inkscape:collect="always"
       preserveAspectRatio="xMidYMid">
      <path
         style="fill:none;stroke:context-stroke;stroke-width:1;stroke-linecap:butt"
         d="M 3,-3 0,0 3,3"
         id="path1352"
         transform="rotate(180,0.125,0)"
         sodipodi:nodetypes="ccc" />
    </marker>
    <marker
       style="overflow:visible"
       id="Arrow1"
       refX="0"
       refY="0"
       orient="auto-start-reverse"
       inkscape:stockid="Arrow1"
       markerWidth="4.0606604"
       markerHeight="6.7071066"
       viewBox="0 0 4.0606602 6.7071068"
       inkscape:isstock="true"
       inkscape:collect="always"
       preserveAspectRatio="xMidYMid">
      <path
         style="fill:none;stroke:context-stroke;stroke-width:1;stroke-linecap:butt"
         d="M 3,-3 0,0 3,3"
         id="path5057"
         transform="rotate(180,0.125,0)"
         sodipodi:nodetypes="ccc" />
    </marker>
    <linearGradient
       id="linearGradient11071"
       inkscape:swatch="solid">
      <stop
         style="stop-color:#000000;stop-opacity:1;"
         offset="0"
         id="stop11069" />
    </linearGradient>
    <clipPath
       clipPathUnits="userSpaceOnUse"
       id="clipPath108">
      <path
         d="M 0,0 H 198 V 224 H 0 Z"
         id="path106" />
    </clipPath>
    <clipPath
       clipPathUnits="userSpaceOnUse"
       id="clipPath126">
      <path
         d="M 0,0 H 198 V 224 H 0 Z"
         id="path124" />
    </clipPath>
    <clipPath
       clipPathUnits="userSpaceOnUse"
       id="clipPath144">
      <path
         d="M 0,0 H 198 V 224 H 0 Z"
         id="path142" />
    </clipPath>
    <clipPath
       clipPathUnits="userSpaceOnUse"
       id="clipPath162">
      <path
         d="M 0,0 H 198 V 224 H 0 Z"
         id="path160" />
    </clipPath>
    <clipPath
       clipPathUnits="userSpaceOnUse"
       id="clipPath180">
      <path
         d="M 0,0 H 198 V 224 H 0 Z"
         id="path178" />
    </clipPath>
    <clipPath
       clipPathUnits="userSpaceOnUse"
       id="clipPath198">
      <path
         d="M 0,0 H 198 V 224 H 0 Z"
         id="path196" />
    </clipPath>
    <clipPath
       clipPathUnits="userSpaceOnUse"
       id="clipPath216">
      <path
         d="M 0,0 H 198 V 224 H 0 Z"
         id="path214" />
    </clipPath>
    <clipPath
       clipPathUnits="userSpaceOnUse"
       id="clipPath246">
      <path
         d="M 0,0 H 198 V 224 H 0 Z"
         id="path244" />
    </clipPath>
    <g
       id="id-85329d80-5d8f-44da-86ee-8ce88b77731a">
      <symbol
         overflow="visible"
         id="id-17ac1072-b368-4544-9ab4-4465682d5c7c">
        <path
           style="stroke:none"
           d=""
           id="id-fbd53bd0-2057-4954-a207-9ee85b5949b1" />
      </symbol>
      <symbol
         overflow="visible"
         id="id-b698824b-d462-4b05-9dac-77d95d3685dd">
        <path
           style="stroke:none"
           d="m 3.140625,1.34375 c -0.3125,0.453125 -0.78125,0.859375 -1.375,0.859375 C 1.625,2.203125 1.046875,2.171875 0.875,1.625 c 0.03125,0.015625 0.09375,0.015625 0.109375,0.015625 0.359375,0 0.609375,-0.3125 0.609375,-0.59375 C 1.59375,0.78125 1.359375,0.6875 1.1875,0.6875 c -0.203125,0 -0.609375,0.140625 -0.609375,0.71875 0,0.609375 0.515625,1.03125 1.1875,1.03125 C 2.96875,2.4375 4.171875,1.34375 4.5,0.015625 L 5.671875,-4.65625 C 5.6875,-4.703125 5.71875,-4.78125 5.71875,-4.859375 5.71875,-5.03125 5.5625,-5.15625 5.390625,-5.15625 5.28125,-5.15625 5.03125,-5.109375 4.9375,-4.75 L 4.046875,-1.234375 C 4,-1.015625 4,-0.984375 3.890625,-0.859375 3.65625,-0.53125 3.265625,-0.125 2.6875,-0.125 c -0.671875,0 -0.734375,-0.65625 -0.734375,-0.96875 0,-0.6875 0.328125,-1.609375 0.65625,-2.46875 0.125,-0.34375 0.203125,-0.515625 0.203125,-0.75 0,-0.5 -0.359375,-0.953125 -0.953125,-0.953125 -1.09375,0 -1.53125,1.734375 -1.53125,1.828125 0,0.046875 0.046875,0.109375 0.125,0.109375 0.109375,0 0.125,-0.046875 0.171875,-0.21875 0.28125,-1 0.734375,-1.484375 1.203125,-1.484375 0.109375,0 0.3125,0 0.3125,0.390625 0,0.3125 -0.125,0.65625 -0.3125,1.109375 C 1.25,-1.953125 1.25,-1.5625 1.25,-1.28125 1.25,-0.140625 2.0625,0.125 2.65625,0.125 3,0.125 3.4375,0.015625 3.84375,-0.4375 l 0.015625,0.015625 C 3.6875,0.28125 3.5625,0.75 3.140625,1.34375 Z m 0,0"
           id="id-d4d93b6f-6362-4f60-97d2-84828867610f" />
      </symbol>
    </g>
    <g
       id="id-b8875a62-f73c-4c37-98c2-907c4dd95473">
      <symbol
         overflow="visible"
         id="id-9cedcc4d-646b-4eac-9d66-4076fe4c2c0c">
        <path
           style="stroke:none"
           d=""
           id="id-f12fce94-d8be-4631-b8b5-ebc943c2104d" />
      </symbol>
      <symbol
         overflow="visible"
         id="id-6f5fc5be-2707-41ed-84b0-4ab1ecca2538">
        <path
           style="stroke:none"
           d="m 5.671875,-4.875 c -0.390625,0.0625 -0.53125,0.359375 -0.53125,0.578125 0,0.296875 0.21875,0.390625 0.390625,0.390625 0.359375,0 0.609375,-0.3125 0.609375,-0.640625 0,-0.5 -0.578125,-0.71875 -1.078125,-0.71875 -0.71875,0 -1.125,0.71875 -1.234375,0.9375 -0.28125,-0.890625 -1.015625,-0.9375 -1.234375,-0.9375 -1.21875,0 -1.859375,1.5625 -1.859375,1.828125 0,0.046875 0.046875,0.109375 0.125,0.109375 0.09375,0 0.125,-0.078125 0.140625,-0.125 0.40625,-1.328125 1.21875,-1.578125 1.5625,-1.578125 0.53125,0 0.640625,0.5 0.640625,0.78125 0,0.265625 -0.078125,0.546875 -0.21875,1.125 L 2.578125,-1.5 c -0.171875,0.71875 -0.515625,1.375 -1.15625,1.375 -0.0625,0 -0.359375,0 -0.609375,-0.15625 C 1.25,-0.359375 1.34375,-0.71875 1.34375,-0.859375 1.34375,-1.09375 1.15625,-1.25 0.9375,-1.25 c -0.296875,0 -0.609375,0.265625 -0.609375,0.640625 0,0.5 0.5625,0.734375 1.078125,0.734375 0.578125,0 0.984375,-0.453125 1.234375,-0.953125 C 2.828125,-0.125 3.4375,0.125 3.875,0.125 5.09375,0.125 5.734375,-1.453125 5.734375,-1.703125 5.734375,-1.765625 5.6875,-1.8125 5.625,-1.8125 5.515625,-1.8125 5.5,-1.75 5.46875,-1.65625 5.140625,-0.609375 4.453125,-0.125 3.90625,-0.125 3.484375,-0.125 3.265625,-0.4375 3.265625,-0.921875 3.265625,-1.1875 3.3125,-1.375 3.5,-2.15625 L 3.921875,-3.796875 C 4.09375,-4.5 4.5,-5.03125 5.0625,-5.03125 c 0.015625,0 0.359375,0 0.609375,0.15625 z m 0,0"
           id="id-f53723fd-7660-4df2-aaf0-23f65fbaf63c" />
      </symbol>
    </g>
    <g
       id="id-929dc1ff-84f5-472e-9da5-ccdaa4ef6d27">
      <symbol
         overflow="visible"
         id="id-cbf01ecc-2c00-4cfb-bf08-84e00a4c4dd6">
        <path
           style="stroke:none"
           d=""
           id="id-efca8741-b7f1-4b2e-be63-bf5ca9a1ca9d" />
      </symbol>
      <symbol
         overflow="visible"
         id="id-59c7c253-b673-4f3c-8615-ff0613e4f865">
        <path
           style="stroke:none"
           d="m 5.671875,-4.875 c -0.390625,0.0625 -0.53125,0.359375 -0.53125,0.578125 0,0.296875 0.21875,0.390625 0.390625,0.390625 0.359375,0 0.609375,-0.3125 0.609375,-0.640625 0,-0.5 -0.578125,-0.71875 -1.078125,-0.71875 -0.71875,0 -1.125,0.71875 -1.234375,0.9375 -0.28125,-0.890625 -1.015625,-0.9375 -1.234375,-0.9375 -1.21875,0 -1.859375,1.5625 -1.859375,1.828125 0,0.046875 0.046875,0.109375 0.125,0.109375 0.09375,0 0.125,-0.078125 0.140625,-0.125 0.40625,-1.328125 1.21875,-1.578125 1.5625,-1.578125 0.53125,0 0.640625,0.5 0.640625,0.78125 0,0.265625 -0.078125,0.546875 -0.21875,1.125 L 2.578125,-1.5 c -0.171875,0.71875 -0.515625,1.375 -1.15625,1.375 -0.0625,0 -0.359375,0 -0.609375,-0.15625 C 1.25,-0.359375 1.34375,-0.71875 1.34375,-0.859375 1.34375,-1.09375 1.15625,-1.25 0.9375,-1.25 c -0.296875,0 -0.609375,0.265625 -0.609375,0.640625 0,0.5 0.5625,0.734375 1.078125,0.734375 0.578125,0 0.984375,-0.453125 1.234375,-0.953125 C 2.828125,-0.125 3.4375,0.125 3.875,0.125 5.09375,0.125 5.734375,-1.453125 5.734375,-1.703125 5.734375,-1.765625 5.6875,-1.8125 5.625,-1.8125 5.515625,-1.8125 5.5,-1.75 5.46875,-1.65625 5.140625,-0.609375 4.453125,-0.125 3.90625,-0.125 3.484375,-0.125 3.265625,-0.4375 3.265625,-0.921875 3.265625,-1.1875 3.3125,-1.375 3.5,-2.15625 L 3.921875,-3.796875 C 4.09375,-4.5 4.5,-5.03125 5.0625,-5.03125 c 0.015625,0 0.359375,0 0.609375,0.15625 z m 0,0"
           id="id-7f7f6662-4139-4b1e-a1c4-34557712b863" />
      </symbol>
      <symbol
         overflow="visible"
         id="id-23f868f3-53f4-4ae0-b7de-0b8dc910d5af">
        <path
           style="stroke:none"
           d=""
           id="id-f9e3beb7-62b6-40d9-a2c6-e0726ac13d4e" />
      </symbol>
      <symbol
         overflow="visible"
         id="id-364716c2-c9c8-44f8-a75f-53316a51c1b6">
        <path
           style="stroke:none"
           d="m 2.5,-5.078125 c 0,-0.21875 -0.015625,-0.21875 -0.234375,-0.21875 -0.328125,0.3125 -0.75,0.5 -1.5,0.5 v 0.265625 c 0.21875,0 0.640625,0 1.109375,-0.203125 v 4.078125 c 0,0.296875 -0.03125,0.390625 -0.78125,0.390625 H 0.8125 V 0 c 0.328125,-0.03125 1.015625,-0.03125 1.375,-0.03125 0.359375,0 1.046875,0 1.375,0.03125 V -0.265625 H 3.28125 c -0.75,0 -0.78125,-0.09375 -0.78125,-0.390625 z m 0,0"
           id="id-8994433a-87e3-4bc0-909d-04ea653af72a" />
      </symbol>
    </g>
    <g
       id="id-88678e9b-9e53-474a-a3d7-1a4f27e1507d">
      <symbol
         overflow="visible"
         id="id-a3025b65-058a-4795-a7f6-14d5b2e9187d">
        <path
           style="stroke:none;stroke-width:0"
           d=""
           id="id-6fef5b83-d7e6-4456-a8e5-3770701c456c" />
      </symbol>
      <symbol
         overflow="visible"
         id="id-cacb2fde-bd3e-4da9-97b6-41d6835f9d9f">
        <path
           style="stroke:none;stroke-width:0"
           d="m 5.671875,-4.875 c -0.390625,0.0625 -0.53125,0.359375 -0.53125,0.578125 0,0.296875 0.21875,0.390625 0.390625,0.390625 0.359375,0 0.609375,-0.3125 0.609375,-0.640625 0,-0.5 -0.578125,-0.71875 -1.078125,-0.71875 -0.71875,0 -1.125,0.71875 -1.234375,0.9375 -0.28125,-0.890625 -1.015625,-0.9375 -1.234375,-0.9375 -1.21875,0 -1.859375,1.5625 -1.859375,1.828125 0,0.046875 0.046875,0.109375 0.125,0.109375 0.09375,0 0.125,-0.078125 0.140625,-0.125 0.40625,-1.328125 1.21875,-1.578125 1.5625,-1.578125 0.53125,0 0.640625,0.5 0.640625,0.78125 0,0.265625 -0.078125,0.546875 -0.21875,1.125 L 2.578125,-1.5 c -0.171875,0.71875 -0.515625,1.375 -1.15625,1.375 -0.0625,0 -0.359375,0 -0.609375,-0.15625 C 1.25,-0.359375 1.34375,-0.71875 1.34375,-0.859375 1.34375,-1.09375 1.15625,-1.25 0.9375,-1.25 c -0.296875,0 -0.609375,0.265625 -0.609375,0.640625 0,0.5 0.5625,0.734375 1.078125,0.734375 0.578125,0 0.984375,-0.453125 1.234375,-0.953125 C 2.828125,-0.125 3.4375,0.125 3.875,0.125 5.09375,0.125 5.734375,-1.453125 5.734375,-1.703125 5.734375,-1.765625 5.6875,-1.8125 5.625,-1.8125 5.515625,-1.8125 5.5,-1.75 5.46875,-1.65625 5.140625,-0.609375 4.453125,-0.125 3.90625,-0.125 3.484375,-0.125 3.265625,-0.4375 3.265625,-0.921875 3.265625,-1.1875 3.3125,-1.375 3.5,-2.15625 L 3.921875,-3.796875 C 4.09375,-4.5 4.5,-5.03125 5.0625,-5.03125 c 0.015625,0 0.359375,0 0.609375,0.15625 z m 0,0"
           id="id-8d48cff7-7604-4e75-aaf3-4996ffbc005c" />
      </symbol>
      <symbol
         overflow="visible"
         id="id-1068293d-adc6-4783-adaf-2b8299d70bd1">
        <path
           style="stroke:none;stroke-width:0"
           d=""
           id="id-7958f183-a882-4b09-8316-d79133f40fe6" />
      </symbol>
      <symbol
         overflow="visible"
         id="id-e3d24b39-0a1d-4e3d-8a8a-803d0de61271">
        <path
           style="stroke:none;stroke-width:0"
           d="m 2.25,-1.625 c 0.125,-0.125 0.453125,-0.390625 0.59375,-0.5 0.484375,-0.453125 0.953125,-0.890625 0.953125,-1.609375 0,-0.953125 -0.796875,-1.5625 -1.78125,-1.5625 -0.96875,0 -1.59375,0.71875 -1.59375,1.4375 0,0.390625 0.3125,0.4375 0.421875,0.4375 0.171875,0 0.421875,-0.109375 0.421875,-0.421875 0,-0.40625 -0.40625,-0.40625 -0.5,-0.40625 C 1,-4.84375 1.53125,-5.03125 1.921875,-5.03125 c 0.734375,0 1.125,0.625 1.125,1.296875 0,0.828125 -0.578125,1.4375 -1.53125,2.390625 l -1,1.046875 C 0.421875,-0.21875 0.421875,-0.203125 0.421875,0 H 3.5625 l 0.234375,-1.421875 h -0.25 C 3.53125,-1.265625 3.46875,-0.875 3.375,-0.71875 c -0.046875,0.0625 -0.65625,0.0625 -0.78125,0.0625 H 1.171875 Z m 0,0"
           id="id-933eb7f1-483a-4ca7-bdc3-e8b2d7bc814d" />
      </symbol>
    </g>
    <g
       id="g6905">
      <symbol
         overflow="visible"
         id="symbol6867">
        <path
           style="stroke:none"
           d=""
           id="path6865" />
      </symbol>
      <symbol
         overflow="visible"
         id="symbol6871">
        <path
           style="stroke:none"
           d="m 3.140625,1.34375 c -0.3125,0.453125 -0.78125,0.859375 -1.375,0.859375 C 1.625,2.203125 1.046875,2.171875 0.875,1.625 c 0.03125,0.015625 0.09375,0.015625 0.109375,0.015625 0.359375,0 0.609375,-0.3125 0.609375,-0.59375 C 1.59375,0.78125 1.359375,0.6875 1.1875,0.6875 c -0.203125,0 -0.609375,0.140625 -0.609375,0.71875 0,0.609375 0.515625,1.03125 1.1875,1.03125 C 2.96875,2.4375 4.171875,1.34375 4.5,0.015625 L 5.671875,-4.65625 C 5.6875,-4.703125 5.71875,-4.78125 5.71875,-4.859375 5.71875,-5.03125 5.5625,-5.15625 5.390625,-5.15625 5.28125,-5.15625 5.03125,-5.109375 4.9375,-4.75 L 4.046875,-1.234375 C 4,-1.015625 4,-0.984375 3.890625,-0.859375 3.65625,-0.53125 3.265625,-0.125 2.6875,-0.125 c -0.671875,0 -0.734375,-0.65625 -0.734375,-0.96875 0,-0.6875 0.328125,-1.609375 0.65625,-2.46875 0.125,-0.34375 0.203125,-0.515625 0.203125,-0.75 0,-0.5 -0.359375,-0.953125 -0.953125,-0.953125 -1.09375,0 -1.53125,1.734375 -1.53125,1.828125 0,0.046875 0.046875,0.109375 0.125,0.109375 0.109375,0 0.125,-0.046875 0.171875,-0.21875 0.28125,-1 0.734375,-1.484375 1.203125,-1.484375 0.109375,0 0.3125,0 0.3125,0.390625 0,0.3125 -0.125,0.65625 -0.3125,1.109375 C 1.25,-1.953125 1.25,-1.5625 1.25,-1.28125 1.25,-0.140625 2.0625,0.125 2.65625,0.125 3,0.125 3.4375,0.015625 3.84375,-0.4375 l 0.015625,0.015625 C 3.6875,0.28125 3.5625,0.75 3.140625,1.34375 Z m 0,0"
           id="path6869" />
      </symbol>
      <symbol
         overflow="visible"
         id="symbol6875">
        <path
           style="stroke:none"
           d="m 3.359375,-8 c 0.015625,-0.046875 0.03125,-0.109375 0.03125,-0.171875 0,-0.125 -0.109375,-0.125 -0.140625,-0.125 -0.015625,0 -0.4375,0.03125 -0.65625,0.0625 C 2.390625,-8.21875 2.21875,-8.203125 2,-8.1875 c -0.296875,0.03125 -0.375,0.03125 -0.375,0.25 0,0.125 0.125,0.125 0.234375,0.125 0.609375,0 0.609375,0.109375 0.609375,0.21875 0,0.046875 0,0.078125 -0.046875,0.296875 L 0.703125,-0.46875 C 0.65625,-0.28125 0.65625,-0.265625 0.65625,-0.1875 c 0,0.265625 0.203125,0.3125 0.328125,0.3125 0.328125,0 0.40625,-0.265625 0.5,-0.640625 L 2.046875,-2.75 c 0.859375,0.09375 1.375,0.453125 1.375,1.03125 0,0.0625 0,0.109375 -0.046875,0.296875 -0.046875,0.171875 -0.046875,0.328125 -0.046875,0.375 0,0.703125 0.46875,1.171875 1.078125,1.171875 0.546875,0 0.828125,-0.5 0.921875,-0.671875 0.25,-0.4375 0.40625,-1.109375 0.40625,-1.15625 0,-0.0625 -0.046875,-0.109375 -0.109375,-0.109375 -0.109375,0 -0.125,0.046875 -0.171875,0.234375 C 5.28125,-0.953125 5.03125,-0.125 4.421875,-0.125 4.1875,-0.125 4.03125,-0.234375 4.03125,-0.6875 c 0,-0.234375 0.046875,-0.5 0.09375,-0.671875 0.046875,-0.21875 0.046875,-0.234375 0.046875,-0.375 0,-0.703125 -0.640625,-1.09375 -1.734375,-1.234375 0.4375,-0.265625 0.859375,-0.734375 1.03125,-0.921875 0.671875,-0.765625 1.140625,-1.140625 1.6875,-1.140625 0.28125,0 0.359375,0.078125 0.4375,0.140625 -0.4375,0.046875 -0.609375,0.359375 -0.609375,0.59375 0,0.296875 0.234375,0.390625 0.390625,0.390625 0.328125,0 0.609375,-0.28125 0.609375,-0.65625 0,-0.34375 -0.265625,-0.703125 -0.8125,-0.703125 -0.65625,0 -1.1875,0.453125 -2.046875,1.421875 -0.109375,0.140625 -0.5625,0.59375 -1,0.765625 z m 0,0"
           id="path6873" />
      </symbol>
      <symbol
         overflow="visible"
         id="symbol6879">
        <path
           style="stroke:none"
           d="M 2.40625,-4.8125 H 3.5 c 0.234375,0 0.34375,0 0.34375,-0.203125 0,-0.140625 -0.0625,-0.140625 -0.3125,-0.140625 H 2.484375 l 0.4375,-1.734375 C 2.96875,-7.0625 2.96875,-7.09375 2.96875,-7.171875 c 0,-0.1875 -0.140625,-0.296875 -0.296875,-0.296875 -0.109375,0 -0.375,0.03125 -0.46875,0.421875 l -0.46875,1.890625 h -1.125 c -0.234375,0 -0.34375,0 -0.34375,0.234375 0,0.109375 0.078125,0.109375 0.3125,0.109375 h 1.0625 L 0.84375,-1.65625 c -0.09375,0.421875 -0.125,0.546875 -0.125,0.703125 0,0.5625 0.390625,1.078125 1.0625,1.078125 1.203125,0 1.859375,-1.75 1.859375,-1.828125 0,-0.078125 -0.0625,-0.109375 -0.125,-0.109375 -0.03125,0 -0.078125,0 -0.09375,0.046875 C 3.40625,-1.75 3.390625,-1.75 3.3125,-1.546875 c -0.25,0.59375 -0.796875,1.421875 -1.5,1.421875 -0.359375,0 -0.375,-0.296875 -0.375,-0.5625 0,0 0,-0.234375 0.03125,-0.375 z m 0,0"
           id="path6877" />
      </symbol>
      <symbol
         overflow="visible"
         id="symbol6883">
        <path
           style="stroke:none"
           d=""
           id="path6881" />
      </symbol>
      <symbol
         overflow="visible"
         id="symbol6887">
        <path
           style="stroke:none"
           d="m 2.25,-1.625 c 0.125,-0.125 0.453125,-0.390625 0.59375,-0.5 0.484375,-0.453125 0.953125,-0.890625 0.953125,-1.609375 0,-0.953125 -0.796875,-1.5625 -1.78125,-1.5625 -0.96875,0 -1.59375,0.71875 -1.59375,1.4375 0,0.390625 0.3125,0.4375 0.421875,0.4375 0.171875,0 0.421875,-0.109375 0.421875,-0.421875 0,-0.40625 -0.40625,-0.40625 -0.5,-0.40625 C 1,-4.84375 1.53125,-5.03125 1.921875,-5.03125 c 0.734375,0 1.125,0.625 1.125,1.296875 0,0.828125 -0.578125,1.4375 -1.53125,2.390625 l -1,1.046875 C 0.421875,-0.21875 0.421875,-0.203125 0.421875,0 H 3.5625 l 0.234375,-1.421875 h -0.25 C 3.53125,-1.265625 3.46875,-0.875 3.375,-0.71875 c -0.046875,0.0625 -0.65625,0.0625 -0.78125,0.0625 H 1.171875 Z m 0,0"
           id="path6885" />
      </symbol>
      <symbol
         overflow="visible"
         id="symbol6891">
        <path
           style="stroke:none"
           d="m 2.5,-5.078125 c 0,-0.21875 -0.015625,-0.21875 -0.234375,-0.21875 -0.328125,0.3125 -0.75,0.5 -1.5,0.5 v 0.265625 c 0.21875,0 0.640625,0 1.109375,-0.203125 v 4.078125 c 0,0.296875 -0.03125,0.390625 -0.78125,0.390625 H 0.8125 V 0 c 0.328125,-0.03125 1.015625,-0.03125 1.375,-0.03125 0.359375,0 1.046875,0 1.375,0.03125 V -0.265625 H 3.28125 c -0.75,0 -0.78125,-0.09375 -0.78125,-0.390625 z m 0,0"
           id="path6889" />
      </symbol>
      <symbol
         overflow="visible"
         id="symbol6895">
        <path
           style="stroke:none"
           d=""
           id="path6893" />
      </symbol>
      <symbol
         overflow="visible"
         id="symbol6899">
        <path
           style="stroke:none"
           d="m 8.0625,-3.875 c 0.171875,0 0.390625,0 0.390625,-0.21875 C 8.453125,-4.3125 8.25,-4.3125 8.0625,-4.3125 H 1.03125 c -0.171875,0 -0.390625,0 -0.390625,0.21875 0,0.21875 0.203125,0.21875 0.390625,0.21875 z m 0,2.21875 c 0.171875,0 0.390625,0 0.390625,-0.203125 C 8.453125,-2.09375 8.25,-2.09375 8.0625,-2.09375 H 1.03125 c -0.171875,0 -0.390625,0 -0.390625,0.21875 0,0.21875 0.203125,0.21875 0.390625,0.21875 z m 0,0"
           id="path6897" />
      </symbol>
      <symbol
         overflow="visible"
         id="symbol6903">
        <path
           style="stroke:none"
           d="m 4.3125,-7.78125 c 0,-0.234375 0,-0.28125 -0.171875,-0.28125 -0.09375,0 -0.125,0 -0.21875,0.140625 L 0.328125,-2.34375 V -2 H 3.46875 v 1.09375 c 0,0.4375 -0.03125,0.5625 -0.90625,0.5625 H 2.328125 V 0 c 0.28125,-0.03125 1.21875,-0.03125 1.5625,-0.03125 0.328125,0 1.28125,0 1.5625,0.03125 V -0.34375 H 5.21875 c -0.875,0 -0.90625,-0.125 -0.90625,-0.5625 V -2 H 5.515625 V -2.34375 H 4.3125 Z m -0.78125,0.9375 v 4.5 H 0.625 Z m 0,0"
           id="path6901" />
      </symbol>
    </g>
    <g
       id="g6970">
      <symbol
         overflow="visible"
         id="symbol6936">
        <path
           style="stroke:none"
           d=""
           id="path6934" />
      </symbol>
      <symbol
         overflow="visible"
         id="symbol6940">
        <path
           style="stroke:none"
           d="m 3.140625,1.34375 c -0.3125,0.453125 -0.78125,0.859375 -1.375,0.859375 C 1.625,2.203125 1.046875,2.171875 0.875,1.625 c 0.03125,0.015625 0.09375,0.015625 0.109375,0.015625 0.359375,0 0.609375,-0.3125 0.609375,-0.59375 C 1.59375,0.78125 1.359375,0.6875 1.1875,0.6875 c -0.203125,0 -0.609375,0.140625 -0.609375,0.71875 0,0.609375 0.515625,1.03125 1.1875,1.03125 C 2.96875,2.4375 4.171875,1.34375 4.5,0.015625 L 5.671875,-4.65625 C 5.6875,-4.703125 5.71875,-4.78125 5.71875,-4.859375 5.71875,-5.03125 5.5625,-5.15625 5.390625,-5.15625 5.28125,-5.15625 5.03125,-5.109375 4.9375,-4.75 L 4.046875,-1.234375 C 4,-1.015625 4,-0.984375 3.890625,-0.859375 3.65625,-0.53125 3.265625,-0.125 2.6875,-0.125 c -0.671875,0 -0.734375,-0.65625 -0.734375,-0.96875 0,-0.6875 0.328125,-1.609375 0.65625,-2.46875 0.125,-0.34375 0.203125,-0.515625 0.203125,-0.75 0,-0.5 -0.359375,-0.953125 -0.953125,-0.953125 -1.09375,0 -1.53125,1.734375 -1.53125,1.828125 0,0.046875 0.046875,0.109375 0.125,0.109375 0.109375,0 0.125,-0.046875 0.171875,-0.21875 0.28125,-1 0.734375,-1.484375 1.203125,-1.484375 0.109375,0 0.3125,0 0.3125,0.390625 0,0.3125 -0.125,0.65625 -0.3125,1.109375 C 1.25,-1.953125 1.25,-1.5625 1.25,-1.28125 1.25,-0.140625 2.0625,0.125 2.65625,0.125 3,0.125 3.4375,0.015625 3.84375,-0.4375 l 0.015625,0.015625 C 3.6875,0.28125 3.5625,0.75 3.140625,1.34375 Z m 0,0"
           id="path6938" />
      </symbol>
      <symbol
         overflow="visible"
         id="symbol6944">
        <path
           style="stroke:none"
           d="m 3.359375,-8 c 0.015625,-0.046875 0.03125,-0.109375 0.03125,-0.171875 0,-0.125 -0.109375,-0.125 -0.140625,-0.125 -0.015625,0 -0.4375,0.03125 -0.65625,0.0625 C 2.390625,-8.21875 2.21875,-8.203125 2,-8.1875 c -0.296875,0.03125 -0.375,0.03125 -0.375,0.25 0,0.125 0.125,0.125 0.234375,0.125 0.609375,0 0.609375,0.109375 0.609375,0.21875 0,0.046875 0,0.078125 -0.046875,0.296875 L 0.703125,-0.46875 C 0.65625,-0.28125 0.65625,-0.265625 0.65625,-0.1875 c 0,0.265625 0.203125,0.3125 0.328125,0.3125 0.328125,0 0.40625,-0.265625 0.5,-0.640625 L 2.046875,-2.75 c 0.859375,0.09375 1.375,0.453125 1.375,1.03125 0,0.0625 0,0.109375 -0.046875,0.296875 -0.046875,0.171875 -0.046875,0.328125 -0.046875,0.375 0,0.703125 0.46875,1.171875 1.078125,1.171875 0.546875,0 0.828125,-0.5 0.921875,-0.671875 0.25,-0.4375 0.40625,-1.109375 0.40625,-1.15625 0,-0.0625 -0.046875,-0.109375 -0.109375,-0.109375 -0.109375,0 -0.125,0.046875 -0.171875,0.234375 C 5.28125,-0.953125 5.03125,-0.125 4.421875,-0.125 4.1875,-0.125 4.03125,-0.234375 4.03125,-0.6875 c 0,-0.234375 0.046875,-0.5 0.09375,-0.671875 0.046875,-0.21875 0.046875,-0.234375 0.046875,-0.375 0,-0.703125 -0.640625,-1.09375 -1.734375,-1.234375 0.4375,-0.265625 0.859375,-0.734375 1.03125,-0.921875 0.671875,-0.765625 1.140625,-1.140625 1.6875,-1.140625 0.28125,0 0.359375,0.078125 0.4375,0.140625 -0.4375,0.046875 -0.609375,0.359375 -0.609375,0.59375 0,0.296875 0.234375,0.390625 0.390625,0.390625 0.328125,0 0.609375,-0.28125 0.609375,-0.65625 0,-0.34375 -0.265625,-0.703125 -0.8125,-0.703125 -0.65625,0 -1.1875,0.453125 -2.046875,1.421875 -0.109375,0.140625 -0.5625,0.59375 -1,0.765625 z m 0,0"
           id="path6942" />
      </symbol>
      <symbol
         overflow="visible"
         id="symbol6948">
        <path
           style="stroke:none"
           d="M 2.40625,-4.8125 H 3.5 c 0.234375,0 0.34375,0 0.34375,-0.203125 0,-0.140625 -0.0625,-0.140625 -0.3125,-0.140625 H 2.484375 l 0.4375,-1.734375 C 2.96875,-7.0625 2.96875,-7.09375 2.96875,-7.171875 c 0,-0.1875 -0.140625,-0.296875 -0.296875,-0.296875 -0.109375,0 -0.375,0.03125 -0.46875,0.421875 l -0.46875,1.890625 h -1.125 c -0.234375,0 -0.34375,0 -0.34375,0.234375 0,0.109375 0.078125,0.109375 0.3125,0.109375 h 1.0625 L 0.84375,-1.65625 c -0.09375,0.421875 -0.125,0.546875 -0.125,0.703125 0,0.5625 0.390625,1.078125 1.0625,1.078125 1.203125,0 1.859375,-1.75 1.859375,-1.828125 0,-0.078125 -0.0625,-0.109375 -0.125,-0.109375 -0.03125,0 -0.078125,0 -0.09375,0.046875 C 3.40625,-1.75 3.390625,-1.75 3.3125,-1.546875 c -0.25,0.59375 -0.796875,1.421875 -1.5,1.421875 -0.359375,0 -0.375,-0.296875 -0.375,-0.5625 0,0 0,-0.234375 0.03125,-0.375 z m 0,0"
           id="path6946" />
      </symbol>
      <symbol
         overflow="visible"
         id="symbol6952">
        <path
           style="stroke:none"
           d=""
           id="path6950" />
      </symbol>
      <symbol
         overflow="visible"
         id="symbol6956">
        <path
           style="stroke:none"
           d="m 2.5,-5.078125 c 0,-0.21875 -0.015625,-0.21875 -0.234375,-0.21875 -0.328125,0.3125 -0.75,0.5 -1.5,0.5 v 0.265625 c 0.21875,0 0.640625,0 1.109375,-0.203125 v 4.078125 c 0,0.296875 -0.03125,0.390625 -0.78125,0.390625 H 0.8125 V 0 c 0.328125,-0.03125 1.015625,-0.03125 1.375,-0.03125 0.359375,0 1.046875,0 1.375,0.03125 V -0.265625 H 3.28125 c -0.75,0 -0.78125,-0.09375 -0.78125,-0.390625 z m 0,0"
           id="path6954" />
      </symbol>
      <symbol
         overflow="visible"
         id="symbol6960">
        <path
           style="stroke:none"
           d="m 2.25,-1.625 c 0.125,-0.125 0.453125,-0.390625 0.59375,-0.5 0.484375,-0.453125 0.953125,-0.890625 0.953125,-1.609375 0,-0.953125 -0.796875,-1.5625 -1.78125,-1.5625 -0.96875,0 -1.59375,0.71875 -1.59375,1.4375 0,0.390625 0.3125,0.4375 0.421875,0.4375 0.171875,0 0.421875,-0.109375 0.421875,-0.421875 0,-0.40625 -0.40625,-0.40625 -0.5,-0.40625 C 1,-4.84375 1.53125,-5.03125 1.921875,-5.03125 c 0.734375,0 1.125,0.625 1.125,1.296875 0,0.828125 -0.578125,1.4375 -1.53125,2.390625 l -1,1.046875 C 0.421875,-0.21875 0.421875,-0.203125 0.421875,0 H 3.5625 l 0.234375,-1.421875 h -0.25 C 3.53125,-1.265625 3.46875,-0.875 3.375,-0.71875 c -0.046875,0.0625 -0.65625,0.0625 -0.78125,0.0625 H 1.171875 Z m 0,0"
           id="path6958" />
      </symbol>
      <symbol
         overflow="visible"
         id="symbol6964">
        <path
           style="stroke:none"
           d=""
           id="path6962" />
      </symbol>
      <symbol
         overflow="visible"
         id="symbol6968">
        <path
           style="stroke:none"
           d="m 8.0625,-3.875 c 0.171875,0 0.390625,0 0.390625,-0.21875 C 8.453125,-4.3125 8.25,-4.3125 8.0625,-4.3125 H 1.03125 c -0.171875,0 -0.390625,0 -0.390625,0.21875 0,0.21875 0.203125,0.21875 0.390625,0.21875 z m 0,2.21875 c 0.171875,0 0.390625,0 0.390625,-0.203125 C 8.453125,-2.09375 8.25,-2.09375 8.0625,-2.09375 H 1.03125 c -0.171875,0 -0.390625,0 -0.390625,0.21875 0,0.21875 0.203125,0.21875 0.390625,0.21875 z m 0,0"
           id="path6966" />
      </symbol>
    </g>
    <g
       id="id-b788fbec-8e48-4954-9187-cf65dd4fb069">
      <symbol
         overflow="visible"
         id="id-4016e776-f6a2-429e-a114-2c9949024dc1">
        <path
           style="stroke:none;stroke-width:0"
           d=""
           id="id-678a8a04-f6b6-42ff-a23e-5b3e5ca66df6" />
      </symbol>
      <symbol
         overflow="visible"
         id="id-c4e6ffa9-fd62-4e92-86ee-011d41ce78b3">
        <path
           style="stroke:none;stroke-width:0"
           d="M 6.390625,-7.140625 C 6.25,-7 5.8125,-6.59375 5.8125,-6.421875 c 0,0.125 0.109375,0.234375 0.21875,0.234375 0.109375,0 0.15625,-0.078125 0.25,-0.203125 0.28125,-0.34375 0.609375,-0.578125 0.875,-0.734375 0.125,-0.078125 0.203125,-0.109375 0.203125,-0.234375 0,-0.109375 -0.09375,-0.171875 -0.15625,-0.234375 C 6.859375,-7.8125 6.78125,-8.140625 6.734375,-8.28125 6.703125,-8.375 6.671875,-8.515625 6.5,-8.515625 c -0.0625,0 -0.21875,0.046875 -0.21875,0.21875 0,0.109375 0.078125,0.390625 0.3125,0.71875 H 2.5625 c -0.203125,0 -0.40625,0 -0.40625,0.234375 0,0.203125 0.21875,0.203125 0.40625,0.203125 z m 0,0"
           id="id-787d801a-07cd-4b5e-9ddf-7523734c1b20" />
      </symbol>
      <symbol
         overflow="visible"
         id="id-5988bcc3-1067-4446-b465-d711d132bd08">
        <path
           style="stroke:none;stroke-width:0"
           d="M 4.046875,-1.515625 C 4,-1.328125 3.96875,-1.28125 3.8125,-1.09375 c -0.484375,0.625 -0.984375,0.859375 -1.359375,0.859375 -0.390625,0 -0.765625,-0.3125 -0.765625,-1.140625 0,-0.640625 0.359375,-1.96875 0.625,-2.515625 0.34375,-0.65625 0.875,-1.140625 1.375,-1.140625 0.796875,0 0.953125,0.984375 0.953125,1.046875 L 4.609375,-3.8125 Z M 4.78125,-4.484375 C 4.625,-4.828125 4.296875,-5.265625 3.6875,-5.265625 c -1.296875,0 -2.78125,1.625 -2.78125,3.40625 C 0.90625,-0.609375 1.65625,0 2.421875,0 3.0625,0 3.625,-0.5 3.84375,-0.734375 l -0.265625,1.0625 c -0.171875,0.65625 -0.25,0.96875 -0.671875,1.375 -0.484375,0.5 -0.953125,0.5 -1.203125,0.5 -0.359375,0 -0.65625,-0.03125 -0.96875,-0.125 C 1.125,1.96875 1.21875,1.640625 1.21875,1.5 c 0,-0.1875 -0.140625,-0.375 -0.40625,-0.375 -0.28125,0 -0.59375,0.234375 -0.59375,0.625 0,0.5 0.484375,0.6875 1.5,0.6875 1.546875,0 2.34375,-0.984375 2.5,-1.640625 l 1.328125,-5.34375 c 0.03125,-0.15625 0.03125,-0.171875 0.03125,-0.203125 0,-0.15625 -0.125,-0.296875 -0.3125,-0.296875 -0.28125,0 -0.453125,0.234375 -0.484375,0.5625 z m 0,0"
           id="id-d519db66-2cbd-4a4a-96d4-877602655488" />
      </symbol>
    </g>
  </defs>
  <g
     inkscape:label="Layer 1"
     inkscape:groupmode="layer"
     id="layer1">
    <g
       id="g12"
       transform="matrix(0.41044 0 0 0.41044 47.9083 12.9277)"
       inkscape:export-filename="g12.pdf"
       inkscape:export-xdpi="96"
       inkscape:export-ydpi="96">
      <g
         id="g66"
         transform="matrix(-0.451221,1,-1,-0.451221,0,0)" />
      <rect
         style="opacity:0.433831;fill:none;fill-opacity:0.999955;stroke:#000000;stroke-width:0.484846"
         id="rect3900"
         width="7.7431059"
         height="7.7431059"
         x="-248.33015"
         y="20.737133" />
      <circle
         style="fill:none;stroke:#000000;stroke-width:0.292369;stroke-dasharray:none"
         id="path21375-3"
         cx="-76.515236"
         cy="98.638191"
         r="6.7020793" />
      <g
         transform="matrix(0.859512,0,0,0.859512,-117.69812,32.823124)"
         ns4:version="1.8.2"
         ns4:texconverter="pdflatex"
         ns4:pdfconverter="inkscape"
         ns4:text="$\\skew{-1}\\vec{v}_0$"
         ns4:preamble="/usr/share/inkscape/extensions/textext/default_packages.tex"
         ns4:scale="1.0"
         ns4:alignment="middle center"
         ns4:stroke-to-path="0"
         ns4:inkscapeversion="1.2.2"
         ns4:jacobian_sqrt="0.859512"
         id="g21715">
        <defs
           id="id-0759625d-b942-44a9-8a89-b1bd3cdfdbc0">
          <g
             id="id-f8f5cd19-37e1-4fd2-87c0-e59373b5f3fe">
            <symbol
               overflow="visible"
               id="id-32c3e3a0-7a9a-4a9b-9671-6c2050b05d8d">
              <path
                 style="stroke:none;stroke-width:0"
                 d=""
                 id="id-c96af772-92a6-416b-9c5d-aecc487f9f17" />
            </symbol>
            <symbol
               overflow="visible"
               id="id-7b2b2e3c-96c6-4dec-bf18-0a05145d6ddd">
              <path
                 style="stroke:none;stroke-width:0"
                 d="M 6.390625,-7.140625 C 6.25,-7 5.8125,-6.59375 5.8125,-6.421875 c 0,0.125 0.109375,0.234375 0.21875,0.234375 0.109375,0 0.15625,-0.078125 0.25,-0.203125 0.28125,-0.34375 0.609375,-0.578125 0.875,-0.734375 0.125,-0.078125 0.203125,-0.109375 0.203125,-0.234375 0,-0.109375 -0.09375,-0.171875 -0.15625,-0.234375 C 6.859375,-7.8125 6.78125,-8.140625 6.734375,-8.28125 6.703125,-8.375 6.671875,-8.515625 6.5,-8.515625 c -0.0625,0 -0.21875,0.046875 -0.21875,0.21875 0,0.109375 0.078125,0.390625 0.3125,0.71875 H 2.5625 c -0.203125,0 -0.40625,0 -0.40625,0.234375 0,0.203125 0.21875,0.203125 0.40625,0.203125 z m 0,0"
                 id="id-d4ea2ebc-7f1d-4ac3-8736-204870937851" />
            </symbol>
            <symbol
               overflow="visible"
               id="id-a3ca2eca-e21e-4709-96f6-fe8bec3880f0">
              <path
                 style="stroke:none;stroke-width:0"
                 d="m 5.46875,-4.46875 c 0,-0.75 -0.390625,-0.796875 -0.484375,-0.796875 -0.28125,0 -0.546875,0.28125 -0.546875,0.515625 0,0.140625 0.078125,0.234375 0.125,0.28125 C 4.6875,-4.359375 5,-4.046875 5,-3.421875 c 0,0.5 -0.71875,3.296875 -2.15625,3.296875 -0.734375,0 -0.875,-0.609375 -0.875,-1.046875 0,-0.59375 0.28125,-1.4375 0.59375,-2.296875 0.203125,-0.484375 0.25,-0.609375 0.25,-0.84375 0,-0.5 -0.359375,-0.953125 -0.953125,-0.953125 -1.09375,0 -1.53125,1.734375 -1.53125,1.828125 0,0.046875 0.046875,0.109375 0.125,0.109375 0.109375,0 0.125,-0.046875 0.171875,-0.21875 0.28125,-1.03125 0.75,-1.484375 1.203125,-1.484375 0.109375,0 0.3125,0 0.3125,0.390625 0,0.3125 -0.125,0.65625 -0.3125,1.109375 C 1.25,-2 1.25,-1.625 1.25,-1.34375 c 0,0.265625 0.046875,0.765625 0.40625,1.09375 0.4375,0.375 1.03125,0.375 1.140625,0.375 1.984375,0 2.671875,-3.921875 2.671875,-4.59375 z m 0,0"
                 id="id-94075d00-587f-4ff4-aa0d-b98a6aff4e14" />
            </symbol>
            <symbol
               overflow="visible"
               id="id-4a245c55-71c3-41e7-aabf-5d185375f8e9">
              <path
                 style="stroke:none;stroke-width:0"
                 d=""
                 id="id-81ee2cdd-4dc8-4e16-ae0e-4a3e8de99858" />
            </symbol>
            <symbol
               overflow="visible"
               id="id-f576e7c3-85c6-4090-9c4f-f62f0187fa7f">
              <path
                 style="stroke:none;stroke-width:0"
                 d="m 3.890625,-2.546875 c 0,-0.84375 -0.078125,-1.359375 -0.34375,-1.875 -0.34375,-0.703125 -1,-0.875 -1.4375,-0.875 -1,0 -1.375,0.75 -1.484375,0.96875 -0.28125,0.578125 -0.296875,1.375 -0.296875,1.78125 0,0.53125 0.015625,1.328125 0.40625,1.96875 0.359375,0.59375 0.953125,0.75 1.375,0.75 0.390625,0 1.0625,-0.125 1.46875,-0.90625 0.296875,-0.578125 0.3125,-1.296875 0.3125,-1.8125 z M 2.109375,-0.0625 C 1.84375,-0.0625 1.296875,-0.1875 1.125,-1.015625 1.03125,-1.46875 1.03125,-2.21875 1.03125,-2.640625 1.03125,-3.1875 1.03125,-3.75 1.125,-4.1875 1.296875,-5 1.90625,-5.078125 2.109375,-5.078125 c 0.265625,0 0.828125,0.140625 0.984375,0.859375 0.09375,0.4375 0.09375,1.046875 0.09375,1.578125 0,0.46875 0,1.1875 -0.09375,1.640625 -0.171875,0.828125 -0.71875,0.9375 -0.984375,0.9375 z m 0,0"
                 id="id-ca2e57ca-b1ce-4681-b52b-a1662816ada1" />
            </symbol>
          </g>
        </defs>
        <rect
           style="opacity:0.545927;fill:none;stroke:#000000;stroke-width:0.565342"
           id="rect3130"
           width="169.51323"
           height="124.15895"
           x="-222.81012"
           y="-79.541321" />
      </g>
      <g
         id="g6429"
         transform="translate(-1.3171, 0.081974)">
        <path
           d="m 22.920276,67.341444 c 0.063,-0.25 0.297002,-1.171 0.985004,-1.171 0.046,0 0.296001,0 0.500002,0.125 -0.282001,0.062 -0.469002,0.296 -0.469002,0.546 0,0.157 0.109,0.344 0.375001,0.344 0.219001,0 0.531003,-0.172 0.531003,-0.578 0,-0.516 -0.578003,-0.656 -0.922004,-0.656 -0.578002,0 -0.922004,0.531 -1.047004,0.75 -0.249996,-0.656 -0.780999,-0.75 -1.078,-0.75 -1.031005,0 -1.609007,1.281 -1.609007,1.531 0,0.109 0.109,0.109 0.125,0.109 0.078,0 0.109,-0.031 0.125001,-0.109 0.344001,-1.062 1.000005,-1.312 1.344006,-1.312 0.187001,0 0.531002,0.093 0.531002,0.671 0,0.313 -0.172,0.969 -0.531002,2.375001 -0.157001,0.61 -0.516002,1.032 -0.953005,1.032 -0.063,0 -0.282001,0 -0.500002,-0.125 0.250001,-0.063 0.468002,-0.266 0.468002,-0.547 0,-0.266 -0.218001,-0.344 -0.359001,-0.344 -0.313002,0 -0.547003,0.25 -0.547003,0.578 0,0.453 0.484002,0.656 0.922004,0.656 0.672004,0 1.031005,-0.703 1.047005,-0.75 0.125001,0.36 0.484002,0.75 1.078,0.75 1.031004,0 1.594006,-1.281 1.594006,-1.531 0,-0.109 -0.079,-0.109 -0.11,-0.109 -0.093,0 -0.109001,0.047 -0.140001,0.109 -0.329001,1.078 -1.000003,1.313 -1.313005,1.313 -0.389997,0 -0.546997,-0.313 -0.546997,-0.657 0,-0.218 0.047,-0.437 0.157,-0.875 z"
           style="fill:#000000;fill-opacity:1;fill-rule:nonzero;stroke:none"
           id="path96" />
        <path
           style="opacity:1;fill:none;fill-opacity:1;stroke:#000000;stroke-width:0.484846;stroke-dasharray:none;stroke-dashoffset:0;stroke-opacity:1;marker-end:url(#Arrow1)"
           d="M -73.871643,70.328313 V -26.213879"
           id="path23323" />
        <path
           style="fill:none;fill-opacity:1;stroke:#000000;stroke-width:0.484846;stroke-dasharray:none;stroke-dashoffset:0;stroke-opacity:1;marker-end:url(#marker1354)"
           d="M -82.258654,61.855573 H 26.944196"
           id="path23323-9" />
        <g
           transform="matrix(0.859512,0,0,0.859512,-80.995177,-24.173341)"
           ns4:version="1.8.2"
           ns4:texconverter="pdflatex"
           ns4:pdfconverter="inkscape"
           ns4:text="$y$"
           ns4:preamble="/usr/share/inkscape/extensions/textext/default_packages.tex"
           ns4:scale="1.0"
           ns4:alignment="middle center"
           ns4:stroke-to-path="0"
           ns4:inkscapeversion="1.2.2"
           ns4:jacobian_sqrt="0.859512"
           id="g4320">
          <defs
             id="id-d46113d9-677f-4909-a159-019e5f55fb75">
            <g
               id="id-655f1c43-988e-4cb7-919d-5506d64040bc">
              <symbol
                 overflow="visible"
                 id="id-a5cf1f9d-1cd7-4a92-9ed3-d572ef29671a">
                <path
                   style="stroke:none;stroke-width:0"
                   d=""
                   id="id-9e79116e-c5c5-469c-8332-5a88c2021d04" />
              </symbol>
              <symbol
                 overflow="visible"
                 id="id-5392ef1b-33da-41a3-9d53-9d472984f4c5">
                <path
                   style="stroke:none;stroke-width:0"
                   d="m 3.140625,1.34375 c -0.3125,0.453125 -0.78125,0.859375 -1.375,0.859375 C 1.625,2.203125 1.046875,2.171875 0.875,1.625 c 0.03125,0.015625 0.09375,0.015625 0.109375,0.015625 0.359375,0 0.609375,-0.3125 0.609375,-0.59375 C 1.59375,0.78125 1.359375,0.6875 1.1875,0.6875 c -0.203125,0 -0.609375,0.140625 -0.609375,0.71875 0,0.609375 0.515625,1.03125 1.1875,1.03125 C 2.96875,2.4375 4.171875,1.34375 4.5,0.015625 L 5.671875,-4.65625 C 5.6875,-4.703125 5.71875,-4.78125 5.71875,-4.859375 5.71875,-5.03125 5.5625,-5.15625 5.390625,-5.15625 5.28125,-5.15625 5.03125,-5.109375 4.9375,-4.75 L 4.046875,-1.234375 C 4,-1.015625 4,-0.984375 3.890625,-0.859375 3.65625,-0.53125 3.265625,-0.125 2.6875,-0.125 c -0.671875,0 -0.734375,-0.65625 -0.734375,-0.96875 0,-0.6875 0.328125,-1.609375 0.65625,-2.46875 0.125,-0.34375 0.203125,-0.515625 0.203125,-0.75 0,-0.5 -0.359375,-0.953125 -0.953125,-0.953125 -1.09375,0 -1.53125,1.734375 -1.53125,1.828125 0,0.046875 0.046875,0.109375 0.125,0.109375 0.109375,0 0.125,-0.046875 0.171875,-0.21875 0.28125,-1 0.734375,-1.484375 1.203125,-1.484375 0.109375,0 0.3125,0 0.3125,0.390625 0,0.3125 -0.125,0.65625 -0.3125,1.109375 C 1.25,-1.953125 1.25,-1.5625 1.25,-1.28125 1.25,-0.140625 2.0625,0.125 2.65625,0.125 3,0.125 3.4375,0.015625 3.84375,-0.4375 l 0.015625,0.015625 C 3.6875,0.28125 3.5625,0.75 3.140625,1.34375 Z m 0,0"
                   id="id-7c2ed934-7043-4317-91e2-8247129311ab" />
              </symbol>
            </g>
          </defs>
          <g
             id="id-9f8d7f02-4ae8-4b87-81a3-91851006e199"
             transform="translate(-128.741,-132.487)">
            <g
               style="fill:#000000;fill-opacity:1"
               id="id-fb58ce4b-18f4-4cb6-8782-9d2017212ecc">
              <g
                 transform="translate(128.413,137.753)"
                 id="g4316">
                <path
                   style="stroke:none;stroke-width:0"
                   d="m 3.140625,1.34375 c -0.3125,0.453125 -0.78125,0.859375 -1.375,0.859375 C 1.625,2.203125 1.046875,2.171875 0.875,1.625 c 0.03125,0.015625 0.09375,0.015625 0.109375,0.015625 0.359375,0 0.609375,-0.3125 0.609375,-0.59375 C 1.59375,0.78125 1.359375,0.6875 1.1875,0.6875 c -0.203125,0 -0.609375,0.140625 -0.609375,0.71875 0,0.609375 0.515625,1.03125 1.1875,1.03125 C 2.96875,2.4375 4.171875,1.34375 4.5,0.015625 L 5.671875,-4.65625 C 5.6875,-4.703125 5.71875,-4.78125 5.71875,-4.859375 5.71875,-5.03125 5.5625,-5.15625 5.390625,-5.15625 5.28125,-5.15625 5.03125,-5.109375 4.9375,-4.75 L 4.046875,-1.234375 C 4,-1.015625 4,-0.984375 3.890625,-0.859375 3.65625,-0.53125 3.265625,-0.125 2.6875,-0.125 c -0.671875,0 -0.734375,-0.65625 -0.734375,-0.96875 0,-0.6875 0.328125,-1.609375 0.65625,-2.46875 0.125,-0.34375 0.203125,-0.515625 0.203125,-0.75 0,-0.5 -0.359375,-0.953125 -0.953125,-0.953125 -1.09375,0 -1.53125,1.734375 -1.53125,1.828125 0,0.046875 0.046875,0.109375 0.125,0.109375 0.109375,0 0.125,-0.046875 0.171875,-0.21875 0.28125,-1 0.734375,-1.484375 1.203125,-1.484375 0.109375,0 0.3125,0 0.3125,0.390625 0,0.3125 -0.125,0.65625 -0.3125,1.109375 C 1.25,-1.953125 1.25,-1.5625 1.25,-1.28125 1.25,-0.140625 2.0625,0.125 2.65625,0.125 3,0.125 3.4375,0.015625 3.84375,-0.4375 l 0.015625,0.015625 C 3.6875,0.28125 3.5625,0.75 3.140625,1.34375 Z m 0,0"
                   id="id-83dcf951-b726-4268-93fb-4e46464b1689" />
              </g>
            </g>
          </g>
        </g>
        <path
           id="path21375"
           style="opacity:1;fill:none;stroke:#000000;stroke-width:0.292369"
           d="m -70.013577,57.452925 c 1.683805,0.615241 2.886655,2.240065 2.886655,4.147721 0,0.108716 -0.0039,0.216515 -0.01159,0.32326"
           sodipodi:nodetypes="csc" />
        <g
           transform="matrix(0.859512,0,0,0.859512,-65.502,56.129108)"
           ns4:version="1.8.2"
           ns4:texconverter="pdflatex"
           ns4:pdfconverter="inkscape"
           ns4:text="$\\alpha$"
           ns4:preamble="/usr/share/inkscape/extensions/textext/default_packages.tex"
           ns4:scale="1.0"
           ns4:alignment="middle center"
           ns4:stroke-to-path="0"
           ns4:inkscapeversion="1.2.2"
           ns4:jacobian_sqrt="0.859512"
           id="g21551">
          <defs
             id="id-c0fa1e03-0415-4001-beeb-8ab2c6b71c1d">
            <g
               id="id-29f01bbd-c959-4891-9796-0396e1bfb80b">
              <symbol
                 overflow="visible"
                 id="id-fcbcdca8-fff0-478b-b804-735d8b03790d">
                <path
                   style="stroke:none;stroke-width:0"
                   d=""
                   id="id-b1fc66bf-6661-4577-a7b2-12bc091e0fe3" />
              </symbol>
              <symbol
                 overflow="visible"
                 id="id-720e7bd4-d1b3-4513-86c7-dde5a9519007">
                <path
                   style="stroke:none;stroke-width:0"
                   d="m 5.53125,-3.03125 c 0,-1.15625 -0.65625,-2.234375 -1.921875,-2.234375 -1.5625,0 -3.125,1.703125 -3.125,3.40625 0,1.03125 0.640625,1.984375 1.859375,1.984375 0.734375,0 1.625,-0.296875 2.46875,-1.015625 C 4.984375,-0.21875 5.359375,0.125 5.875,0.125 c 0.640625,0 0.96875,-0.671875 0.96875,-0.828125 0,-0.109375 -0.09375,-0.109375 -0.125,-0.109375 -0.09375,0 -0.109375,0.03125 -0.140625,0.125 C 6.46875,-0.375 6.1875,-0.125 5.90625,-0.125 c -0.375,0 -0.375,-0.765625 -0.375,-1.484375 1.21875,-1.46875 1.515625,-2.96875 1.515625,-2.984375 0,-0.109375 -0.109375,-0.109375 -0.140625,-0.109375 -0.109375,0 -0.109375,0.046875 -0.171875,0.25 -0.140625,0.53125 -0.453125,1.46875 -1.203125,2.4375 z m -0.75,1.859375 c -1.046875,0.9375 -2,1.046875 -2.421875,1.046875 -0.84375,0 -1.078125,-0.75 -1.078125,-1.3125 0,-0.515625 0.265625,-1.734375 0.625,-2.390625 0.5,-0.828125 1.171875,-1.203125 1.703125,-1.203125 1.15625,0 1.15625,1.515625 1.15625,2.515625 0,0.296875 -0.015625,0.609375 -0.015625,0.90625 0,0.25 0.015625,0.3125 0.03125,0.4375 z m 0,0"
                   id="id-070a51a0-6d9c-44e6-b00b-d6e50285e9c9" />
              </symbol>
            </g>
          </defs>
          <g
             id="id-b6288ddd-717d-48cb-adf7-db0582558e01"
             transform="translate(-128.897,-132.487)">
            <g
               style="fill:#000000;fill-opacity:1"
               id="id-f1a4bdaa-af5c-4e7a-af2e-2cdb5cf3fe65">
              <g
                 transform="translate(128.413,137.753)"
                 id="g21547">
                <path
                   style="stroke:none;stroke-width:0"
                   d="m 5.53125,-3.03125 c 0,-1.15625 -0.65625,-2.234375 -1.921875,-2.234375 -1.5625,0 -3.125,1.703125 -3.125,3.40625 0,1.03125 0.640625,1.984375 1.859375,1.984375 0.734375,0 1.625,-0.296875 2.46875,-1.015625 C 4.984375,-0.21875 5.359375,0.125 5.875,0.125 c 0.640625,0 0.96875,-0.671875 0.96875,-0.828125 0,-0.109375 -0.09375,-0.109375 -0.125,-0.109375 -0.09375,0 -0.109375,0.03125 -0.140625,0.125 C 6.46875,-0.375 6.1875,-0.125 5.90625,-0.125 c -0.375,0 -0.375,-0.765625 -0.375,-1.484375 1.21875,-1.46875 1.515625,-2.96875 1.515625,-2.984375 0,-0.109375 -0.109375,-0.109375 -0.140625,-0.109375 -0.109375,0 -0.109375,0.046875 -0.171875,0.25 -0.140625,0.53125 -0.453125,1.46875 -1.203125,2.4375 z m -0.75,1.859375 c -1.046875,0.9375 -2,1.046875 -2.421875,1.046875 -0.84375,0 -1.078125,-0.75 -1.078125,-1.3125 0,-0.515625 0.265625,-1.734375 0.625,-2.390625 0.5,-0.828125 1.171875,-1.203125 1.703125,-1.203125 1.15625,0 1.15625,1.515625 1.15625,2.515625 0,0.296875 -0.015625,0.609375 -0.015625,0.90625 0,0.25 0.015625,0.3125 0.03125,0.4375 z m 0,0"
                   id="id-6ef39609-ce81-4db1-8760-c2d52e3678f0" />
              </g>
            </g>
          </g>
        </g>
        <g
           id="id-e08c0bbc-e6cb-440b-82dd-07e582cf973e"
           transform="matrix(0.85951202,0,0,0.85951202,-170.61141,-90.645447)">
          <g
             style="fill:#000000;fill-opacity:1"
             id="id-99aad661-2377-4230-a6cb-c8f74c391275">
            <g
               transform="translate(127.279,137.753)"
               id="g21703">
              <path
                 style="stroke:none;stroke-width:0"
                 d="M 6.390625,-7.140625 C 6.25,-7 5.8125,-6.59375 5.8125,-6.421875 c 0,0.125 0.109375,0.234375 0.21875,0.234375 0.109375,0 0.15625,-0.078125 0.25,-0.203125 0.28125,-0.34375 0.609375,-0.578125 0.875,-0.734375 0.125,-0.078125 0.203125,-0.109375 0.203125,-0.234375 0,-0.109375 -0.09375,-0.171875 -0.15625,-0.234375 C 6.859375,-7.8125 6.78125,-8.140625 6.734375,-8.28125 6.703125,-8.375 6.671875,-8.515625 6.5,-8.515625 c -0.0625,0 -0.21875,0.046875 -0.21875,0.21875 0,0.109375 0.078125,0.390625 0.3125,0.71875 H 2.5625 c -0.203125,0 -0.40625,0 -0.40625,0.234375 0,0.203125 0.21875,0.203125 0.40625,0.203125 z m 0,0"
                 id="id-54a74553-80b6-4225-9816-009011f83247" />
            </g>
          </g>
          <g
             style="fill:#000000;fill-opacity:1"
             id="id-9f119034-2c6c-45d3-a8dc-7c576217c605">
            <g
               transform="translate(128.41,137.753)"
               id="g21707">
              <path
                 style="stroke:none;stroke-width:0"
                 d="m 5.46875,-4.46875 c 0,-0.75 -0.390625,-0.796875 -0.484375,-0.796875 -0.28125,0 -0.546875,0.28125 -0.546875,0.515625 0,0.140625 0.078125,0.234375 0.125,0.28125 C 4.6875,-4.359375 5,-4.046875 5,-3.421875 c 0,0.5 -0.71875,3.296875 -2.15625,3.296875 -0.734375,0 -0.875,-0.609375 -0.875,-1.046875 0,-0.59375 0.28125,-1.4375 0.59375,-2.296875 0.203125,-0.484375 0.25,-0.609375 0.25,-0.84375 0,-0.5 -0.359375,-0.953125 -0.953125,-0.953125 -1.09375,0 -1.53125,1.734375 -1.53125,1.828125 0,0.046875 0.046875,0.109375 0.125,0.109375 0.109375,0 0.125,-0.046875 0.171875,-0.21875 0.28125,-1.03125 0.75,-1.484375 1.203125,-1.484375 0.109375,0 0.3125,0 0.3125,0.390625 0,0.3125 -0.125,0.65625 -0.3125,1.109375 C 1.25,-2 1.25,-1.625 1.25,-1.34375 c 0,0.265625 0.046875,0.765625 0.40625,1.09375 0.4375,0.375 1.03125,0.375 1.140625,0.375 1.984375,0 2.671875,-3.921875 2.671875,-4.59375 z m 0,0"
                 id="id-84e3ab7e-6190-4ef3-be51-2ebf5988f5d1" />
            </g>
          </g>
          <g
             style="fill:#000000;fill-opacity:1"
             id="id-90157c4a-9b86-493e-90d8-71fc98f2bf9a">
            <g
               transform="translate(134.501,140.116)"
               id="g21711">
              <path
                 style="stroke:none;stroke-width:0"
                 d="m 3.890625,-2.546875 c 0,-0.84375 -0.078125,-1.359375 -0.34375,-1.875 -0.34375,-0.703125 -1,-0.875 -1.4375,-0.875 -1,0 -1.375,0.75 -1.484375,0.96875 -0.28125,0.578125 -0.296875,1.375 -0.296875,1.78125 0,0.53125 0.015625,1.328125 0.40625,1.96875 0.359375,0.59375 0.953125,0.75 1.375,0.75 0.390625,0 1.0625,-0.125 1.46875,-0.90625 0.296875,-0.578125 0.3125,-1.296875 0.3125,-1.8125 z M 2.109375,-0.0625 C 1.84375,-0.0625 1.296875,-0.1875 1.125,-1.015625 1.03125,-1.46875 1.03125,-2.21875 1.03125,-2.640625 1.03125,-3.1875 1.03125,-3.75 1.125,-4.1875 1.296875,-5 1.90625,-5.078125 2.109375,-5.078125 c 0.265625,0 0.828125,0.140625 0.984375,0.859375 0.09375,0.4375 0.09375,1.046875 0.09375,1.578125 0,0.46875 0,1.1875 -0.09375,1.640625 -0.171875,0.828125 -0.71875,0.9375 -0.984375,0.9375 z m 0,0"
                 id="id-bb5858c1-a5bc-4f40-98ee-5edcc71422fb" />
            </g>
          </g>
        </g>
        <path
           style="opacity:1;fill:none;stroke:#000000;stroke-width:0.730926;stroke-dasharray:none;marker-end:url(#TriangleStart)"
           d="M -73.660689,61.720743 -29.160643,5.4974779"
           id="path22121"
           inkscape:transform-center-x="-8.799786"
           inkscape:transform-center-y="-11.146633" />
        <path
           style="fill:#0812ff;stroke:#000000;stroke-width:0.243641;stroke-dasharray:none"
           d="m -29.56663,94.339296 -2.816404,3.349689"
           id="path8183" />
        <path
           style="fill:#0812ff;stroke:#000000;stroke-width:0.292369;stroke-dasharray:1.75421, 1.75421;stroke-dashoffset:0"
           d="M -27.097041,3.3985094 V 61.744758"
           id="path782" />
        <path
           style="fill:#0812ff;stroke:#000000;stroke-width:0.292369;stroke-dasharray:1.75421, 1.75421;stroke-dashoffset:0"
           d="m -27.605387,3.0617254 h -46.25641"
           id="path1358" />
        <path
           style="fill:none;stroke:#000000;stroke-width:0.292369;stroke-dasharray:1.7542, 1.7542;stroke-dashoffset:0"
           d="M -189.4218,106.9374 V 213.1695"
           id="path4137" />
        <path
           style="fill:#0712ff;fill-opacity:0.556863;stroke:#000000;stroke-width:0.292369;stroke-dasharray:none;stroke-dashoffset:0;stroke-opacity:1"
           d="m -27.097041,63.801358 v -3.89157"
           id="path30424-9-3" />
        <path
           style="fill:#0712ff;fill-opacity:0.556863;stroke:#000000;stroke-width:0.292369;stroke-dasharray:none;stroke-dashoffset:0;stroke-opacity:1"
           d="m -75.817428,3.0617254 h 3.89157"
           id="path30424-9-3-3" />
        <g
           transform="matrix(0.859512,0,0,0.859512,-115.11489,-2.6712444)"
           ns4:version="1.8.2"
           ns4:texconverter="pdflatex"
           ns4:pdfconverter="inkscape"
           ns4:text="$v_0 \\sen(\\alpha)$"
           ns4:preamble="/usr/share/inkscape/extensions/textext/default_packages.tex"
           ns4:scale="1.0"
           ns4:alignment="middle center"
           ns4:stroke-to-path="0"
           ns4:inkscapeversion="1.2.2"
           ns4:jacobian_sqrt="0.859512"
           id="g6386">
          <defs
             id="id-7052b1bb-7fa1-4129-8fa4-6550fd44c667">
            <g
               id="id-02e16989-e96c-4dad-b518-85d0247cbcc4">
              <symbol
                 overflow="visible"
                 id="id-a5235189-98d3-4d41-884a-46f9e2eaedae">
                <path
                   style="stroke:none;stroke-width:0"
                   d=""
                   id="id-11186e06-3da5-461d-bc4c-48b92c6adbac" />
              </symbol>
              <symbol
                 overflow="visible"
                 id="id-3fff89ab-d28b-44d0-9b61-7c0e1c8da33c">
                <path
                   style="stroke:none;stroke-width:0"
                   d="m 5.46875,-4.46875 c 0,-0.75 -0.390625,-0.796875 -0.484375,-0.796875 -0.28125,0 -0.546875,0.28125 -0.546875,0.515625 0,0.140625 0.078125,0.234375 0.125,0.28125 C 4.6875,-4.359375 5,-4.046875 5,-3.421875 c 0,0.5 -0.71875,3.296875 -2.15625,3.296875 -0.734375,0 -0.875,-0.609375 -0.875,-1.046875 0,-0.59375 0.28125,-1.4375 0.59375,-2.296875 0.203125,-0.484375 0.25,-0.609375 0.25,-0.84375 0,-0.5 -0.359375,-0.953125 -0.953125,-0.953125 -1.09375,0 -1.53125,1.734375 -1.53125,1.828125 0,0.046875 0.046875,0.109375 0.125,0.109375 0.109375,0 0.125,-0.046875 0.171875,-0.21875 0.28125,-1.03125 0.75,-1.484375 1.203125,-1.484375 0.109375,0 0.3125,0 0.3125,0.390625 0,0.3125 -0.125,0.65625 -0.3125,1.109375 C 1.25,-2 1.25,-1.625 1.25,-1.34375 c 0,0.265625 0.046875,0.765625 0.40625,1.09375 0.4375,0.375 1.03125,0.375 1.140625,0.375 1.984375,0 2.671875,-3.921875 2.671875,-4.59375 z m 0,0"
                   id="id-09c62b11-0acd-48b1-8924-4269b360faf1" />
              </symbol>
              <symbol
                 overflow="visible"
                 id="id-17fa38b5-69e7-42a0-89aa-6e7467509578">
                <path
                   style="stroke:none;stroke-width:0"
                   d="m 5.53125,-3.03125 c 0,-1.15625 -0.65625,-2.234375 -1.921875,-2.234375 -1.5625,0 -3.125,1.703125 -3.125,3.40625 0,1.03125 0.640625,1.984375 1.859375,1.984375 0.734375,0 1.625,-0.296875 2.46875,-1.015625 C 4.984375,-0.21875 5.359375,0.125 5.875,0.125 c 0.640625,0 0.96875,-0.671875 0.96875,-0.828125 0,-0.109375 -0.09375,-0.109375 -0.125,-0.109375 -0.09375,0 -0.109375,0.03125 -0.140625,0.125 C 6.46875,-0.375 6.1875,-0.125 5.90625,-0.125 c -0.375,0 -0.375,-0.765625 -0.375,-1.484375 1.21875,-1.46875 1.515625,-2.96875 1.515625,-2.984375 0,-0.109375 -0.109375,-0.109375 -0.140625,-0.109375 -0.109375,0 -0.109375,0.046875 -0.171875,0.25 -0.140625,0.53125 -0.453125,1.46875 -1.203125,2.4375 z m -0.75,1.859375 c -1.046875,0.9375 -2,1.046875 -2.421875,1.046875 -0.84375,0 -1.078125,-0.75 -1.078125,-1.3125 0,-0.515625 0.265625,-1.734375 0.625,-2.390625 0.5,-0.828125 1.171875,-1.203125 1.703125,-1.203125 1.15625,0 1.15625,1.515625 1.15625,2.515625 0,0.296875 -0.015625,0.609375 -0.015625,0.90625 0,0.25 0.015625,0.3125 0.03125,0.4375 z m 0,0"
                   id="id-2aae127f-4615-49c7-92bb-de50f2db93fd" />
              </symbol>
              <symbol
                 overflow="visible"
                 id="id-045b9b8e-274e-4697-b603-710f13ccfd05">
                <path
                   style="stroke:none;stroke-width:0"
                   d=""
                   id="id-85d029c9-5ae9-470d-8a57-a1a6cc7dcf07" />
              </symbol>
              <symbol
                 overflow="visible"
                 id="id-eb73edbb-daed-467c-8aad-51499859ba56">
                <path
                   style="stroke:none;stroke-width:0"
                   d="m 3.890625,-2.546875 c 0,-0.84375 -0.078125,-1.359375 -0.34375,-1.875 -0.34375,-0.703125 -1,-0.875 -1.4375,-0.875 -1,0 -1.375,0.75 -1.484375,0.96875 -0.28125,0.578125 -0.296875,1.375 -0.296875,1.78125 0,0.53125 0.015625,1.328125 0.40625,1.96875 0.359375,0.59375 0.953125,0.75 1.375,0.75 0.390625,0 1.0625,-0.125 1.46875,-0.90625 0.296875,-0.578125 0.3125,-1.296875 0.3125,-1.8125 z M 2.109375,-0.0625 C 1.84375,-0.0625 1.296875,-0.1875 1.125,-1.015625 1.03125,-1.46875 1.03125,-2.21875 1.03125,-2.640625 1.03125,-3.1875 1.03125,-3.75 1.125,-4.1875 1.296875,-5 1.90625,-5.078125 2.109375,-5.078125 c 0.265625,0 0.828125,0.140625 0.984375,0.859375 0.09375,0.4375 0.09375,1.046875 0.09375,1.578125 0,0.46875 0,1.1875 -0.09375,1.640625 -0.171875,0.828125 -0.71875,0.9375 -0.984375,0.9375 z m 0,0"
                   id="id-1d33d159-4d59-4322-a03b-c7e87a92dd67" />
              </symbol>
              <symbol
                 overflow="visible"
                 id="id-f73bff7f-0212-4923-968b-3423e8c98e5c">
                <path
                   style="stroke:none;stroke-width:0"
                   d=""
                   id="id-5d12e6e4-969f-4745-b502-942ad4af342c" />
              </symbol>
              <symbol
                 overflow="visible"
                 id="id-4920e706-5203-449d-a6f3-544a9194c3f5">
                <path
                   style="stroke:none;stroke-width:0"
                   d="m 3.921875,-5.0625 c 0,-0.203125 0,-0.265625 -0.125,-0.265625 -0.09375,0 -0.3125,0.265625 -0.40625,0.375 -0.359375,-0.3125 -0.734375,-0.375 -1.125,-0.375 -1.4375,0 -1.875,0.78125 -1.875,1.4375 0,0.140625 0,0.5625 0.453125,0.96875 0.390625,0.34375 0.796875,0.421875 1.34375,0.53125 0.65625,0.125 0.8125,0.171875 1.109375,0.40625 0.21875,0.171875 0.375,0.4375 0.375,0.78125 C 3.671875,-0.6875 3.375,-0.125 2.3125,-0.125 1.53125,-0.125 0.953125,-0.578125 0.6875,-1.765625 0.640625,-1.984375 0.640625,-2 0.640625,-2.015625 0.609375,-2.0625 0.5625,-2.0625 0.53125,-2.0625 0.390625,-2.0625 0.390625,-2 0.390625,-1.78125 v 1.625 c 0,0.21875 0,0.28125 0.125,0.28125 0.0625,0 0.0625,-0.015625 0.265625,-0.265625 C 0.84375,-0.234375 0.84375,-0.25 1.03125,-0.4375 1.484375,0.125 2.125,0.125 2.328125,0.125 c 1.25,0 1.875,-0.703125 1.875,-1.640625 0,-0.640625 -0.390625,-1.03125 -0.5,-1.140625 -0.421875,-0.375 -0.75,-0.4375 -1.546875,-0.578125 -0.34375,-0.078125 -1.21875,-0.25 -1.21875,-0.96875 0,-0.359375 0.25,-0.90625 1.328125,-0.90625 1.296875,0 1.375,1.109375 1.390625,1.46875 0.015625,0.109375 0.09375,0.109375 0.140625,0.109375 0.125,0 0.125,-0.0625 0.125,-0.28125 z m 0,0"
                   id="id-43db1050-ecaf-497d-9917-e07b9f916f31" />
              </symbol>
              <symbol
                 overflow="visible"
                 id="id-79f8b5aa-6577-4ada-930d-7ee68768bf6a">
                <path
                   style="stroke:none;stroke-width:0"
                   d="m 4.578125,-2.765625 c 0.265625,0 0.28125,0 0.28125,-0.234375 0,-1.203125 -0.640625,-2.328125 -2.09375,-2.328125 -1.359375,0 -2.40625,1.234375 -2.40625,2.703125 0,1.578125 1.21875,2.75 2.546875,2.75 1.421875,0 1.953125,-1.296875 1.953125,-1.546875 0,-0.078125 -0.046875,-0.125 -0.125,-0.125 -0.09375,0 -0.125,0.0625 -0.140625,0.125 -0.3125,1 -1.109375,1.28125 -1.625,1.28125 -0.5,0 -1.703125,-0.34375 -1.703125,-2.40625 v -0.21875 z M 1.28125,-3 c 0.09375,-1.875 1.140625,-2.09375 1.484375,-2.09375 1.28125,0 1.34375,1.6875 1.359375,2.09375 z m 0,0"
                   id="id-3359c35e-8427-40ef-92fc-7d28fb2dcbf6" />
              </symbol>
              <symbol
                 overflow="visible"
                 id="id-cd4cf3f7-30c6-4b3e-8933-84500dc4617d">
                <path
                   style="stroke:none;stroke-width:0"
                   d="m 5.3125,-2.90625 c 0,-1.109375 0,-1.4375 -0.265625,-1.828125 -0.34375,-0.46875 -0.90625,-0.53125 -1.3125,-0.53125 -1.171875,0 -1.625,0.984375 -1.71875,1.21875 v -1.21875 l -1.640625,0.125 v 0.34375 c 0.8125,0 0.921875,0.09375 0.921875,0.671875 v 3.234375 c 0,0.546875 -0.140625,0.546875 -0.921875,0.546875 V 0 c 0.3125,-0.03125 0.96875,-0.03125 1.296875,-0.03125 0.34375,0 1,0 1.296875,0.03125 v -0.34375 c -0.75,0 -0.90625,0 -0.90625,-0.546875 v -2.21875 c 0,-1.25 0.828125,-1.921875 1.578125,-1.921875 0.734375,0 0.90625,0.609375 0.90625,1.34375 v 2.796875 c 0,0.546875 -0.140625,0.546875 -0.90625,0.546875 V 0 c 0.296875,-0.03125 0.953125,-0.03125 1.28125,-0.03125 0.34375,0 1,0 1.3125,0.03125 v -0.34375 c -0.609375,0 -0.90625,0 -0.921875,-0.359375 z m 0,0"
                   id="id-4695e1f5-826b-4d9b-91c3-529d2bc0528f" />
              </symbol>
              <symbol
                 overflow="visible"
                 id="id-dda74796-4195-4867-9b4d-eee24b06df01">
                <path
                   style="stroke:none;stroke-width:0"
                   d="m 3.890625,2.90625 c 0,-0.03125 0,-0.0625 -0.203125,-0.265625 C 2.484375,1.4375 1.8125,-0.53125 1.8125,-2.96875 c 0,-2.328125 0.5625,-4.328125 1.953125,-5.734375 0.125,-0.109375 0.125,-0.125 0.125,-0.171875 0,-0.0625 -0.0625,-0.09375 -0.109375,-0.09375 -0.15625,0 -1.140625,0.859375 -1.71875,2.03125 -0.609375,1.21875 -0.890625,2.484375 -0.890625,3.96875 0,1.0625 0.171875,2.484375 0.78125,3.75 C 2.671875,2.21875 3.640625,3 3.78125,3 3.828125,3 3.890625,2.96875 3.890625,2.90625 Z m 0,0"
                   id="id-1d689305-d6d0-41dc-826e-efe1440e2161" />
              </symbol>
              <symbol
                 overflow="visible"
                 id="id-59d81f72-d085-4fb3-b640-a940db9e5691">
                <path
                   style="stroke:none;stroke-width:0"
                   d="M 3.375,-2.96875 C 3.375,-3.890625 3.25,-5.359375 2.578125,-6.75 1.875,-8.1875 0.890625,-8.96875 0.765625,-8.96875 c -0.046875,0 -0.109375,0.03125 -0.109375,0.09375 0,0.046875 0,0.0625 0.203125,0.265625 1.203125,1.203125 1.859375,3.1875 1.859375,5.625 0,2.3125 -0.5625,4.3125 -1.9375,5.71875 C 0.65625,2.84375 0.65625,2.875 0.65625,2.90625 0.65625,2.96875 0.71875,3 0.765625,3 0.921875,3 1.90625,2.140625 2.484375,0.96875 3.09375,-0.25 3.375,-1.546875 3.375,-2.96875 Z m 0,0"
                   id="id-904213c0-5e64-4cda-bbe7-7139b2bac865" />
              </symbol>
            </g>
          </defs>
          <g
             id="id-3726c6d3-ddbe-459a-9b56-3b238c14f1be"
             transform="translate(-128.741,-128.784)">
            <g
               style="fill:#000000;fill-opacity:1"
               id="id-0d530d84-2f99-4ce9-9b4a-34a9b5e2296d">
              <g
                 transform="translate(128.413,137.753)"
                 id="g6357">
                <path
                   style="stroke:none;stroke-width:0"
                   d="m 5.46875,-4.46875 c 0,-0.75 -0.390625,-0.796875 -0.484375,-0.796875 -0.28125,0 -0.546875,0.28125 -0.546875,0.515625 0,0.140625 0.078125,0.234375 0.125,0.28125 C 4.6875,-4.359375 5,-4.046875 5,-3.421875 c 0,0.5 -0.71875,3.296875 -2.15625,3.296875 -0.734375,0 -0.875,-0.609375 -0.875,-1.046875 0,-0.59375 0.28125,-1.4375 0.59375,-2.296875 0.203125,-0.484375 0.25,-0.609375 0.25,-0.84375 0,-0.5 -0.359375,-0.953125 -0.953125,-0.953125 -1.09375,0 -1.53125,1.734375 -1.53125,1.828125 0,0.046875 0.046875,0.109375 0.125,0.109375 0.109375,0 0.125,-0.046875 0.171875,-0.21875 0.28125,-1.03125 0.75,-1.484375 1.203125,-1.484375 0.109375,0 0.3125,0 0.3125,0.390625 0,0.3125 -0.125,0.65625 -0.3125,1.109375 C 1.25,-2 1.25,-1.625 1.25,-1.34375 c 0,0.265625 0.046875,0.765625 0.40625,1.09375 0.4375,0.375 1.03125,0.375 1.140625,0.375 1.984375,0 2.671875,-3.921875 2.671875,-4.59375 z m 0,0"
                   id="id-8101b050-808f-454a-8070-2d54f7bda122" />
              </g>
            </g>
            <g
               style="fill:#000000;fill-opacity:1"
               id="id-6f1e68ea-149a-4f20-b536-919512486429">
              <g
                 transform="translate(134.073,140.116)"
                 id="g6361">
                <path
                   style="stroke:none;stroke-width:0"
                   d="m 3.890625,-2.546875 c 0,-0.84375 -0.078125,-1.359375 -0.34375,-1.875 -0.34375,-0.703125 -1,-0.875 -1.4375,-0.875 -1,0 -1.375,0.75 -1.484375,0.96875 -0.28125,0.578125 -0.296875,1.375 -0.296875,1.78125 0,0.53125 0.015625,1.328125 0.40625,1.96875 0.359375,0.59375 0.953125,0.75 1.375,0.75 0.390625,0 1.0625,-0.125 1.46875,-0.90625 0.296875,-0.578125 0.3125,-1.296875 0.3125,-1.8125 z M 2.109375,-0.0625 C 1.84375,-0.0625 1.296875,-0.1875 1.125,-1.015625 1.03125,-1.46875 1.03125,-2.21875 1.03125,-2.640625 1.03125,-3.1875 1.03125,-3.75 1.125,-4.1875 1.296875,-5 1.90625,-5.078125 2.109375,-5.078125 c 0.265625,0 0.828125,0.140625 0.984375,0.859375 0.09375,0.4375 0.09375,1.046875 0.09375,1.578125 0,0.46875 0,1.1875 -0.09375,1.640625 -0.171875,0.828125 -0.71875,0.9375 -0.984375,0.9375 z m 0,0"
                   id="id-3d475ee6-01c1-4e24-ab19-4252626176d4" />
              </g>
            </g>
            <g
               style="fill:#000000;fill-opacity:1"
               id="id-86ee6170-0be9-4022-a2b7-badfb8146bac">
              <g
                 transform="translate(140.797,137.753)"
                 id="g6365">
                <path
                   style="stroke:none;stroke-width:0"
                   d="m 3.921875,-5.0625 c 0,-0.203125 0,-0.265625 -0.125,-0.265625 -0.09375,0 -0.3125,0.265625 -0.40625,0.375 -0.359375,-0.3125 -0.734375,-0.375 -1.125,-0.375 -1.4375,0 -1.875,0.78125 -1.875,1.4375 0,0.140625 0,0.5625 0.453125,0.96875 0.390625,0.34375 0.796875,0.421875 1.34375,0.53125 0.65625,0.125 0.8125,0.171875 1.109375,0.40625 0.21875,0.171875 0.375,0.4375 0.375,0.78125 C 3.671875,-0.6875 3.375,-0.125 2.3125,-0.125 1.53125,-0.125 0.953125,-0.578125 0.6875,-1.765625 0.640625,-1.984375 0.640625,-2 0.640625,-2.015625 0.609375,-2.0625 0.5625,-2.0625 0.53125,-2.0625 0.390625,-2.0625 0.390625,-2 0.390625,-1.78125 v 1.625 c 0,0.21875 0,0.28125 0.125,0.28125 0.0625,0 0.0625,-0.015625 0.265625,-0.265625 C 0.84375,-0.234375 0.84375,-0.25 1.03125,-0.4375 1.484375,0.125 2.125,0.125 2.328125,0.125 c 1.25,0 1.875,-0.703125 1.875,-1.640625 0,-0.640625 -0.390625,-1.03125 -0.5,-1.140625 -0.421875,-0.375 -0.75,-0.4375 -1.546875,-0.578125 -0.34375,-0.078125 -1.21875,-0.25 -1.21875,-0.96875 0,-0.359375 0.25,-0.90625 1.328125,-0.90625 1.296875,0 1.375,1.109375 1.390625,1.46875 0.015625,0.109375 0.09375,0.109375 0.140625,0.109375 0.125,0 0.125,-0.0625 0.125,-0.28125 z m 0,0"
                   id="id-90fc085c-d248-4c28-a0a4-8c72228696b2" />
              </g>
              <g
                 transform="translate(145.414,137.753)"
                 id="g6368">
                <path
                   style="stroke:none;stroke-width:0"
                   d="m 4.578125,-2.765625 c 0.265625,0 0.28125,0 0.28125,-0.234375 0,-1.203125 -0.640625,-2.328125 -2.09375,-2.328125 -1.359375,0 -2.40625,1.234375 -2.40625,2.703125 0,1.578125 1.21875,2.75 2.546875,2.75 1.421875,0 1.953125,-1.296875 1.953125,-1.546875 0,-0.078125 -0.046875,-0.125 -0.125,-0.125 -0.09375,0 -0.125,0.0625 -0.140625,0.125 -0.3125,1 -1.109375,1.28125 -1.625,1.28125 -0.5,0 -1.703125,-0.34375 -1.703125,-2.40625 v -0.21875 z M 1.28125,-3 c 0.09375,-1.875 1.140625,-2.09375 1.484375,-2.09375 1.28125,0 1.34375,1.6875 1.359375,2.09375 z m 0,0"
                   id="id-162c996f-29fe-43f9-8007-712a7b7c540b" />
              </g>
              <g
                 transform="translate(150.617,137.753)"
                 id="g6371">
                <path
                   style="stroke:none;stroke-width:0"
                   d="m 5.3125,-2.90625 c 0,-1.109375 0,-1.4375 -0.265625,-1.828125 -0.34375,-0.46875 -0.90625,-0.53125 -1.3125,-0.53125 -1.171875,0 -1.625,0.984375 -1.71875,1.21875 v -1.21875 l -1.640625,0.125 v 0.34375 c 0.8125,0 0.921875,0.09375 0.921875,0.671875 v 3.234375 c 0,0.546875 -0.140625,0.546875 -0.921875,0.546875 V 0 c 0.3125,-0.03125 0.96875,-0.03125 1.296875,-0.03125 0.34375,0 1,0 1.296875,0.03125 v -0.34375 c -0.75,0 -0.90625,0 -0.90625,-0.546875 v -2.21875 c 0,-1.25 0.828125,-1.921875 1.578125,-1.921875 0.734375,0 0.90625,0.609375 0.90625,1.34375 v 2.796875 c 0,0.546875 -0.140625,0.546875 -0.90625,0.546875 V 0 c 0.296875,-0.03125 0.953125,-0.03125 1.28125,-0.03125 0.34375,0 1,0 1.3125,0.03125 v -0.34375 c -0.609375,0 -0.90625,0 -0.921875,-0.359375 z m 0,0"
                   id="id-5cd1387e-52c5-4dff-ae18-bfbc38d27b32" />
              </g>
              <g
                 transform="translate(157.121,137.753)"
                 id="g6374">
                <path
                   style="stroke:none;stroke-width:0"
                   d="m 3.890625,2.90625 c 0,-0.03125 0,-0.0625 -0.203125,-0.265625 C 2.484375,1.4375 1.8125,-0.53125 1.8125,-2.96875 c 0,-2.328125 0.5625,-4.328125 1.953125,-5.734375 0.125,-0.109375 0.125,-0.125 0.125,-0.171875 0,-0.0625 -0.0625,-0.09375 -0.109375,-0.09375 -0.15625,0 -1.140625,0.859375 -1.71875,2.03125 -0.609375,1.21875 -0.890625,2.484375 -0.890625,3.96875 0,1.0625 0.171875,2.484375 0.78125,3.75 C 2.671875,2.21875 3.640625,3 3.78125,3 3.828125,3 3.890625,2.96875 3.890625,2.90625 Z m 0,0"
                   id="id-d10b3a35-7124-42db-9211-056c0bc8361c" />
              </g>
            </g>
            <g
               style="fill:#000000;fill-opacity:1"
               id="id-635d45ad-eaf3-4699-9b83-1f8c69385046">
              <g
                 transform="translate(161.673,137.753)"
                 id="g6378">
                <path
                   style="stroke:none;stroke-width:0"
                   d="m 5.53125,-3.03125 c 0,-1.15625 -0.65625,-2.234375 -1.921875,-2.234375 -1.5625,0 -3.125,1.703125 -3.125,3.40625 0,1.03125 0.640625,1.984375 1.859375,1.984375 0.734375,0 1.625,-0.296875 2.46875,-1.015625 C 4.984375,-0.21875 5.359375,0.125 5.875,0.125 c 0.640625,0 0.96875,-0.671875 0.96875,-0.828125 0,-0.109375 -0.09375,-0.109375 -0.125,-0.109375 -0.09375,0 -0.109375,0.03125 -0.140625,0.125 C 6.46875,-0.375 6.1875,-0.125 5.90625,-0.125 c -0.375,0 -0.375,-0.765625 -0.375,-1.484375 1.21875,-1.46875 1.515625,-2.96875 1.515625,-2.984375 0,-0.109375 -0.109375,-0.109375 -0.140625,-0.109375 -0.109375,0 -0.109375,0.046875 -0.171875,0.25 -0.140625,0.53125 -0.453125,1.46875 -1.203125,2.4375 z m -0.75,1.859375 c -1.046875,0.9375 -2,1.046875 -2.421875,1.046875 -0.84375,0 -1.078125,-0.75 -1.078125,-1.3125 0,-0.515625 0.265625,-1.734375 0.625,-2.390625 0.5,-0.828125 1.171875,-1.203125 1.703125,-1.203125 1.15625,0 1.15625,1.515625 1.15625,2.515625 0,0.296875 -0.015625,0.609375 -0.015625,0.90625 0,0.25 0.015625,0.3125 0.03125,0.4375 z m 0,0"
                   id="id-7c79537b-1768-4d29-969c-774635a34362" />
              </g>
            </g>
            <g
               style="fill:#000000;fill-opacity:1"
               id="id-68fd1ce4-880b-4212-b1be-984b6d1f5e1f">
              <g
                 transform="translate(169.195,137.753)"
                 id="g6382">
                <path
                   style="stroke:none;stroke-width:0"
                   d="M 3.375,-2.96875 C 3.375,-3.890625 3.25,-5.359375 2.578125,-6.75 1.875,-8.1875 0.890625,-8.96875 0.765625,-8.96875 c -0.046875,0 -0.109375,0.03125 -0.109375,0.09375 0,0.046875 0,0.0625 0.203125,0.265625 1.203125,1.203125 1.859375,3.1875 1.859375,5.625 0,2.3125 -0.5625,4.3125 -1.9375,5.71875 C 0.65625,2.84375 0.65625,2.875 0.65625,2.90625 0.65625,2.96875 0.71875,3 0.765625,3 0.921875,3 1.90625,2.140625 2.484375,0.96875 3.09375,-0.25 3.375,-1.546875 3.375,-2.96875 Z m 0,0"
                   id="id-be30d2be-c2a4-48f1-83bc-1bd152fd31be" />
              </g>
            </g>
          </g>
        </g>
        <g
           transform="matrix(0.859512,0,0,0.859512,-45.755174,64.451606)"
           ns4:version="1.8.2"
           ns4:texconverter="pdflatex"
           ns4:pdfconverter="inkscape"
           ns4:text="$v_0 \\cos(\\alpha)$"
           ns4:preamble="/usr/share/inkscape/extensions/textext/default_packages.tex"
           ns4:scale="1.0"
           ns4:alignment="middle center"
           ns4:stroke-to-path="0"
           ns4:inkscapeversion="1.2.2"
           ns4:jacobian_sqrt="0.859512"
           id="g6993">
          <defs
             id="id-0bb08142-5bdc-420c-9093-266c8bcd3af3">
            <g
               id="id-3b43e089-77d4-422d-8b52-013b08af06ac">
              <symbol
                 overflow="visible"
                 id="id-8109de05-cc99-4c8e-8502-7f47d12f2830">
                <path
                   style="stroke:none;stroke-width:0"
                   d=""
                   id="id-1d04d6e7-4d7d-44d3-a188-b36b3c1e992c" />
              </symbol>
              <symbol
                 overflow="visible"
                 id="id-e1c9a54a-f53b-4d30-9bef-a4cd2cd4fb1b">
                <path
                   style="stroke:none;stroke-width:0"
                   d="m 5.46875,-4.46875 c 0,-0.75 -0.390625,-0.796875 -0.484375,-0.796875 -0.28125,0 -0.546875,0.28125 -0.546875,0.515625 0,0.140625 0.078125,0.234375 0.125,0.28125 C 4.6875,-4.359375 5,-4.046875 5,-3.421875 c 0,0.5 -0.71875,3.296875 -2.15625,3.296875 -0.734375,0 -0.875,-0.609375 -0.875,-1.046875 0,-0.59375 0.28125,-1.4375 0.59375,-2.296875 0.203125,-0.484375 0.25,-0.609375 0.25,-0.84375 0,-0.5 -0.359375,-0.953125 -0.953125,-0.953125 -1.09375,0 -1.53125,1.734375 -1.53125,1.828125 0,0.046875 0.046875,0.109375 0.125,0.109375 0.109375,0 0.125,-0.046875 0.171875,-0.21875 0.28125,-1.03125 0.75,-1.484375 1.203125,-1.484375 0.109375,0 0.3125,0 0.3125,0.390625 0,0.3125 -0.125,0.65625 -0.3125,1.109375 C 1.25,-2 1.25,-1.625 1.25,-1.34375 c 0,0.265625 0.046875,0.765625 0.40625,1.09375 0.4375,0.375 1.03125,0.375 1.140625,0.375 1.984375,0 2.671875,-3.921875 2.671875,-4.59375 z m 0,0"
                   id="id-111e0fab-6cd6-4694-a19a-2c00ae7c2c58" />
              </symbol>
              <symbol
                 overflow="visible"
                 id="id-98e3c0c7-327f-4acd-848c-269b4f880984">
                <path
                   style="stroke:none;stroke-width:0"
                   d="m 5.53125,-3.03125 c 0,-1.15625 -0.65625,-2.234375 -1.921875,-2.234375 -1.5625,0 -3.125,1.703125 -3.125,3.40625 0,1.03125 0.640625,1.984375 1.859375,1.984375 0.734375,0 1.625,-0.296875 2.46875,-1.015625 C 4.984375,-0.21875 5.359375,0.125 5.875,0.125 c 0.640625,0 0.96875,-0.671875 0.96875,-0.828125 0,-0.109375 -0.09375,-0.109375 -0.125,-0.109375 -0.09375,0 -0.109375,0.03125 -0.140625,0.125 C 6.46875,-0.375 6.1875,-0.125 5.90625,-0.125 c -0.375,0 -0.375,-0.765625 -0.375,-1.484375 1.21875,-1.46875 1.515625,-2.96875 1.515625,-2.984375 0,-0.109375 -0.109375,-0.109375 -0.140625,-0.109375 -0.109375,0 -0.109375,0.046875 -0.171875,0.25 -0.140625,0.53125 -0.453125,1.46875 -1.203125,2.4375 z m -0.75,1.859375 c -1.046875,0.9375 -2,1.046875 -2.421875,1.046875 -0.84375,0 -1.078125,-0.75 -1.078125,-1.3125 0,-0.515625 0.265625,-1.734375 0.625,-2.390625 0.5,-0.828125 1.171875,-1.203125 1.703125,-1.203125 1.15625,0 1.15625,1.515625 1.15625,2.515625 0,0.296875 -0.015625,0.609375 -0.015625,0.90625 0,0.25 0.015625,0.3125 0.03125,0.4375 z m 0,0"
                   id="id-39d33c33-56f0-483c-a085-a50c888f1d41" />
              </symbol>
              <symbol
                 overflow="visible"
                 id="id-1f7e3ad0-b035-449b-9fde-2db8a03de224">
                <path
                   style="stroke:none;stroke-width:0"
                   d=""
                   id="id-9e840a24-3185-493b-9ed9-f9964cb7c922" />
              </symbol>
              <symbol
                 overflow="visible"
                 id="id-71b3c228-58ec-4ce7-be6f-c64dcdbc4313">
                <path
                   style="stroke:none;stroke-width:0"
                   d="m 3.890625,-2.546875 c 0,-0.84375 -0.078125,-1.359375 -0.34375,-1.875 -0.34375,-0.703125 -1,-0.875 -1.4375,-0.875 -1,0 -1.375,0.75 -1.484375,0.96875 -0.28125,0.578125 -0.296875,1.375 -0.296875,1.78125 0,0.53125 0.015625,1.328125 0.40625,1.96875 0.359375,0.59375 0.953125,0.75 1.375,0.75 0.390625,0 1.0625,-0.125 1.46875,-0.90625 0.296875,-0.578125 0.3125,-1.296875 0.3125,-1.8125 z M 2.109375,-0.0625 C 1.84375,-0.0625 1.296875,-0.1875 1.125,-1.015625 1.03125,-1.46875 1.03125,-2.21875 1.03125,-2.640625 1.03125,-3.1875 1.03125,-3.75 1.125,-4.1875 1.296875,-5 1.90625,-5.078125 2.109375,-5.078125 c 0.265625,0 0.828125,0.140625 0.984375,0.859375 0.09375,0.4375 0.09375,1.046875 0.09375,1.578125 0,0.46875 0,1.1875 -0.09375,1.640625 -0.171875,0.828125 -0.71875,0.9375 -0.984375,0.9375 z m 0,0"
                   id="id-a140cfc0-168b-4d19-9728-26647b4f9601" />
              </symbol>
              <symbol
                 overflow="visible"
                 id="id-d945cca9-7600-411e-a362-d175e77495e3">
                <path
                   style="stroke:none;stroke-width:0"
                   d=""
                   id="id-36e88fd8-944a-4261-b15d-c66486f72f39" />
              </symbol>
              <symbol
                 overflow="visible"
                 id="id-9ffdc708-7eac-44c3-b6cb-2c71a4d65744">
                <path
                   style="stroke:none;stroke-width:0"
                   d="m 4.328125,-4.421875 c -0.140625,0 -0.59375,0 -0.59375,0.484375 0,0.296875 0.203125,0.5 0.5,0.5 0.265625,0 0.5,-0.171875 0.5,-0.515625 0,-0.796875 -0.84375,-1.375 -1.8125,-1.375 -1.390625,0 -2.5,1.234375 -2.5,2.75 0,1.53125 1.140625,2.703125 2.5,2.703125 1.578125,0 1.9375,-1.4375 1.9375,-1.546875 0,-0.109375 -0.09375,-0.109375 -0.125,-0.109375 -0.109375,0 -0.125,0.03125 -0.15625,0.1875 C 4.3125,-0.5 3.671875,-0.140625 3.03125,-0.140625 c -0.734375,0 -1.703125,-0.640625 -1.703125,-2.453125 0,-1.984375 1.015625,-2.46875 1.609375,-2.46875 0.453125,0 1.109375,0.171875 1.390625,0.640625 z m 0,0"
                   id="id-46b2fd08-77cc-4e5f-975b-0f674e1861e9" />
              </symbol>
              <symbol
                 overflow="visible"
                 id="id-64a1053a-eb7d-4292-8001-10db9aa43cb3">
                <path
                   style="stroke:none;stroke-width:0"
                   d="m 5.484375,-2.5625 c 0,-1.53125 -1.171875,-2.765625 -2.5625,-2.765625 -1.421875,0 -2.5625,1.265625 -2.5625,2.765625 0,1.53125 1.1875,2.6875 2.5625,2.6875 1.40625,0 2.5625,-1.171875 2.5625,-2.6875 z m -2.5625,2.421875 c -0.4375,0 -0.96875,-0.1875 -1.3125,-0.78125 -0.328125,-0.53125 -0.34375,-1.234375 -0.34375,-1.75 0,-0.453125 0,-1.171875 0.375,-1.71875 C 1.96875,-4.90625 2.5,-5.09375 2.921875,-5.09375 c 0.453125,0 0.96875,0.21875 1.28125,0.6875 0.375,0.546875 0.375,1.296875 0.375,1.734375 0,0.421875 0,1.171875 -0.3125,1.734375 C 3.9375,-0.375 3.375,-0.140625 2.921875,-0.140625 Z m 0,0"
                   id="id-a77fbbd5-e6ea-4f5e-b324-42a24fe56f27" />
              </symbol>
              <symbol
                 overflow="visible"
                 id="id-2b792468-0e4b-4486-a3f9-372c85293de4">
                <path
                   style="stroke:none;stroke-width:0"
                   d="m 3.921875,-5.0625 c 0,-0.203125 0,-0.265625 -0.125,-0.265625 -0.09375,0 -0.3125,0.265625 -0.40625,0.375 -0.359375,-0.3125 -0.734375,-0.375 -1.125,-0.375 -1.4375,0 -1.875,0.78125 -1.875,1.4375 0,0.140625 0,0.5625 0.453125,0.96875 0.390625,0.34375 0.796875,0.421875 1.34375,0.53125 0.65625,0.125 0.8125,0.171875 1.109375,0.40625 0.21875,0.171875 0.375,0.4375 0.375,0.78125 C 3.671875,-0.6875 3.375,-0.125 2.3125,-0.125 1.53125,-0.125 0.953125,-0.578125 0.6875,-1.765625 0.640625,-1.984375 0.640625,-2 0.640625,-2.015625 0.609375,-2.0625 0.5625,-2.0625 0.53125,-2.0625 0.390625,-2.0625 0.390625,-2 0.390625,-1.78125 v 1.625 c 0,0.21875 0,0.28125 0.125,0.28125 0.0625,0 0.0625,-0.015625 0.265625,-0.265625 C 0.84375,-0.234375 0.84375,-0.25 1.03125,-0.4375 1.484375,0.125 2.125,0.125 2.328125,0.125 c 1.25,0 1.875,-0.703125 1.875,-1.640625 0,-0.640625 -0.390625,-1.03125 -0.5,-1.140625 -0.421875,-0.375 -0.75,-0.4375 -1.546875,-0.578125 -0.34375,-0.078125 -1.21875,-0.25 -1.21875,-0.96875 0,-0.359375 0.25,-0.90625 1.328125,-0.90625 1.296875,0 1.375,1.109375 1.390625,1.46875 0.015625,0.109375 0.09375,0.109375 0.140625,0.109375 0.125,0 0.125,-0.0625 0.125,-0.28125 z m 0,0"
                   id="id-333c033f-3ed6-4f94-b8c5-9278764cd287" />
              </symbol>
              <symbol
                 overflow="visible"
                 id="id-4df4e7f8-fcaf-41b3-aafb-82441ff1a763">
                <path
                   style="stroke:none;stroke-width:0"
                   d="m 3.890625,2.90625 c 0,-0.03125 0,-0.0625 -0.203125,-0.265625 C 2.484375,1.4375 1.8125,-0.53125 1.8125,-2.96875 c 0,-2.328125 0.5625,-4.328125 1.953125,-5.734375 0.125,-0.109375 0.125,-0.125 0.125,-0.171875 0,-0.0625 -0.0625,-0.09375 -0.109375,-0.09375 -0.15625,0 -1.140625,0.859375 -1.71875,2.03125 -0.609375,1.21875 -0.890625,2.484375 -0.890625,3.96875 0,1.0625 0.171875,2.484375 0.78125,3.75 C 2.671875,2.21875 3.640625,3 3.78125,3 3.828125,3 3.890625,2.96875 3.890625,2.90625 Z m 0,0"
                   id="id-bb0d8f24-973d-4c0e-a0e3-82843df18795" />
              </symbol>
              <symbol
                 overflow="visible"
                 id="id-c9d293cb-b37d-4496-8f4d-30db5c543e25">
                <path
                   style="stroke:none;stroke-width:0"
                   d="M 3.375,-2.96875 C 3.375,-3.890625 3.25,-5.359375 2.578125,-6.75 1.875,-8.1875 0.890625,-8.96875 0.765625,-8.96875 c -0.046875,0 -0.109375,0.03125 -0.109375,0.09375 0,0.046875 0,0.0625 0.203125,0.265625 1.203125,1.203125 1.859375,3.1875 1.859375,5.625 0,2.3125 -0.5625,4.3125 -1.9375,5.71875 C 0.65625,2.84375 0.65625,2.875 0.65625,2.90625 0.65625,2.96875 0.71875,3 0.765625,3 0.921875,3 1.90625,2.140625 2.484375,0.96875 3.09375,-0.25 3.375,-1.546875 3.375,-2.96875 Z m 0,0"
                   id="id-71d07bb6-fc45-42a6-8eb5-a9a4d20d0ef2" />
              </symbol>
            </g>
          </defs>
          <g
             id="id-03b3d77b-0538-4d05-88b0-7fa4fdb13d88"
             transform="translate(-128.741,-128.784)">
            <g
               style="fill:#000000;fill-opacity:1"
               id="id-284d0a20-b04b-4d00-b260-28a511035aee">
              <g
                 transform="translate(128.413,137.753)"
                 id="g6964">
                <path
                   style="stroke:none;stroke-width:0"
                   d="m 5.46875,-4.46875 c 0,-0.75 -0.390625,-0.796875 -0.484375,-0.796875 -0.28125,0 -0.546875,0.28125 -0.546875,0.515625 0,0.140625 0.078125,0.234375 0.125,0.28125 C 4.6875,-4.359375 5,-4.046875 5,-3.421875 c 0,0.5 -0.71875,3.296875 -2.15625,3.296875 -0.734375,0 -0.875,-0.609375 -0.875,-1.046875 0,-0.59375 0.28125,-1.4375 0.59375,-2.296875 0.203125,-0.484375 0.25,-0.609375 0.25,-0.84375 0,-0.5 -0.359375,-0.953125 -0.953125,-0.953125 -1.09375,0 -1.53125,1.734375 -1.53125,1.828125 0,0.046875 0.046875,0.109375 0.125,0.109375 0.109375,0 0.125,-0.046875 0.171875,-0.21875 0.28125,-1.03125 0.75,-1.484375 1.203125,-1.484375 0.109375,0 0.3125,0 0.3125,0.390625 0,0.3125 -0.125,0.65625 -0.3125,1.109375 C 1.25,-2 1.25,-1.625 1.25,-1.34375 c 0,0.265625 0.046875,0.765625 0.40625,1.09375 0.4375,0.375 1.03125,0.375 1.140625,0.375 1.984375,0 2.671875,-3.921875 2.671875,-4.59375 z m 0,0"
                   id="id-1f1ec37d-5b8f-4605-a180-77a1becfdd44" />
              </g>
            </g>
            <g
               style="fill:#000000;fill-opacity:1"
               id="id-c87b93e9-283c-46ef-830c-4aa31d86632d">
              <g
                 transform="translate(134.073,140.116)"
                 id="g6968">
                <path
                   style="stroke:none;stroke-width:0"
                   d="m 3.890625,-2.546875 c 0,-0.84375 -0.078125,-1.359375 -0.34375,-1.875 -0.34375,-0.703125 -1,-0.875 -1.4375,-0.875 -1,0 -1.375,0.75 -1.484375,0.96875 -0.28125,0.578125 -0.296875,1.375 -0.296875,1.78125 0,0.53125 0.015625,1.328125 0.40625,1.96875 0.359375,0.59375 0.953125,0.75 1.375,0.75 0.390625,0 1.0625,-0.125 1.46875,-0.90625 0.296875,-0.578125 0.3125,-1.296875 0.3125,-1.8125 z M 2.109375,-0.0625 C 1.84375,-0.0625 1.296875,-0.1875 1.125,-1.015625 1.03125,-1.46875 1.03125,-2.21875 1.03125,-2.640625 1.03125,-3.1875 1.03125,-3.75 1.125,-4.1875 1.296875,-5 1.90625,-5.078125 2.109375,-5.078125 c 0.265625,0 0.828125,0.140625 0.984375,0.859375 0.09375,0.4375 0.09375,1.046875 0.09375,1.578125 0,0.46875 0,1.1875 -0.09375,1.640625 -0.171875,0.828125 -0.71875,0.9375 -0.984375,0.9375 z m 0,0"
                   id="id-4264786d-4798-4063-afbb-13153b42f776" />
              </g>
            </g>
            <g
               style="fill:#000000;fill-opacity:1"
               id="id-31922ee9-2d4c-41a0-8427-52ea983b2590">
              <g
                 transform="translate(140.797,137.753)"
                 id="g6972">
                <path
                   style="stroke:none;stroke-width:0"
                   d="m 4.328125,-4.421875 c -0.140625,0 -0.59375,0 -0.59375,0.484375 0,0.296875 0.203125,0.5 0.5,0.5 0.265625,0 0.5,-0.171875 0.5,-0.515625 0,-0.796875 -0.84375,-1.375 -1.8125,-1.375 -1.390625,0 -2.5,1.234375 -2.5,2.75 0,1.53125 1.140625,2.703125 2.5,2.703125 1.578125,0 1.9375,-1.4375 1.9375,-1.546875 0,-0.109375 -0.09375,-0.109375 -0.125,-0.109375 -0.109375,0 -0.125,0.03125 -0.15625,0.1875 C 4.3125,-0.5 3.671875,-0.140625 3.03125,-0.140625 c -0.734375,0 -1.703125,-0.640625 -1.703125,-2.453125 0,-1.984375 1.015625,-2.46875 1.609375,-2.46875 0.453125,0 1.109375,0.171875 1.390625,0.640625 z m 0,0"
                   id="id-0549a9e9-2ce8-4539-a490-5148c6571149" />
              </g>
              <g
                 transform="translate(146,137.753)"
                 id="g6975">
                <path
                   style="stroke:none;stroke-width:0"
                   d="m 5.484375,-2.5625 c 0,-1.53125 -1.171875,-2.765625 -2.5625,-2.765625 -1.421875,0 -2.5625,1.265625 -2.5625,2.765625 0,1.53125 1.1875,2.6875 2.5625,2.6875 1.40625,0 2.5625,-1.171875 2.5625,-2.6875 z m -2.5625,2.421875 c -0.4375,0 -0.96875,-0.1875 -1.3125,-0.78125 -0.328125,-0.53125 -0.34375,-1.234375 -0.34375,-1.75 0,-0.453125 0,-1.171875 0.375,-1.71875 C 1.96875,-4.90625 2.5,-5.09375 2.921875,-5.09375 c 0.453125,0 0.96875,0.21875 1.28125,0.6875 0.375,0.546875 0.375,1.296875 0.375,1.734375 0,0.421875 0,1.171875 -0.3125,1.734375 C 3.9375,-0.375 3.375,-0.140625 2.921875,-0.140625 Z m 0,0"
                   id="id-3f4a67e3-a9e2-4287-8db1-521194084d55" />
              </g>
              <g
                 transform="translate(151.853,137.753)"
                 id="g6978">
                <path
                   style="stroke:none;stroke-width:0"
                   d="m 3.921875,-5.0625 c 0,-0.203125 0,-0.265625 -0.125,-0.265625 -0.09375,0 -0.3125,0.265625 -0.40625,0.375 -0.359375,-0.3125 -0.734375,-0.375 -1.125,-0.375 -1.4375,0 -1.875,0.78125 -1.875,1.4375 0,0.140625 0,0.5625 0.453125,0.96875 0.390625,0.34375 0.796875,0.421875 1.34375,0.53125 0.65625,0.125 0.8125,0.171875 1.109375,0.40625 0.21875,0.171875 0.375,0.4375 0.375,0.78125 C 3.671875,-0.6875 3.375,-0.125 2.3125,-0.125 1.53125,-0.125 0.953125,-0.578125 0.6875,-1.765625 0.640625,-1.984375 0.640625,-2 0.640625,-2.015625 0.609375,-2.0625 0.5625,-2.0625 0.53125,-2.0625 0.390625,-2.0625 0.390625,-2 0.390625,-1.78125 v 1.625 c 0,0.21875 0,0.28125 0.125,0.28125 0.0625,0 0.0625,-0.015625 0.265625,-0.265625 C 0.84375,-0.234375 0.84375,-0.25 1.03125,-0.4375 1.484375,0.125 2.125,0.125 2.328125,0.125 c 1.25,0 1.875,-0.703125 1.875,-1.640625 0,-0.640625 -0.390625,-1.03125 -0.5,-1.140625 -0.421875,-0.375 -0.75,-0.4375 -1.546875,-0.578125 -0.34375,-0.078125 -1.21875,-0.25 -1.21875,-0.96875 0,-0.359375 0.25,-0.90625 1.328125,-0.90625 1.296875,0 1.375,1.109375 1.390625,1.46875 0.015625,0.109375 0.09375,0.109375 0.140625,0.109375 0.125,0 0.125,-0.0625 0.125,-0.28125 z m 0,0"
                   id="id-f64c982c-1d56-4f14-a0dc-b9ea9566f784" />
              </g>
              <g
                 transform="translate(156.47,137.753)"
                 id="g6981">
                <path
                   style="stroke:none;stroke-width:0"
                   d="m 3.890625,2.90625 c 0,-0.03125 0,-0.0625 -0.203125,-0.265625 C 2.484375,1.4375 1.8125,-0.53125 1.8125,-2.96875 c 0,-2.328125 0.5625,-4.328125 1.953125,-5.734375 0.125,-0.109375 0.125,-0.125 0.125,-0.171875 0,-0.0625 -0.0625,-0.09375 -0.109375,-0.09375 -0.15625,0 -1.140625,0.859375 -1.71875,2.03125 -0.609375,1.21875 -0.890625,2.484375 -0.890625,3.96875 0,1.0625 0.171875,2.484375 0.78125,3.75 C 2.671875,2.21875 3.640625,3 3.78125,3 3.828125,3 3.890625,2.96875 3.890625,2.90625 Z m 0,0"
                   id="id-d1a56e1c-38d1-40fd-84e8-66aa664c6eca" />
              </g>
            </g>
            <g
               style="fill:#000000;fill-opacity:1"
               id="id-e0e955f1-49c6-4cb8-a3ea-142a633b6af1">
              <g
                 transform="translate(161.023,137.753)"
                 id="g6985">
                <path
                   style="stroke:none;stroke-width:0"
                   d="m 5.53125,-3.03125 c 0,-1.15625 -0.65625,-2.234375 -1.921875,-2.234375 -1.5625,0 -3.125,1.703125 -3.125,3.40625 0,1.03125 0.640625,1.984375 1.859375,1.984375 0.734375,0 1.625,-0.296875 2.46875,-1.015625 C 4.984375,-0.21875 5.359375,0.125 5.875,0.125 c 0.640625,0 0.96875,-0.671875 0.96875,-0.828125 0,-0.109375 -0.09375,-0.109375 -0.125,-0.109375 -0.09375,0 -0.109375,0.03125 -0.140625,0.125 C 6.46875,-0.375 6.1875,-0.125 5.90625,-0.125 c -0.375,0 -0.375,-0.765625 -0.375,-1.484375 1.21875,-1.46875 1.515625,-2.96875 1.515625,-2.984375 0,-0.109375 -0.109375,-0.109375 -0.140625,-0.109375 -0.109375,0 -0.109375,0.046875 -0.171875,0.25 -0.140625,0.53125 -0.453125,1.46875 -1.203125,2.4375 z m -0.75,1.859375 c -1.046875,0.9375 -2,1.046875 -2.421875,1.046875 -0.84375,0 -1.078125,-0.75 -1.078125,-1.3125 0,-0.515625 0.265625,-1.734375 0.625,-2.390625 0.5,-0.828125 1.171875,-1.203125 1.703125,-1.203125 1.15625,0 1.15625,1.515625 1.15625,2.515625 0,0.296875 -0.015625,0.609375 -0.015625,0.90625 0,0.25 0.015625,0.3125 0.03125,0.4375 z m 0,0"
                   id="id-cf5abda4-957c-499d-8a6c-f792f7d82e0a" />
              </g>
            </g>
            <g
               style="fill:#000000;fill-opacity:1"
               id="id-f16fbc6b-ec34-4e34-8481-64dd212fca72">
              <g
                 transform="translate(168.544,137.753)"
                 id="g6989">
                <path
                   style="stroke:none;stroke-width:0"
                   d="M 3.375,-2.96875 C 3.375,-3.890625 3.25,-5.359375 2.578125,-6.75 1.875,-8.1875 0.890625,-8.96875 0.765625,-8.96875 c -0.046875,0 -0.109375,0.03125 -0.109375,0.09375 0,0.046875 0,0.0625 0.203125,0.265625 1.203125,1.203125 1.859375,3.1875 1.859375,5.625 0,2.3125 -0.5625,4.3125 -1.9375,5.71875 C 0.65625,2.84375 0.65625,2.875 0.65625,2.90625 0.65625,2.96875 0.71875,3 0.765625,3 0.921875,3 1.90625,2.140625 2.484375,0.96875 3.09375,-0.25 3.375,-1.546875 3.375,-2.96875 Z m 0,0"
                   id="id-947ae51c-1e23-406e-af2e-00ae0e7183fb" />
              </g>
            </g>
          </g>
        </g>
      </g>
      <g
         transform="matrix(0.85951202,0,0,0.85951202,-109.47799,47.241159)"
         ns4:version="1.8.2"
         ns4:texconverter="pdflatex"
         ns4:pdfconverter="inkscape"
         ns4:text="$\\vec{g}$"
         ns4:preamble="/usr/share/inkscape/extensions/textext/default_packages.tex"
         ns4:scale="1.0"
         ns4:alignment="middle center"
         ns4:stroke-to-path="0"
         ns4:inkscapeversion="1.2.2"
         ns4:jacobian_sqrt="0.859512"
         id="g16510">
        <defs
           id="id-4361d0aa-eff9-4431-bfbd-3492e41de18a">
          <g
             id="g10376">
            <symbol
               overflow="visible"
               id="symbol10366">
              <path
                 style="stroke:none;stroke-width:0"
                 d=""
                 id="path10364" />
            </symbol>
            <symbol
               overflow="visible"
               id="symbol10370">
              <path
                 style="stroke:none;stroke-width:0"
                 d="M 6.390625,-7.140625 C 6.25,-7 5.8125,-6.59375 5.8125,-6.421875 c 0,0.125 0.109375,0.234375 0.21875,0.234375 0.109375,0 0.15625,-0.078125 0.25,-0.203125 0.28125,-0.34375 0.609375,-0.578125 0.875,-0.734375 0.125,-0.078125 0.203125,-0.109375 0.203125,-0.234375 0,-0.109375 -0.09375,-0.171875 -0.15625,-0.234375 C 6.859375,-7.8125 6.78125,-8.140625 6.734375,-8.28125 6.703125,-8.375 6.671875,-8.515625 6.5,-8.515625 c -0.0625,0 -0.21875,0.046875 -0.21875,0.21875 0,0.109375 0.078125,0.390625 0.3125,0.71875 H 2.5625 c -0.203125,0 -0.40625,0 -0.40625,0.234375 0,0.203125 0.21875,0.203125 0.40625,0.203125 z m 0,0"
                 id="path10368" />
            </symbol>
            <symbol
               overflow="visible"
               id="symbol10374">
              <path
                 style="stroke:none;stroke-width:0"
                 d="M 4.046875,-1.515625 C 4,-1.328125 3.96875,-1.28125 3.8125,-1.09375 c -0.484375,0.625 -0.984375,0.859375 -1.359375,0.859375 -0.390625,0 -0.765625,-0.3125 -0.765625,-1.140625 0,-0.640625 0.359375,-1.96875 0.625,-2.515625 0.34375,-0.65625 0.875,-1.140625 1.375,-1.140625 0.796875,0 0.953125,0.984375 0.953125,1.046875 L 4.609375,-3.8125 Z M 4.78125,-4.484375 C 4.625,-4.828125 4.296875,-5.265625 3.6875,-5.265625 c -1.296875,0 -2.78125,1.625 -2.78125,3.40625 C 0.90625,-0.609375 1.65625,0 2.421875,0 3.0625,0 3.625,-0.5 3.84375,-0.734375 l -0.265625,1.0625 c -0.171875,0.65625 -0.25,0.96875 -0.671875,1.375 -0.484375,0.5 -0.953125,0.5 -1.203125,0.5 -0.359375,0 -0.65625,-0.03125 -0.96875,-0.125 C 1.125,1.96875 1.21875,1.640625 1.21875,1.5 c 0,-0.1875 -0.140625,-0.375 -0.40625,-0.375 -0.28125,0 -0.59375,0.234375 -0.59375,0.625 0,0.5 0.484375,0.6875 1.5,0.6875 1.546875,0 2.34375,-0.984375 2.5,-1.640625 l 1.328125,-5.34375 c 0.03125,-0.15625 0.03125,-0.171875 0.03125,-0.203125 0,-0.15625 -0.125,-0.296875 -0.3125,-0.296875 -0.28125,0 -0.453125,0.234375 -0.484375,0.5625 z m 0,0"
                 id="path10372" />
            </symbol>
          </g>
        </defs>
      </g>
    </g>
  </g>
</svg>
