<?xml version="1.0" encoding="UTF-8" standalone="no"?>
<!-- Created with Inkscape (http://www.inkscape.org/) -->

<svg
   width="60mm"
   height="44mm"
   viewBox="0 0 60 44"
   version="1.1"
   id="svg4220"
   inkscape:version="1.2.2 (b0a8486541, 2022-12-01)"
   sodipodi:docname="f1-6.svg"
   xmlns:inkscape="http://www.inkscape.org/namespaces/inkscape"
   xmlns:sodipodi="http://sodipodi.sourceforge.net/DTD/sodipodi-0.dtd"
   xmlns="http://www.w3.org/2000/svg"
   xmlns:svg="http://www.w3.org/2000/svg"
   xmlns:ns4="http://www.iki.fi/pav/software/textext/">
  <sodipodi:namedview
     id="namedview4222"
     pagecolor="#ffffff"
     bordercolor="#000000"
     borderopacity="0.25"
     inkscape:showpageshadow="2"
     inkscape:pageopacity="0.0"
     inkscape:pagecheckerboard="0"
     inkscape:deskcolor="#d1d1d1"
     inkscape:document-units="mm"
     showgrid="false"
     inkscape:zoom="2.8284271"
     inkscape:cx="57.452426"
     inkscape:cy="86.620581"
     inkscape:window-width="1920"
     inkscape:window-height="1011"
     inkscape:window-x="0"
     inkscape:window-y="0"
     inkscape:window-maximized="1"
     inkscape:current-layer="g12" />
  <defs
     id="defs4217">
    <marker
       style="overflow:visible"
       id="marker2776"
       refX="0"
       refY="0"
       orient="auto-start-reverse"
       inkscape:stockid="Arrow1"
       markerWidth="4.0606604"
       markerHeight="6.7071066"
       viewBox="0 0 4.0606602 6.7071068"
       inkscape:isstock="true"
       inkscape:collect="always"
       preserveAspectRatio="xMidYMid">
      <path
         style="fill:none;stroke:context-stroke;stroke-width:1;stroke-linecap:butt"
         d="M 3,-3 0,0 3,3"
         id="path2774"
         transform="rotate(180,0.125,0)"
         sodipodi:nodetypes="ccc" />
    </marker>
    <marker
       style="overflow:visible"
       id="marker2712"
       refX="0"
       refY="0"
       orient="auto-start-reverse"
       inkscape:stockid="Arrow1"
       markerWidth="4.0606604"
       markerHeight="6.7071066"
       viewBox="0 0 4.0606602 6.7071068"
       inkscape:isstock="true"
       inkscape:collect="always"
       preserveAspectRatio="xMidYMid">
      <path
         style="fill:none;stroke:context-stroke;stroke-width:1;stroke-linecap:butt"
         d="M 3,-3 0,0 3,3"
         id="path2710"
         transform="rotate(180,0.125,0)"
         sodipodi:nodetypes="ccc" />
    </marker>
    <marker
       style="overflow:visible"
       id="marker1354"
       refX="0"
       refY="0"
       orient="auto-start-reverse"
       inkscape:stockid="Arrow1"
       markerWidth="4.0606604"
       markerHeight="6.7071066"
       viewBox="0 0 4.0606602 6.7071068"
       inkscape:isstock="true"
       inkscape:collect="always"
       preserveAspectRatio="xMidYMid">
      <path
         style="fill:none;stroke:context-stroke;stroke-width:1;stroke-linecap:butt"
         d="M 3,-3 0,0 3,3"
         id="path1352"
         transform="rotate(180,0.125,0)"
         sodipodi:nodetypes="ccc" />
    </marker>
    <marker
       style="overflow:visible"
       id="Arrow1"
       refX="0"
       refY="0"
       orient="auto-start-reverse"
       inkscape:stockid="Arrow1"
       markerWidth="4.0606604"
       markerHeight="6.7071066"
       viewBox="0 0 4.0606602 6.7071068"
       inkscape:isstock="true"
       inkscape:collect="always"
       preserveAspectRatio="xMidYMid">
      <path
         style="fill:none;stroke:context-stroke;stroke-width:1;stroke-linecap:butt"
         d="M 3,-3 0,0 3,3"
         id="path5057"
         transform="rotate(180,0.125,0)"
         sodipodi:nodetypes="ccc" />
    </marker>
    <linearGradient
       id="linearGradient11071"
       inkscape:swatch="solid">
      <stop
         style="stop-color:#000000;stop-opacity:1;"
         offset="0"
         id="stop11069" />
    </linearGradient>
    <clipPath
       clipPathUnits="userSpaceOnUse"
       id="clipPath108">
      <path
         d="M 0,0 H 198 V 224 H 0 Z"
         id="path106" />
    </clipPath>
    <clipPath
       clipPathUnits="userSpaceOnUse"
       id="clipPath126">
      <path
         d="M 0,0 H 198 V 224 H 0 Z"
         id="path124" />
    </clipPath>
    <clipPath
       clipPathUnits="userSpaceOnUse"
       id="clipPath144">
      <path
         d="M 0,0 H 198 V 224 H 0 Z"
         id="path142" />
    </clipPath>
    <clipPath
       clipPathUnits="userSpaceOnUse"
       id="clipPath162">
      <path
         d="M 0,0 H 198 V 224 H 0 Z"
         id="path160" />
    </clipPath>
    <clipPath
       clipPathUnits="userSpaceOnUse"
       id="clipPath180">
      <path
         d="M 0,0 H 198 V 224 H 0 Z"
         id="path178" />
    </clipPath>
    <clipPath
       clipPathUnits="userSpaceOnUse"
       id="clipPath198">
      <path
         d="M 0,0 H 198 V 224 H 0 Z"
         id="path196" />
    </clipPath>
    <clipPath
       clipPathUnits="userSpaceOnUse"
       id="clipPath216">
      <path
         d="M 0,0 H 198 V 224 H 0 Z"
         id="path214" />
    </clipPath>
    <clipPath
       clipPathUnits="userSpaceOnUse"
       id="clipPath246">
      <path
         d="M 0,0 H 198 V 224 H 0 Z"
         id="path244" />
    </clipPath>
    <marker
       style="overflow:visible"
       id="marker2712-3"
       refX="0"
       refY="0"
       orient="auto-start-reverse"
       inkscape:stockid="Arrow1"
       markerWidth="4.0606604"
       markerHeight="6.7071066"
       viewBox="0 0 4.0606602 6.7071068"
       inkscape:isstock="true"
       inkscape:collect="always"
       preserveAspectRatio="xMidYMid">
      <path
         style="fill:none;stroke:context-stroke;stroke-width:1;stroke-linecap:butt"
         d="M 3,-3 0,0 3,3"
         id="path2710-6"
         transform="rotate(180,0.125,0)"
         sodipodi:nodetypes="ccc" />
    </marker>
    <marker
       style="overflow:visible"
       id="marker2776-7"
       refX="0"
       refY="0"
       orient="auto-start-reverse"
       inkscape:stockid="Arrow1"
       markerWidth="4.0606604"
       markerHeight="6.7071066"
       viewBox="0 0 4.0606602 6.7071068"
       inkscape:isstock="true"
       inkscape:collect="always"
       preserveAspectRatio="xMidYMid">
      <path
         style="fill:none;stroke:context-stroke;stroke-width:1;stroke-linecap:butt"
         d="M 3,-3 0,0 3,3"
         id="path2774-5"
         transform="rotate(180,0.125,0)"
         sodipodi:nodetypes="ccc" />
    </marker>
  </defs>
  <g
     inkscape:label="Layer 1"
     inkscape:groupmode="layer"
     id="layer1">
    <g
       id="g12"
       transform="matrix(0.41044 0 0 0.41044 47.9083 12.9277)"
       inkscape:export-filename="g12.pdf"
       inkscape:export-xdpi="96"
       inkscape:export-ydpi="96">
      <g
         id="g66"
         transform="matrix(-0.451221,1,-1,-0.451221,0,0)" />
      <path
         d="m -76.257224,-24.976095 c 0.063,-0.25 0.297002,-1.171 0.985004,-1.171 0.046,0 0.296001,0 0.500002,0.125 -0.282001,0.062 -0.469002,0.296 -0.469002,0.546 0,0.157 0.109,0.344 0.375001,0.344 0.219001,0 0.531003,-0.172 0.531003,-0.578 0,-0.516 -0.578003,-0.656 -0.922004,-0.656 -0.578002,0 -0.922004,0.531 -1.047004,0.75 -0.249996,-0.656 -0.780999,-0.75 -1.078,-0.75 -1.031006,0 -1.609008,1.281 -1.609008,1.531 0,0.109 0.109,0.109 0.125,0.109 0.078,0 0.109,-0.031 0.125001,-0.109 0.344001,-1.062 1.000006,-1.312 1.344007,-1.312 0.187001,0 0.531002,0.093 0.531002,0.671 0,0.313 -0.172,0.969 -0.531002,2.375001 -0.157001,0.61 -0.516002,1.032 -0.953006,1.032 -0.063,0 -0.282001,0 -0.500002,-0.125 0.250001,-0.063 0.468002,-0.266 0.468002,-0.547 0,-0.266 -0.218001,-0.344 -0.359001,-0.344 -0.313002,0 -0.547003,0.25 -0.547003,0.578 0,0.453 0.484002,0.656 0.922004,0.656 0.672005,0 1.031006,-0.703 1.047006,-0.75 0.125001,0.36 0.484002,0.75 1.078,0.75 1.031004,0 1.594006,-1.281 1.594006,-1.531 0,-0.109 -0.079,-0.109 -0.11,-0.109 -0.093,0 -0.109001,0.047 -0.140001,0.109 -0.329001,1.078 -1.000003,1.313 -1.313005,1.313 -0.389997,0 -0.546997,-0.313 -0.546997,-0.657 0,-0.218 0.047,-0.437 0.157,-0.875 z"
         style="fill:#000000;fill-opacity:1;fill-rule:nonzero;stroke:none"
         id="path96" />
      <path
         style="opacity:1;fill:none;fill-opacity:1;stroke:#000000;stroke-width:0.48484553;stroke-dasharray:none;stroke-dashoffset:0;stroke-opacity:1;marker-end:url(#Arrow1)"
         d="M -72.165385,68.135237 V -29.020957"
         id="path23323" />
      <path
         style="fill:none;fill-opacity:1;stroke:#000000;stroke-width:0.48484553;stroke-dasharray:none;stroke-dashoffset:0;stroke-opacity:1;marker-end:url(#marker1354)"
         d="M -80.552396,59.662497 H 28.650454"
         id="path23323-9" />
      <rect
         style="opacity:0.433831;fill:none;fill-opacity:0.999955;stroke:#000000;stroke-width:0.484846"
         id="rect3900"
         width="7.7431059"
         height="7.7431059"
         x="-248.33015"
         y="20.737133" />
      <g
         transform="matrix(0.859512,0,0,0.859512,22.750785,62.720902)"
         ns4:version="1.8.2"
         ns4:texconverter="pdflatex"
         ns4:pdfconverter="inkscape"
         ns4:text="$t$"
         ns4:preamble="/usr/share/inkscape/extensions/textext/default_packages.tex"
         ns4:scale="1.0"
         ns4:alignment="middle center"
         ns4:stroke-to-path="0"
         ns4:inkscapeversion="1.2.2"
         ns4:jacobian_sqrt="0.859512"
         id="g5065">
        <defs
           id="id-0a3e0402-6257-462b-8718-a897f57041d1">
          <g
             id="id-f178b1be-e2ee-4107-9205-9a0ceff1fbb1">
            <symbol
               overflow="visible"
               id="id-a9d5ddf1-82ba-4500-b454-7dea9993eabe">
              <path
                 style="stroke:none;stroke-width:0"
                 d=""
                 id="id-076b1b5a-6631-4eb4-8121-459a254ed898" />
            </symbol>
            <symbol
               overflow="visible"
               id="id-ddbfed5c-28b5-4fc6-bcb4-e35a4a9c68b8">
              <path
                 style="stroke:none;stroke-width:0"
                 d="M 2.40625,-4.8125 H 3.5 c 0.234375,0 0.34375,0 0.34375,-0.203125 0,-0.140625 -0.0625,-0.140625 -0.3125,-0.140625 H 2.484375 l 0.4375,-1.734375 C 2.96875,-7.0625 2.96875,-7.09375 2.96875,-7.171875 c 0,-0.1875 -0.140625,-0.296875 -0.296875,-0.296875 -0.109375,0 -0.375,0.03125 -0.46875,0.421875 l -0.46875,1.890625 h -1.125 c -0.234375,0 -0.34375,0 -0.34375,0.234375 0,0.109375 0.078125,0.109375 0.3125,0.109375 h 1.0625 L 0.84375,-1.65625 c -0.09375,0.421875 -0.125,0.546875 -0.125,0.703125 0,0.5625 0.390625,1.078125 1.0625,1.078125 1.203125,0 1.859375,-1.75 1.859375,-1.828125 0,-0.078125 -0.0625,-0.109375 -0.125,-0.109375 -0.03125,0 -0.078125,0 -0.09375,0.046875 C 3.40625,-1.75 3.390625,-1.75 3.3125,-1.546875 c -0.25,0.59375 -0.796875,1.421875 -1.5,1.421875 -0.359375,0 -0.375,-0.296875 -0.375,-0.5625 0,0 0,-0.234375 0.03125,-0.375 z m 0,0"
                 id="id-3a07dd91-96ef-437b-a522-47666c361fe4" />
            </symbol>
          </g>
        </defs>
        <g
           id="id-a76ee6fe-da55-4465-af31-fc8d7a2411a9"
           transform="translate(-128.679,-130.284)">
          <g
             style="fill:#000000;fill-opacity:1"
             id="id-392c7d99-3033-4a06-977a-76a23140f761">
            <g
               transform="translate(128.413,137.753)"
               id="g5061">
              <path
                 style="stroke:none;stroke-width:0"
                 d="M 2.40625,-4.8125 H 3.5 c 0.234375,0 0.34375,0 0.34375,-0.203125 0,-0.140625 -0.0625,-0.140625 -0.3125,-0.140625 H 2.484375 l 0.4375,-1.734375 C 2.96875,-7.0625 2.96875,-7.09375 2.96875,-7.171875 c 0,-0.1875 -0.140625,-0.296875 -0.296875,-0.296875 -0.109375,0 -0.375,0.03125 -0.46875,0.421875 l -0.46875,1.890625 h -1.125 c -0.234375,0 -0.34375,0 -0.34375,0.234375 0,0.109375 0.078125,0.109375 0.3125,0.109375 h 1.0625 L 0.84375,-1.65625 c -0.09375,0.421875 -0.125,0.546875 -0.125,0.703125 0,0.5625 0.390625,1.078125 1.0625,1.078125 1.203125,0 1.859375,-1.75 1.859375,-1.828125 0,-0.078125 -0.0625,-0.109375 -0.125,-0.109375 -0.03125,0 -0.078125,0 -0.09375,0.046875 C 3.40625,-1.75 3.390625,-1.75 3.3125,-1.546875 c -0.25,0.59375 -0.796875,1.421875 -1.5,1.421875 -0.359375,0 -0.375,-0.296875 -0.375,-0.5625 0,0 0,-0.234375 0.03125,-0.375 z m 0,0"
                 id="id-2b5b9068-4f86-47b6-be18-3239f12266fa" />
            </g>
          </g>
        </g>
      </g>
      <g
         transform="matrix(0.859512,0,0,0.859512,-91.911244,3.3961087)"
         ns4:version="1.8.2"
         ns4:texconverter="pdflatex"
         ns4:pdfconverter="inkscape"
         ns4:text="$x(t)$"
         ns4:preamble="/usr/share/inkscape/extensions/textext/default_packages.tex"
         ns4:scale="1.0"
         ns4:alignment="middle center"
         ns4:stroke-to-path="0"
         ns4:inkscapeversion="1.2.2"
         ns4:jacobian_sqrt="0.859512"
         id="g5537">
        <defs
           id="id-43938d79-c651-4856-be50-7619c5a064ee">
          <g
             id="id-14f920a1-c57b-4ef6-96d0-65c4daa998d7">
            <symbol
               overflow="visible"
               id="id-1e172d31-1138-4bd4-b289-e9044b328c69">
              <path
                 style="stroke:none;stroke-width:0"
                 d=""
                 id="id-dca2a483-8734-4fce-b745-9f1c13d70e1c" />
            </symbol>
            <symbol
               overflow="visible"
               id="id-05b2883f-53f5-4830-a280-7c68f01461d8">
              <path
                 style="stroke:none;stroke-width:0"
                 d="m 5.671875,-4.875 c -0.390625,0.0625 -0.53125,0.359375 -0.53125,0.578125 0,0.296875 0.21875,0.390625 0.390625,0.390625 0.359375,0 0.609375,-0.3125 0.609375,-0.640625 0,-0.5 -0.578125,-0.71875 -1.078125,-0.71875 -0.71875,0 -1.125,0.71875 -1.234375,0.9375 -0.28125,-0.890625 -1.015625,-0.9375 -1.234375,-0.9375 -1.21875,0 -1.859375,1.5625 -1.859375,1.828125 0,0.046875 0.046875,0.109375 0.125,0.109375 0.09375,0 0.125,-0.078125 0.140625,-0.125 0.40625,-1.328125 1.21875,-1.578125 1.5625,-1.578125 0.53125,0 0.640625,0.5 0.640625,0.78125 0,0.265625 -0.078125,0.546875 -0.21875,1.125 L 2.578125,-1.5 c -0.171875,0.71875 -0.515625,1.375 -1.15625,1.375 -0.0625,0 -0.359375,0 -0.609375,-0.15625 C 1.25,-0.359375 1.34375,-0.71875 1.34375,-0.859375 1.34375,-1.09375 1.15625,-1.25 0.9375,-1.25 c -0.296875,0 -0.609375,0.265625 -0.609375,0.640625 0,0.5 0.5625,0.734375 1.078125,0.734375 0.578125,0 0.984375,-0.453125 1.234375,-0.953125 C 2.828125,-0.125 3.4375,0.125 3.875,0.125 5.09375,0.125 5.734375,-1.453125 5.734375,-1.703125 5.734375,-1.765625 5.6875,-1.8125 5.625,-1.8125 5.515625,-1.8125 5.5,-1.75 5.46875,-1.65625 5.140625,-0.609375 4.453125,-0.125 3.90625,-0.125 3.484375,-0.125 3.265625,-0.4375 3.265625,-0.921875 3.265625,-1.1875 3.3125,-1.375 3.5,-2.15625 L 3.921875,-3.796875 C 4.09375,-4.5 4.5,-5.03125 5.0625,-5.03125 c 0.015625,0 0.359375,0 0.609375,0.15625 z m 0,0"
                 id="id-140e20e2-ec94-48ca-a21f-a314d3886039" />
            </symbol>
            <symbol
               overflow="visible"
               id="id-0d99adba-6d02-454a-aa4f-d4e9d8205ab1">
              <path
                 style="stroke:none;stroke-width:0"
                 d="M 2.40625,-4.8125 H 3.5 c 0.234375,0 0.34375,0 0.34375,-0.203125 0,-0.140625 -0.0625,-0.140625 -0.3125,-0.140625 H 2.484375 l 0.4375,-1.734375 C 2.96875,-7.0625 2.96875,-7.09375 2.96875,-7.171875 c 0,-0.1875 -0.140625,-0.296875 -0.296875,-0.296875 -0.109375,0 -0.375,0.03125 -0.46875,0.421875 l -0.46875,1.890625 h -1.125 c -0.234375,0 -0.34375,0 -0.34375,0.234375 0,0.109375 0.078125,0.109375 0.3125,0.109375 h 1.0625 L 0.84375,-1.65625 c -0.09375,0.421875 -0.125,0.546875 -0.125,0.703125 0,0.5625 0.390625,1.078125 1.0625,1.078125 1.203125,0 1.859375,-1.75 1.859375,-1.828125 0,-0.078125 -0.0625,-0.109375 -0.125,-0.109375 -0.03125,0 -0.078125,0 -0.09375,0.046875 C 3.40625,-1.75 3.390625,-1.75 3.3125,-1.546875 c -0.25,0.59375 -0.796875,1.421875 -1.5,1.421875 -0.359375,0 -0.375,-0.296875 -0.375,-0.5625 0,0 0,-0.234375 0.03125,-0.375 z m 0,0"
                 id="id-ce939ebd-2907-42c2-a803-3377e9de3386" />
            </symbol>
            <symbol
               overflow="visible"
               id="id-b9229588-20f9-4c6e-8f6f-366dd6eaea28">
              <path
                 style="stroke:none;stroke-width:0"
                 d=""
                 id="id-e6be751f-1c84-47a8-8ed8-5f48edae5c56" />
            </symbol>
            <symbol
               overflow="visible"
               id="id-ac475de6-182a-45ee-a2dc-3e305d093979">
              <path
                 style="stroke:none;stroke-width:0"
                 d="m 3.890625,2.90625 c 0,-0.03125 0,-0.0625 -0.203125,-0.265625 C 2.484375,1.4375 1.8125,-0.53125 1.8125,-2.96875 c 0,-2.328125 0.5625,-4.328125 1.953125,-5.734375 0.125,-0.109375 0.125,-0.125 0.125,-0.171875 0,-0.0625 -0.0625,-0.09375 -0.109375,-0.09375 -0.15625,0 -1.140625,0.859375 -1.71875,2.03125 -0.609375,1.21875 -0.890625,2.484375 -0.890625,3.96875 0,1.0625 0.171875,2.484375 0.78125,3.75 C 2.671875,2.21875 3.640625,3 3.78125,3 3.828125,3 3.890625,2.96875 3.890625,2.90625 Z m 0,0"
                 id="id-18d0ff9d-1637-45d7-b4c3-15cc71159b1f" />
            </symbol>
            <symbol
               overflow="visible"
               id="id-be48645a-46df-44d7-b8eb-8c256d06fd78">
              <path
                 style="stroke:none;stroke-width:0"
                 d="M 3.375,-2.96875 C 3.375,-3.890625 3.25,-5.359375 2.578125,-6.75 1.875,-8.1875 0.890625,-8.96875 0.765625,-8.96875 c -0.046875,0 -0.109375,0.03125 -0.109375,0.09375 0,0.046875 0,0.0625 0.203125,0.265625 1.203125,1.203125 1.859375,3.1875 1.859375,5.625 0,2.3125 -0.5625,4.3125 -1.9375,5.71875 C 0.65625,2.84375 0.65625,2.875 0.65625,2.90625 0.65625,2.96875 0.71875,3 0.765625,3 0.921875,3 1.90625,2.140625 2.484375,0.96875 3.09375,-0.25 3.375,-1.546875 3.375,-2.96875 Z m 0,0"
                 id="id-d3785f57-1155-4cea-af77-2f475f897c36" />
            </symbol>
          </g>
        </defs>
        <g
           id="id-470e9e05-d87e-458e-8cfd-c3a063c0adcc"
           transform="translate(-128.741,-128.784)">
          <g
             style="fill:#000000;fill-opacity:1"
             id="id-3c5ac206-e791-4d04-b5dd-1c6d63c23a25">
            <g
               transform="translate(128.413,137.753)"
               id="g5521">
              <path
                 style="stroke:none;stroke-width:0"
                 d="m 5.671875,-4.875 c -0.390625,0.0625 -0.53125,0.359375 -0.53125,0.578125 0,0.296875 0.21875,0.390625 0.390625,0.390625 0.359375,0 0.609375,-0.3125 0.609375,-0.640625 0,-0.5 -0.578125,-0.71875 -1.078125,-0.71875 -0.71875,0 -1.125,0.71875 -1.234375,0.9375 -0.28125,-0.890625 -1.015625,-0.9375 -1.234375,-0.9375 -1.21875,0 -1.859375,1.5625 -1.859375,1.828125 0,0.046875 0.046875,0.109375 0.125,0.109375 0.09375,0 0.125,-0.078125 0.140625,-0.125 0.40625,-1.328125 1.21875,-1.578125 1.5625,-1.578125 0.53125,0 0.640625,0.5 0.640625,0.78125 0,0.265625 -0.078125,0.546875 -0.21875,1.125 L 2.578125,-1.5 c -0.171875,0.71875 -0.515625,1.375 -1.15625,1.375 -0.0625,0 -0.359375,0 -0.609375,-0.15625 C 1.25,-0.359375 1.34375,-0.71875 1.34375,-0.859375 1.34375,-1.09375 1.15625,-1.25 0.9375,-1.25 c -0.296875,0 -0.609375,0.265625 -0.609375,0.640625 0,0.5 0.5625,0.734375 1.078125,0.734375 0.578125,0 0.984375,-0.453125 1.234375,-0.953125 C 2.828125,-0.125 3.4375,0.125 3.875,0.125 5.09375,0.125 5.734375,-1.453125 5.734375,-1.703125 5.734375,-1.765625 5.6875,-1.8125 5.625,-1.8125 5.515625,-1.8125 5.5,-1.75 5.46875,-1.65625 5.140625,-0.609375 4.453125,-0.125 3.90625,-0.125 3.484375,-0.125 3.265625,-0.4375 3.265625,-0.921875 3.265625,-1.1875 3.3125,-1.375 3.5,-2.15625 L 3.921875,-3.796875 C 4.09375,-4.5 4.5,-5.03125 5.0625,-5.03125 c 0.015625,0 0.359375,0 0.609375,0.15625 z m 0,0"
                 id="id-edfba71c-9801-4092-b0d9-3274cd44e702" />
            </g>
          </g>
          <g
             style="fill:#000000;fill-opacity:1"
             id="id-b91be53a-8867-4a2f-99f4-394a7b653151">
            <g
               transform="translate(135.065,137.753)"
               id="g5525">
              <path
                 style="stroke:none;stroke-width:0"
                 d="m 3.890625,2.90625 c 0,-0.03125 0,-0.0625 -0.203125,-0.265625 C 2.484375,1.4375 1.8125,-0.53125 1.8125,-2.96875 c 0,-2.328125 0.5625,-4.328125 1.953125,-5.734375 0.125,-0.109375 0.125,-0.125 0.125,-0.171875 0,-0.0625 -0.0625,-0.09375 -0.109375,-0.09375 -0.15625,0 -1.140625,0.859375 -1.71875,2.03125 -0.609375,1.21875 -0.890625,2.484375 -0.890625,3.96875 0,1.0625 0.171875,2.484375 0.78125,3.75 C 2.671875,2.21875 3.640625,3 3.78125,3 3.828125,3 3.890625,2.96875 3.890625,2.90625 Z m 0,0"
                 id="id-7a2eb236-0be4-4d49-853f-85a95a70a922" />
            </g>
          </g>
          <g
             style="fill:#000000;fill-opacity:1"
             id="id-753bba05-e102-4e4d-8d91-148a76444c7e">
            <g
               transform="translate(139.618,137.753)"
               id="g5529">
              <path
                 style="stroke:none;stroke-width:0"
                 d="M 2.40625,-4.8125 H 3.5 c 0.234375,0 0.34375,0 0.34375,-0.203125 0,-0.140625 -0.0625,-0.140625 -0.3125,-0.140625 H 2.484375 l 0.4375,-1.734375 C 2.96875,-7.0625 2.96875,-7.09375 2.96875,-7.171875 c 0,-0.1875 -0.140625,-0.296875 -0.296875,-0.296875 -0.109375,0 -0.375,0.03125 -0.46875,0.421875 l -0.46875,1.890625 h -1.125 c -0.234375,0 -0.34375,0 -0.34375,0.234375 0,0.109375 0.078125,0.109375 0.3125,0.109375 h 1.0625 L 0.84375,-1.65625 c -0.09375,0.421875 -0.125,0.546875 -0.125,0.703125 0,0.5625 0.390625,1.078125 1.0625,1.078125 1.203125,0 1.859375,-1.75 1.859375,-1.828125 0,-0.078125 -0.0625,-0.109375 -0.125,-0.109375 -0.03125,0 -0.078125,0 -0.09375,0.046875 C 3.40625,-1.75 3.390625,-1.75 3.3125,-1.546875 c -0.25,0.59375 -0.796875,1.421875 -1.5,1.421875 -0.359375,0 -0.375,-0.296875 -0.375,-0.5625 0,0 0,-0.234375 0.03125,-0.375 z m 0,0"
                 id="id-620cc79a-71b9-404d-b121-dacf4712a6bc" />
            </g>
          </g>
          <g
             style="fill:#000000;fill-opacity:1"
             id="id-bc4a7a12-aebc-427d-b559-f1c2ce3f660b">
            <g
               transform="translate(143.845,137.753)"
               id="g5533">
              <path
                 style="stroke:none;stroke-width:0"
                 d="M 3.375,-2.96875 C 3.375,-3.890625 3.25,-5.359375 2.578125,-6.75 1.875,-8.1875 0.890625,-8.96875 0.765625,-8.96875 c -0.046875,0 -0.109375,0.03125 -0.109375,0.09375 0,0.046875 0,0.0625 0.203125,0.265625 1.203125,1.203125 1.859375,3.1875 1.859375,5.625 0,2.3125 -0.5625,4.3125 -1.9375,5.71875 C 0.65625,2.84375 0.65625,2.875 0.65625,2.90625 0.65625,2.96875 0.71875,3 0.765625,3 0.921875,3 1.90625,2.140625 2.484375,0.96875 3.09375,-0.25 3.375,-1.546875 3.375,-2.96875 Z m 0,0"
                 id="id-83f95a5c-567f-415a-9e18-99a17dfbf27f" />
            </g>
          </g>
        </g>
      </g>
      <path
         style="fill:none;fill-opacity:0.999955;stroke:#000000;stroke-width:0.29236917;stroke-dasharray:1.75420442,1.75420442;stroke-dashoffset:0"
         d="m -72.274466,12.146073 h 6.726463 v 47.686439"
         id="path1266" />
      <g
         transform="matrix(0.859512,0,0,0.859512,-116.37091,-13.224316)"
         ns4:version="1.8.2"
         ns4:texconverter="pdflatex"
         ns4:pdfconverter="inkscape"
         ns4:text="$x(t+\\Delta t)$"
         ns4:preamble="/usr/share/inkscape/extensions/textext/default_packages.tex"
         ns4:scale="1.0"
         ns4:alignment="middle center"
         ns4:stroke-to-path="0"
         ns4:inkscapeversion="1.2.2"
         ns4:jacobian_sqrt="0.859512"
         id="g1644">
        <defs
           id="id-174b1137-ab18-4830-9d03-62d686938c69">
          <g
             id="id-42c89a31-0431-46fa-83db-bbb2cef87e61">
            <symbol
               overflow="visible"
               id="id-593f9843-25c9-497d-b26a-558946691e32">
              <path
                 style="stroke:none;stroke-width:0"
                 d=""
                 id="id-3da95709-e13a-4b92-b69a-1460faf2ad18" />
            </symbol>
            <symbol
               overflow="visible"
               id="id-c7bea8fb-a327-4708-a65f-630187a437d8">
              <path
                 style="stroke:none;stroke-width:0"
                 d="m 5.671875,-4.875 c -0.390625,0.0625 -0.53125,0.359375 -0.53125,0.578125 0,0.296875 0.21875,0.390625 0.390625,0.390625 0.359375,0 0.609375,-0.3125 0.609375,-0.640625 0,-0.5 -0.578125,-0.71875 -1.078125,-0.71875 -0.71875,0 -1.125,0.71875 -1.234375,0.9375 -0.28125,-0.890625 -1.015625,-0.9375 -1.234375,-0.9375 -1.21875,0 -1.859375,1.5625 -1.859375,1.828125 0,0.046875 0.046875,0.109375 0.125,0.109375 0.09375,0 0.125,-0.078125 0.140625,-0.125 0.40625,-1.328125 1.21875,-1.578125 1.5625,-1.578125 0.53125,0 0.640625,0.5 0.640625,0.78125 0,0.265625 -0.078125,0.546875 -0.21875,1.125 L 2.578125,-1.5 c -0.171875,0.71875 -0.515625,1.375 -1.15625,1.375 -0.0625,0 -0.359375,0 -0.609375,-0.15625 C 1.25,-0.359375 1.34375,-0.71875 1.34375,-0.859375 1.34375,-1.09375 1.15625,-1.25 0.9375,-1.25 c -0.296875,0 -0.609375,0.265625 -0.609375,0.640625 0,0.5 0.5625,0.734375 1.078125,0.734375 0.578125,0 0.984375,-0.453125 1.234375,-0.953125 C 2.828125,-0.125 3.4375,0.125 3.875,0.125 5.09375,0.125 5.734375,-1.453125 5.734375,-1.703125 5.734375,-1.765625 5.6875,-1.8125 5.625,-1.8125 5.515625,-1.8125 5.5,-1.75 5.46875,-1.65625 5.140625,-0.609375 4.453125,-0.125 3.90625,-0.125 3.484375,-0.125 3.265625,-0.4375 3.265625,-0.921875 3.265625,-1.1875 3.3125,-1.375 3.5,-2.15625 L 3.921875,-3.796875 C 4.09375,-4.5 4.5,-5.03125 5.0625,-5.03125 c 0.015625,0 0.359375,0 0.609375,0.15625 z m 0,0"
                 id="id-c212bac4-e919-4251-bf0d-58162956e6fe" />
            </symbol>
            <symbol
               overflow="visible"
               id="id-3b389af6-9ba8-4a6a-b25f-ba310d6cf3d5">
              <path
                 style="stroke:none;stroke-width:0"
                 d="M 2.40625,-4.8125 H 3.5 c 0.234375,0 0.34375,0 0.34375,-0.203125 0,-0.140625 -0.0625,-0.140625 -0.3125,-0.140625 H 2.484375 l 0.4375,-1.734375 C 2.96875,-7.0625 2.96875,-7.09375 2.96875,-7.171875 c 0,-0.1875 -0.140625,-0.296875 -0.296875,-0.296875 -0.109375,0 -0.375,0.03125 -0.46875,0.421875 l -0.46875,1.890625 h -1.125 c -0.234375,0 -0.34375,0 -0.34375,0.234375 0,0.109375 0.078125,0.109375 0.3125,0.109375 h 1.0625 L 0.84375,-1.65625 c -0.09375,0.421875 -0.125,0.546875 -0.125,0.703125 0,0.5625 0.390625,1.078125 1.0625,1.078125 1.203125,0 1.859375,-1.75 1.859375,-1.828125 0,-0.078125 -0.0625,-0.109375 -0.125,-0.109375 -0.03125,0 -0.078125,0 -0.09375,0.046875 C 3.40625,-1.75 3.390625,-1.75 3.3125,-1.546875 c -0.25,0.59375 -0.796875,1.421875 -1.5,1.421875 -0.359375,0 -0.375,-0.296875 -0.375,-0.5625 0,0 0,-0.234375 0.03125,-0.375 z m 0,0"
                 id="id-9166118f-9715-43f8-a509-fb177b8ec035" />
            </symbol>
            <symbol
               overflow="visible"
               id="id-66cb469d-c7a0-40c2-8962-1c24a1e3c896">
              <path
                 style="stroke:none;stroke-width:0"
                 d=""
                 id="id-cc8691db-65a9-4df6-8c73-5313fac3fd26" />
            </symbol>
            <symbol
               overflow="visible"
               id="id-43da8837-b10f-4f59-bba2-5afb84263e39">
              <path
                 style="stroke:none;stroke-width:0"
                 d="m 3.890625,2.90625 c 0,-0.03125 0,-0.0625 -0.203125,-0.265625 C 2.484375,1.4375 1.8125,-0.53125 1.8125,-2.96875 c 0,-2.328125 0.5625,-4.328125 1.953125,-5.734375 0.125,-0.109375 0.125,-0.125 0.125,-0.171875 0,-0.0625 -0.0625,-0.09375 -0.109375,-0.09375 -0.15625,0 -1.140625,0.859375 -1.71875,2.03125 -0.609375,1.21875 -0.890625,2.484375 -0.890625,3.96875 0,1.0625 0.171875,2.484375 0.78125,3.75 C 2.671875,2.21875 3.640625,3 3.78125,3 3.828125,3 3.890625,2.96875 3.890625,2.90625 Z m 0,0"
                 id="id-91de2800-1739-415d-ab89-02a981de6e6d" />
            </symbol>
            <symbol
               overflow="visible"
               id="id-d0a5ea17-cea9-4425-bd8e-993f5db61078">
              <path
                 style="stroke:none;stroke-width:0"
                 d="M 4.765625,-2.765625 H 8.0625 c 0.171875,0 0.390625,0 0.390625,-0.203125 0,-0.234375 -0.203125,-0.234375 -0.390625,-0.234375 H 4.765625 V -6.5 c 0,-0.171875 0,-0.390625 -0.21875,-0.390625 -0.21875,0 -0.21875,0.203125 -0.21875,0.390625 v 3.296875 H 1.03125 c -0.171875,0 -0.390625,0 -0.390625,0.21875 0,0.21875 0.203125,0.21875 0.390625,0.21875 H 4.328125 V 0.53125 c 0,0.171875 0,0.390625 0.21875,0.390625 0.21875,0 0.21875,-0.203125 0.21875,-0.390625 z m 0,0"
                 id="id-bff21983-c4f2-4070-85d9-45fcb4de4c6c" />
            </symbol>
            <symbol
               overflow="visible"
               id="id-4d100878-c40f-4bc8-8230-47d6115c4b66">
              <path
                 style="stroke:none;stroke-width:0"
                 d="M 5.15625,-8.3125 C 5.0625,-8.484375 5.046875,-8.53125 4.875,-8.53125 c -0.171875,0 -0.203125,0.046875 -0.28125,0.21875 l -4,8.078125 C 0.578125,-0.203125 0.546875,-0.125 0.546875,-0.078125 0.546875,-0.015625 0.5625,0 0.796875,0 H 8.9375 c 0.25,0 0.25,-0.015625 0.25,-0.078125 0,-0.046875 -0.015625,-0.125 -0.046875,-0.15625 z M 4.5,-7.4375 7.765625,-0.828125 H 1.25 Z m 0,0"
                 id="id-b689cd78-0b19-4281-bc37-53443ac0b7ee" />
            </symbol>
            <symbol
               overflow="visible"
               id="id-b8bf9e70-a360-477f-bd32-2fca1b1dd332">
              <path
                 style="stroke:none;stroke-width:0"
                 d="M 3.375,-2.96875 C 3.375,-3.890625 3.25,-5.359375 2.578125,-6.75 1.875,-8.1875 0.890625,-8.96875 0.765625,-8.96875 c -0.046875,0 -0.109375,0.03125 -0.109375,0.09375 0,0.046875 0,0.0625 0.203125,0.265625 1.203125,1.203125 1.859375,3.1875 1.859375,5.625 0,2.3125 -0.5625,4.3125 -1.9375,5.71875 C 0.65625,2.84375 0.65625,2.875 0.65625,2.90625 0.65625,2.96875 0.71875,3 0.765625,3 0.921875,3 1.90625,2.140625 2.484375,0.96875 3.09375,-0.25 3.375,-1.546875 3.375,-2.96875 Z m 0,0"
                 id="id-dc4cb148-9dbc-49e9-8cf1-797013cca864" />
            </symbol>
          </g>
        </defs>
        <g
           id="id-d20b908e-eb6a-4bd1-951c-4b5fe2f54665"
           transform="translate(-128.741,-128.784)">
          <g
             style="fill:#000000;fill-opacity:1"
             id="id-2d623528-af30-4208-a97a-dedb64701185">
            <g
               transform="translate(128.413,137.753)"
               id="g1616">
              <path
                 style="stroke:none;stroke-width:0"
                 d="m 5.671875,-4.875 c -0.390625,0.0625 -0.53125,0.359375 -0.53125,0.578125 0,0.296875 0.21875,0.390625 0.390625,0.390625 0.359375,0 0.609375,-0.3125 0.609375,-0.640625 0,-0.5 -0.578125,-0.71875 -1.078125,-0.71875 -0.71875,0 -1.125,0.71875 -1.234375,0.9375 -0.28125,-0.890625 -1.015625,-0.9375 -1.234375,-0.9375 -1.21875,0 -1.859375,1.5625 -1.859375,1.828125 0,0.046875 0.046875,0.109375 0.125,0.109375 0.09375,0 0.125,-0.078125 0.140625,-0.125 0.40625,-1.328125 1.21875,-1.578125 1.5625,-1.578125 0.53125,0 0.640625,0.5 0.640625,0.78125 0,0.265625 -0.078125,0.546875 -0.21875,1.125 L 2.578125,-1.5 c -0.171875,0.71875 -0.515625,1.375 -1.15625,1.375 -0.0625,0 -0.359375,0 -0.609375,-0.15625 C 1.25,-0.359375 1.34375,-0.71875 1.34375,-0.859375 1.34375,-1.09375 1.15625,-1.25 0.9375,-1.25 c -0.296875,0 -0.609375,0.265625 -0.609375,0.640625 0,0.5 0.5625,0.734375 1.078125,0.734375 0.578125,0 0.984375,-0.453125 1.234375,-0.953125 C 2.828125,-0.125 3.4375,0.125 3.875,0.125 5.09375,0.125 5.734375,-1.453125 5.734375,-1.703125 5.734375,-1.765625 5.6875,-1.8125 5.625,-1.8125 5.515625,-1.8125 5.5,-1.75 5.46875,-1.65625 5.140625,-0.609375 4.453125,-0.125 3.90625,-0.125 3.484375,-0.125 3.265625,-0.4375 3.265625,-0.921875 3.265625,-1.1875 3.3125,-1.375 3.5,-2.15625 L 3.921875,-3.796875 C 4.09375,-4.5 4.5,-5.03125 5.0625,-5.03125 c 0.015625,0 0.359375,0 0.609375,0.15625 z m 0,0"
                 id="id-bb8f5b14-1824-4eec-858c-ce91154cdfc4" />
            </g>
          </g>
          <g
             style="fill:#000000;fill-opacity:1"
             id="id-84c6337e-dd69-4a46-9ea6-65cbb0810c88">
            <g
               transform="translate(135.065,137.753)"
               id="g1620">
              <path
                 style="stroke:none;stroke-width:0"
                 d="m 3.890625,2.90625 c 0,-0.03125 0,-0.0625 -0.203125,-0.265625 C 2.484375,1.4375 1.8125,-0.53125 1.8125,-2.96875 c 0,-2.328125 0.5625,-4.328125 1.953125,-5.734375 0.125,-0.109375 0.125,-0.125 0.125,-0.171875 0,-0.0625 -0.0625,-0.09375 -0.109375,-0.09375 -0.15625,0 -1.140625,0.859375 -1.71875,2.03125 -0.609375,1.21875 -0.890625,2.484375 -0.890625,3.96875 0,1.0625 0.171875,2.484375 0.78125,3.75 C 2.671875,2.21875 3.640625,3 3.78125,3 3.828125,3 3.890625,2.96875 3.890625,2.90625 Z m 0,0"
                 id="id-a4820469-ebb8-4cfd-b672-9eb7418f1539" />
            </g>
          </g>
          <g
             style="fill:#000000;fill-opacity:1"
             id="id-de6988bd-e752-4ca8-82b8-0c115bf92179">
            <g
               transform="translate(139.618,137.753)"
               id="g1624">
              <path
                 style="stroke:none;stroke-width:0"
                 d="M 2.40625,-4.8125 H 3.5 c 0.234375,0 0.34375,0 0.34375,-0.203125 0,-0.140625 -0.0625,-0.140625 -0.3125,-0.140625 H 2.484375 l 0.4375,-1.734375 C 2.96875,-7.0625 2.96875,-7.09375 2.96875,-7.171875 c 0,-0.1875 -0.140625,-0.296875 -0.296875,-0.296875 -0.109375,0 -0.375,0.03125 -0.46875,0.421875 l -0.46875,1.890625 h -1.125 c -0.234375,0 -0.34375,0 -0.34375,0.234375 0,0.109375 0.078125,0.109375 0.3125,0.109375 h 1.0625 L 0.84375,-1.65625 c -0.09375,0.421875 -0.125,0.546875 -0.125,0.703125 0,0.5625 0.390625,1.078125 1.0625,1.078125 1.203125,0 1.859375,-1.75 1.859375,-1.828125 0,-0.078125 -0.0625,-0.109375 -0.125,-0.109375 -0.03125,0 -0.078125,0 -0.09375,0.046875 C 3.40625,-1.75 3.390625,-1.75 3.3125,-1.546875 c -0.25,0.59375 -0.796875,1.421875 -1.5,1.421875 -0.359375,0 -0.375,-0.296875 -0.375,-0.5625 0,0 0,-0.234375 0.03125,-0.375 z m 0,0"
                 id="id-fde56521-4c5f-4508-8027-f54970ebe499" />
            </g>
          </g>
          <g
             style="fill:#000000;fill-opacity:1"
             id="id-3b7f461c-859f-44db-ac7a-f63128a4ffb8">
            <g
               transform="translate(146.501,137.753)"
               id="g1628">
              <path
                 style="stroke:none;stroke-width:0"
                 d="M 4.765625,-2.765625 H 8.0625 c 0.171875,0 0.390625,0 0.390625,-0.203125 0,-0.234375 -0.203125,-0.234375 -0.390625,-0.234375 H 4.765625 V -6.5 c 0,-0.171875 0,-0.390625 -0.21875,-0.390625 -0.21875,0 -0.21875,0.203125 -0.21875,0.390625 v 3.296875 H 1.03125 c -0.171875,0 -0.390625,0 -0.390625,0.21875 0,0.21875 0.203125,0.21875 0.390625,0.21875 H 4.328125 V 0.53125 c 0,0.171875 0,0.390625 0.21875,0.390625 0.21875,0 0.21875,-0.203125 0.21875,-0.390625 z m 0,0"
                 id="id-e31d1b22-770c-4181-b8ee-14ef431c631c" />
            </g>
          </g>
          <g
             style="fill:#000000;fill-opacity:1"
             id="id-a9830176-bf91-44c7-8cfc-94b7eff81dff">
            <g
               transform="translate(158.26,137.753)"
               id="g1632">
              <path
                 style="stroke:none;stroke-width:0"
                 d="M 5.15625,-8.3125 C 5.0625,-8.484375 5.046875,-8.53125 4.875,-8.53125 c -0.171875,0 -0.203125,0.046875 -0.28125,0.21875 l -4,8.078125 C 0.578125,-0.203125 0.546875,-0.125 0.546875,-0.078125 0.546875,-0.015625 0.5625,0 0.796875,0 H 8.9375 c 0.25,0 0.25,-0.015625 0.25,-0.078125 0,-0.046875 -0.015625,-0.125 -0.046875,-0.15625 z M 4.5,-7.4375 7.765625,-0.828125 H 1.25 Z m 0,0"
                 id="id-55e2703c-5e4d-49cb-b526-375cf2c94a12" />
            </g>
          </g>
          <g
             style="fill:#000000;fill-opacity:1"
             id="id-5d40c1c6-eb4b-4ce4-9302-ad803b81ae10">
            <g
               transform="translate(168.018,137.753)"
               id="g1636">
              <path
                 style="stroke:none;stroke-width:0"
                 d="M 2.40625,-4.8125 H 3.5 c 0.234375,0 0.34375,0 0.34375,-0.203125 0,-0.140625 -0.0625,-0.140625 -0.3125,-0.140625 H 2.484375 l 0.4375,-1.734375 C 2.96875,-7.0625 2.96875,-7.09375 2.96875,-7.171875 c 0,-0.1875 -0.140625,-0.296875 -0.296875,-0.296875 -0.109375,0 -0.375,0.03125 -0.46875,0.421875 l -0.46875,1.890625 h -1.125 c -0.234375,0 -0.34375,0 -0.34375,0.234375 0,0.109375 0.078125,0.109375 0.3125,0.109375 h 1.0625 L 0.84375,-1.65625 c -0.09375,0.421875 -0.125,0.546875 -0.125,0.703125 0,0.5625 0.390625,1.078125 1.0625,1.078125 1.203125,0 1.859375,-1.75 1.859375,-1.828125 0,-0.078125 -0.0625,-0.109375 -0.125,-0.109375 -0.03125,0 -0.078125,0 -0.09375,0.046875 C 3.40625,-1.75 3.390625,-1.75 3.3125,-1.546875 c -0.25,0.59375 -0.796875,1.421875 -1.5,1.421875 -0.359375,0 -0.375,-0.296875 -0.375,-0.5625 0,0 0,-0.234375 0.03125,-0.375 z m 0,0"
                 id="id-4bd90f8b-7d21-4e89-8cf8-fe04447292d8" />
            </g>
          </g>
          <g
             style="fill:#000000;fill-opacity:1"
             id="id-a03571be-2d38-4958-ae9a-83a0e907ee17">
            <g
               transform="translate(172.245,137.753)"
               id="g1640">
              <path
                 style="stroke:none;stroke-width:0"
                 d="M 3.375,-2.96875 C 3.375,-3.890625 3.25,-5.359375 2.578125,-6.75 1.875,-8.1875 0.890625,-8.96875 0.765625,-8.96875 c -0.046875,0 -0.109375,0.03125 -0.109375,0.09375 0,0.046875 0,0.0625 0.203125,0.265625 1.203125,1.203125 1.859375,3.1875 1.859375,5.625 0,2.3125 -0.5625,4.3125 -1.9375,5.71875 C 0.65625,2.84375 0.65625,2.875 0.65625,2.90625 0.65625,2.96875 0.71875,3 0.765625,3 0.921875,3 1.90625,2.140625 2.484375,0.96875 3.09375,-0.25 3.375,-1.546875 3.375,-2.96875 Z m 0,0"
                 id="id-48609d32-2259-4b76-9959-88e2c475ef9b" />
            </g>
          </g>
        </g>
      </g>
      <g
         transform="matrix(0.859512,0,0,0.859512,-99.4529,36.820917)"
         ns4:version="1.8.2"
         ns4:texconverter="pdflatex"
         ns4:pdfconverter="inkscape"
         ns4:text="$t$"
         ns4:preamble="/usr/share/inkscape/extensions/textext/default_packages.tex"
         ns4:scale="1.0"
         ns4:alignment="middle center"
         ns4:stroke-to-path="0"
         ns4:inkscapeversion="1.2.2"
         ns4:jacobian_sqrt="0.859512"
         id="g2162">
        <defs
           id="id-44c1ea97-5d6d-45af-9b5c-b0cf825c5c72">
          <g
             id="id-6f2d4be9-5d9a-4a66-a36f-f4746f25c6cd">
            <symbol
               overflow="visible"
               id="id-12f749bd-98c0-4db2-96cc-1b987a7b9eb3">
              <path
                 style="stroke:none;stroke-width:0"
                 d=""
                 id="id-2ebcaecd-e3a7-4b8c-873b-ffccd134b9d7" />
            </symbol>
            <symbol
               overflow="visible"
               id="id-c25f787a-d600-4079-9e42-d2aa41551691">
              <path
                 style="stroke:none;stroke-width:0"
                 d="M 2.40625,-4.8125 H 3.5 c 0.234375,0 0.34375,0 0.34375,-0.203125 0,-0.140625 -0.0625,-0.140625 -0.3125,-0.140625 H 2.484375 l 0.4375,-1.734375 C 2.96875,-7.0625 2.96875,-7.09375 2.96875,-7.171875 c 0,-0.1875 -0.140625,-0.296875 -0.296875,-0.296875 -0.109375,0 -0.375,0.03125 -0.46875,0.421875 l -0.46875,1.890625 h -1.125 c -0.234375,0 -0.34375,0 -0.34375,0.234375 0,0.109375 0.078125,0.109375 0.3125,0.109375 h 1.0625 L 0.84375,-1.65625 c -0.09375,0.421875 -0.125,0.546875 -0.125,0.703125 0,0.5625 0.390625,1.078125 1.0625,1.078125 1.203125,0 1.859375,-1.75 1.859375,-1.828125 0,-0.078125 -0.0625,-0.109375 -0.125,-0.109375 -0.03125,0 -0.078125,0 -0.09375,0.046875 C 3.40625,-1.75 3.390625,-1.75 3.3125,-1.546875 c -0.25,0.59375 -0.796875,1.421875 -1.5,1.421875 -0.359375,0 -0.375,-0.296875 -0.375,-0.5625 0,0 0,-0.234375 0.03125,-0.375 z m 0,0"
                 id="id-0f83e053-7ad0-46b4-978d-f23bf6c96129" />
            </symbol>
          </g>
        </defs>
        <g
           id="id-bf815cd2-179a-4064-9f86-68a4eb439aa3"
           transform="translate(-128.679,-130.284)">
          <g
             style="fill:#000000;fill-opacity:1"
             id="id-fc16f21e-77f1-4ecf-bead-37b8076e40b5"
             transform="translate(37.404185,30.133487)">
            <g
               transform="translate(128.413,137.753)"
               id="g2158">
              <path
                 style="stroke:none;stroke-width:0"
                 d="M 2.40625,-4.8125 H 3.5 c 0.234375,0 0.34375,0 0.34375,-0.203125 0,-0.140625 -0.0625,-0.140625 -0.3125,-0.140625 H 2.484375 l 0.4375,-1.734375 C 2.96875,-7.0625 2.96875,-7.09375 2.96875,-7.171875 c 0,-0.1875 -0.140625,-0.296875 -0.296875,-0.296875 -0.109375,0 -0.375,0.03125 -0.46875,0.421875 l -0.46875,1.890625 h -1.125 c -0.234375,0 -0.34375,0 -0.34375,0.234375 0,0.109375 0.078125,0.109375 0.3125,0.109375 h 1.0625 L 0.84375,-1.65625 c -0.09375,0.421875 -0.125,0.546875 -0.125,0.703125 0,0.5625 0.390625,1.078125 1.0625,1.078125 1.203125,0 1.859375,-1.75 1.859375,-1.828125 0,-0.078125 -0.0625,-0.109375 -0.125,-0.109375 -0.03125,0 -0.078125,0 -0.09375,0.046875 C 3.40625,-1.75 3.390625,-1.75 3.3125,-1.546875 c -0.25,0.59375 -0.796875,1.421875 -1.5,1.421875 -0.359375,0 -0.375,-0.296875 -0.375,-0.5625 0,0 0,-0.234375 0.03125,-0.375 z m 0,0"
                 id="id-b2197461-48c1-4894-aca9-6c2abed93820" />
            </g>
          </g>
        </g>
      </g>
      <g
         transform="matrix(0.859512,0,0,0.859512,-44.11792,61.795422)"
         ns4:version="1.8.2"
         ns4:texconverter="pdflatex"
         ns4:pdfconverter="inkscape"
         ns4:text="$t+ \\Delta t$"
         ns4:preamble="/usr/share/inkscape/extensions/textext/default_packages.tex"
         ns4:scale="1.0"
         ns4:alignment="middle center"
         ns4:stroke-to-path="0"
         ns4:inkscapeversion="1.2.2"
         ns4:jacobian_sqrt="0.859512"
         id="g2468">
        <defs
           id="id-826899ec-b8d8-45ac-b9a5-8fac7eb8b3dd">
          <g
             id="id-938f291f-a624-45a9-be1a-6d32a4e4cff3">
            <symbol
               overflow="visible"
               id="id-92f77686-4041-4d35-8c02-41756cb9e46d">
              <path
                 style="stroke:none;stroke-width:0"
                 d=""
                 id="id-56411729-bcf5-43cf-87cc-5a8092a56c85" />
            </symbol>
            <symbol
               overflow="visible"
               id="id-700ed790-765b-447a-b3db-281fac8eee7b">
              <path
                 style="stroke:none;stroke-width:0"
                 d="M 2.40625,-4.8125 H 3.5 c 0.234375,0 0.34375,0 0.34375,-0.203125 0,-0.140625 -0.0625,-0.140625 -0.3125,-0.140625 H 2.484375 l 0.4375,-1.734375 C 2.96875,-7.0625 2.96875,-7.09375 2.96875,-7.171875 c 0,-0.1875 -0.140625,-0.296875 -0.296875,-0.296875 -0.109375,0 -0.375,0.03125 -0.46875,0.421875 l -0.46875,1.890625 h -1.125 c -0.234375,0 -0.34375,0 -0.34375,0.234375 0,0.109375 0.078125,0.109375 0.3125,0.109375 h 1.0625 L 0.84375,-1.65625 c -0.09375,0.421875 -0.125,0.546875 -0.125,0.703125 0,0.5625 0.390625,1.078125 1.0625,1.078125 1.203125,0 1.859375,-1.75 1.859375,-1.828125 0,-0.078125 -0.0625,-0.109375 -0.125,-0.109375 -0.03125,0 -0.078125,0 -0.09375,0.046875 C 3.40625,-1.75 3.390625,-1.75 3.3125,-1.546875 c -0.25,0.59375 -0.796875,1.421875 -1.5,1.421875 -0.359375,0 -0.375,-0.296875 -0.375,-0.5625 0,0 0,-0.234375 0.03125,-0.375 z m 0,0"
                 id="id-2cf9912f-a1e5-4dad-92d1-9d06ad103fa8" />
            </symbol>
            <symbol
               overflow="visible"
               id="id-7e65efd3-0542-4aa1-b2be-9f89844b5126">
              <path
                 style="stroke:none;stroke-width:0"
                 d=""
                 id="id-07bb4158-f4ef-4d45-b504-8918570610aa" />
            </symbol>
            <symbol
               overflow="visible"
               id="id-3128e327-e616-4119-bd8b-c1192120fcfb">
              <path
                 style="stroke:none;stroke-width:0"
                 d="M 4.765625,-2.765625 H 8.0625 c 0.171875,0 0.390625,0 0.390625,-0.203125 0,-0.234375 -0.203125,-0.234375 -0.390625,-0.234375 H 4.765625 V -6.5 c 0,-0.171875 0,-0.390625 -0.21875,-0.390625 -0.21875,0 -0.21875,0.203125 -0.21875,0.390625 v 3.296875 H 1.03125 c -0.171875,0 -0.390625,0 -0.390625,0.21875 0,0.21875 0.203125,0.21875 0.390625,0.21875 H 4.328125 V 0.53125 c 0,0.171875 0,0.390625 0.21875,0.390625 0.21875,0 0.21875,-0.203125 0.21875,-0.390625 z m 0,0"
                 id="id-4b090be7-fdc3-4bba-8968-edac5d08e811" />
            </symbol>
            <symbol
               overflow="visible"
               id="id-c7a9becd-9a25-469c-aa22-af7965b74e85">
              <path
                 style="stroke:none;stroke-width:0"
                 d="M 5.15625,-8.3125 C 5.0625,-8.484375 5.046875,-8.53125 4.875,-8.53125 c -0.171875,0 -0.203125,0.046875 -0.28125,0.21875 l -4,8.078125 C 0.578125,-0.203125 0.546875,-0.125 0.546875,-0.078125 0.546875,-0.015625 0.5625,0 0.796875,0 H 8.9375 c 0.25,0 0.25,-0.015625 0.25,-0.078125 0,-0.046875 -0.015625,-0.125 -0.046875,-0.15625 z M 4.5,-7.4375 7.765625,-0.828125 H 1.25 Z m 0,0"
                 id="id-4c2774e6-a5e4-4d5b-9d30-1fe4ad5cc823" />
            </symbol>
          </g>
        </defs>
        <g
           id="id-86002917-e125-4149-9c57-913e571a8066"
           transform="translate(-128.679,-129.222)">
          <g
             style="fill:#000000;fill-opacity:1"
             id="id-d9f8abf1-dab1-4050-bd02-e50690964419">
            <g
               transform="translate(128.413,137.753)"
               id="g2452">
              <path
                 style="stroke:none;stroke-width:0"
                 d="M 2.40625,-4.8125 H 3.5 c 0.234375,0 0.34375,0 0.34375,-0.203125 0,-0.140625 -0.0625,-0.140625 -0.3125,-0.140625 H 2.484375 l 0.4375,-1.734375 C 2.96875,-7.0625 2.96875,-7.09375 2.96875,-7.171875 c 0,-0.1875 -0.140625,-0.296875 -0.296875,-0.296875 -0.109375,0 -0.375,0.03125 -0.46875,0.421875 l -0.46875,1.890625 h -1.125 c -0.234375,0 -0.34375,0 -0.34375,0.234375 0,0.109375 0.078125,0.109375 0.3125,0.109375 h 1.0625 L 0.84375,-1.65625 c -0.09375,0.421875 -0.125,0.546875 -0.125,0.703125 0,0.5625 0.390625,1.078125 1.0625,1.078125 1.203125,0 1.859375,-1.75 1.859375,-1.828125 0,-0.078125 -0.0625,-0.109375 -0.125,-0.109375 -0.03125,0 -0.078125,0 -0.09375,0.046875 C 3.40625,-1.75 3.390625,-1.75 3.3125,-1.546875 c -0.25,0.59375 -0.796875,1.421875 -1.5,1.421875 -0.359375,0 -0.375,-0.296875 -0.375,-0.5625 0,0 0,-0.234375 0.03125,-0.375 z m 0,0"
                 id="id-7f18d294-3e4f-401d-8a37-10e33e2b5ac1" />
            </g>
          </g>
          <g
             style="fill:#000000;fill-opacity:1"
             id="id-27deaff9-f496-498e-98f6-c832dca8b5f3">
            <g
               transform="translate(135.297,137.753)"
               id="g2456">
              <path
                 style="stroke:none;stroke-width:0"
                 d="M 4.765625,-2.765625 H 8.0625 c 0.171875,0 0.390625,0 0.390625,-0.203125 0,-0.234375 -0.203125,-0.234375 -0.390625,-0.234375 H 4.765625 V -6.5 c 0,-0.171875 0,-0.390625 -0.21875,-0.390625 -0.21875,0 -0.21875,0.203125 -0.21875,0.390625 v 3.296875 H 1.03125 c -0.171875,0 -0.390625,0 -0.390625,0.21875 0,0.21875 0.203125,0.21875 0.390625,0.21875 H 4.328125 V 0.53125 c 0,0.171875 0,0.390625 0.21875,0.390625 0.21875,0 0.21875,-0.203125 0.21875,-0.390625 z m 0,0"
                 id="id-8b9b3572-c973-4bc7-92e6-d55ed7a3ecc9" />
            </g>
          </g>
          <g
             style="fill:#000000;fill-opacity:1"
             id="id-f6831ffd-1010-4c57-b491-29656c196a60">
            <g
               transform="translate(147.056,137.753)"
               id="g2460">
              <path
                 style="stroke:none;stroke-width:0"
                 d="M 5.15625,-8.3125 C 5.0625,-8.484375 5.046875,-8.53125 4.875,-8.53125 c -0.171875,0 -0.203125,0.046875 -0.28125,0.21875 l -4,8.078125 C 0.578125,-0.203125 0.546875,-0.125 0.546875,-0.078125 0.546875,-0.015625 0.5625,0 0.796875,0 H 8.9375 c 0.25,0 0.25,-0.015625 0.25,-0.078125 0,-0.046875 -0.015625,-0.125 -0.046875,-0.15625 z M 4.5,-7.4375 7.765625,-0.828125 H 1.25 Z m 0,0"
                 id="id-b33e8315-6bb1-4c00-97b2-df5402e2aa64" />
            </g>
          </g>
          <g
             style="fill:#000000;fill-opacity:1"
             id="id-1574ca09-d5d2-48bc-ae5b-d7da10837742">
            <g
               transform="translate(156.813,137.753)"
               id="g2464">
              <path
                 style="stroke:none;stroke-width:0"
                 d="M 2.40625,-4.8125 H 3.5 c 0.234375,0 0.34375,0 0.34375,-0.203125 0,-0.140625 -0.0625,-0.140625 -0.3125,-0.140625 H 2.484375 l 0.4375,-1.734375 C 2.96875,-7.0625 2.96875,-7.09375 2.96875,-7.171875 c 0,-0.1875 -0.140625,-0.296875 -0.296875,-0.296875 -0.109375,0 -0.375,0.03125 -0.46875,0.421875 l -0.46875,1.890625 h -1.125 c -0.234375,0 -0.34375,0 -0.34375,0.234375 0,0.109375 0.078125,0.109375 0.3125,0.109375 h 1.0625 L 0.84375,-1.65625 c -0.09375,0.421875 -0.125,0.546875 -0.125,0.703125 0,0.5625 0.390625,1.078125 1.0625,1.078125 1.203125,0 1.859375,-1.75 1.859375,-1.828125 0,-0.078125 -0.0625,-0.109375 -0.125,-0.109375 -0.03125,0 -0.078125,0 -0.09375,0.046875 C 3.40625,-1.75 3.390625,-1.75 3.3125,-1.546875 c -0.25,0.59375 -0.796875,1.421875 -1.5,1.421875 -0.359375,0 -0.375,-0.296875 -0.375,-0.5625 0,0 0,-0.234375 0.03125,-0.375 z m 0,0"
                 id="id-3619ecc8-807f-4904-87d3-d979cff4aa6c" />
            </g>
          </g>
        </g>
      </g>
      <path
         style="opacity:1;fill:none;fill-opacity:0.999955;stroke:#000000;stroke-width:0.291514;stroke-dasharray:1.74908, 1.74908;stroke-dashoffset:0"
         d="M -34.992112,59.43588 V -4.6338309 h -37.112781"
         id="path2513" />
      <path
         style="opacity:1;fill:none;fill-opacity:0.999955;stroke:#000000;stroke-width:0.293563;stroke-dasharray:none;stroke-dashoffset:0;marker-start:url(#marker2712);marker-end:url(#marker2776)"
         d="m -64.802847,12.734447 h 29.125324"
         id="path2517" />
      <path
         style="fill:none;fill-opacity:0.999955;stroke:#000000;stroke-width:0.29236917;stroke-dasharray:none;stroke-dashoffset:0;marker-start:url(#marker2712-3);marker-end:url(#marker2776-7)"
         d="M -31.561504,-4.3216317 V 11.825841"
         id="path2517-3" />
      <g
         transform="matrix(0.859512,0,0,0.859512,-56.810895,14.614531)"
         ns4:version="1.8.2"
         ns4:texconverter="pdflatex"
         ns4:pdfconverter="inkscape"
         ns4:text="$\\Delta t$"
         ns4:preamble="/usr/share/inkscape/extensions/textext/default_packages.tex"
         ns4:scale="1.0"
         ns4:alignment="middle center"
         ns4:stroke-to-path="0"
         ns4:inkscapeversion="1.2.2"
         ns4:jacobian_sqrt="0.859512"
         id="g3371">
        <defs
           id="id-c80cc574-5252-46d5-83e6-af51a13cdc96">
          <g
             id="id-4c5da4b5-f79c-4c9b-a958-15ee7e64752d">
            <symbol
               overflow="visible"
               id="id-0db168b2-0b79-4a77-8b29-7d066e3a1bf8">
              <path
                 style="stroke:none;stroke-width:0"
                 d=""
                 id="id-c2980997-5eb9-4155-9deb-bd2dc8bfda5c" />
            </symbol>
            <symbol
               overflow="visible"
               id="id-d0312e5a-5457-4133-a3c3-40202959b57e">
              <path
                 style="stroke:none;stroke-width:0"
                 d="M 5.15625,-8.3125 C 5.0625,-8.484375 5.046875,-8.53125 4.875,-8.53125 c -0.171875,0 -0.203125,0.046875 -0.28125,0.21875 l -4,8.078125 C 0.578125,-0.203125 0.546875,-0.125 0.546875,-0.078125 0.546875,-0.015625 0.5625,0 0.796875,0 H 8.9375 c 0.25,0 0.25,-0.015625 0.25,-0.078125 0,-0.046875 -0.015625,-0.125 -0.046875,-0.15625 z M 4.5,-7.4375 7.765625,-0.828125 H 1.25 Z m 0,0"
                 id="id-2f32b50a-93c3-46c2-80f0-229c878b7c87" />
            </symbol>
            <symbol
               overflow="visible"
               id="id-bbf8c627-a98d-4e56-b596-c492aa8a277e">
              <path
                 style="stroke:none;stroke-width:0"
                 d=""
                 id="id-2624da56-e287-43d3-ae76-4c12a36c8be0" />
            </symbol>
            <symbol
               overflow="visible"
               id="id-ed893c51-21b0-4fcc-b826-0c646284191a">
              <path
                 style="stroke:none;stroke-width:0"
                 d="M 2.40625,-4.8125 H 3.5 c 0.234375,0 0.34375,0 0.34375,-0.203125 0,-0.140625 -0.0625,-0.140625 -0.3125,-0.140625 H 2.484375 l 0.4375,-1.734375 C 2.96875,-7.0625 2.96875,-7.09375 2.96875,-7.171875 c 0,-0.1875 -0.140625,-0.296875 -0.296875,-0.296875 -0.109375,0 -0.375,0.03125 -0.46875,0.421875 l -0.46875,1.890625 h -1.125 c -0.234375,0 -0.34375,0 -0.34375,0.234375 0,0.109375 0.078125,0.109375 0.3125,0.109375 h 1.0625 L 0.84375,-1.65625 c -0.09375,0.421875 -0.125,0.546875 -0.125,0.703125 0,0.5625 0.390625,1.078125 1.0625,1.078125 1.203125,0 1.859375,-1.75 1.859375,-1.828125 0,-0.078125 -0.0625,-0.109375 -0.125,-0.109375 -0.03125,0 -0.078125,0 -0.09375,0.046875 C 3.40625,-1.75 3.390625,-1.75 3.3125,-1.546875 c -0.25,0.59375 -0.796875,1.421875 -1.5,1.421875 -0.359375,0 -0.375,-0.296875 -0.375,-0.5625 0,0 0,-0.234375 0.03125,-0.375 z m 0,0"
                 id="id-000a8dcd-10e1-42be-8b9e-62b4552a0461" />
            </symbol>
          </g>
        </defs>
        <g
           id="id-7fad53cc-f37f-49ba-ac90-1210d30bc8dd"
           transform="translate(-128.96,-129.222)">
          <g
             style="fill:#000000;fill-opacity:1"
             id="id-354acb59-9435-4dd1-ae5b-f2709649a2d0">
            <g
               transform="translate(128.413,137.753)"
               id="g3363">
              <path
                 style="stroke:none;stroke-width:0"
                 d="M 5.15625,-8.3125 C 5.0625,-8.484375 5.046875,-8.53125 4.875,-8.53125 c -0.171875,0 -0.203125,0.046875 -0.28125,0.21875 l -4,8.078125 C 0.578125,-0.203125 0.546875,-0.125 0.546875,-0.078125 0.546875,-0.015625 0.5625,0 0.796875,0 H 8.9375 c 0.25,0 0.25,-0.015625 0.25,-0.078125 0,-0.046875 -0.015625,-0.125 -0.046875,-0.15625 z M 4.5,-7.4375 7.765625,-0.828125 H 1.25 Z m 0,0"
                 id="id-b068382a-750d-48f2-a958-0e9440160c33" />
            </g>
          </g>
          <g
             style="fill:#000000;fill-opacity:1"
             id="id-ff3b3511-4bf9-4e35-8ae1-927b7e760b64">
            <g
               transform="translate(138.168,137.753)"
               id="g3367">
              <path
                 style="stroke:none;stroke-width:0"
                 d="M 2.40625,-4.8125 H 3.5 c 0.234375,0 0.34375,0 0.34375,-0.203125 0,-0.140625 -0.0625,-0.140625 -0.3125,-0.140625 H 2.484375 l 0.4375,-1.734375 C 2.96875,-7.0625 2.96875,-7.09375 2.96875,-7.171875 c 0,-0.1875 -0.140625,-0.296875 -0.296875,-0.296875 -0.109375,0 -0.375,0.03125 -0.46875,0.421875 l -0.46875,1.890625 h -1.125 c -0.234375,0 -0.34375,0 -0.34375,0.234375 0,0.109375 0.078125,0.109375 0.3125,0.109375 h 1.0625 L 0.84375,-1.65625 c -0.09375,0.421875 -0.125,0.546875 -0.125,0.703125 0,0.5625 0.390625,1.078125 1.0625,1.078125 1.203125,0 1.859375,-1.75 1.859375,-1.828125 0,-0.078125 -0.0625,-0.109375 -0.125,-0.109375 -0.03125,0 -0.078125,0 -0.09375,0.046875 C 3.40625,-1.75 3.390625,-1.75 3.3125,-1.546875 c -0.25,0.59375 -0.796875,1.421875 -1.5,1.421875 -0.359375,0 -0.375,-0.296875 -0.375,-0.5625 0,0 0,-0.234375 0.03125,-0.375 z m 0,0"
                 id="id-86d7fab7-92ac-441e-b17e-bc922ca2743e" />
            </g>
          </g>
        </g>
      </g>
      <g
         transform="matrix(0.859512,0,0,0.859512,-29.483866,0.35380854)"
         ns4:version="1.8.2"
         ns4:texconverter="pdflatex"
         ns4:pdfconverter="inkscape"
         ns4:text="$\\Delta x$"
         ns4:preamble="/usr/share/inkscape/extensions/textext/default_packages.tex"
         ns4:scale="1.0"
         ns4:alignment="middle center"
         ns4:stroke-to-path="0"
         ns4:inkscapeversion="1.2.2"
         ns4:jacobian_sqrt="0.859512"
         id="g3810">
        <defs
           id="id-1eac9363-cbd4-407d-a7d4-5fe43eac3593">
          <g
             id="id-78b00771-3388-4fe5-8718-29640cb45d18">
            <symbol
               overflow="visible"
               id="id-ec1d8349-fc28-4487-8109-a53434faba50">
              <path
                 style="stroke:none;stroke-width:0"
                 d=""
                 id="id-9bab4f3b-9731-43af-b39f-3f01d73cd3ef" />
            </symbol>
            <symbol
               overflow="visible"
               id="id-e2665c94-291b-46db-8ab7-91c132070eb0">
              <path
                 style="stroke:none;stroke-width:0"
                 d="M 5.15625,-8.3125 C 5.0625,-8.484375 5.046875,-8.53125 4.875,-8.53125 c -0.171875,0 -0.203125,0.046875 -0.28125,0.21875 l -4,8.078125 C 0.578125,-0.203125 0.546875,-0.125 0.546875,-0.078125 0.546875,-0.015625 0.5625,0 0.796875,0 H 8.9375 c 0.25,0 0.25,-0.015625 0.25,-0.078125 0,-0.046875 -0.015625,-0.125 -0.046875,-0.15625 z M 4.5,-7.4375 7.765625,-0.828125 H 1.25 Z m 0,0"
                 id="id-135d0576-ddc7-4114-939f-f8e7f4c67505" />
            </symbol>
            <symbol
               overflow="visible"
               id="id-1f0c5e9c-8dae-4e29-b1ad-b1df26a37c08">
              <path
                 style="stroke:none;stroke-width:0"
                 d=""
                 id="id-e72de409-50ea-498c-91b6-b92f80dce07d" />
            </symbol>
            <symbol
               overflow="visible"
               id="id-6319c281-4134-4b84-8eb9-2e26e5c02300">
              <path
                 style="stroke:none;stroke-width:0"
                 d="m 5.671875,-4.875 c -0.390625,0.0625 -0.53125,0.359375 -0.53125,0.578125 0,0.296875 0.21875,0.390625 0.390625,0.390625 0.359375,0 0.609375,-0.3125 0.609375,-0.640625 0,-0.5 -0.578125,-0.71875 -1.078125,-0.71875 -0.71875,0 -1.125,0.71875 -1.234375,0.9375 -0.28125,-0.890625 -1.015625,-0.9375 -1.234375,-0.9375 -1.21875,0 -1.859375,1.5625 -1.859375,1.828125 0,0.046875 0.046875,0.109375 0.125,0.109375 0.09375,0 0.125,-0.078125 0.140625,-0.125 0.40625,-1.328125 1.21875,-1.578125 1.5625,-1.578125 0.53125,0 0.640625,0.5 0.640625,0.78125 0,0.265625 -0.078125,0.546875 -0.21875,1.125 L 2.578125,-1.5 c -0.171875,0.71875 -0.515625,1.375 -1.15625,1.375 -0.0625,0 -0.359375,0 -0.609375,-0.15625 C 1.25,-0.359375 1.34375,-0.71875 1.34375,-0.859375 1.34375,-1.09375 1.15625,-1.25 0.9375,-1.25 c -0.296875,0 -0.609375,0.265625 -0.609375,0.640625 0,0.5 0.5625,0.734375 1.078125,0.734375 0.578125,0 0.984375,-0.453125 1.234375,-0.953125 C 2.828125,-0.125 3.4375,0.125 3.875,0.125 5.09375,0.125 5.734375,-1.453125 5.734375,-1.703125 5.734375,-1.765625 5.6875,-1.8125 5.625,-1.8125 5.515625,-1.8125 5.5,-1.75 5.46875,-1.65625 5.140625,-0.609375 4.453125,-0.125 3.90625,-0.125 3.484375,-0.125 3.265625,-0.4375 3.265625,-0.921875 3.265625,-1.1875 3.3125,-1.375 3.5,-2.15625 L 3.921875,-3.796875 C 4.09375,-4.5 4.5,-5.03125 5.0625,-5.03125 c 0.015625,0 0.359375,0 0.609375,0.15625 z m 0,0"
                 id="id-e25062af-aecb-4792-8c54-05d548462e96" />
            </symbol>
          </g>
        </defs>
        <g
           id="id-f0d2a90b-7235-47b1-a6e3-9c715b3d3d7f"
           transform="translate(-128.96,-129.222)">
          <g
             style="fill:#000000;fill-opacity:1"
             id="id-bd9310f4-8ebd-4322-903f-c9802efc1536">
            <g
               transform="translate(128.413,137.753)"
               id="g3802">
              <path
                 style="stroke:none;stroke-width:0"
                 d="M 5.15625,-8.3125 C 5.0625,-8.484375 5.046875,-8.53125 4.875,-8.53125 c -0.171875,0 -0.203125,0.046875 -0.28125,0.21875 l -4,8.078125 C 0.578125,-0.203125 0.546875,-0.125 0.546875,-0.078125 0.546875,-0.015625 0.5625,0 0.796875,0 H 8.9375 c 0.25,0 0.25,-0.015625 0.25,-0.078125 0,-0.046875 -0.015625,-0.125 -0.046875,-0.15625 z M 4.5,-7.4375 7.765625,-0.828125 H 1.25 Z m 0,0"
                 id="id-30c427e0-7aeb-4b86-a1ab-7497e00b1833" />
            </g>
          </g>
          <g
             style="fill:#000000;fill-opacity:1"
             id="id-a5c391b2-8104-4dd3-9bb2-0e401feb18f0">
            <g
               transform="translate(138.168,137.753)"
               id="g3806">
              <path
                 style="stroke:none;stroke-width:0"
                 d="m 5.671875,-4.875 c -0.390625,0.0625 -0.53125,0.359375 -0.53125,0.578125 0,0.296875 0.21875,0.390625 0.390625,0.390625 0.359375,0 0.609375,-0.3125 0.609375,-0.640625 0,-0.5 -0.578125,-0.71875 -1.078125,-0.71875 -0.71875,0 -1.125,0.71875 -1.234375,0.9375 -0.28125,-0.890625 -1.015625,-0.9375 -1.234375,-0.9375 -1.21875,0 -1.859375,1.5625 -1.859375,1.828125 0,0.046875 0.046875,0.109375 0.125,0.109375 0.09375,0 0.125,-0.078125 0.140625,-0.125 0.40625,-1.328125 1.21875,-1.578125 1.5625,-1.578125 0.53125,0 0.640625,0.5 0.640625,0.78125 0,0.265625 -0.078125,0.546875 -0.21875,1.125 L 2.578125,-1.5 c -0.171875,0.71875 -0.515625,1.375 -1.15625,1.375 -0.0625,0 -0.359375,0 -0.609375,-0.15625 C 1.25,-0.359375 1.34375,-0.71875 1.34375,-0.859375 1.34375,-1.09375 1.15625,-1.25 0.9375,-1.25 c -0.296875,0 -0.609375,0.265625 -0.609375,0.640625 0,0.5 0.5625,0.734375 1.078125,0.734375 0.578125,0 0.984375,-0.453125 1.234375,-0.953125 C 2.828125,-0.125 3.4375,0.125 3.875,0.125 5.09375,0.125 5.734375,-1.453125 5.734375,-1.703125 5.734375,-1.765625 5.6875,-1.8125 5.625,-1.8125 5.515625,-1.8125 5.5,-1.75 5.46875,-1.65625 5.140625,-0.609375 4.453125,-0.125 3.90625,-0.125 3.484375,-0.125 3.265625,-0.4375 3.265625,-0.921875 3.265625,-1.1875 3.3125,-1.375 3.5,-2.15625 L 3.921875,-3.796875 C 4.09375,-4.5 4.5,-5.03125 5.0625,-5.03125 c 0.015625,0 0.359375,0 0.609375,0.15625 z m 0,0"
                 id="id-d16e0a34-328c-4dfe-8a35-7cc3367b9858" />
            </g>
          </g>
        </g>
      </g>
      <path
         style="fill:none;fill-opacity:0.999955;stroke:#000000;stroke-width:0.29236917;stroke-dasharray:none"
         d="M -72.201052,16.763348 C -42.242475,-2.0028125 -12.283884,-40.46126 17.674681,70.769612"
         title="0.000895401*x*x*x*x"
         id="path19032"
         sodipodi:nodetypes="cc" />
      <path
         style="fill:#0712ff;fill-opacity:0.556863;stroke:#000000;stroke-width:0.292369;stroke-dasharray:none;stroke-dashoffset:0;stroke-opacity:1"
         d="m -73.330278,-4.669494 h 2.329786"
         id="path30424-65" />
      <path
         style="fill:#0712ff;fill-opacity:0.556863;stroke:#000000;stroke-width:0.292369;stroke-dasharray:none;stroke-dashoffset:0;stroke-opacity:1"
         d="m -73.330278,12.146233 h 2.329786"
         id="path30424-65-3" />
      <path
         style="fill:#0712ff;fill-opacity:0.556863;stroke:#000000;stroke-width:0.292369;stroke-dasharray:none;stroke-dashoffset:0;stroke-opacity:1"
         d="M -65.547172,58.497604 V 60.82739"
         id="path30424-65-6" />
      <path
         style="fill:#0712ff;fill-opacity:0.556863;stroke:#000000;stroke-width:0.292369;stroke-dasharray:none;stroke-dashoffset:0;stroke-opacity:1"
         d="M -34.99291,60.82739 V 58.497604"
         id="path30424-65-7" />
    </g>
  </g>
</svg>
